<svg width="17" height="17" viewBox="0 0 17 17" fill="none" xmlns="http://www.w3.org/2000/svg">
<g clip-path="url(#clip0_1_8086)">
<path d="M8.22548 15.6193C12.1464 15.6193 15.2941 12.444 15.2941 8.52309C15.2941 4.60221 12.1464 1.45448 8.22548 1.45448C4.3046 1.45448 1.12925 4.60222 1.12925 8.52309C1.12925 12.4439 4.30462 15.6193 8.22548 15.6193ZM8.22548 16.3372C3.91805 16.3372 0.438965 12.8305 0.438965 8.52309C0.438965 4.21564 3.91805 0.736572 8.22548 0.736572C12.5329 0.736572 16.012 4.21566 16.012 8.52309C16.012 12.8305 12.5329 16.3372 8.22548 16.3372ZM8.63966 4.10521C8.39115 4.10521 8.19787 4.18805 8.00458 4.35371C7.83893 4.5194 7.72848 4.74028 7.72848 4.98879C7.72848 5.23731 7.81132 5.43057 8.0046 5.62386C8.17025 5.78953 8.39115 5.87236 8.63966 5.87236C8.88816 5.87236 9.08145 5.78951 9.27474 5.62386C9.4404 5.45819 9.52324 5.23729 9.52324 4.98878C9.52324 4.74028 9.4404 4.547 9.27473 4.35371C9.08145 4.18804 8.88818 4.10521 8.63965 4.10521H8.63966ZM8.58444 12.0022C8.5016 11.9193 8.47399 11.7537 8.47399 11.5328C8.47399 11.4499 8.47399 11.3119 8.5016 11.1462C8.52922 10.9805 8.55682 10.8149 8.58444 10.6768L8.91578 8.96488C8.94339 8.7992 8.97101 8.63353 8.97101 8.44026C8.97101 8.24698 8.99861 8.10891 8.99861 8.05371C8.99861 7.69474 8.91577 7.391 8.72249 7.17011C8.55682 6.94921 8.30832 6.83878 7.97698 6.83878C7.81131 6.83878 7.61803 6.89401 7.39714 6.97683C7.20384 7.05968 6.98295 7.17011 6.76205 7.30818L6.67921 7.83279C6.73445 7.80519 6.81728 7.74995 6.90012 7.72235C6.98296 7.69474 7.0934 7.66712 7.17624 7.66712C7.34191 7.66712 7.47996 7.72235 7.53519 7.80519C7.59041 7.88803 7.61803 8.05369 7.61803 8.27459C7.61803 8.38503 7.61803 8.52309 7.59041 8.66114C7.56281 8.7992 7.53519 8.96488 7.50757 9.13055L7.20386 10.8425C7.17624 11.0358 7.14862 11.1738 7.14862 11.3119C7.12102 11.4499 7.12102 11.588 7.12102 11.7261C7.12102 12.085 7.20386 12.3611 7.39714 12.6096C7.59041 12.8305 7.83893 12.941 8.17025 12.941C8.39115 12.941 8.55682 12.9134 8.72249 12.8305C8.88818 12.7477 9.10906 12.6373 9.35757 12.4716L9.44042 11.9469L9.21951 12.0574C9.10906 12.085 9.02623 12.1126 8.94339 12.1126C8.77772 12.1402 8.63966 12.085 8.58444 12.0022Z" fill="#777777"/>
</g>
<defs>
<clipPath id="clip0_1_8086">
<rect width="16" height="15.7387" fill="white" transform="translate(0.162842 0.626099)"/>
</clipPath>
</defs>
</svg>
