<svg width="15" height="15" viewBox="0 0 15 15" fill="none" xmlns="http://www.w3.org/2000/svg">
<g clip-path="url(#clip0_1_10533)">
<path d="M2.1595 5.52858C2.1595 5.84554 2.41883 6.10486 2.73578 6.10486C3.05273 6.10486 3.31206 5.84554 3.31206 5.52858V4.37602H4.46462C4.78157 4.37602 5.0409 4.1167 5.0409 3.79975C5.0409 3.48279 4.78157 3.22347 4.46462 3.22347H3.31206V2.07091C3.31206 1.75395 3.05273 1.49463 2.73578 1.49463C2.41883 1.49463 2.1595 1.75395 2.1595 2.07091V3.22347H1.00694C0.68999 3.22347 0.430664 3.48279 0.430664 3.79975C0.430664 4.1167 0.68999 4.37602 1.00694 4.37602H2.1595V5.52858Z" fill="#132183"/>
<path d="M7.9222 10.7151C8.87701 10.7151 9.65103 9.94109 9.65103 8.98628C9.65103 8.03147 8.87701 7.25745 7.9222 7.25745C6.96739 7.25745 6.19336 8.03147 6.19336 8.98628C6.19336 9.94109 6.96739 10.7151 7.9222 10.7151Z" fill="#132183"/>
<path d="M12.531 4.37631H10.7042L9.98959 3.59834C9.77637 3.36206 9.46518 3.22375 9.14246 3.22375H5.45428C5.55224 3.39664 5.61563 3.58681 5.61563 3.80003C5.61563 4.43394 5.09698 4.95259 4.46308 4.95259H3.8868V5.52887C3.8868 6.16278 3.36815 6.68143 2.73424 6.68143C2.52101 6.68143 2.33084 6.61804 2.15796 6.52007V12.4442C2.15796 13.0781 2.67661 13.5968 3.31052 13.5968H12.531C13.1649 13.5968 13.6835 13.0781 13.6835 12.4442V5.52887C13.6835 4.89496 13.1649 4.37631 12.531 4.37631ZM7.92075 11.8679C6.33022 11.8679 5.03935 10.5771 5.03935 8.98655C5.03935 7.39602 6.33022 6.10515 7.92075 6.10515C9.51128 6.10515 10.8021 7.39602 10.8021 8.98655C10.8021 10.5771 9.51128 11.8679 7.92075 11.8679Z" fill="#132183"/>
</g>
<defs>
<clipPath id="clip0_1_10533">
<rect width="13.8307" height="13.8307" fill="white" transform="translate(0.430664 0.918335)"/>
</clipPath>
</defs>
</svg>
