<svg width="31" height="31" viewBox="0 0 31 31" fill="none" xmlns="http://www.w3.org/2000/svg">
<path d="M11.1592 16.2322C10.7931 15.8661 10.1995 15.8661 9.83342 16.2322C9.46731 16.5983 9.46731 17.1918 9.83342 17.558L14.8335 22.558C15.0165 22.7411 15.2565 22.8326 15.4963 22.8326C15.6235 22.8326 15.7447 22.8073 15.8552 22.7615C15.9657 22.7157 16.0693 22.6479 16.1592 22.558L21.1592 17.558C21.5253 17.1918 21.5253 16.5983 21.1592 16.2322C20.7931 15.8661 20.1996 15.8661 19.8335 16.2322L16.4338 19.6318L16.4338 7.5201C16.4338 7.00235 16.0141 6.5826 15.4963 6.5826C14.9786 6.5826 14.5588 7.00235 14.5588 7.5201L14.5588 19.6318L11.1592 16.2322Z" fill="#3A3A3A"/>
</svg>
