<svg width="31" height="31" viewBox="0 0 31 31" fill="none" xmlns="http://www.w3.org/2000/svg">
<path d="M19.8481 13.808C20.2142 14.1741 20.8078 14.1741 21.1739 13.808C21.54 13.4418 21.54 12.8483 21.1739 12.4822L16.1739 7.48218C15.9909 7.29912 15.7509 7.2076 15.511 7.2076C15.3839 7.2076 15.2626 7.2329 15.1521 7.27873C15.0416 7.32448 14.938 7.3923 14.8481 7.48218L9.84811 12.4822C9.48199 12.8483 9.48199 13.4418 9.84811 13.808C10.2142 14.1741 10.8077 14.1741 11.1739 13.808L14.5735 10.4084L14.5735 22.5201C14.5735 23.0378 14.9932 23.4576 15.511 23.4576C16.0287 23.4576 16.4485 23.0378 16.4485 22.5201L16.4485 10.4084L19.8481 13.808Z" fill="#3A3A3A"/>
</svg>
