<svg width="25" height="25" viewBox="0 0 25 25" fill="none" xmlns="http://www.w3.org/2000/svg">
<g clip-path="url(#clip0_1_11561)">
<path fill-rule="evenodd" clip-rule="evenodd" d="M4.33936 5.28223C4.33936 4.48658 4.65543 3.72352 5.21804 3.16091C5.78064 2.5983 6.54371 2.28223 7.33936 2.28223H17.3394C18.135 2.28223 18.8981 2.5983 19.4607 3.16091C20.0233 3.72352 20.3394 4.48658 20.3394 5.28223V21.2822C20.3392 21.4706 20.2859 21.6551 20.1856 21.8144C20.0852 21.9738 19.9419 22.1016 19.7721 22.1831C19.6023 22.2646 19.4129 22.2965 19.2258 22.2751C19.0387 22.2537 18.8614 22.1799 18.7144 22.0622L16.8394 20.5622L14.9644 22.0622C14.7723 22.2161 14.5302 22.2938 14.2844 22.2803C14.0386 22.2668 13.8065 22.1632 13.6324 21.9892L12.3394 20.6962L11.0464 21.9892C10.8724 22.1633 10.6403 22.2671 10.3945 22.2808C10.1487 22.2945 9.90657 22.217 9.71436 22.0632L7.83936 20.5622L5.96436 22.0622C5.81733 22.1799 5.64004 22.2537 5.45292 22.2751C5.26579 22.2965 5.07642 22.2646 4.90662 22.1831C4.73683 22.1016 4.5935 21.9738 4.49314 21.8144C4.39278 21.6551 4.33947 21.4706 4.33936 21.2822V5.28223ZM7.33936 4.28223C7.07414 4.28223 6.81979 4.38758 6.63225 4.57512C6.44471 4.76266 6.33936 5.01701 6.33936 5.28223V19.2022L7.21436 18.5022C7.39172 18.3602 7.61215 18.2829 7.83936 18.2829C8.06656 18.2829 8.28699 18.3602 8.46436 18.5022L10.2644 19.9422L11.6324 18.5752C11.8199 18.3878 12.0742 18.2824 12.3394 18.2824C12.6045 18.2824 12.8588 18.3878 13.0464 18.5752L14.4134 19.9422L16.2144 18.5022C16.3917 18.3602 16.6122 18.2829 16.8394 18.2829C17.0666 18.2829 17.287 18.3602 17.4644 18.5022L18.3394 19.2022V5.28223C18.3394 5.01701 18.234 4.76266 18.0465 4.57512C17.8589 4.38758 17.6046 4.28223 17.3394 4.28223H7.33936ZM8.33936 9.28223C8.33936 9.01701 8.44471 8.76266 8.63225 8.57512C8.81979 8.38758 9.07414 8.28223 9.33936 8.28223H15.3394C15.6046 8.28223 15.8589 8.38758 16.0465 8.57512C16.234 8.76266 16.3394 9.01701 16.3394 9.28223C16.3394 9.54744 16.234 9.8018 16.0465 9.98933C15.8589 10.1769 15.6046 10.2822 15.3394 10.2822H9.33936C9.07414 10.2822 8.81979 10.1769 8.63225 9.98933C8.44471 9.8018 8.33936 9.54744 8.33936 9.28223ZM9.33936 12.2822C9.07414 12.2822 8.81979 12.3876 8.63225 12.5751C8.44471 12.7627 8.33936 13.017 8.33936 13.2822C8.33936 13.5474 8.44471 13.8018 8.63225 13.9893C8.81979 14.1769 9.07414 14.2822 9.33936 14.2822H12.3394C12.6046 14.2822 12.8589 14.1769 13.0465 13.9893C13.234 13.8018 13.3394 13.5474 13.3394 13.2822C13.3394 13.017 13.234 12.7627 13.0465 12.5751C12.8589 12.3876 12.6046 12.2822 12.3394 12.2822H9.33936Z" fill="white"/>
</g>
<defs>
<clipPath id="clip0_1_11561">
<rect width="24" height="24" fill="white" transform="translate(0.339355 0.282227)"/>
</clipPath>
</defs>
</svg>
