<svg width="27" height="17" viewBox="0 0 27 17" fill="none" xmlns="http://www.w3.org/2000/svg">
<path fill-rule="evenodd" clip-rule="evenodd" d="M0.369614 0.654785V16.9406H26.3696V0.654785H0.369614Z" fill="#0160B4"/>
<path fill-rule="evenodd" clip-rule="evenodd" d="M0.641098 0.925781H26.099V16.6695H0.641098V0.925781Z" fill="white"/>
<path fill-rule="evenodd" clip-rule="evenodd" d="M1.3717 1.79224H25.2032V5.16103H1.3717V1.79224Z" fill="#0160B4"/>
<path fill-rule="evenodd" clip-rule="evenodd" d="M1.3717 12.4377H25.2032V15.8065H1.3717V12.4377Z" fill="#FFB926"/>
<path d="M21.9292 6.71778C22.0886 6.71778 22.229 6.59961 22.229 6.42432C22.229 6.24904 22.0886 6.13086 21.9292 6.13086C21.7698 6.13086 21.6294 6.24904 21.6294 6.42432C21.6294 6.59961 21.7698 6.71778 21.9292 6.71778ZM21.7008 6.42432C21.7008 6.28711 21.8015 6.18797 21.9292 6.18797C22.0553 6.18797 22.1576 6.28711 22.1576 6.42432C22.1576 6.56154 22.0553 6.66068 21.9292 6.66068C21.8015 6.66068 21.7008 6.56154 21.7008 6.42432ZM21.8721 6.44256H21.9205L22.0037 6.58533H22.0672L21.976 6.44018C22.0275 6.43463 22.0648 6.41084 22.0648 6.35056C22.0648 6.28076 22.0204 6.253 21.9395 6.253H21.8142V6.58533H21.8721V6.44256ZM21.8721 6.39498V6.30059H21.9339C21.9665 6.30059 22.0037 6.30694 22.0037 6.3458C22.0037 6.39022 21.972 6.39498 21.9332 6.39498H21.8721Z" fill="#0160B4"/>
<path d="M24.689 15.5958C24.8484 15.5958 24.9888 15.4777 24.9888 15.3024C24.9888 15.1271 24.8484 15.0089 24.689 15.0089C24.5295 15.0089 24.3891 15.1271 24.3891 15.3024C24.3891 15.4777 24.5295 15.5958 24.689 15.5958ZM24.4605 15.3024C24.4605 15.1652 24.5613 15.066 24.689 15.066C24.8151 15.066 24.9174 15.1652 24.9174 15.3024C24.9174 15.4396 24.8151 15.5387 24.689 15.5387C24.5613 15.5387 24.4605 15.4396 24.4605 15.3024ZM24.6318 15.3206H24.6802L24.7635 15.4634H24.827L24.7358 15.3182C24.7873 15.3127 24.8246 15.2889 24.8246 15.2286C24.8246 15.1588 24.7802 15.1311 24.6993 15.1311H24.574V15.4634H24.6318V15.3206ZM24.6318 15.273V15.1786H24.6937C24.7262 15.1786 24.7635 15.185 24.7635 15.2239C24.7635 15.2683 24.7318 15.273 24.6929 15.273H24.6318Z" fill="#0160B4"/>
<path d="M13.1189 7.40061C13.3349 6.53723 14.0438 5.94775 15.2507 5.94775C16.3811 5.94775 17.2195 6.65381 17.2195 6.65381L16.3641 7.54996C16.3641 7.54996 15.7317 7.06115 15.3593 7.06115C14.8668 7.06115 14.6444 7.24098 14.5989 7.53639C14.5082 8.12541 16.607 8.4859 16.5406 9.85824C16.4962 10.7747 15.5477 11.6641 14.4631 11.6641C12.8368 11.6641 12.0327 11.0124 12.0327 11.0124L12.7659 9.96686C12.7659 9.96686 13.5008 10.5556 14.1916 10.5236C14.6576 10.502 15.0168 10.3234 14.9927 10.0076C14.9381 9.29185 12.728 8.96332 13.1189 7.40061ZM19.2563 6.12418L16.4727 11.4605H18.0343L18.4404 10.6457H20.2531L20.3153 11.4605H21.7545L21.3473 6.12418H19.2563ZM20.0126 7.49359L20.1848 9.74974H18.8874L20.0126 7.49359ZM11.3266 6.01564H12.7659L11.0007 11.4604H9.56145L11.3266 6.01564ZM4.35789 6.02045V6.1869C5.12223 6.21121 5.39205 6.56456 5.4349 6.98949L5.88555 11.4584H7.36848L10.5368 6.01887H9.05384L7.14964 9.28825L6.81992 6.01887L4.35789 6.02045Z" fill="#0160B4"/>
</svg>
