<svg width="31" height="31" viewBox="0 0 31 31" fill="none" xmlns="http://www.w3.org/2000/svg">
<path fill-rule="evenodd" clip-rule="evenodd" d="M24.8735 6.37071L15.8935 6.16821L6.91352 6.37071C6.10636 6.389 5.33016 6.6849 4.71565 7.20856C4.10114 7.73223 3.68586 8.45167 3.53977 9.24571C2.81259 13.2022 2.81259 17.258 3.53977 21.2145C3.68591 22.0087 4.10136 22.7283 4.71613 23.252C5.3309 23.7757 6.10739 24.0715 6.91477 24.0895L15.8935 24.2932L24.8735 24.0907C25.6807 24.0724 26.4569 23.7765 27.0714 23.2529C27.6859 22.7292 28.1012 22.0098 28.2473 21.2157C28.9735 17.2582 28.9735 13.2032 28.2473 9.24696C28.1011 8.45271 27.6857 7.73311 27.0709 7.20942C26.4562 6.68574 25.6797 6.38997 24.8723 6.37196L24.8735 6.37071ZM6.95602 8.24571L15.8935 8.04321L24.831 8.24571C25.606 8.26321 26.2623 8.82196 26.4023 9.58571C26.5948 10.6282 26.7323 11.6782 26.8173 12.7307H4.96852C5.05329 11.676 5.1918 10.6263 5.38352 9.58571C5.45156 9.21559 5.64511 8.88023 5.93154 8.63615C6.21798 8.39206 6.57979 8.25417 6.95602 8.24571ZM4.86977 15.2307C4.86977 17.1207 5.04102 19.0095 5.38477 20.8757C5.52477 21.6382 6.18102 22.1982 6.95602 22.2157L15.8935 22.4182L24.831 22.2157C25.207 22.207 25.5686 22.069 25.8547 21.8249C26.1409 21.5808 26.3343 21.2456 26.4023 20.8757C26.746 19.0095 26.9173 17.1207 26.9173 15.2307H4.86977Z" fill="#9B9A9A"/>
</svg>
