<svg width="17" height="17" viewBox="0 0 17 17" fill="none" xmlns="http://www.w3.org/2000/svg">
<g clip-path="url(#clip0_1_8084)">
<path d="M8.16284 7.93234C7.47646 7.93234 6.92001 8.48847 6.92001 9.17448C6.92001 9.57876 7.11337 9.93778 7.41256 10.1646V12.6665C7.41256 13.0809 7.74848 13.4168 8.16284 13.4168C8.5772 13.4168 8.91312 13.0809 8.91312 12.6665V10.1646C9.21233 9.9378 9.40567 9.57876 9.40567 9.17448C9.40567 8.48847 8.84922 7.93234 8.16284 7.93234ZM12.6648 5.42426H12.4068V5.16837C12.4068 2.82452 10.5067 0.924438 8.16284 0.924438C5.81899 0.924438 3.91891 2.82452 3.91891 5.16837V5.42426H3.66088C2.41771 5.42426 1.40991 6.43205 1.40991 7.67523V13.6735C1.40991 14.9166 2.41771 15.9244 3.66089 15.9244H12.6648C13.908 15.9244 14.9158 14.9166 14.9158 13.6735V7.67523C14.9158 6.43205 13.908 5.42426 12.6648 5.42426ZM4.90356 5.18384C4.90356 3.38813 6.35927 1.93243 8.15498 1.93243H8.17071C9.96642 1.93243 11.4221 3.38813 11.4221 5.18384V5.42425H4.90356V5.18384ZM13.9073 13.4158C13.9073 14.2446 13.2354 14.9164 12.4067 14.9164H3.91901C3.09022 14.9164 2.41837 14.2446 2.41837 13.4158V7.9329C2.41837 7.10412 3.09023 6.43225 3.91901 6.43225H12.4067C13.2354 6.43225 13.9073 7.10412 13.9073 7.9329V13.4158Z" fill="#777777"/>
</g>
<defs>
<clipPath id="clip0_1_8084">
<rect width="16" height="16" fill="white" transform="translate(0.162842 0.424438)"/>
</clipPath>
</defs>
</svg>
