<svg width="213" height="220" viewBox="0 0 213 220" fill="none" xmlns="http://www.w3.org/2000/svg">
<g clip-path="url(#clip0_1_10033)">
<path d="M9.72123 14.4084L16.3728 14.2665L19.7494 14.2107C20.8799 14.2107 22.0105 14.2107 23.1461 14.2107H23.3692V14.4388L23.3996 20.112V20.3655H23.1461L16.4489 20.3046C14.208 20.3046 11.9722 20.2489 9.73644 20.2184H9.59448V20.0816C9.59448 19.1183 9.64011 18.1652 9.66039 17.2171L9.72123 14.4084ZM9.72123 14.4084L9.79221 17.2779C9.79221 18.2209 9.84797 19.1538 9.85811 20.0816L9.72123 19.9447C11.957 19.9447 14.1928 19.8636 16.4337 19.8636L23.1461 19.8281L22.8926 20.0816L22.918 14.4084L23.1461 14.6366C22.0358 14.6366 20.9357 14.6366 19.8254 14.6061L16.4895 14.5504L9.72123 14.4084Z" fill="#EBEBEB"/>
<path d="M17.2093 7.25497L23.861 7.11302L27.2375 7.05725C28.368 7.05725 29.5037 7.05725 30.6342 7.05725H30.8573V7.28539L30.8877 12.9585V13.212H30.6444L23.9218 13.141C21.6809 13.141 19.4451 13.0853 17.2093 13.0549H17.0674V12.918C17.0674 11.9547 17.113 11.0016 17.1333 10.0535L17.2093 7.25497ZM17.2093 7.25497L17.2803 10.1245C17.2803 11.0675 17.3361 12.0003 17.3462 12.9281L17.2093 12.7912C19.4451 12.7912 21.6809 12.7101 23.9218 12.7101L30.6444 12.6746L30.3909 12.9281V7.25497L30.619 7.48312C29.5138 7.48312 28.4086 7.48312 27.2983 7.4527L23.9624 7.39693L17.2093 7.25497Z" fill="#EBEBEB"/>
<path d="M30.2286 80.1439L36.8802 80.002L40.2567 79.9462C41.3873 79.9208 42.523 79.9462 43.6535 79.9158H43.8766V80.1439L43.907 85.8171V86.0705H43.6535L36.9411 86.0351C34.7002 86.0351 32.4644 85.9793 30.2286 85.9539H30.0867V85.8171C30.0867 84.8538 30.1323 83.8956 30.1526 82.9475L30.2286 80.1439ZM30.2286 80.1439L30.2996 83.0084C30.2996 83.9514 30.3554 84.8893 30.3655 85.8171L30.2286 85.6751C32.4644 85.6751 34.7002 85.594 36.9411 85.594L43.6535 85.5636L43.4 85.8171V80.1439L43.6282 80.367C42.5179 80.367 41.4177 80.367 40.3074 80.367L36.9715 80.3112L30.2286 80.1439Z" fill="#EBEBEB"/>
<path d="M37.7421 72.9903L44.3937 72.8484L47.7702 72.7926C48.9007 72.7926 50.0364 72.7926 51.167 72.7622H51.39V72.9903L51.4205 78.6635V78.917H51.167L44.4545 78.8815C42.2136 78.8815 39.9778 78.8257 37.7421 78.8004H37.6001V78.6635C37.6001 77.7002 37.6457 76.742 37.6711 75.794L37.7421 72.9903ZM37.7421 72.9903L37.813 75.8548C37.813 76.7978 37.8688 77.7357 37.8789 78.6635L37.7421 78.5418C39.9778 78.5165 42.2136 78.4658 44.4545 78.4607L51.167 78.4303L50.9135 78.6838V73.0106L51.1416 73.2337C50.0364 73.2337 48.9312 73.2337 47.8209 73.2083L44.4849 73.1526L37.7421 72.9903Z" fill="#EBEBEB"/>
<path d="M2.2533 7.25497L8.90999 7.11302L12.2611 7.05725C13.3866 7.05725 14.5223 7.05725 15.6529 7.05725H15.881V7.28539L15.9064 12.9585V13.212H15.6478L8.9404 13.141C6.70461 13.141 4.46881 13.0853 2.22795 13.0549H2.09106V12.918C2.09106 11.9547 2.13669 11.0016 2.15697 10.0535L2.2533 7.25497ZM2.2533 7.25497L2.32935 10.1245C2.32935 11.0675 2.38511 12.0003 2.39525 12.9281L2.2533 12.7912C4.49416 12.7912 6.72996 12.7101 8.96575 12.7101L15.6782 12.6746L15.4247 12.9281L15.4349 7.25497L15.6579 7.48312C14.5527 7.48312 13.4526 7.48312 12.3423 7.4527L9.00631 7.39693L2.2533 7.25497Z" fill="#EBEBEB"/>
<path d="M201.634 130.462L194.983 130.604L191.606 130.665C190.476 130.665 189.345 130.665 188.21 130.69H187.986V130.462L187.956 124.794V124.535H188.21L194.922 124.566C197.163 124.566 199.399 124.621 201.634 124.647H201.776V124.784C201.776 125.742 201.731 126.7 201.711 127.648L201.634 130.462ZM201.634 130.462L201.563 127.597C201.563 126.654 201.508 125.722 201.498 124.794L201.634 124.931C199.399 124.956 197.163 125.012 194.922 125.012L188.21 125.042L188.463 124.794L188.438 130.462L188.21 130.239C189.32 130.239 190.42 130.239 191.53 130.239L194.866 130.3L201.634 130.462Z" fill="#EBEBEB"/>
<path d="M209.128 137.615L202.471 137.757L199.094 137.818C197.964 137.818 196.833 137.818 195.703 137.844H195.475V137.615L195.449 131.942V131.689H195.708L202.42 131.719C204.656 131.719 206.892 131.775 209.133 131.8H209.27V131.932C209.27 132.895 209.224 133.854 209.204 134.802L209.128 137.615ZM209.128 137.615L209.052 134.751C209.052 133.808 208.996 132.875 208.986 131.942L209.128 132.084C206.887 132.11 204.651 132.165 202.415 132.165L195.703 132.196L195.956 131.942L195.921 137.615L195.698 137.392C196.803 137.392 197.903 137.392 199.013 137.418L202.349 137.479L209.128 137.615Z" fill="#EBEBEB"/>
<path d="M23.2575 137.615L16.6059 137.757L13.2294 137.818C12.0988 137.818 10.9632 137.818 9.83259 137.844H9.60952V137.615L9.5791 131.942V131.689H9.85794L16.5704 131.719C18.8113 131.719 21.0471 131.775 23.2829 131.8H23.4248V131.932C23.4248 132.895 23.3792 133.854 23.3538 134.802L23.2575 137.615ZM23.2575 137.615L23.1865 134.751C23.1865 133.808 23.1308 132.875 23.1206 131.942L23.2575 132.084C21.0217 132.11 18.7859 132.165 16.545 132.165L9.85794 132.196L10.1114 131.942L10.0861 137.615L9.85794 137.392C10.9632 137.392 12.0684 137.392 13.1787 137.418L16.5146 137.479L23.2575 137.615Z" fill="#EBEBEB"/>
<path d="M188.154 7.25497L194.81 7.11302L198.187 7.05725C199.312 7.05725 200.448 7.05725 201.579 7.05725H201.807V7.28539L201.832 12.9585V13.212H201.579L194.866 13.141C192.63 13.141 190.39 13.0853 188.154 13.0549H188.017V12.918C188.017 11.9547 188.057 11.0016 188.083 10.0535L188.154 7.25497ZM188.154 7.25497L188.225 10.1245C188.25 11.0675 188.286 12.0003 188.291 12.9281L188.154 12.7912C190.39 12.7912 192.63 12.7101 194.866 12.7101L201.579 12.6746L201.325 12.9281L201.356 7.25497L201.579 7.48312C200.473 7.48312 199.368 7.48312 198.263 7.4527L194.907 7.39693L188.154 7.25497Z" fill="#EBEBEB"/>
<path d="M207.414 94.6537H139.914V0.390381H207.414V94.6537ZM141.917 92.6511H205.411V2.39296H141.917V92.6511Z" fill="#EBEBEB"/>
<path d="M174.668 2.91516H172.666V93.6499H174.668V2.91516Z" fill="#EBEBEB"/>
<path d="M209.234 4.44116H138.099V7.22957H209.234V4.44116Z" fill="#EBEBEB"/>
<path d="M209.234 7.57935H138.099V10.3678H209.234V7.57935Z" fill="#EBEBEB"/>
<path d="M209.234 10.7177H138.099V13.5061H209.234V10.7177Z" fill="#EBEBEB"/>
<path d="M209.234 13.8508H138.099V16.6392H209.234V13.8508Z" fill="#EBEBEB"/>
<path d="M209.234 16.989H138.099V19.7774H209.234V16.989Z" fill="#EBEBEB"/>
<path d="M209.234 20.1272H138.099V22.9156H209.234V20.1272Z" fill="#EBEBEB"/>
<path d="M209.234 23.2655H138.099V26.0539H209.234V23.2655Z" fill="#EBEBEB"/>
<path d="M209.234 26.4037H138.099V29.1921H209.234V26.4037Z" fill="#EBEBEB"/>
<path d="M209.234 29.5419H138.099V32.3303H209.234V29.5419Z" fill="#EBEBEB"/>
<path d="M203.282 3.87329H202.78V58.1458H203.282V3.87329Z" fill="#263238"/>
<path d="M203.921 60.478H202.146L202.593 57.9229H203.475L203.921 60.478Z" fill="#263238"/>
<path d="M205.087 3.87329H204.585V71.8344H205.087V3.87329Z" fill="#263238"/>
<path d="M205.726 73.7153H203.946L204.392 71.1602H205.28L205.726 73.7153Z" fill="#263238"/>
<path d="M212.342 0H134.992V5.83537H212.342V0Z" fill="#DBDBDB"/>
<path d="M57.0278 33.4609H0.336914V36.8273H57.0278V33.4609Z" fill="#EBEBEB"/>
<path d="M8.00748 36.8273H4.64111V47.9606H8.00748V36.8273Z" fill="#EBEBEB"/>
<path d="M8.00748 36.8273H4.64111V40.2697H8.00748V36.8273Z" fill="#DBDBDB"/>
<path d="M52.7235 36.8273H49.3572V47.9606H52.7235V36.8273Z" fill="#EBEBEB"/>
<path d="M52.7235 36.8273H49.3572V40.2697H52.7235V36.8273Z" fill="#DBDBDB"/>
<path d="M13.1179 33.4609L13.1179 12.0054H7.71348L7.71348 33.4609H13.1179Z" fill="#C7C7C7"/>
<path d="M13.1179 13.2221V10.8646H7.71348V13.2221H13.1179Z" fill="#DBDBDB"/>
<path d="M13.1179 17.1157V16.2386H7.71348V17.1157H13.1179Z" fill="#DBDBDB"/>
<path d="M13.7922 30.6471V28.2897H7.71858V30.6471H13.7922Z" fill="#DBDBDB"/>
<path d="M16.8899 33.4608V8.43616H13.1129L13.1129 33.4608H16.8899Z" fill="#DBDBDB"/>
<path d="M16.1194 20.4162V10.7886H13.8532V20.4162H16.1194Z" fill="#EBEBEB"/>
<path d="M43.7511 30.7824L25.9543 13.1895L23.299 15.8755L41.0958 33.4685L43.7511 30.7824Z" fill="#C7C7C7"/>
<path d="M39.0549 27.181L32.208 20.4126L30.6148 22.0243L37.4617 28.7927L39.0549 27.181Z" fill="#DBDBDB"/>
<path d="M23.3032 33.4659V14.4591H16.8899V33.4659H23.3032Z" fill="#A6A6A6"/>
<path d="M23.3032 31.4482V29.6788H16.8899V31.4482H23.3032Z" fill="#C7C7C7"/>
<path d="M23.3032 28.5177V27.8282H16.8899V28.5177H23.3032Z" fill="#C7C7C7"/>
<path d="M7.71851 33.4711L7.71851 15.605H3.28748L3.28748 33.4711H7.71851Z" fill="#A6A6A6"/>
<path d="M7.71851 31.5699V29.907H3.28747V31.5699H7.71851Z" fill="#C7C7C7"/>
<path d="M7.71362 20.9434V19.2805H3.28259V20.9434H7.71362Z" fill="#C7C7C7"/>
<path d="M7.71362 22.7331V22.0892H3.28259V22.7331H7.71362Z" fill="#C7C7C7"/>
<path d="M207.744 206.601C207.744 213.795 162.044 219.63 105.678 219.63C49.3115 219.63 3.61206 213.795 3.61206 206.601C3.61206 199.407 49.3115 193.571 105.678 193.571C162.044 193.571 207.744 199.407 207.744 206.601Z" fill="#EBEBEB"/>
<path d="M181.796 145.788C181.796 145.788 173.385 143.882 168.777 139.633C164.168 135.385 161.588 127.775 161.588 127.775C164.785 128.388 167.937 129.216 171.023 130.254C172.181 131.449 173.144 132.817 173.877 134.31C173.95 133.35 173.95 132.386 173.877 131.425C174.955 131.89 175.963 132.5 176.873 133.24C180.711 136.566 181.796 145.788 181.796 145.788Z" fill="#132183"/>
<path d="M166.84 131.471C165.694 130.68 164.528 129.914 163.388 129.113C163.317 129.068 163.388 128.956 163.454 129.002C165.623 130.295 167.758 131.679 169.826 133.129C170.546 133.636 171.256 134.158 171.956 134.695L171.809 134.447C171.555 134.026 171.302 133.61 171.023 133.195C170.496 132.352 169.899 131.554 169.238 130.812C169.213 130.786 169.238 130.746 169.279 130.771C169.933 131.527 170.587 132.292 171.185 133.078C171.469 133.458 171.733 133.854 171.986 134.254C172.118 134.467 172.245 134.675 172.361 134.893L172.488 135.106C173.578 135.963 174.638 136.855 175.647 137.793C176.272 138.374 176.875 138.976 177.456 139.598C177.127 138.584 176.843 137.57 176.468 136.556C176.468 136.52 176.513 136.505 176.524 136.556C176.889 137.605 177.289 138.665 177.573 139.745C178.217 140.439 178.835 141.159 179.413 141.915L179.383 141.778C179.287 141.377 179.19 140.982 179.084 140.591C178.881 139.831 178.653 139.071 178.399 138.325C177.915 136.777 177.148 135.332 176.138 134.062C176.113 134.031 176.138 133.991 176.179 134.021C177.755 135.987 178.858 138.289 179.403 140.749C179.495 141.104 179.576 141.463 179.657 141.823C179.702 142.016 179.753 142.209 179.784 142.406C180.037 142.751 180.291 143.096 180.529 143.451C181.957 145.645 183.146 147.985 184.078 150.432C185.135 153.176 186.042 155.975 186.795 158.818C186.792 158.826 186.786 158.834 186.778 158.84C186.771 158.845 186.761 158.848 186.752 158.848C186.743 158.848 186.733 158.845 186.726 158.84C186.718 158.834 186.712 158.826 186.709 158.818C185.061 153.895 183.383 148.901 180.564 144.505C179.97 143.576 179.329 142.677 178.643 141.813C177.249 141.724 175.874 141.451 174.551 141.002C173.109 140.513 171.733 139.847 170.455 139.02C169.727 138.528 169.024 137.998 168.351 137.433C168.347 137.431 168.342 137.429 168.339 137.425C168.336 137.422 168.333 137.417 168.332 137.413C168.331 137.408 168.331 137.403 168.331 137.399C168.332 137.394 168.334 137.389 168.337 137.386C168.34 137.382 168.344 137.379 168.348 137.377C168.353 137.375 168.358 137.374 168.362 137.374C168.367 137.374 168.372 137.375 168.376 137.378C168.38 137.38 168.384 137.383 168.387 137.387C169.562 138.336 170.86 139.122 172.245 139.725C173.604 140.348 175.027 140.824 176.488 141.144C177.107 141.281 177.74 141.382 178.369 141.469C177.591 140.51 176.764 139.593 175.89 138.721C175.606 138.437 175.312 138.163 175.018 137.889C174.038 137.204 172.997 136.608 171.91 136.11C170.531 135.441 169.172 134.736 167.809 134.041C167.038 133.651 166.288 133.25 165.502 132.87C165.466 132.87 165.502 132.809 165.532 132.824C166.911 133.494 168.316 134.117 169.71 134.756C171.104 135.395 172.356 135.963 173.614 136.667L173.776 136.764C172.635 135.75 171.454 134.827 170.227 133.915C169.122 133.093 167.991 132.282 166.84 131.471Z" fill="#263238"/>
<path d="M167.322 135.831C168.006 136.13 168.701 136.394 169.38 136.713C170.059 137.033 170.734 137.418 171.408 137.808C171.411 137.81 171.414 137.812 171.416 137.815C171.418 137.818 171.42 137.821 171.42 137.824C171.421 137.827 171.422 137.831 171.421 137.834C171.421 137.837 171.42 137.841 171.418 137.844C171.417 137.847 171.414 137.849 171.412 137.851C171.409 137.854 171.406 137.855 171.403 137.856C171.399 137.857 171.396 137.857 171.392 137.857C171.389 137.857 171.386 137.856 171.383 137.854C170.713 137.534 170.034 137.235 169.355 136.901C168.675 136.566 168.001 136.191 167.301 135.887C167.271 135.831 167.286 135.796 167.322 135.831Z" fill="#263238"/>
<path d="M209.102 103.384C207.541 105.387 206.654 107.832 206.567 110.37C206.542 111.126 206.659 112.18 206.75 113.412C204.65 114.631 202.789 116.221 201.259 118.107C202.938 117.131 204.867 116.669 206.806 116.779C206.762 117.63 206.656 118.478 206.486 119.313C205.269 119.317 204.064 119.556 202.937 120.018C204.042 120.007 205.136 120.224 206.152 120.657C204.631 125.428 200.2 130.33 187.9 132.409C186.598 126.558 187.368 120.436 190.08 115.09C193.776 107.825 209.102 103.384 209.102 103.384Z" fill="#132183"/>
<path d="M183.652 152.81C183.865 150.782 184.13 148.754 184.448 146.726C185.071 142.671 185.898 138.651 186.927 134.68C187.411 132.816 188.005 130.983 188.707 129.189C188.671 128.863 188.656 128.534 188.661 128.206C188.661 127.81 188.661 127.415 188.661 127.02C188.661 126.234 188.707 125.448 188.772 124.662C188.897 123.104 189.15 121.56 189.528 120.043C189.756 119.166 190.035 118.305 190.273 117.438C190.275 117.432 190.279 117.428 190.284 117.424C190.289 117.421 190.295 117.419 190.301 117.419C190.307 117.419 190.313 117.421 190.318 117.424C190.323 117.428 190.326 117.432 190.329 117.438C189.918 118.951 189.613 120.491 189.416 122.046C189.198 123.577 189.061 125.119 189.006 126.665C189.006 127.085 188.98 127.511 188.98 127.932C188.98 128.115 188.98 128.297 188.98 128.475C189.586 127.005 190.278 125.573 191.054 124.186C192.304 121.986 193.712 119.88 195.267 117.884C195.27 117.65 195.304 117.419 195.368 117.194C195.424 116.92 195.485 116.647 195.546 116.368C195.672 115.81 195.814 115.247 195.967 114.695C196.271 113.579 196.676 112.5 197.026 111.399C197.028 111.394 197.032 111.389 197.037 111.386C197.042 111.383 197.048 111.381 197.054 111.381C197.06 111.381 197.066 111.383 197.071 111.386C197.076 111.389 197.08 111.394 197.082 111.399C196.757 112.489 196.539 113.62 196.291 114.73C196.164 115.278 196.048 115.825 195.926 116.378C195.865 116.652 195.804 116.926 195.749 117.199C195.749 117.199 195.749 117.245 195.749 117.265C196.245 116.637 196.752 116.018 197.269 115.41C199.617 112.652 202.192 110.107 204.788 107.587C205.107 107.273 205.432 106.973 205.756 106.664C205.756 106.664 205.822 106.664 205.797 106.71C203.318 109.295 200.879 111.906 198.567 114.644C198.015 115.298 197.477 115.957 196.945 116.621L197.787 116.064C198.501 115.597 199.226 115.141 199.972 114.725C200.717 114.309 201.493 113.894 202.238 113.514C202.983 113.133 203.87 112.804 204.636 112.363C204.666 112.363 204.697 112.398 204.661 112.413C203.883 112.772 203.133 113.187 202.415 113.655C201.665 114.102 200.92 114.548 200.185 115.014C199.449 115.481 198.735 115.927 198.015 116.393C197.416 116.784 196.828 117.209 196.205 117.564C194.778 119.398 193.461 121.314 192.26 123.303C191.519 124.557 190.842 125.848 190.233 127.172L190.674 126.979L191.804 126.472C192.524 126.153 193.254 125.838 193.979 125.524C195.358 124.921 196.762 124.373 198.116 123.714C198.879 123.354 199.618 122.944 200.327 122.487C200.357 122.487 200.382 122.487 200.352 122.538C197.817 124.277 194.998 125.499 192.21 126.736L190.998 127.273C190.663 127.42 190.329 127.582 189.984 127.714C189.156 129.564 188.46 131.47 187.9 133.418C186.801 137.336 185.908 141.31 185.224 145.322C184.519 149.342 184.042 153.388 183.672 157.454C183.627 157.961 183.581 158.468 183.52 158.975C183.513 159.012 183.494 159.046 183.465 159.071C183.435 159.095 183.398 159.108 183.36 159.108C183.322 159.108 183.285 159.095 183.256 159.071C183.227 159.046 183.207 159.012 183.201 158.975C183.246 156.926 183.434 154.863 183.652 152.81Z" fill="#263238"/>
<path d="M191.14 118.822C191.363 117.569 191.698 116.348 192.032 115.121C192.032 115.085 192.098 115.121 192.088 115.121C191.779 116.322 191.556 117.549 191.327 118.766C191.099 119.983 190.897 121.26 190.719 122.512C190.719 122.512 190.684 122.538 190.684 122.512C190.765 121.275 190.918 120.042 191.14 118.822Z" fill="#263238"/>
<path d="M196.428 122.213C197.284 121.646 198.179 121.138 199.105 120.692C199.551 120.464 200.007 120.241 200.458 120.023C200.909 119.805 201.416 119.607 201.883 119.374C201.913 119.374 201.939 119.405 201.883 119.42C201.432 119.648 201.006 119.927 200.565 120.165L199.196 120.91C198.298 121.392 197.411 121.924 196.468 122.32C196.458 122.317 196.448 122.311 196.44 122.304C196.431 122.296 196.425 122.287 196.421 122.277C196.417 122.266 196.416 122.255 196.417 122.244C196.418 122.233 196.422 122.223 196.428 122.213Z" fill="#263238"/>
<path opacity="0.1" d="M181.644 131.217C181.644 131.217 173.862 129.357 170.288 124.12C166.876 119.136 165.771 110.634 165.684 109.884C165.821 110.573 167.428 117.995 172.726 121.463C176.787 124.13 180.711 126.31 181.644 131.217Z" fill="#263238"/>
<path d="M181.644 131.217C181.644 131.217 173.862 129.357 170.288 124.12C166.876 119.136 165.77 110.634 165.684 109.884C165.682 109.867 165.682 109.85 165.684 109.833C165.684 109.833 169.416 115.141 173.34 116.495C177.264 117.848 182.77 122.543 181.644 131.217Z" fill="#132183"/>
<path d="M167.053 112.773C167.752 114.204 168.557 115.58 169.461 116.89C170.368 118.133 171.445 119.242 172.66 120.185C173.72 121.027 174.835 121.787 175.905 122.609V122.568C175.702 122.274 175.489 121.98 175.266 121.701C174.82 121.128 174.333 120.591 173.842 120.059C172.878 119.009 171.89 117.98 171.023 116.844C170.539 116.212 170.122 115.533 169.776 114.816C169.776 114.781 169.811 114.766 169.826 114.816C171.089 117.448 173.614 119.131 175.403 121.351C175.658 121.667 175.896 121.995 176.118 122.335C176.297 122.582 176.448 122.847 176.569 123.126C177.555 123.917 178.446 124.818 179.226 125.813C179.158 125.299 179.053 124.791 178.912 124.292C178.732 123.598 178.453 122.934 178.085 122.32C178.085 122.289 178.116 122.254 178.136 122.289C178.511 122.905 178.816 123.562 179.043 124.246C179.208 124.792 179.303 125.355 179.327 125.924C179.713 126.448 180.065 126.995 180.382 127.562C180.346 127.395 180.316 127.227 180.285 127.055C180.128 126.279 179.961 125.504 179.778 124.738C179.411 123.18 178.778 121.696 177.908 120.353C177.882 120.322 177.908 120.292 177.953 120.322C178.846 121.645 179.544 123.09 180.027 124.611C180.275 125.377 180.473 126.132 180.65 126.938C180.737 127.319 180.813 127.704 180.884 128.089C180.924 128.287 180.965 128.495 181 128.698C181.771 130.394 182.372 132.161 182.795 133.975C183.558 137.217 184.112 140.504 184.453 143.816C184.855 147.284 185.034 150.774 184.99 154.265C184.99 154.706 184.955 155.142 184.934 155.578C184.934 155.689 184.757 155.71 184.752 155.578C184.676 153.849 184.63 152.12 184.529 150.397C184.427 148.673 184.275 146.949 184.093 145.225C183.738 141.843 183.196 138.484 182.471 135.162C181.837 132.318 181.021 129.453 179.464 126.959C178.691 125.717 177.745 124.592 176.655 123.618C175.565 122.639 174.374 121.782 173.223 120.875C172.057 119.987 170.999 118.966 170.07 117.833C169.12 116.576 168.292 115.231 167.596 113.818L167.038 112.763C166.987 112.773 167.023 112.743 167.053 112.773Z" fill="#263238"/>
<path d="M168.397 113.919C168.909 114.969 169.488 115.985 170.131 116.961C170.131 116.961 170.131 117.007 170.095 116.961C169.427 115.998 168.84 114.98 168.341 113.919C168.326 113.904 168.382 113.884 168.397 113.919Z" fill="#263238"/>
<path d="M210.208 127.775C210.208 127.775 210.334 138.837 203.718 142.026C197.102 145.215 193.579 142.564 189.066 143.633C189.239 143.37 192.448 138.756 197.548 137.489C202.801 136.176 208.595 132.383 210.208 127.775Z" fill="#132183"/>
<path opacity="0.1" d="M210.208 127.775C210.208 127.775 210.334 138.837 203.718 142.026C197.102 145.215 193.579 142.564 189.066 143.633C191.442 142.5 193.981 141.749 196.59 141.408C200.763 140.901 208.727 138.188 210.208 127.775Z" fill="black"/>
<path d="M188.63 143.831C189.416 143.111 190.302 142.51 191.262 142.047C191.399 141.981 191.546 141.925 191.693 141.864C191.76 141.775 191.833 141.69 191.911 141.611C192.113 141.403 192.316 141.205 192.534 141.017C192.95 140.66 193.396 140.34 193.868 140.059C194.963 139.415 196.164 138.964 197.285 138.366C197.315 138.366 197.345 138.396 197.31 138.417C196.757 138.7 196.22 139.02 195.683 139.334C195.145 139.648 194.623 139.932 194.111 140.262C193.653 140.557 193.216 140.884 192.803 141.24C192.686 141.342 192.575 141.453 192.463 141.565C193.195 141.319 193.942 141.121 194.699 140.972C195.911 140.728 197.133 140.556 198.344 140.297C198.937 140.171 199.522 140.013 200.098 139.826C200.646 139.38 201.193 138.944 201.716 138.462C202.344 137.886 202.916 137.251 203.424 136.566C203.424 136.541 203.495 136.566 203.47 136.596C202.668 137.682 201.761 138.686 200.762 139.593C201.046 139.481 201.325 139.365 201.604 139.238C203.877 138.22 205.827 136.598 207.242 134.548C207.242 134.518 207.313 134.548 207.292 134.579C206.089 136.337 204.536 137.829 202.73 138.959C201.826 139.524 200.859 139.981 199.85 140.323C198.677 140.686 197.482 140.969 196.271 141.169C195.084 141.362 193.914 141.64 192.767 142.001C191.712 142.359 190.72 142.88 189.827 143.547C188.143 144.856 186.786 146.538 185.862 148.46C184.677 151.019 183.938 153.763 183.677 156.572C183.677 156.688 183.485 156.688 183.49 156.572C183.799 151.897 185.046 147.056 188.63 143.831Z" fill="#263238"/>
<path d="M196.306 140.221C196.651 139.706 197.118 139.282 197.665 138.989C198.292 138.662 198.843 138.206 199.282 137.651C199.282 137.621 199.353 137.651 199.328 137.681C198.931 138.187 198.449 138.619 197.903 138.959C197.303 139.279 196.773 139.717 196.347 140.247C196.326 140.272 196.286 140.247 196.306 140.221Z" fill="#263238"/>
<path d="M192.798 151.994L192.494 158.077L191.571 176.658H177.695L176.772 158.077L176.473 151.994H192.798Z" fill="#37474F"/>
<path d="M192.798 151.994L192.494 158.077H176.772L176.473 151.994H192.798Z" fill="#263238"/>
<path d="M193.766 149.454H175.5V155.259H193.766V149.454Z" fill="#37474F"/>
<path d="M0.336914 176.658L26.6747 176.537L53.0074 176.491L105.678 176.405L158.348 176.491L184.686 176.537L211.019 176.658L184.686 176.785L158.348 176.831L105.678 176.912L53.0074 176.831L26.6747 176.785L0.336914 176.658Z" fill="#263238"/>
<path d="M169.162 190.21V13.5111C169.162 9.9019 166.236 6.97607 162.627 6.97607L48.7334 6.97607C45.1242 6.97607 42.1984 9.9019 42.1984 13.5111L42.1984 190.21C42.1984 193.819 45.1242 196.745 48.7334 196.745H162.627C166.236 196.745 169.162 193.819 169.162 190.21Z" fill="#263238"/>
<path d="M163.803 20.259H47.6992V183.579H163.803V20.259Z" fill="white"/>
<path d="M119.493 15.0372V14.3325C119.493 13.9825 119.209 13.6987 118.859 13.6987L92.4963 13.6987C92.1463 13.6987 91.8626 13.9825 91.8626 14.3325V15.0372C91.8626 15.3872 92.1463 15.6709 92.4963 15.6709L118.859 15.6709C119.209 15.6709 119.493 15.3872 119.493 15.0372Z" fill="#37474F"/>
<path d="M105.678 193.571C107.652 193.571 109.252 191.971 109.252 189.997C109.252 188.023 107.652 186.423 105.678 186.423C103.704 186.423 102.104 188.023 102.104 189.997C102.104 191.971 103.704 193.571 105.678 193.571Z" fill="#37474F"/>
<path d="M145.917 153.038H65.5906V154.168H145.917V153.038Z" fill="#EBEBEB"/>
<path d="M145.917 156.541H65.5906V157.672H145.917V156.541Z" fill="#EBEBEB"/>
<path d="M85.1247 168.719C87.1743 168.719 88.8358 167.057 88.8358 165.008C88.8358 162.958 87.1743 161.297 85.1247 161.297C83.0751 161.297 81.4136 162.958 81.4136 165.008C81.4136 167.057 83.0751 168.719 85.1247 168.719Z" fill="#132183"/>
<path d="M85.1804 167.168L82.97 164.932L83.7152 164.197L85.008 165.505L87.69 161.297L88.5721 161.859L85.1804 167.168Z" fill="white"/>
<path d="M94.4126 164.972C94.4149 164.706 94.4629 164.442 94.5545 164.191C94.6485 163.936 94.7914 163.702 94.9753 163.502C95.1709 163.281 95.4124 163.105 95.683 162.987C95.9535 162.868 96.2467 162.811 96.5419 162.818C96.8976 162.811 97.2482 162.903 97.5558 163.081C97.8313 163.241 98.0548 163.477 98.1997 163.761L97.566 164.222C97.5154 164.107 97.4451 164.003 97.3581 163.913C97.2816 163.835 97.1945 163.768 97.0996 163.715C97.0063 163.668 96.9075 163.632 96.8055 163.608C96.7071 163.588 96.6069 163.578 96.5064 163.578C96.3161 163.573 96.1276 163.617 95.9589 163.705C95.8062 163.785 95.6729 163.897 95.5685 164.034C95.464 164.173 95.385 164.329 95.3353 164.496C95.2204 164.841 95.2204 165.215 95.3353 165.56C95.3917 165.731 95.4793 165.889 95.5938 166.027C95.7057 166.159 95.8416 166.269 95.9943 166.351C96.1513 166.431 96.3251 166.473 96.5013 166.473C96.604 166.471 96.706 166.458 96.8055 166.432C96.9103 166.41 97.0111 166.373 97.1046 166.321C97.2011 166.265 97.2897 166.197 97.3683 166.118C97.4513 166.029 97.5182 165.926 97.566 165.814L98.2504 166.209C98.1825 166.371 98.0824 166.518 97.9564 166.64C97.8292 166.764 97.6839 166.869 97.5254 166.949C97.2028 167.123 96.8422 167.213 96.476 167.213C96.1826 167.215 95.8928 167.149 95.6293 167.02C95.3791 166.895 95.1554 166.723 94.9702 166.513C94.7857 166.304 94.6398 166.064 94.5393 165.804C94.443 165.538 94.3999 165.255 94.4126 164.972Z" fill="#132183"/>
<path d="M100.649 167.193C100.351 167.197 100.056 167.133 99.7868 167.005C99.2831 166.761 98.8927 166.333 98.6968 165.809C98.5962 165.552 98.5446 165.278 98.5447 165.003C98.5445 164.719 98.5996 164.439 98.7069 164.176C98.81 163.918 98.9595 163.681 99.148 163.477C99.3385 163.266 99.5673 163.094 99.8223 162.97C100.088 162.85 100.377 162.79 100.669 162.792C100.964 162.787 101.256 162.853 101.521 162.985C101.774 163.108 101.999 163.28 102.185 163.492C102.379 163.705 102.532 163.953 102.636 164.222C102.736 164.477 102.787 164.749 102.788 165.023C102.788 165.306 102.733 165.587 102.626 165.849C102.526 166.107 102.378 166.342 102.19 166.544C102 166.745 101.773 166.907 101.521 167.02C101.247 167.144 100.949 167.203 100.649 167.193ZM99.3964 165.003C99.397 165.187 99.426 165.37 99.4826 165.545C99.536 165.712 99.6183 165.868 99.7259 166.006C99.8359 166.139 99.9702 166.249 100.121 166.331C100.287 166.412 100.469 166.452 100.654 166.448C100.842 166.451 101.028 166.409 101.196 166.326C101.349 166.244 101.483 166.131 101.592 165.996C101.698 165.856 101.781 165.698 101.835 165.53C101.885 165.365 101.912 165.195 101.916 165.023C101.917 164.838 101.886 164.655 101.825 164.48C101.771 164.313 101.687 164.156 101.576 164.019C101.471 163.883 101.336 163.774 101.181 163.7C101.023 163.622 100.85 163.582 100.674 163.583C100.488 163.58 100.303 163.621 100.137 163.705C99.9805 163.782 99.8449 163.895 99.7412 164.034C99.6336 164.173 99.5512 164.329 99.4978 164.496C99.4385 164.659 99.4043 164.829 99.3964 165.003Z" fill="#132183"/>
<path d="M104.243 164.394V167.162H103.406V162.843H104.055L106.306 165.677V162.848H107.148V167.162H106.464L104.243 164.394Z" fill="#132183"/>
<path d="M108.045 167.162V162.843H110.95V163.578H108.887V164.693H110.601V165.373H108.887V167.162H108.045Z" fill="#132183"/>
<path d="M111.539 167.162V162.843H112.38V167.162H111.539Z" fill="#132183"/>
<path d="M113.282 167.162V162.843H115.194C115.385 162.841 115.574 162.883 115.746 162.965C115.91 163.048 116.057 163.16 116.182 163.294C116.302 163.431 116.397 163.587 116.466 163.756C116.532 163.916 116.567 164.089 116.568 164.262C116.572 164.532 116.5 164.798 116.36 165.028C116.23 165.254 116.031 165.431 115.792 165.535L116.776 167.162H115.817L114.935 165.712H114.109V167.162H113.282ZM114.124 164.977H115.179C115.253 164.979 115.327 164.96 115.392 164.922C115.459 164.886 115.518 164.835 115.564 164.775C115.617 164.708 115.656 164.633 115.681 164.551C115.711 164.463 115.727 164.371 115.726 164.278C115.725 164.183 115.708 164.088 115.675 163.999C115.646 163.917 115.601 163.841 115.544 163.776C115.491 163.716 115.427 163.666 115.356 163.629C115.288 163.595 115.214 163.577 115.138 163.578H114.124V164.977Z" fill="#132183"/>
<path d="M120.847 167.162V164.303L119.736 166.432H119.28L118.165 164.303V167.162H117.338V162.843H118.241L119.518 165.302L120.806 162.843H121.703V167.162H120.847Z" fill="#132183"/>
<path d="M125.587 166.427V167.162H122.586V162.843H125.531V163.578H123.422V164.592H125.242V165.276H123.422V166.402L125.587 166.427Z" fill="#132183"/>
<path d="M126.246 167.162V162.843H127.813C128.131 162.835 128.447 162.894 128.74 163.015C128.995 163.118 129.223 163.275 129.41 163.477C129.589 163.674 129.726 163.908 129.81 164.161C129.996 164.722 129.996 165.329 129.81 165.89C129.717 166.144 129.571 166.375 129.381 166.567C129.192 166.76 128.963 166.909 128.71 167.005C128.429 167.114 128.129 167.167 127.828 167.162H126.246ZM129.095 164.998C129.099 164.803 129.07 164.609 129.009 164.425C128.959 164.258 128.875 164.105 128.761 163.973C128.651 163.846 128.514 163.746 128.36 163.679C128.186 163.61 128 163.576 127.813 163.578H127.083V166.427H127.813C128.003 166.429 128.191 166.391 128.365 166.316C128.52 166.247 128.656 166.145 128.766 166.017C128.876 165.882 128.959 165.727 129.009 165.56C129.07 165.379 129.099 165.189 129.095 164.998Z" fill="#132183"/>
<path d="M145.917 42.688H65.5906V43.8186H145.917V42.688Z" fill="#EBEBEB"/>
<path d="M145.917 46.1963H65.5906V47.3269H145.917V46.1963Z" fill="#EBEBEB"/>
<path d="M137.435 145.159H73.9204V91.4293L105.673 71.2615L137.435 91.4293V145.159Z" fill="#132183"/>
<path opacity="0.2" d="M137.435 145.159H73.9204V91.4293L105.673 71.2615L137.435 91.4293V145.159Z" fill="black"/>
<path d="M133.851 68.7063H77.4998V141.048H133.851V68.7063Z" fill="#EBEBEB"/>
<path d="M102.245 111.987L89.3428 98.9276L93.6775 94.6487L101.216 102.274L116.877 77.7256L122.013 81.0058L102.245 111.987Z" fill="#132183"/>
<path d="M137.435 104.905V145.159H73.9204V104.905C76.648 106.426 79.3299 108.068 82.0321 109.65C84.7344 111.232 87.4112 112.875 90.083 114.517C93.059 116.327 96.035 118.173 99.0009 120.028L99.0972 119.972C99.0668 119.972 99.0465 120.023 99.0211 120.038C101.238 121.407 103.457 122.785 105.678 124.17C107.888 122.776 110.114 121.372 112.335 119.998C112.309 119.998 112.289 119.952 112.258 119.932C112.288 119.953 112.321 119.97 112.355 119.983C115.319 118.134 118.292 116.295 121.273 114.467C123.946 112.834 126.626 111.215 129.313 109.61C132.041 108.043 134.708 106.426 137.435 104.905Z" fill="#132183"/>
<g opacity="0.2">
<path d="M137.435 104.905C134.87 106.705 132.259 108.454 129.673 110.208C127.088 111.962 124.456 113.676 121.83 115.394C119.093 117.189 116.35 118.967 113.602 120.728L113.354 120.9L106.038 125.564L105.673 125.782L105.318 125.564L98.0122 120.89L97.7537 120.728C94.9991 118.964 92.2529 117.182 89.5152 115.384C86.8992 113.676 84.2882 111.942 81.6823 110.208C79.0764 108.474 76.4857 106.679 73.9204 104.905C76.648 106.426 79.3299 108.068 82.0321 109.65C84.7344 111.232 87.4112 112.875 90.083 114.517C93.059 116.327 96.035 118.173 99.0009 120.028C101.232 121.404 103.457 122.785 105.678 124.17C107.888 122.776 110.114 121.372 112.335 119.998C115.299 118.149 118.271 116.31 121.252 114.482C123.926 112.849 126.606 111.23 129.293 109.625C132.041 108.043 134.708 106.426 137.435 104.905Z" fill="black"/>
<path d="M99.0871 119.947C99.0567 119.947 99.0364 119.998 99.0111 120.013L97.9971 120.865C96.4052 122.208 94.7727 123.496 93.1149 124.748C91.0869 126.269 89.0235 127.79 86.9449 129.24C84.8662 130.69 82.7572 132.11 80.6076 133.484C78.458 134.858 76.2982 136.201 74.0574 137.433C75.9839 135.745 77.9865 134.168 80.0093 132.637C82.0322 131.106 84.1108 129.595 86.1793 128.14C88.2478 126.685 90.3772 125.26 92.5217 123.886C94.2302 122.791 95.9692 121.711 97.7385 120.703C98.1492 120.464 98.5599 120.236 98.9806 120.003L99.0871 119.947Z" fill="black"/>
<path d="M137.283 137.433C135.042 136.201 132.867 134.858 130.733 133.484C128.598 132.11 126.464 130.68 124.385 129.24C122.307 127.8 120.238 126.29 118.215 124.748C116.568 123.496 114.935 122.213 113.353 120.875L112.339 120.013C112.314 120.013 112.294 119.967 112.263 119.947C112.293 119.968 112.326 119.985 112.36 119.998C112.781 120.236 113.191 120.464 113.602 120.703C115.371 121.717 117.1 122.791 118.819 123.886C120.963 125.26 123.062 126.69 125.151 128.14C127.24 129.59 129.298 131.091 131.321 132.637C133.344 134.183 135.357 135.745 137.283 137.433Z" fill="black"/>
</g>
<path d="M78.5035 65.2589C78.1655 62.4722 78.1655 59.6549 78.5035 56.8683C78.8415 59.6549 78.8415 62.4722 78.5035 65.2589Z" fill="#263238"/>
<path d="M74.9343 66.5922C73.8231 65.7349 72.7713 64.8033 71.786 63.8038C70.7853 62.8214 69.8536 61.7712 68.9976 60.6605C71.2073 62.3924 73.2006 64.3839 74.9343 66.5922Z" fill="#263238"/>
<path d="M73.3576 70.0549C71.9658 70.2352 70.5632 70.3199 69.1598 70.3084C67.7581 70.324 66.3571 70.241 64.967 70.0599C66.3569 69.877 67.758 69.7923 69.1598 69.8064C70.5631 69.7932 71.9657 69.8762 73.3576 70.0549Z" fill="#263238"/>
<path d="M74.691 73.619C72.9573 75.8271 70.9659 77.8201 68.7593 79.5557C70.4891 77.3426 72.4808 75.3474 74.691 73.6139V73.619Z" fill="#263238"/>
<path d="M132.472 65.2589C132.296 63.8667 132.213 62.4643 132.223 61.061C132.213 59.6592 132.3 58.2583 132.482 56.8683C132.82 59.6549 132.82 62.4722 132.482 65.2589H132.472Z" fill="#263238"/>
<path d="M136.041 66.5922C137.775 64.3839 139.768 62.3924 141.978 60.6605C141.122 61.7712 140.19 62.8214 139.189 63.8038C138.204 64.8033 137.152 65.7349 136.041 66.5922Z" fill="#263238"/>
<path d="M137.618 70.0549C139.01 69.8762 140.412 69.7932 141.815 69.8065C143.217 69.7922 144.618 69.8769 146.008 70.06C144.618 70.2412 143.217 70.3242 141.815 70.3084C140.412 70.32 139.01 70.2353 137.618 70.0549Z" fill="#263238"/>
<path d="M136.284 73.619C138.494 75.351 140.486 77.3445 142.216 79.5558C141.107 78.6965 140.056 77.7632 139.073 76.7623C138.072 75.7798 137.141 74.7295 136.284 73.619Z" fill="#263238"/>
<path d="M64.7591 211.939C63.664 212.294 32.4693 211.889 31.2982 211.118C30.847 210.834 30.6391 206.286 30.5479 200.781V200.608C30.5479 199.478 30.5124 198.306 30.5073 197.125C30.5073 196.963 30.5073 196.801 30.5073 196.618L32.0283 180.435L52.8957 180.643L50.8323 196.674V197.308L50.7055 200.623V200.968C50.7055 200.968 62.5791 206.464 63.7857 207.447C64.9923 208.431 65.8491 211.594 64.7591 211.939Z" fill="#F7A9A0"/>
<path d="M64.7591 211.939C63.664 212.294 32.4693 211.888 31.2982 211.118C30.847 210.834 30.6391 206.286 30.5479 200.78V200.608C30.5479 199.478 30.5124 198.306 30.5073 197.125C30.5073 196.963 30.5073 196.801 30.5073 196.618L50.8272 196.674V197.308L50.7005 200.623V200.968C50.7005 200.968 62.574 206.464 63.7806 207.447C64.9872 208.431 65.8491 211.594 64.7591 211.939Z" fill="#EBEBEB"/>
<path d="M64.8505 212.015C63.7453 212.37 32.2667 212.071 31.0753 211.3C30.619 211.011 30.396 206.423 30.2844 200.872L50.5637 201.009C50.5637 201.009 62.564 206.514 63.7859 207.498C65.0077 208.482 65.9507 211.655 64.8505 212.015Z" fill="#132183"/>
<path d="M64.4094 210.753C59.1368 210.57 37.8385 210.342 32.6115 210.565C32.5709 210.565 32.5709 210.596 32.6115 210.601C37.8385 210.89 59.1318 210.946 64.4094 210.839C64.521 210.834 64.521 210.753 64.4094 210.753Z" fill="#263238"/>
<path d="M61.7832 206.347C61.197 206.327 60.613 206.429 60.0678 206.645C59.5226 206.862 59.0278 207.188 58.6146 207.604C57.8681 208.352 57.4363 209.357 57.408 210.413C57.408 210.444 57.4688 210.444 57.4739 210.413C57.6624 209.37 58.1844 208.416 58.9615 207.694C59.7386 206.973 60.7287 206.523 61.7832 206.413C61.7886 206.415 61.7944 206.416 61.8002 206.415C61.806 206.415 61.8115 206.413 61.8163 206.409C61.8211 206.406 61.825 206.402 61.8277 206.397C61.8305 206.392 61.8319 206.386 61.8319 206.38C61.8319 206.374 61.8305 206.369 61.8277 206.363C61.825 206.358 61.8211 206.354 61.8163 206.351C61.8115 206.347 61.806 206.345 61.8002 206.345C61.7944 206.344 61.7886 206.345 61.7832 206.347Z" fill="#263238"/>
<path d="M52.6221 201.556C50.508 201.506 48.0593 202.225 46.7259 203.939C46.6752 204.01 46.7715 204.081 46.8324 204.045C48.6893 203.097 50.6421 202.349 52.6576 201.815C52.6881 201.806 52.7145 201.787 52.7318 201.76C52.7491 201.733 52.7563 201.702 52.752 201.67C52.7477 201.639 52.7322 201.61 52.7083 201.589C52.6845 201.568 52.6539 201.556 52.6221 201.556Z" fill="#263238"/>
<path d="M54.2444 202.205C52.1354 202.154 49.6816 202.879 48.3482 204.593C48.2975 204.659 48.3939 204.73 48.4547 204.699C50.3109 203.748 52.2638 202.998 54.2799 202.464C54.3104 202.455 54.3368 202.436 54.3541 202.409C54.3715 202.382 54.3786 202.35 54.3743 202.319C54.37 202.288 54.3545 202.259 54.3306 202.238C54.3068 202.217 54.2762 202.205 54.2444 202.205Z" fill="#263238"/>
<path d="M55.8719 202.854C53.7578 202.808 51.309 203.528 49.9757 205.242C49.925 205.308 50.0162 205.384 50.0821 205.348C51.9377 204.401 53.8887 203.653 55.9023 203.118C55.9308 203.107 55.9548 203.087 55.9706 203.061C55.9865 203.035 55.9931 203.004 55.9897 202.974C55.9862 202.944 55.9727 202.916 55.9514 202.894C55.93 202.872 55.9021 202.858 55.8719 202.854Z" fill="#263238"/>
<path d="M57.5145 203.508C55.4054 203.457 52.9516 204.182 51.6182 205.896C51.5675 205.962 51.6639 206.033 51.7247 206.002C53.5696 205.053 55.5105 204.304 57.5145 203.767C57.5444 203.761 57.5713 203.745 57.5906 203.721C57.61 203.697 57.6205 203.668 57.6205 203.637C57.6205 203.607 57.61 203.577 57.5906 203.554C57.5713 203.53 57.5444 203.514 57.5145 203.508Z" fill="#263238"/>
<path d="M34.0056 205.566C31.6329 205.566 31.6076 209.232 34.0056 209.247C36.4036 209.262 36.3783 205.582 34.0056 205.566Z" fill="white"/>
<path d="M54.9795 195.939C53.9199 195.041 52.5612 195.898 51.897 196.811C50.7729 198.4 50.0874 200.257 49.9097 202.195C49.9097 202.236 49.9401 202.256 49.9756 202.256C49.9831 202.296 50.0001 202.333 50.025 202.365C50.0499 202.396 50.082 202.422 50.1187 202.439C50.1555 202.456 50.1957 202.463 50.236 202.462C50.2764 202.46 50.3157 202.448 50.3507 202.428C51.8717 201.414 53.6106 200.492 54.7666 199.036C55.4358 198.19 55.963 196.791 54.9795 195.939ZM52.3432 200.405C51.6131 200.912 50.8577 201.419 50.148 201.962C50.5002 200.902 50.9063 199.862 51.3647 198.844C51.5956 198.354 51.8581 197.88 52.1505 197.424C52.617 196.73 54.6854 194.986 54.8933 197.287C54.9795 198.555 53.1949 199.782 52.3229 200.405H52.3432Z" fill="#263238"/>
<path d="M44.6473 202.925C46.4876 203.224 48.3888 202.722 50.1988 202.459C50.2378 202.448 50.274 202.429 50.3046 202.403C50.3351 202.376 50.3591 202.343 50.3748 202.306C50.3905 202.269 50.3974 202.228 50.395 202.188C50.3926 202.148 50.381 202.108 50.361 202.073C50.3674 202.068 50.3725 202.062 50.376 202.054C50.3795 202.047 50.3814 202.038 50.3814 202.03C50.3814 202.022 50.3795 202.014 50.376 202.006C50.3725 201.999 50.3674 201.992 50.361 201.987C48.9328 200.675 47.1842 199.762 45.2912 199.341C44.1809 199.113 42.6042 199.396 42.4267 200.775C42.2493 202.078 43.5776 202.753 44.6473 202.925ZM43.3849 201.739C41.9755 199.914 44.6929 199.792 45.5041 199.99C46.0221 200.124 46.5303 200.293 47.025 200.497C48.0694 200.912 49.053 201.465 50.0315 201.977C49.1341 202.053 48.2519 202.205 47.3546 202.312C46.3051 202.423 44.1657 202.717 43.3849 201.739Z" fill="#263238"/>
<path opacity="0.1" d="M47.0199 212.066C39.1972 211.929 31.6482 211.67 31.0753 211.3C30.619 211.011 30.396 206.423 30.2844 200.872H33.1742C36.3682 203.488 43.1263 208.928 47.0199 212.066Z" fill="black"/>
<path d="M52.039 200.725H29.5746C29.5746 200.725 34.0969 148.257 33.9195 147.339C33.6964 146.163 32.3681 140.855 30.6038 133.915C30.0512 131.745 29.4529 129.418 28.8344 127.004C27.1563 120.474 25.2855 113.341 23.7038 107.131C21.2905 97.8325 19.4045 90.608 19.4045 90.608H38.4417C38.4417 90.608 40.6623 97.6399 43.4609 106.796C48.0237 121.666 54.1075 142.138 54.7058 147.116C55.6792 155.142 52.039 200.725 52.039 200.725Z" fill="#37474F"/>
<path d="M51.0454 196.882C47.6131 196.811 48.5966 196.785 45.1644 196.75C43.4863 196.75 32.4543 196.638 30.8827 196.897C30.8732 196.897 30.8642 196.901 30.8576 196.907C30.8509 196.914 30.8472 196.923 30.8472 196.933C30.8472 196.942 30.8509 196.951 30.8576 196.958C30.8642 196.964 30.8732 196.968 30.8827 196.968C32.4543 197.227 43.4863 197.13 45.1644 197.115C48.5966 197.085 47.6131 197.054 51.0454 196.983C51.0588 196.983 51.0717 196.978 51.0812 196.968C51.0907 196.959 51.0961 196.946 51.0961 196.933C51.0961 196.919 51.0907 196.906 51.0812 196.897C51.0717 196.887 51.0588 196.882 51.0454 196.882Z" fill="#263238"/>
<path d="M38.1476 144.12C37.4125 140.875 36.3072 137.692 35.349 134.487C33.4022 128.015 31.4436 121.542 29.4731 115.07C28.4896 111.835 27.5026 108.601 26.5123 105.366C26.0121 103.734 25.5051 102.103 24.9914 100.474C24.4844 98.8769 23.9216 97.3002 23.4704 95.688C23.2879 95.034 23.1865 95.394 23.4248 96.2254C23.8963 97.8985 24.3627 99.5766 24.8545 101.25C25.8178 104.562 26.7912 107.871 27.7747 111.176C29.7215 117.757 31.6852 124.333 33.6659 130.903C34.6562 134.202 35.6482 137.497 36.6418 140.789C37.1443 142.358 37.549 143.956 37.8535 145.575C38.1212 147.266 38.1893 148.983 38.0563 150.691C37.8383 154.128 37.4378 157.56 37.1235 160.987C36.8091 164.415 36.4847 167.862 36.1704 171.294C35.5383 178.135 34.9097 184.974 34.2844 191.812C34.2083 192.679 34.1323 193.546 34.0664 194.418C34.0664 194.707 34.4821 194.682 34.5125 194.418C35.2527 187.66 35.8205 180.871 36.4543 174.103C37.088 167.335 37.7217 160.622 38.3504 153.885C38.5075 152.191 38.6901 150.498 38.6901 148.815C38.6859 147.234 38.5039 145.66 38.1476 144.12Z" fill="#263238"/>
<path d="M36.282 90.5979C34.9588 100.824 32.4391 120.003 30.6038 133.904C26.3096 117.073 19.4045 90.5979 19.4045 90.5979H36.282Z" fill="#263238"/>
<path d="M40.9563 212.243C39.8663 212.598 8.6716 212.309 7.4954 211.544C7.04418 211.26 6.82111 206.712 6.70957 201.206V201.034C6.68422 199.903 6.66394 198.732 6.65887 197.551C6.65887 197.389 6.65887 197.227 6.65887 197.044C6.58789 189.105 7.16586 180.866 7.16586 180.866L27.5567 180.998L26.9838 197.029V197.663L26.8723 200.983V201.323C26.8723 201.323 38.7103 206.809 39.917 207.772C41.1236 208.735 42.0514 211.878 40.9563 212.243Z" fill="#F7A9A0"/>
<path d="M40.9563 212.243C39.8663 212.598 8.67166 212.309 7.49546 211.544C7.04424 211.26 6.82117 206.712 6.70964 201.206V201.034C6.68429 199.903 6.66401 198.732 6.65894 197.551C6.65894 197.389 6.65894 197.226 6.65894 197.044H26.9788V197.678L26.8673 200.998V201.338C26.8673 201.338 38.7104 206.808 39.917 207.772C41.1236 208.735 42.0514 211.878 40.9563 212.243Z" fill="#EBEBEB"/>
<path d="M41.0832 212.177C39.978 212.532 8.49939 212.233 7.30798 211.463C6.8517 211.174 6.62863 206.585 6.51709 201.034L26.7964 201.171C26.7964 201.171 38.7967 206.677 40.0135 207.66C41.2302 208.644 42.1833 211.817 41.0832 212.177Z" fill="#132183"/>
<path d="M40.6421 210.915C35.3644 210.733 14.0711 210.504 8.84414 210.728C8.80358 210.728 8.80358 210.758 8.84414 210.758C14.0661 211.052 35.3644 211.108 40.6421 211.001C40.7537 210.996 40.7537 210.915 40.6421 210.915Z" fill="#263238"/>
<path d="M38.0159 206.509C37.4296 206.489 36.8455 206.591 36.3003 206.807C35.755 207.024 35.2603 207.35 34.8472 207.767C34.099 208.513 33.6669 209.519 33.6406 210.575C33.6406 210.606 33.7015 210.606 33.7065 210.575C33.895 209.532 34.417 208.578 35.1941 207.857C35.9712 207.135 36.9614 206.686 38.0159 206.575C38.0225 206.573 38.0281 206.568 38.0321 206.562C38.0361 206.556 38.0382 206.549 38.0382 206.542C38.0382 206.535 38.0361 206.528 38.0321 206.522C38.0281 206.517 38.0225 206.512 38.0159 206.509Z" fill="#263238"/>
<path d="M28.8548 201.739C26.7407 201.693 24.2919 202.413 22.9586 204.127C22.9079 204.193 22.9991 204.269 23.065 204.233C24.922 203.285 26.8748 202.537 28.8903 202.002C28.9188 201.991 28.9428 201.971 28.9584 201.944C28.974 201.918 28.9802 201.887 28.9761 201.857C28.972 201.826 28.9578 201.798 28.9358 201.777C28.9138 201.755 28.8853 201.742 28.8548 201.739Z" fill="#263238"/>
<path d="M30.4771 202.367C28.3681 202.317 25.9143 203.037 24.5809 204.755C24.5302 204.821 24.6265 204.892 24.6874 204.862C26.5436 203.91 28.4965 203.161 30.5126 202.626C30.5431 202.617 30.5694 202.598 30.5868 202.571C30.6041 202.545 30.6113 202.513 30.607 202.481C30.6027 202.45 30.5872 202.421 30.5633 202.4C30.5394 202.379 30.5088 202.368 30.4771 202.367Z" fill="#263238"/>
<path d="M32.1043 203.016C29.9902 202.966 27.5415 203.691 26.2081 205.404C26.1523 205.47 26.2487 205.541 26.3146 205.511C28.1688 204.56 30.1201 203.812 32.1347 203.28C32.1632 203.269 32.1873 203.249 32.2031 203.223C32.2189 203.197 32.2256 203.167 32.2221 203.136C32.2186 203.106 32.2051 203.078 32.1838 203.056C32.1625 203.034 32.1345 203.02 32.1043 203.016Z" fill="#263238"/>
<path d="M33.7269 203.67C31.6127 203.62 29.164 204.339 27.8306 206.058C27.7799 206.124 27.8763 206.195 27.9371 206.165C29.7929 205.212 31.746 204.463 33.7624 203.929C33.7929 203.92 33.8192 203.901 33.8365 203.874C33.8539 203.847 33.8611 203.816 33.8567 203.784C33.8524 203.753 33.8369 203.724 33.8131 203.703C33.7892 203.682 33.7586 203.67 33.7269 203.67Z" fill="#263238"/>
<path d="M10.2382 205.729C7.86557 205.729 7.84022 209.394 10.2382 209.409C12.6363 209.425 12.6109 205.744 10.2382 205.729Z" fill="white"/>
<path d="M31.1919 196.101C30.1272 195.204 28.7736 196.06 28.1044 196.973C26.9881 198.562 26.3096 200.418 26.1373 202.352C26.1363 202.361 26.1374 202.37 26.1405 202.378C26.1436 202.386 26.1485 202.393 26.1549 202.399C26.1613 202.405 26.169 202.409 26.1774 202.412C26.1858 202.414 26.1946 202.415 26.2032 202.413C26.2101 202.453 26.2265 202.491 26.2512 202.523C26.2758 202.556 26.3079 202.582 26.3447 202.599C26.3815 202.617 26.4219 202.625 26.4626 202.623C26.5033 202.622 26.543 202.611 26.5784 202.59C28.0993 201.576 29.8383 200.654 30.9942 199.194C31.6583 198.342 32.1957 196.948 31.1919 196.101ZM28.5556 200.568C27.8255 201.075 27.0701 201.582 26.3604 202.119C26.7209 201.059 27.1355 200.018 27.6025 199.001C27.8334 198.513 28.0959 198.04 28.3883 197.587C28.8547 196.892 30.9232 195.148 31.1311 197.445C31.2122 198.697 29.4276 199.944 28.5556 200.568Z" fill="#263238"/>
<path d="M20.8798 203.087C22.7151 203.386 24.6214 202.879 26.4262 202.621C26.4645 202.611 26.4999 202.593 26.5299 202.567C26.5599 202.541 26.5837 202.509 26.5993 202.473C26.615 202.437 26.6221 202.398 26.6203 202.358C26.6184 202.319 26.6075 202.28 26.5885 202.246C26.5958 202.241 26.6018 202.234 26.6059 202.226C26.61 202.218 26.6122 202.209 26.6122 202.2C26.6122 202.191 26.61 202.182 26.6059 202.174C26.6018 202.166 26.5958 202.16 26.5885 202.154C25.1582 200.845 23.4104 199.933 21.5186 199.508C20.4084 199.285 18.8316 199.569 18.6542 200.948C18.4767 202.246 19.8101 202.91 20.8798 203.087ZM19.6175 201.871C18.208 200.045 20.9255 199.929 21.7367 200.127C22.2547 200.26 22.7628 200.43 23.2576 200.634C24.2825 201.076 25.2842 201.57 26.2589 202.114C25.3616 202.19 24.4794 202.337 23.5871 202.449C22.5326 202.585 20.3982 202.879 19.6175 201.871Z" fill="#263238"/>
<path d="M37.8283 90.5979C37.8283 90.5979 37.3872 99.7236 35.2934 106.923C35.1261 107.521 34.9436 108.104 34.7509 108.667C32.8422 109.442 31.0078 110.389 29.2704 111.496C29.2704 111.496 29.0524 118.822 28.8344 126.999C28.5911 136.125 28.3275 146.325 28.3883 148.49C28.5809 156.602 27.3743 201.049 27.3743 201.049L4.90991 201.14C4.90991 201.14 8.96578 151.456 8.96578 148.511C8.92015 143.75 10.0507 122.7 10.9278 107.354C11.4348 97.8934 11.9012 90.6233 11.9012 90.6233L37.8283 90.5979Z" fill="#37474F"/>
<path d="M26.5884 197.049C23.1561 196.993 24.1397 196.963 20.7125 196.943C19.0293 196.943 7.99733 196.882 6.43075 197.151C6.42134 197.151 6.41231 197.154 6.40566 197.161C6.399 197.168 6.39526 197.177 6.39526 197.186C6.39526 197.195 6.399 197.204 6.40566 197.211C6.41231 197.218 6.42134 197.222 6.43075 197.222C7.99733 197.475 19.0344 197.328 20.7125 197.308C24.1447 197.257 23.1561 197.237 26.5884 197.151C26.6018 197.151 26.6147 197.145 26.6242 197.136C26.6338 197.126 26.6391 197.113 26.6391 197.1C26.6391 197.086 26.6338 197.074 26.6242 197.064C26.6147 197.054 26.6018 197.049 26.5884 197.049Z" fill="#263238"/>
<path d="M13.7719 93.8527C13.3562 106.385 12.9202 118.918 12.3574 131.44C11.7947 143.963 11.0393 156.577 9.98981 169.109C9.40171 176.116 8.84403 185.971 8.08862 192.937C8.08862 192.983 8.15453 193.003 8.16467 192.937C9.79716 180.506 10.6996 165.14 11.5158 152.627C12.3321 140.115 12.8644 127.592 13.2903 115.07C13.5336 107.972 13.7161 100.874 13.9291 93.807C13.9139 93.7513 13.777 93.7513 13.7719 93.8527Z" fill="#263238"/>
<path d="M35.7142 108.124C33.473 109.06 31.317 110.188 29.2704 111.496C29.2565 111.507 29.2469 111.522 29.2433 111.54C29.2397 111.557 29.2423 111.576 29.2508 111.591C29.2592 111.607 29.273 111.619 29.2895 111.626C29.3061 111.633 29.3245 111.633 29.3414 111.628C31.5062 110.573 33.7167 109.559 35.8257 108.388C35.8525 108.368 35.8719 108.34 35.8807 108.308C35.8895 108.276 35.8873 108.242 35.8744 108.212C35.8615 108.181 35.8386 108.156 35.8096 108.14C35.7805 108.124 35.7469 108.119 35.7142 108.124Z" fill="#263238"/>
<path d="M35.8206 100.398C35.6685 101.194 35.4759 101.985 35.3136 102.781C35.1514 103.577 35.0348 104.302 34.8371 105.022C34.6734 105.733 34.3113 106.384 33.7927 106.897C33.5037 107.166 33.1792 107.404 32.87 107.658L32.363 108.058C32.363 107.952 32.4086 107.845 32.4238 107.734C32.4796 107.43 32.5303 107.131 32.581 106.826C32.6925 106.152 32.799 105.478 32.9055 104.798C33.1083 103.47 33.2908 102.132 33.5696 100.824C33.5696 100.768 33.4986 100.748 33.4885 100.824C33.159 102.122 32.7939 103.404 32.5049 104.717C32.363 105.361 31.8611 108.535 31.8408 108.773C31.8205 109.012 31.7952 109.24 31.7901 109.473C31.7568 109.708 31.7568 109.947 31.7901 110.183C31.7901 110.243 31.8712 110.233 31.8966 110.183C31.9953 109.963 32.0635 109.731 32.0994 109.493C32.1602 109.27 32.2109 109.037 32.2515 108.809C32.2515 108.728 32.2515 108.641 32.2869 108.555C32.6013 108.368 32.8903 108.114 33.1843 107.901C33.4784 107.688 33.8231 107.45 34.1172 107.202C34.6511 106.727 35.0308 106.104 35.2072 105.412C35.4002 104.664 35.5258 103.901 35.5823 103.131C35.6837 102.228 35.7547 101.321 35.8815 100.423C35.9119 100.342 35.8308 100.342 35.8206 100.398Z" fill="#263238"/>
<path d="M27.6025 69.9585C29.3415 75.1957 37.1287 91.845 40.3988 93.011C43.8057 94.2177 56.9619 95.7234 59.8821 93.4268C61.3118 92.2962 61.8087 80.2452 59.8821 80.5494C57.9556 80.8536 46.3558 81.2744 44.9768 80.7826C43.5978 80.2908 34.386 66.8811 30.6444 63.6162C24.1905 58.014 26.6747 67.1346 27.6025 69.9585Z" fill="#F7A9A0"/>
<path d="M56.9719 80.3466L56.7844 95.3483C56.7844 95.3483 43.2935 95.3838 39.699 93.4927C36.1045 91.6017 28.4998 74.2679 26.5986 67.6366C24.6974 61.0052 27.7393 59.9811 32.5709 64.8482C37.4024 69.7152 44.6675 79.9157 45.5293 80.1236C46.3912 80.3314 56.9719 80.3466 56.9719 80.3466Z" fill="#132183"/>
<path d="M38.9691 72.2603C36.1932 72.7259 33.5053 73.6151 30.9993 74.8966L30.543 75.1349C30.4264 75.1907 30.3149 75.2515 30.2033 75.3174C29.9803 75.434 29.7623 75.5557 29.5442 75.6875L29.4479 75.4442L29.9093 75.1755L30.2439 74.998C30.4517 74.8814 30.6647 74.7648 30.8776 74.6583C32.1645 73.9907 33.5061 73.4343 34.8878 72.9954C36.1667 72.5812 37.4751 72.2643 38.8018 72.0474L38.9691 72.2603ZM41.9805 76.0475C41.7414 76.173 41.496 76.2864 41.2454 76.3871C40.5978 76.66 39.9152 76.8409 39.2175 76.9245C38.8626 76.9651 38.5077 77.0259 38.1528 77.0462L37.0831 77.0766C35.6519 77.0379 34.2398 76.739 32.9157 76.1945C32.1197 75.8852 31.344 75.5101 30.5684 75.1349C30.467 75.0943 30.3706 75.0436 30.2692 74.998C30.0259 74.8865 29.7622 74.7699 29.5341 74.6634L29.2958 74.562L29.0728 74.4657L29.1589 74.6786C29.1589 74.7395 29.2096 74.8003 29.2299 74.8611H29.2755L29.9296 75.1552L30.2236 75.2971C31.0652 75.6977 31.9119 76.1235 32.794 76.4683C34.1536 77.0275 35.6034 77.335 37.0729 77.3758L38.168 77.3504C38.5331 77.3504 38.8981 77.2642 39.258 77.2237C39.99 77.1392 40.7067 76.9532 41.3874 76.6711C41.6697 76.5599 41.9456 76.4329 42.2137 76.2908L41.9805 76.0475ZM36.789 69.5885C35.8404 70.0286 34.9179 70.5229 34.026 71.0689C32.348 72.1014 30.7575 73.2696 29.2705 74.562L29.1336 74.6786C29.1336 74.7395 29.1843 74.8003 29.2046 74.8611V74.9017C29.2046 74.9017 29.2046 74.9017 29.235 74.9017C29.3212 74.8256 29.4023 74.7496 29.4885 74.6837C30.9493 73.4392 32.5073 72.3134 34.1477 71.3173C35.0565 70.7737 35.9923 70.2762 36.9513 69.8268L36.789 69.5885Z" fill="white"/>
<path d="M53.0428 87.7536C53.0428 86.5622 53.129 81.8118 53.2354 80.6559H53.2709C53.3875 81.8017 53.4484 86.4913 53.4433 87.6827C53.4825 90.0517 53.3928 92.4211 53.1746 94.7804C53.1717 94.7882 53.1665 94.7949 53.1597 94.7996C53.1529 94.8043 53.1449 94.8069 53.1366 94.8069C53.1283 94.8069 53.1202 94.8043 53.1134 94.7996C53.1066 94.7949 53.1014 94.7882 53.0986 94.7804C52.9211 92.4432 53.0174 90.0959 53.0428 87.7536Z" fill="#263238"/>
<path opacity="0.1" d="M26.5883 67.6315C28.4895 74.268 36.0943 91.5966 39.6888 93.4877C41.4125 94.3952 45.4076 94.8616 49.1035 95.0948L27.9319 61.8114C26.1219 61.6187 25.4375 63.5808 26.5883 67.6315Z" fill="black"/>
<path d="M9.54373 104.129C9.62484 104.21 42.5382 101.959 42.8119 101.594C43.1973 101.087 32.7788 67.6265 30.1678 62.7341C29.0575 60.6403 23.7342 60.3361 21.6302 62.3184C16.3626 67.2716 12.6972 83.2872 11.9265 88.0884C10.649 96.0074 9.24968 103.84 9.54373 104.129Z" fill="#132183"/>
<path d="M41.0527 94.9376L40.1299 94.3952C38.8863 93.6707 37.6052 93.0124 36.2921 92.423L35.5722 92.1087L35.2224 91.9667C34.2528 91.5662 33.2588 91.2276 32.2464 90.9527C30.8628 90.5667 29.445 90.3154 28.0131 90.2024C25.1394 90.0779 22.264 90.4029 19.4907 91.1657L18.9837 91.3076C18.8569 91.338 18.7353 91.3735 18.6136 91.4141C16.6812 92.0049 14.8035 92.7614 13.0013 93.6752C12.4943 93.9135 11.9873 94.1822 11.5209 94.4306L11.3688 94.5118L10.8111 94.8109L10.8568 94.5523L11.4296 94.2583C11.9975 93.949 12.5704 93.6499 13.1483 93.371C13.6249 93.1277 14.1116 92.8996 14.5983 92.6816C15.8225 92.1201 17.0786 91.6309 18.3601 91.2164L18.7302 91.1099C18.9583 91.0339 19.1865 90.9679 19.4197 90.9071C20.8164 90.5143 22.2447 90.2445 23.6885 90.101C25.1296 89.9446 26.5811 89.9073 28.0283 89.9895C30.5737 90.2069 33.0677 90.8317 35.415 91.84L35.7598 91.9921L36.3631 92.2608C37.6781 92.8667 38.9593 93.5437 40.2009 94.2887L40.9918 94.7551L41.0527 94.9376ZM39.3492 89.3608C38.5076 89.8678 37.6863 90.3748 36.87 90.9122C36.3631 91.2265 35.9017 91.5459 35.415 91.8552L35.2224 91.9819C34.5582 92.4078 33.8839 92.8184 33.1944 93.2037C31.9601 93.9252 30.6155 94.4391 29.2146 94.7247C28.5149 94.8589 27.7999 94.8947 27.0903 94.8312C26.7355 94.7957 26.3755 94.7855 26.0257 94.7348L24.9712 94.5473C23.5787 94.2138 22.2579 93.6316 21.0725 92.8286C20.3576 92.3621 19.6783 91.8146 18.9888 91.3076L18.7251 91.1099C18.5122 90.9477 18.2942 90.7854 18.0762 90.6333L17.8683 90.4812L17.5641 90.2734C16.3565 89.4135 14.9238 88.9254 13.4424 88.869C12.8579 88.8799 12.2804 88.9985 11.7389 89.2189L11.6933 89.4926C12.2464 89.2622 12.8381 89.1383 13.4373 89.1276C14.8649 89.1962 16.2412 89.6808 17.3968 90.5218L17.5743 90.6435L17.7821 90.7905C17.9748 90.9274 18.1674 91.0693 18.355 91.2164L18.6187 91.4141C19.3639 91.9819 20.1041 92.57 20.9001 93.0871C22.114 93.9122 23.4676 94.5099 24.8951 94.8514L25.9801 95.0492C26.34 95.0999 26.705 95.1151 27.0701 95.1506C27.805 95.214 28.545 95.1782 29.2704 95.0441C30.7 94.7484 32.0706 94.2173 33.3262 93.4724C34.0816 93.0466 34.8168 92.5852 35.5418 92.1087L35.7293 91.9921L37.0069 91.1555C37.7978 90.6486 38.5989 90.1416 39.41 89.6346L39.3492 89.3608ZM38.7915 87.5661C37.9109 87.2815 37.0156 87.0446 36.1096 86.8563C34.6833 86.5679 33.2298 86.4353 31.7749 86.4609C30.3195 86.4882 28.8693 86.6409 27.4402 86.9172C26.012 87.1865 24.6068 87.5662 23.2373 88.0528C21.3851 88.7184 19.5911 89.5357 17.8734 90.4965C17.772 90.5472 17.6757 90.6029 17.5793 90.6587C16.8594 91.0592 16.1547 91.4749 15.4551 91.9059C14.6794 92.3824 13.9088 92.8742 13.1483 93.371C12.5551 93.7513 11.967 94.1417 11.3789 94.527L10.8111 94.8971C10.8111 94.9782 10.7858 95.0542 10.7756 95.1303C11.526 94.6537 12.2662 94.167 13.0114 93.6905C13.5184 93.3508 14.066 93.0111 14.5983 92.6765C14.9177 92.4737 15.2371 92.276 15.5616 92.0833C16.2916 91.6422 17.0369 91.2113 17.7872 90.8006L18.0813 90.6435C19.7641 89.7221 21.519 88.9387 23.3285 88.3012C26.0446 87.3339 28.8934 86.7901 31.7749 86.689C33.2152 86.6558 34.6549 86.7781 36.069 87.054C37.0133 87.2443 37.9459 87.488 38.8625 87.7841C38.8371 87.6979 38.8118 87.6219 38.7915 87.5509V87.5661Z" fill="white"/>
<path d="M17.2093 66.1207C8.47395 75.7534 -1.37673 92.0326 2.8363 95.5257C6.68937 98.6995 20.7429 95.6778 29.5796 92.2253C31.2628 91.5662 24.4388 76.6913 22.7252 77.5735C20.921 78.5339 19.0584 79.3806 17.1484 80.1084C16.6414 80.2402 19.3183 76.9955 22.2791 69.1981C25.2703 61.2334 22.203 60.6098 17.2093 66.1207Z" fill="#F7A9A0"/>
<path d="M44.196 76.448C44.196 78.1768 39.9424 77.8371 39.9424 77.8371C40.5624 78.2409 41.0216 78.849 41.2403 79.5558C41.5597 80.8283 39.7193 81.893 39.7193 81.893C40.2718 82.4474 40.6476 83.1531 40.7992 83.9209C40.9817 85.1681 39.2782 86.5116 39.2782 86.5116C39.5036 87.3082 39.4352 88.1593 39.0856 88.9096C38.0716 90.8818 34.6647 90.9376 32.5607 91.3634C30.2032 91.9086 27.8939 92.6444 25.6556 93.5638L21.7417 78.0247C21.7417 78.0247 30.8674 72.6051 33.4023 72.7268C35.5418 72.8738 44.1858 73.8016 44.196 76.448Z" fill="#F7A9A0"/>
<path d="M39.9069 77.7864C37.6457 77.1273 35.2325 77.0158 32.9054 76.9296C32.8547 76.9296 32.8497 77.0056 32.9054 77.0107C35.2274 77.0664 37.5849 77.7458 39.8917 77.8979C39.9064 77.8999 39.9214 77.896 39.9333 77.8869C39.9452 77.8779 39.953 77.8645 39.955 77.8497C39.957 77.8349 39.9531 77.82 39.9441 77.8081C39.935 77.7962 39.9217 77.7884 39.9069 77.7864Z" fill="#263238"/>
<path d="M39.6433 81.7358C39.1154 81.6365 38.5767 81.6075 38.0412 81.6496C37.4734 81.6496 36.9056 81.6749 36.3377 81.7003C35.1987 81.751 34.0631 81.8321 32.9308 81.9436C32.8801 81.9436 32.875 82.0248 32.9308 82.0248C34.0665 81.9741 35.2021 81.9386 36.3327 81.9335H38.0361C38.572 81.9775 39.1112 81.9605 39.6433 81.8828C39.6573 81.8763 39.6691 81.8659 39.6774 81.8529C39.6857 81.8398 39.6901 81.8247 39.6901 81.8093C39.6901 81.7939 39.6857 81.7787 39.6774 81.7657C39.6691 81.7527 39.6573 81.7423 39.6433 81.7358Z" fill="#263238"/>
<path d="M39.1971 86.5572C38.7191 86.4735 38.2301 86.4735 37.7521 86.5572L36.2211 86.6535C35.2071 86.7093 34.1475 86.7701 33.1082 86.7904C33.0974 86.7904 33.0871 86.7947 33.0795 86.8023C33.0719 86.8099 33.0676 86.8202 33.0676 86.8309C33.0676 86.8417 33.0719 86.852 33.0795 86.8596C33.0871 86.8672 33.0974 86.8715 33.1082 86.8715C34.1627 86.8715 35.2172 86.8715 36.2718 86.8259L37.8231 86.7802C38.2958 86.8089 38.7698 86.7523 39.2224 86.6129C39.2298 86.6096 39.2356 86.6034 39.2384 86.5958C39.2413 86.5882 39.241 86.5798 39.2376 86.5724C39.2342 86.565 39.2281 86.5592 39.2205 86.5564C39.2129 86.5535 39.2044 86.5538 39.1971 86.5572Z" fill="#263238"/>
<path d="M21.3006 77.898L24.667 94.6284C24.667 94.6284 3.74381 100.089 1.57392 94.7957C-0.595968 89.5028 11.7136 69.8471 18.8113 64.2398C25.9091 58.6326 23.2424 67.4643 23.0244 68.174C22.0662 71.3123 17.6047 79.495 17.6047 79.495L21.3006 77.898Z" fill="#132183"/>
<path d="M24.6671 94.6081C24.6671 94.6081 3.74392 100.068 1.57403 94.7754C0.407974 91.9262 3.42959 84.9248 7.57164 78.187L7.63755 78.0805L7.72374 77.9436C7.74909 77.898 7.77951 77.8523 7.80993 77.8067C9.3058 75.3955 10.9235 73.0621 12.6567 70.8154L12.8341 70.5873C14.5799 68.2492 16.5814 66.1134 18.8013 64.2196C25.8991 58.6123 23.2323 67.444 23.0143 68.1538C22.9484 68.3768 22.8622 68.6253 22.7609 68.894C22.7203 68.9954 22.6797 69.1069 22.6341 69.2184C22.0511 70.709 21.1132 72.7166 20.1651 74.562L20.0536 74.7851C20.0536 74.7851 20.0536 74.8358 20.0181 74.8561L19.9572 74.9727C18.7557 77.3403 17.6657 79.3479 17.5998 79.4696L21.3007 77.898L24.6671 94.6081Z" fill="#132183"/>
<path d="M20.1649 74.562L20.0534 74.7851C20.0534 74.7851 20.0534 74.8358 20.0179 74.856L19.7644 75.0183L17.701 76.3618C16.49 77.1593 15.2245 77.8708 13.9138 78.4911C13.2503 78.797 12.5549 79.0283 11.8403 79.1806C11.1169 79.3491 10.3621 79.3264 9.65009 79.1147C9.47265 79.064 9.29013 79.0234 9.14311 78.9677L8.63612 78.7497C8.29916 78.6058 7.97373 78.4363 7.66272 78.2427L7.58667 78.1971L7.65258 78.0906L7.73876 77.9537C7.7616 77.9755 7.78716 77.9942 7.81481 78.0095L7.88579 78.05C8.15906 78.2301 8.44743 78.3862 8.74766 78.5165L9.25464 78.7294L9.76163 78.8764C10.4361 79.082 11.1526 79.1082 11.8403 78.9525C12.5383 78.8074 13.2183 78.5864 13.8682 78.2934C15.1699 77.6876 16.4285 76.9931 17.6351 76.2148L19.2828 75.1602L19.7137 74.8814L20.1649 74.562ZM19.6579 74.8712C17.0571 75.505 14.507 76.3111 11.9112 76.9448C10.5525 77.2845 9.17353 77.5836 7.78946 77.8067C7.75904 77.8523 7.72862 77.8979 7.70328 77.9436L7.61709 78.0805L7.8503 78.0399C9.23436 77.8067 10.6083 77.4974 11.967 77.1527C14.4056 76.5392 16.7986 75.7787 19.227 75.1501L19.734 75.0183C19.7948 75.0183 19.8607 74.9828 19.9266 74.9726L19.9875 74.856C19.9875 74.856 19.9875 74.8104 20.023 74.7851L19.6579 74.8712ZM19.8252 70.6582C19.1942 70.9983 18.5342 71.2816 17.8531 71.5049C17.1852 71.7326 16.478 71.8223 15.7744 71.7685C14.7069 71.6184 13.6913 71.2132 12.8137 70.5872L12.6362 70.8154C13.5594 71.4638 14.6256 71.8795 15.744 72.0271C16.4849 72.0807 17.2288 71.9806 17.9291 71.733C18.6311 71.505 19.3101 71.2113 19.9571 70.8559C20.8783 70.3561 21.7735 69.8095 22.639 69.2184C22.6846 69.1069 22.7252 68.9953 22.7657 68.8939C21.8236 69.5324 20.8489 70.1213 19.8455 70.6582H19.8252Z" fill="white"/>
<path d="M20.9407 77.9131C18.5376 78.7547 12.2408 81.898 10.8568 83.1858C10.8509 83.1935 10.8476 83.203 10.8474 83.2127C10.8473 83.2225 10.8502 83.232 10.8559 83.24C10.8616 83.2479 10.8697 83.2538 10.8789 83.2568C10.8882 83.2599 10.8982 83.2598 10.9075 83.2567C12.2662 82.2985 20.0332 78.4911 21.2651 78.0247C21.2651 78.0247 21.326 78.1717 21.3513 78.2123C21.3767 78.2528 21.4223 78.2376 21.4223 78.1818C21.4008 78.0448 21.3703 77.9093 21.331 77.7762L20.9407 77.9131Z" fill="#263238"/>
<path d="M19.151 87.2619C18.9228 86.0959 18.0508 81.4215 17.9241 80.2453C17.9241 80.2453 17.9241 80.2199 17.9545 80.2453C18.2992 81.3404 19.2929 85.9286 19.5261 87.0946C20.0419 89.4138 20.4295 91.7596 20.6871 94.1214C20.6871 94.162 20.6263 94.1873 20.6111 94.1214C19.9976 91.8805 19.5971 89.5586 19.151 87.2619Z" fill="#263238"/>
<path d="M17.4323 79.5558C18.0863 78.1312 18.8873 76.7775 19.6073 75.3884C20.3272 73.9993 21.0724 72.6203 21.7417 71.2159H21.7721C21.3665 72.1741 20.9609 73.1323 20.5249 74.0753C20.6567 73.9283 20.7784 73.7711 20.9001 73.614C21.1231 73.3301 21.3259 73.0309 21.5287 72.7318C21.5287 72.7318 21.5642 72.7318 21.5591 72.7318C21.4013 73.0673 21.2057 73.3837 20.9761 73.6748C20.8064 73.8934 20.6199 74.0985 20.4184 74.2883C20.241 74.6736 20.0534 75.0589 19.8608 75.4391C19.2365 76.8544 18.5061 78.2204 17.6757 79.5254C17.6452 79.6217 17.407 79.6217 17.4323 79.5558Z" fill="#263238"/>
<path d="M10.4868 96.9655C12.9558 96.9351 22.2792 95.1049 24.586 94.6283C24.5555 94.385 24.586 94.2988 24.5251 93.954C24.5251 93.9084 24.591 93.8881 24.6012 93.954C24.662 94.2836 24.8851 94.9376 24.7938 94.968C23.6835 95.404 12.9101 97.2849 10.4868 97.0821C10.4791 97.0821 10.4715 97.0806 10.4645 97.0777C10.4574 97.0748 10.451 97.0705 10.4455 97.065C10.4401 97.0596 10.4358 97.0532 10.4329 97.0461C10.43 97.0391 10.4285 97.0315 10.4285 97.0238C10.4285 97.0162 10.43 97.0086 10.4329 97.0015C10.4358 96.9944 10.4401 96.988 10.4455 96.9826C10.451 96.9772 10.4574 96.9729 10.4645 96.97C10.4715 96.967 10.4791 96.9655 10.4868 96.9655Z" fill="#263238"/>
<path d="M35.5977 95.2773L52.9517 97.6145L59.5374 73.4871L42.1834 71.155L35.5977 95.2773Z" fill="#263238"/>
<path d="M36.4492 95.3939L53.8032 97.726L60.389 73.6038L43.0349 71.2666L36.4492 95.3939Z" fill="#37474F"/>
<path d="M50.8426 83.7282C50.7341 84.179 50.4643 84.5744 50.0841 84.8397C49.7039 85.105 49.2397 85.2218 48.7792 85.1681C48.5619 85.1451 48.3522 85.0756 48.1642 84.9643C47.9762 84.853 47.8145 84.7025 47.6899 84.523C47.5653 84.3436 47.4808 84.1394 47.4422 83.9244C47.4035 83.7094 47.4117 83.4886 47.4661 83.277C47.5745 82.8259 47.8441 82.4299 48.2241 82.1638C48.6042 81.8977 49.0685 81.7797 49.5295 81.8321C49.7473 81.855 49.9576 81.9246 50.146 82.0362C50.3344 82.1478 50.4965 82.2988 50.6212 82.4789C50.7458 82.6589 50.8302 82.8637 50.8684 83.0794C50.9066 83.295 50.8978 83.5163 50.8426 83.7282Z" fill="white"/>
<path d="M60.2167 78.5773C60.9417 80.6052 63.0102 83.2466 63.0406 84.8486C63.0612 85.2432 62.9546 85.634 62.7365 85.9635C62.5184 86.2929 62.2002 86.5437 61.8289 86.6789C61.8289 86.6789 63.3499 87.6269 63.1116 89.082C63.0051 89.8323 61.7073 90.319 61.7073 90.319C62.0354 90.5513 62.2928 90.8699 62.4512 91.2394C62.6096 91.6089 62.6627 92.015 62.6046 92.4128C62.3917 93.4268 61.1242 93.7665 61.1242 93.7665C61.1242 93.7665 61.8847 95.0694 61.3321 96.0428C60.2066 98.015 51.2786 97.1075 50.2342 93.6752C49.7273 92.0782 51.9124 92.4179 51.9124 92.4179C51.9124 92.4179 48.911 91.1758 49.053 89.3304C49.1949 87.485 51.9833 88.0933 51.9833 88.0933C51.9833 88.0933 49.0885 86.8664 49.4484 84.9653C49.8084 83.0641 52.4903 84.078 52.4903 84.078C52.4903 84.078 50.6398 82.5571 51.233 81.1375C52.2115 78.8308 55.6691 82.2073 57.6768 81.9386L59.0912 78.8105L60.2167 78.5773Z" fill="#F7A9A0"/>
<path d="M61.7223 81.5837C61.2153 79.6014 63.8111 77.4822 63.588 75.4999C63.2889 72.8383 60.1 75.0943 59.0657 78.8055L58.7666 81.8474L61.7223 81.5837Z" fill="#F7A9A0"/>
<path d="M60.9365 93.8476C60.9432 93.8476 60.9497 93.8503 60.9544 93.855C60.9592 93.8598 60.9618 93.8662 60.9618 93.8729C60.9618 93.8797 60.9592 93.8861 60.9544 93.8909C60.9497 93.8956 60.9432 93.8983 60.9365 93.8983C57.8144 94.3373 54.6325 93.8194 51.8108 92.4128C51.7195 92.3672 51.7601 92.1999 51.8666 92.2354C54.7956 93.21 57.851 93.7531 60.9365 93.8476Z" fill="#263238"/>
<path d="M61.7477 90.3393C61.7832 90.3393 61.7832 90.4001 61.7477 90.4052C58.295 90.8633 54.7922 90.0721 51.8717 88.1744C51.7703 88.1035 51.75 87.9412 51.8717 88.0122C53.9148 89.1884 58.8478 90.2936 61.7477 90.3393Z" fill="#263238"/>
<path d="M52.2975 83.8651C55.1721 85.6953 58.3408 86.4 61.7021 86.6991C61.7426 86.6991 61.7376 86.765 61.7021 86.7701C60.0189 87.0844 57.8946 86.6839 56.2723 86.2327C54.7533 85.8439 53.3633 85.0623 52.2418 83.9665C52.1911 83.9209 52.2367 83.8245 52.2975 83.8651Z" fill="#263238"/>
<path d="M30.7812 64.0219C30.842 65.5428 30.8877 68.9954 28.5454 68.7368C27.604 68.5498 26.7363 68.0957 26.046 67.4288C25.3071 66.8154 24.6388 66.1216 24.0535 65.3603C23.3821 64.5332 22.7786 63.6532 22.2487 62.7291C22.2487 62.6936 22.1675 62.7291 22.1929 62.7696C22.7303 63.6974 23.1764 64.6556 23.8051 65.5327C24.3987 66.3828 25.1048 67.1485 25.904 67.809C26.6546 68.5063 27.6016 68.9559 28.6164 69.0968C29.0516 69.1274 29.484 69.0063 29.8399 68.7539C30.1958 68.5015 30.4532 68.1336 30.5683 67.7127C30.9145 66.5138 30.9872 65.2526 30.7812 64.0219Z" fill="#263238"/>
<path d="M28.4745 67.2107C26.7812 67.3578 24.0131 64.1689 23.2019 62.004C23.4146 60.8759 23.6837 59.7592 24.008 58.6579C24.2666 57.5882 24.515 56.3867 24.6975 55.2764L31.4201 57.9887C30.8199 59.3218 30.3841 60.7229 30.1222 62.1612C30.1073 62.3146 30.1073 62.4691 30.1222 62.6226C30.1222 62.6226 30.1222 62.6732 30.1222 62.6986C30.1374 63.5858 30.107 67.0688 28.4745 67.2107Z" fill="#F7A9A0"/>
<path d="M30.1018 62.6226C30.1043 62.6479 30.1043 62.6734 30.1018 62.6986C29.8606 62.6971 29.6199 62.6767 29.3818 62.6378C25.3564 61.9534 25.1283 56.8785 25.1485 55.464L26.8317 56.1383L31.3946 57.9888C30.7946 59.3215 30.3604 60.7228 30.1018 62.1612C30.087 62.3147 30.087 62.4692 30.1018 62.6226Z" fill="#263238"/>
<path d="M23.9268 47.6716C23.2272 50.2065 24.7278 57.3702 26.5428 58.9317C29.1791 61.203 33.3972 61.3196 35.3035 58.1713C37.1489 55.1294 35.0297 45.7958 33.0069 44.3864C30.0309 42.3027 24.956 43.9504 23.9268 47.6716Z" fill="#F7A9A0"/>
<path d="M31.0095 52.204C31.0095 52.204 30.979 52.2344 31.0095 52.2547C31.121 52.7363 31.1717 53.3092 30.7661 53.5576C30.7661 53.5576 30.7661 53.588 30.7661 53.583C31.268 53.4005 31.1971 52.6451 31.0095 52.204Z" fill="#263238"/>
<path d="M30.4769 51.7883C29.686 51.8897 29.97 53.4614 30.6747 53.3701C31.3794 53.2788 31.1512 51.7072 30.4769 51.7883Z" fill="#263238"/>
<path d="M33.7623 51.6718C33.7623 51.6718 33.8079 51.6718 33.8079 51.7123C33.8738 52.2193 34.031 52.7516 34.4974 52.8429V52.8682C33.9448 52.8682 33.7471 52.1382 33.7623 51.6718Z" fill="#263238"/>
<path d="M34.1171 51.0836C34.8928 50.896 35.2122 52.4575 34.4923 52.6046C33.7724 52.7516 33.4682 51.2408 34.1171 51.0836Z" fill="#263238"/>
<path d="M29.7369 51.1647C29.9347 51.073 30.1261 50.968 30.3098 50.8504C30.5224 50.7679 30.7011 50.6161 30.8168 50.4195C30.8429 50.3494 30.8451 50.2726 30.8231 50.2011C30.8011 50.1296 30.7561 50.0673 30.6951 50.024C30.5623 49.9562 30.4137 49.9252 30.2649 49.9341C30.116 49.943 29.9722 49.9916 29.8484 50.0747C29.5735 50.2049 29.3566 50.4325 29.2401 50.7135C29.214 50.7813 29.209 50.8553 29.2258 50.9259C29.2426 50.9965 29.2803 51.0604 29.334 51.1092C29.3877 51.158 29.455 51.1894 29.5269 51.1993C29.5988 51.2092 29.672 51.1972 29.7369 51.1647Z" fill="#263238"/>
<path d="M34.6242 50.602C34.4011 50.602 34.1932 50.5614 33.9702 50.5411C33.7375 50.5518 33.5078 50.4859 33.3162 50.3535C33.2652 50.2992 33.2332 50.2298 33.225 50.1558C33.2168 50.0818 33.2328 50.0071 33.2705 49.9429C33.3655 49.8282 33.4893 49.741 33.6292 49.6902C33.7692 49.6394 33.9201 49.6269 34.0665 49.6539C34.3722 49.6621 34.6637 49.7852 34.8827 49.9986C34.9296 50.0497 34.9607 50.1132 34.9724 50.1816C34.984 50.2499 34.9757 50.3201 34.9484 50.3839C34.9211 50.4476 34.876 50.502 34.8185 50.5407C34.761 50.5794 34.6935 50.6007 34.6242 50.602Z" fill="#263238"/>
<path d="M31.0804 56.7669C31.2044 56.8913 31.3671 56.97 31.5417 56.9899C31.7237 56.955 31.8963 56.8824 32.0487 56.777C32.0487 56.777 32.0842 56.777 32.0487 56.8023C31.9936 56.9092 31.911 56.9994 31.8094 57.0635C31.7078 57.1277 31.5909 57.1636 31.4707 57.1674C31.3677 57.1563 31.2701 57.1154 31.1899 57.0497C31.1097 56.9839 31.0505 56.8962 31.0195 56.7973C31.0297 56.7719 31.0652 56.7415 31.0804 56.7669Z" fill="#263238"/>
<path d="M31.3542 55.1091C31.5104 55.2814 31.7004 55.4199 31.9123 55.5158C32.1242 55.6117 32.3536 55.6631 32.5862 55.6667C32.7896 55.6707 32.9926 55.6468 33.1895 55.5958L33.301 55.5653L33.4024 55.5299C33.4282 55.5209 33.4502 55.5035 33.4649 55.4805C33.4796 55.4575 33.4862 55.4303 33.4835 55.4031C33.4865 55.3863 33.4865 55.3692 33.4835 55.3524V55.3118C33.4328 54.9316 33.301 54.3689 33.301 54.3689C33.4481 54.4145 34.2035 54.6173 34.1578 54.4196C33.8385 52.7346 33.3476 51.0868 32.6926 49.5018C32.6895 49.4929 32.6837 49.4851 32.676 49.4796C32.6683 49.4741 32.659 49.4712 32.6496 49.4712C32.6401 49.4712 32.6308 49.4741 32.6231 49.4796C32.6154 49.4851 32.6096 49.4929 32.6065 49.5018C32.8904 51.0633 33.4531 52.5437 33.7675 54.1204C33.4986 54.0452 33.2202 54.0094 32.9411 54.014C32.8904 54.014 33.2148 55.0989 33.2199 55.2713C32.9174 55.3521 32.6018 55.3713 32.2918 55.3277C31.9817 55.2842 31.6836 55.1788 31.415 55.0178C31.3542 55.033 31.3187 55.0736 31.3542 55.1091Z" fill="#263238"/>
<path d="M32.9663 55.5044C32.8045 55.7995 32.5708 56.0488 32.2869 56.2294C32.1336 56.3187 31.9569 56.3593 31.78 56.346C31.3794 56.3105 31.3135 55.9607 31.3338 55.6464C31.3445 55.474 31.3768 55.3037 31.4301 55.1394C31.8911 55.4196 32.4286 55.5473 32.9663 55.5044Z" fill="#263238"/>
<path d="M32.2869 56.2345C32.1336 56.3238 31.9569 56.3644 31.78 56.3511C31.3794 56.3156 31.3135 55.9658 31.3338 55.6515C31.5348 55.6293 31.7375 55.6746 31.91 55.7801C32.0826 55.8856 32.2151 56.0455 32.2869 56.2345Z" fill="#FF9ABB"/>
<path d="M34.3859 46.4802C33.9803 45.9175 33.5342 45.3547 33.1286 45.3091C32.723 45.2635 32.6774 46.2369 31.8358 46.4802C30.6951 46.8047 29.9092 45.8668 28.2869 46.1C25.9294 46.4397 25.3261 48.5994 25.9801 51.8999C26.5632 54.8505 24.8496 55.5096 24.8496 55.5096C24.8496 55.5096 22.3755 49.2585 23.7393 46.7185C25.103 44.1785 29.093 42.328 32.358 43.773C33.519 44.2951 34.3859 46.4802 34.3859 46.4802Z" fill="#263238"/>
<path d="M26.0408 53.8721C26.0408 53.8721 24.3019 51.616 23.2727 52.2446C22.2435 52.8733 23.6175 56.1991 24.8849 56.6047C25.043 56.6683 25.2123 56.6992 25.3827 56.6954C25.553 56.6915 25.7208 56.6531 25.8758 56.5825C26.0309 56.5118 26.1699 56.4104 26.2846 56.2844C26.3992 56.1584 26.4871 56.0103 26.5428 55.8493L26.0408 53.8721Z" fill="#F7A9A0"/>
<path d="M23.6885 53.1926C23.6885 53.1926 23.6885 53.1926 23.6885 53.2281C24.0963 53.4094 24.4617 53.674 24.7612 54.0049C25.0607 54.3358 25.2876 54.7257 25.4274 55.1496C25.3726 55.0646 25.3 54.9925 25.2146 54.9383C25.1292 54.8841 25.0331 54.849 24.9329 54.8355C24.8327 54.822 24.7307 54.8304 24.634 54.8601C24.5373 54.8899 24.4483 54.9402 24.3729 55.0076C24.3729 55.0076 24.3729 55.0583 24.3983 55.0533C24.5494 54.9965 24.7143 54.9879 24.8705 55.0288C25.0267 55.0696 25.1663 55.1579 25.2703 55.2814C25.4381 55.4918 25.5858 55.7176 25.7113 55.9557C25.7519 56.0317 25.8939 55.9861 25.8584 55.8948C25.8229 54.7592 24.89 53.2433 23.6885 53.1926Z" fill="#263238"/>
<path d="M29.9903 42.8806C29.0013 42.5986 27.9768 42.4603 26.9484 42.47C25.7874 42.5054 22.2537 43.342 21.5085 44.1937C20.7632 45.0454 21.0674 48.4524 21.1232 48.9492C21.1789 49.446 21.8634 52.3916 23.0598 52.9442C24.2563 53.4968 23.5668 48.4118 25.0016 46.465C26.4364 44.5182 29.9903 42.8806 29.9903 42.8806Z" fill="#132183"/>
<path opacity="0.1" d="M29.9903 42.8857C29.9903 42.8857 26.4414 44.5182 24.9763 46.465C23.5111 48.4118 24.2259 53.4918 23.0396 52.9443C22.763 52.7918 22.5194 52.586 22.3228 52.3389C22.1261 52.0918 21.9803 51.8082 21.8938 51.5044C21.8938 49.9835 22.1219 47.6007 23.1055 45.8161C24.0282 44.1481 25.899 43.0784 27.9877 42.5055C28.665 42.5739 29.3351 42.7012 29.9903 42.8857Z" fill="black"/>
<path d="M23.7999 55.905C23.6833 54.5412 24.4894 50.7084 25.6048 48.4118C26.7202 46.1152 30.7608 44.2444 31.354 44.1835C32.804 44.0416 33.2298 44.6905 33.4377 44.5131C33.6456 44.3356 31.9522 42.9414 31.5061 42.764C30.8406 42.5496 30.1355 42.4872 29.4427 42.5815C28.8191 42.693 25.0319 43.6816 23.8912 45.5423C22.7505 47.4029 21.5185 52.3156 22.0255 53.436C22.1573 53.7047 22.5325 53.8264 22.7404 54.2117C22.9837 54.7187 23.1865 55.3017 23.4045 55.6464C23.6225 55.9912 23.8101 56.0216 23.7999 55.905Z" fill="#132183"/>
<path d="M25.7875 47.4334C25.4358 47.2815 25.0967 47.1018 24.7736 46.896C24.4338 46.6919 24.1205 46.4467 23.8407 46.1659C23.8407 46.1659 23.7849 46.1659 23.8052 46.1963C24.051 46.5217 24.3471 46.8057 24.6823 47.0379C25.0191 47.2631 25.396 47.4215 25.7926 47.5043C25.802 47.5037 25.8108 47.4993 25.8169 47.4921C25.8231 47.485 25.8262 47.4757 25.8255 47.4663C25.8249 47.4569 25.8205 47.4481 25.8134 47.442C25.8062 47.4358 25.7969 47.4327 25.7875 47.4334Z" fill="#263238"/>
<path d="M23.5769 54.5564C23.5211 54.4651 23.4451 54.3891 23.3842 54.3029C23.3124 54.2058 23.2529 54.1002 23.2068 53.9886C23.1439 53.7702 23.0572 53.5593 22.9482 53.3599C22.8357 53.2119 22.7064 53.0775 22.5629 52.9594C22.391 52.8351 22.2659 52.6565 22.208 52.4524H22.1675C22.2283 52.863 22.5477 53.1115 22.7809 53.4258C22.8995 53.641 22.9979 53.8667 23.075 54.1001C23.1647 54.313 23.3213 54.491 23.5211 54.6071C23.5465 54.6223 23.5921 54.5919 23.5769 54.5564Z" fill="#263238"/>
<path d="M23.8103 53.0253C23.6582 52.8935 23.501 52.7769 23.3591 52.6299C23.2171 52.4829 23.1056 52.3257 22.989 52.1685C22.8724 52.0114 22.7811 51.8441 22.6696 51.6616C22.558 51.479 22.3907 51.3016 22.269 51.1039C22.269 51.1039 22.2183 51.1039 22.2336 51.1343C22.3603 51.332 22.4465 51.5602 22.5631 51.763C22.6676 51.9388 22.7827 52.1081 22.9078 52.2699C23.0261 52.427 23.1585 52.5729 23.3033 52.7059C23.4482 52.8453 23.621 52.9525 23.8103 53.0203C23.8103 53.0203 23.8204 53.0355 23.8103 53.0253Z" fill="#263238"/>
<path d="M24.094 51.6312C23.7726 51.4372 23.4821 51.1962 23.2321 50.9163C22.9888 50.6425 22.7555 50.3536 22.5325 50.0646C22.5325 50.0646 22.4818 50.0646 22.497 50.0646C22.6628 50.4079 22.8724 50.7283 23.1206 51.0177C23.2412 51.1595 23.3791 51.2856 23.5312 51.3929C23.6959 51.5024 23.8708 51.5957 24.0534 51.6717C24.0534 51.6717 24.1193 51.6717 24.094 51.6312Z" fill="#263238"/>
<path d="M24.4287 50.2826C24.2735 50.2086 24.1341 50.1053 24.0181 49.9784C23.8761 49.8466 23.7392 49.7097 23.6074 49.5677C23.4756 49.4309 23.3438 49.3041 23.217 49.1672C23.0801 49.0389 22.9713 48.8835 22.8976 48.7109C22.8976 48.7109 22.852 48.7109 22.8571 48.7109C22.8969 48.8959 22.9784 49.0693 23.0954 49.2179C23.2083 49.3981 23.3373 49.5678 23.4807 49.7249C23.6224 49.871 23.7731 50.0081 23.9319 50.1356C24.066 50.2581 24.2338 50.3376 24.4135 50.3637C24.4188 50.3647 24.4243 50.3646 24.4296 50.3635C24.4349 50.3624 24.44 50.3603 24.4444 50.3572C24.4489 50.3541 24.4527 50.3502 24.4557 50.3457C24.4586 50.3412 24.4607 50.3361 24.4617 50.3307C24.4627 50.3254 24.4626 50.3199 24.4615 50.3146C24.4604 50.3093 24.4582 50.3043 24.4552 50.2998C24.4521 50.2954 24.4482 50.2915 24.4437 50.2886C24.4391 50.2856 24.4341 50.2836 24.4287 50.2826Z" fill="#263238"/>
<path d="M24.5605 48.6299C24.4118 48.5285 24.2698 48.422 24.1347 48.3105C24.0028 48.1938 23.871 48.0772 23.7443 47.9556C23.6175 47.8339 23.4705 47.7021 23.3438 47.5652C23.3438 47.5652 23.2931 47.5652 23.3083 47.5905C23.4048 47.7502 23.5151 47.9012 23.6378 48.0418C23.759 48.179 23.8894 48.3077 24.0282 48.4271C24.1657 48.5469 24.3114 48.657 24.4642 48.7566C24.6142 48.8713 24.7871 48.9525 24.9712 48.9949C24.9754 48.9921 24.9788 48.9883 24.9812 48.9839C24.9835 48.9795 24.9848 48.9746 24.9848 48.9695C24.9848 48.9645 24.9835 48.9596 24.9812 48.9551C24.9788 48.9507 24.9754 48.947 24.9712 48.9442C24.8443 48.827 24.7068 48.7217 24.5605 48.6299Z" fill="#263238"/>
<path d="M26.705 46.5005C26.5428 46.3586 26.3856 46.2166 26.1981 46.0848C26.0105 45.953 25.8381 45.8364 25.6454 45.7248C25.2816 45.5015 24.8939 45.3195 24.4895 45.1824C24.4895 45.1824 24.4439 45.2077 24.4895 45.2229C25.2094 45.6691 25.9547 46.0848 26.6746 46.5411C26.68 46.5451 26.6868 46.5469 26.6934 46.5459C26.7001 46.545 26.7061 46.5414 26.7101 46.536C26.7141 46.5306 26.7159 46.5239 26.7149 46.5172C26.714 46.5106 26.7104 46.5046 26.705 46.5005Z" fill="#263238"/>
<path d="M27.3388 45.2178C27.1822 45.0812 27.0123 44.9607 26.8318 44.8578C26.4317 44.6564 26.0098 44.5016 25.5745 44.3965C25.544 44.3965 25.5288 44.4269 25.5745 44.437C25.9648 44.6145 26.3552 44.7869 26.7304 44.9846C26.9129 45.086 27.1005 45.1874 27.2728 45.304C27.4452 45.4206 27.5922 45.5778 27.7798 45.7045C27.6675 45.5139 27.5174 45.3483 27.3388 45.2178Z" fill="#263238"/>
<path d="M28.3781 44.5131C28.2228 44.3733 28.0528 44.2509 27.8711 44.148C27.5393 43.9467 27.1759 43.8027 26.7963 43.7222C26.7963 43.7222 26.7608 43.7577 26.7963 43.7678C27.1489 43.9058 27.4883 44.0754 27.8103 44.2748C27.9725 44.3762 28.1347 44.4877 28.3172 44.5993C28.4998 44.7108 28.6265 44.8527 28.7938 44.944C28.6692 44.7875 28.53 44.6432 28.3781 44.5131Z" fill="#263238"/>
<path d="M29.0828 43.7121C28.9256 43.6208 28.7583 43.5346 28.5758 43.4535C28.4173 43.3645 28.2465 43.2996 28.0688 43.2609V43.3065L28.9916 43.849C29.2632 44.0371 29.5147 44.2529 29.7419 44.4928C29.7419 44.4928 29.7723 44.4928 29.7419 44.4928C29.6062 44.172 29.3764 43.8997 29.0828 43.7121Z" fill="#263238"/>
<path d="M30.0614 43.3369C29.7614 43.1355 29.4259 42.9927 29.0728 42.9161C29.0474 42.9161 29.0373 42.9516 29.0728 42.9618C29.403 43.0823 29.7126 43.2533 29.9904 43.4687C30.272 43.6733 30.5304 43.9078 30.761 44.1684C30.761 44.1684 30.7965 44.1684 30.7864 44.1684C30.616 43.8363 30.3672 43.5509 30.0614 43.3369Z" fill="#263238"/>
<path d="M32.3073 43.6766C32.2142 43.5834 32.116 43.4954 32.0133 43.4129C31.9104 43.3311 31.802 43.2566 31.6888 43.1899C31.5722 43.1189 31.4556 43.053 31.3441 42.9769C31.3441 42.9769 31.2934 43.0023 31.3441 43.0175C31.4627 43.0864 31.5747 43.1662 31.6787 43.2558L31.9727 43.4991L32.2718 43.7425C32.3658 43.8336 32.4657 43.9183 32.571 43.996C32.4955 43.8798 32.4071 43.7727 32.3073 43.6766Z" fill="#263238"/>
<path d="M63.3092 34.0845C63.098 36.116 62.3262 38.0488 61.08 39.667C59.8338 41.2852 58.1623 42.5251 56.2521 43.2483C54.342 43.9714 52.2684 44.1493 50.263 43.7621C48.2575 43.3749 46.3992 42.4378 44.8956 41.0555L39.3796 41.8667L42.1376 37.101C41.5057 35.5505 41.2353 33.8764 41.347 32.2058C41.4587 30.5352 41.9496 28.912 42.7823 27.4594C43.615 26.0069 44.7678 24.7631 46.153 23.8226C47.5382 22.882 49.1195 22.2695 50.7768 22.0313C52.4341 21.7932 54.1239 21.9358 55.7179 22.4483C57.3118 22.9608 58.7681 23.8297 59.9761 24.9891C61.1841 26.1484 62.1121 27.5678 62.6896 29.1393C63.2672 30.7109 63.4791 32.3934 63.3092 34.0591V34.0845Z" fill="white"/>
<path d="M63.3092 34.0844C63.0944 36.1127 62.3243 38.0424 61.0836 39.6612C60.4771 40.479 59.7487 41.1988 58.9238 41.7956C58.1117 42.4135 57.2154 42.912 56.2622 43.276C55.311 43.6484 54.3129 43.8872 53.2963 43.9858C52.7905 44.0284 52.2825 44.0386 51.7753 44.0162C51.2651 43.9998 50.7567 43.9456 50.2544 43.854C48.2226 43.4813 46.3351 42.549 44.8043 41.1619L44.9311 41.2024L39.41 42.039L39.0095 42.0998L39.2123 41.75L41.9551 36.9691V37.1618C41.3064 35.5825 41.0289 33.8753 41.1441 32.1719C41.2592 30.4684 41.7639 28.8141 42.6192 27.3365C43.4784 25.8667 44.6587 24.6102 46.0718 23.6608C47.8307 22.5018 49.8819 21.8645 51.9879 21.8227C54.094 21.781 56.1688 22.3365 57.9722 23.4249C59.7757 24.5134 61.2341 26.0903 62.1786 27.9731C63.1231 29.8559 63.5151 31.9677 63.3092 34.0641V34.0844ZM63.3092 34.0844C63.4852 32.4247 63.2779 30.7467 62.7033 29.1797C62.1286 27.6127 61.202 26.1985 59.9947 25.0461C58.7874 23.8936 57.3317 23.0337 55.7397 22.5325C54.1477 22.0312 52.4618 21.9021 50.8121 22.1551C49.174 22.3999 47.6134 23.0155 46.2492 23.9549C44.9015 24.9017 43.7754 26.1298 42.9488 27.5545C42.1381 28.9826 41.6598 30.5752 41.5495 32.2136C41.4498 33.8533 41.7147 35.4947 42.3252 37.0198L42.3658 37.1162L42.315 37.2074L39.5368 41.9629L39.3441 41.6739L44.8601 40.8983H44.9362L44.9919 40.949C46.4642 42.328 48.2919 43.2691 50.2696 43.6664C50.7707 43.7691 51.2794 43.8301 51.7906 43.8489C52.2969 43.8852 52.8052 43.8852 53.3115 43.8489C54.3188 43.7706 55.3102 43.5522 56.2571 43.2C57.2089 42.8561 58.1042 42.3725 58.9137 41.7652C59.3227 41.4677 59.7122 41.1443 60.0797 40.7969C60.4404 40.4374 60.779 40.0565 61.0937 39.6562C62.3304 38.0379 63.097 36.11 63.3092 34.0844Z" fill="#263238"/>
<path d="M51.0554 39.2252L46.3506 34.4596L47.9324 32.8981L50.6802 35.6814L56.3939 26.723L58.2698 27.9195L51.0554 39.2252Z" fill="#132183"/>
</g>
<defs>
<clipPath id="clip0_1_10033">
<rect width="212" height="219.63" fill="white" transform="translate(0.336914)"/>
</clipPath>
</defs>
</svg>
