<svg width="17" height="17" viewBox="0 0 17 17" fill="none" xmlns="http://www.w3.org/2000/svg">
<g clip-path="url(#clip0_1_12229)">
<path d="M12.8145 4.46695L12.834 13.9074C12.834 14.4029 12.6295 14.6679 12.1325 14.6679L4.92151 14.6479C4.42501 14.6479 4.20601 14.4214 4.20601 13.9269V4.46695H3.08851V13.9314C3.08851 14.9244 3.89651 15.7314 4.88901 15.7314H12.089C13.082 15.7314 13.8895 14.9239 13.8895 13.9314V4.46695H12.8135H12.8145ZM5.71301 6.49245V13.1944C5.71301 13.2379 5.71951 13.2799 5.73051 13.3199C6.06001 13.3199 6.39001 13.3194 6.72001 13.3169C6.73051 13.2784 6.73701 13.2364 6.73701 13.1944V6.49545C6.39551 6.49395 6.05451 6.49295 5.71301 6.49245ZM10.2325 6.51645V13.1949C10.2325 13.2294 10.2365 13.2634 10.2435 13.2964C10.577 13.2944 10.911 13.294 11.244 13.2929C11.251 13.261 11.2545 13.2289 11.2545 13.1939V6.51945C10.914 6.51895 10.573 6.51795 10.2325 6.51645ZM15.7625 2.65295H11.764V1.52495C11.7815 0.616949 11.0335 0.397949 10.287 0.397949H6.69401C5.76651 0.397949 5.23751 0.746449 5.23751 1.49345L5.23351 2.65295H1.17151V3.75445H15.762V2.65295H15.7625ZM10.7405 2.65295H6.24001V1.86395C6.24001 1.61395 6.41651 1.39645 6.66651 1.39645L10.267 1.41595C10.517 1.41595 10.737 1.59545 10.737 1.84545L10.7405 2.65295ZM8.00901 6.51695V13.1944C8.00901 13.2289 8.01301 13.2634 8.02001 13.2959C8.35051 13.2944 8.68101 13.2934 9.01151 13.2934C9.01851 13.2609 9.02201 13.2294 9.02201 13.1944V6.51995C8.68401 6.51945 8.34651 6.51845 8.00851 6.51695H8.00901Z" fill="#777777"/>
</g>
<defs>
<clipPath id="clip0_1_12229">
<rect width="16" height="16" fill="white" transform="translate(0.467041 0.0644531)"/>
</clipPath>
</defs>
</svg>
