<svg width="21" height="21" viewBox="0 0 21 21" fill="none" xmlns="http://www.w3.org/2000/svg">
<g clip-path="url(#clip0_1_10538)">
<path d="M3.56974 20.8878H16.0697C16.8445 20.8856 17.5867 20.5761 18.1335 20.0272C18.6803 19.4784 18.9871 18.735 18.9864 17.9603V11.6794C18.9864 11.4584 18.8986 11.2465 18.7423 11.0902C18.5861 10.9339 18.3741 10.8461 18.1531 10.8461C17.9321 10.8461 17.7201 10.9339 17.5638 11.0902C17.4075 11.2465 17.3197 11.4584 17.3197 11.6794V17.9603C17.3209 18.2931 17.1899 18.6128 16.9555 18.8492C16.7212 19.0856 16.4026 19.2193 16.0697 19.2211H3.56974C3.23689 19.2193 2.91833 19.0856 2.68398 18.8492C2.44963 18.6128 2.31864 18.2931 2.31974 17.9603V5.48194C2.31864 5.14909 2.44963 4.82938 2.68398 4.593C2.91833 4.35662 3.23689 4.22287 3.56974 4.22111H9.81975C10.0408 4.22111 10.2527 4.13331 10.409 3.97703C10.5653 3.82075 10.6531 3.60879 10.6531 3.38778C10.6531 3.16676 10.5653 2.9548 10.409 2.79852C10.2527 2.64224 10.0408 2.55444 9.81975 2.55444H3.56974C2.795 2.55665 2.05277 2.86614 1.50596 3.41498C0.959144 3.96383 0.652412 4.70719 0.653077 5.48194V17.9603C0.652412 18.735 0.959144 19.4784 1.50596 20.0272C2.05277 20.5761 2.795 20.8856 3.56974 20.8878Z" fill="#3A3A3A"/>
<path d="M8.53231 9.67436L7.87481 12.686C7.84505 12.8226 7.85014 12.9645 7.8896 13.0986C7.92907 13.2328 8.00164 13.3548 8.10065 13.4535C8.20101 13.5498 8.3231 13.6204 8.45655 13.6594C8.59001 13.6984 8.73091 13.7047 8.86731 13.6777L11.8723 13.0185C12.0283 12.9843 12.1712 12.9059 12.284 12.7927L19.879 5.19769C20.1112 4.96554 20.2954 4.68992 20.421 4.38658C20.5467 4.08324 20.6114 3.75812 20.6114 3.42978C20.6114 3.10144 20.5467 2.77631 20.421 2.47297C20.2954 2.16963 20.1112 1.89401 19.879 1.66186C19.403 1.20697 18.7699 0.953125 18.1115 0.953125C17.4531 0.953125 16.82 1.20697 16.344 1.66186L8.76065 9.26436C8.64683 9.37633 8.56758 9.51864 8.53231 9.67436ZM17.5223 2.84103C17.6809 2.68914 17.8919 2.60436 18.1115 2.60436C18.331 2.60436 18.5421 2.68914 18.7006 2.84103C18.8548 2.99822 18.9412 3.20961 18.9412 3.42978C18.9412 3.64995 18.8548 3.86134 18.7006 4.01853L18.1115 4.60769L16.9331 3.42936L17.5223 2.84103ZM10.1056 10.2694L15.7506 4.61019L16.9173 5.78269L11.2698 11.4435L9.77398 11.7719L10.1056 10.2694Z" fill="#3A3A3A"/>
</g>
<defs>
<clipPath id="clip0_1_10538">
<rect width="20" height="20" fill="white" transform="translate(0.653076 0.887695)"/>
</clipPath>
</defs>
</svg>
