<svg width="33" height="33" viewBox="0 0 33 33" fill="none" xmlns="http://www.w3.org/2000/svg">
<path d="M28.9336 9.21472H4.93359C3.27674 9.21472 1.93359 10.5579 1.93359 12.2147V28.2147C1.93359 29.8716 3.27674 31.2147 4.93359 31.2147H28.9336C30.5904 31.2147 31.9336 29.8716 31.9336 28.2147V12.2147C31.9336 10.5579 30.5904 9.21472 28.9336 9.21472Z" fill="#FFC661"/>
<path d="M30.5636 29.7147H6.56359C5.76794 29.7147 5.00488 29.3986 4.44227 28.836C3.87966 28.2734 3.56359 27.5103 3.56359 26.7147V10.7147C3.56311 10.2673 3.66577 9.82591 3.86359 9.42468C3.29792 9.64064 2.81082 10.0227 2.46635 10.5207C2.12188 11.0186 1.93616 11.6092 1.93359 12.2147V28.2147C1.93359 29.0103 2.24966 29.7734 2.81227 30.336C3.37488 30.8986 4.13794 31.2147 4.93359 31.2147H28.9336C29.4973 31.2112 30.0487 31.0489 30.5245 30.7465C31.0003 30.4441 31.3812 30.0137 31.6236 29.5047C31.2865 29.6405 30.927 29.7117 30.5636 29.7147Z" fill="#E49F4E"/>
<path d="M28.9336 9.21472H4.93363C4.36323 9.21711 3.80534 9.38207 3.32536 9.69025C2.84537 9.99843 2.4632 10.4371 2.22363 10.9547L16.1636 24.8947C16.368 25.0987 16.6449 25.2132 16.9336 25.2132C17.2224 25.2132 17.4993 25.0987 17.7036 24.8947L31.6436 10.9547C31.4041 10.4371 31.0219 9.99843 30.5419 9.69025C30.0619 9.38207 29.504 9.21711 28.9336 9.21472Z" fill="#96D7FF"/>
<path d="M31.7435 29.2148L22.0335 19.5348C21.9339 19.4329 21.8149 19.3519 21.6835 19.2966C21.5521 19.2414 21.4111 19.2129 21.2685 19.2129C21.126 19.2129 20.9849 19.2414 20.8536 19.2966C20.7222 19.3519 20.6032 19.4329 20.5035 19.5348L16.9335 23.0948L13.3635 19.5348C13.2639 19.4329 13.1449 19.3519 13.0135 19.2966C12.8821 19.2414 12.7411 19.2129 12.5985 19.2129C12.456 19.2129 12.3149 19.2414 12.1836 19.2966C12.0522 19.3519 11.9332 19.4329 11.8335 19.5348L2.12354 29.2148C2.32927 29.7967 2.70951 30.3011 3.21238 30.659C3.71526 31.0169 4.3163 31.211 4.93354 31.2148H28.9335C29.5508 31.211 30.1518 31.0169 30.6547 30.659C31.1576 30.3011 31.5378 29.7967 31.7435 29.2148Z" fill="#FF9797"/>
<path d="M29.5435 31.1448L29.8235 31.0748L30.0035 31.0048C30.0786 30.9792 30.1521 30.9491 30.2235 30.9148L30.4035 30.8148L30.6035 30.6948L30.7635 30.5748L30.9335 30.4248C30.9904 30.3861 31.041 30.3389 31.0835 30.2848L31.2335 30.1148C31.2798 30.0639 31.3232 30.0105 31.3635 29.9548L31.4935 29.7548L31.5835 29.5848V29.5148C31.248 29.6425 30.8926 29.7102 30.5335 29.7148H6.53354C5.90262 29.7122 5.28856 29.5108 4.7787 29.1392C4.26884 28.7675 3.88912 28.2446 3.69354 27.6448L2.12354 29.2148C2.17354 29.3348 2.23354 29.4648 2.29354 29.5848C2.29892 29.6112 2.29892 29.6384 2.29354 29.6648L2.50354 29.9848L2.57354 30.0648C2.71574 30.2386 2.87672 30.3963 3.05353 30.5348C3.09145 30.5705 3.13152 30.6039 3.17354 30.6348L3.37354 30.7548L3.63354 30.9048L3.83354 30.9848L4.17354 31.0848H4.34354C4.53425 31.1517 4.73235 31.1954 4.93354 31.2148H28.9335C29.0865 31.23 29.2406 31.23 29.3935 31.2148C29.4458 31.1967 29.4961 31.1732 29.5435 31.1448Z" fill="#E47979"/>
<path d="M28.1237 9.21472H5.74365V14.4847L16.1637 24.8947C16.368 25.0987 16.6449 25.2132 16.9337 25.2132C17.2224 25.2132 17.4993 25.0987 17.7037 24.8947L28.1237 14.4847V9.21472Z" fill="#86C3EF"/>
<path d="M26.9336 4.21472V15.6647L17.7036 24.8947C17.4992 25.0987 17.2223 25.2132 16.9336 25.2132C16.6449 25.2132 16.3679 25.0987 16.1636 24.8947L6.93359 15.6647V4.21472C6.93359 3.41907 7.24966 2.65601 7.81227 2.0934C8.37488 1.53079 9.13794 1.21472 9.93359 1.21472H23.9336C24.7292 1.21472 25.4923 1.53079 26.0549 2.0934C26.6175 2.65601 26.9336 3.41907 26.9336 4.21472Z" fill="#EEF5FD"/>
<path d="M8.18359 16.7048V5.21478C8.18359 4.41913 8.49966 3.65607 9.06227 3.09346C9.62488 2.53085 10.3879 2.21478 11.1836 2.21478H25.1836C25.605 2.21538 26.0213 2.3075 26.4036 2.48478C26.1247 2.08969 25.7545 1.76786 25.3244 1.54673C24.8943 1.3256 24.4172 1.21172 23.9336 1.21478H9.93359C9.13794 1.21478 8.37488 1.53085 7.81227 2.09346C7.24966 2.65607 6.93359 3.41913 6.93359 4.21478V15.6648L16.1636 24.8948C16.2961 25.0193 16.4577 25.1087 16.6336 25.1548L8.18359 16.7048Z" fill="#D7E2F2"/>
<path d="M22.2437 7.59473H12.2437C11.9784 7.59473 11.7241 7.48937 11.5365 7.30183C11.349 7.1143 11.2437 6.85994 11.2437 6.59473C11.2437 6.32951 11.349 6.07516 11.5365 5.88762C11.7241 5.70008 11.9784 5.59473 12.2437 5.59473H22.2437C22.5089 5.59473 22.7632 5.70008 22.9508 5.88762C23.1383 6.07516 23.2437 6.32951 23.2437 6.59473C23.2437 6.85994 23.1383 7.1143 22.9508 7.30183C22.7632 7.48937 22.5089 7.59473 22.2437 7.59473ZM22.2437 11.6347H12.2437C11.9784 11.6347 11.7241 11.5294 11.5365 11.3418C11.349 11.1543 11.2437 10.8999 11.2437 10.6347C11.2437 10.3695 11.349 10.1152 11.5365 9.92762C11.7241 9.74008 11.9784 9.63473 12.2437 9.63473H22.2437C22.5089 9.63473 22.7632 9.74008 22.9508 9.92762C23.1383 10.1152 23.2437 10.3695 23.2437 10.6347C23.2437 10.8999 23.1383 11.1543 22.9508 11.3418C22.7632 11.5294 22.5089 11.6347 22.2437 11.6347ZM22.2437 15.6747H12.2437C11.9784 15.6747 11.7241 15.5694 11.5365 15.3818C11.349 15.1943 11.2437 14.9399 11.2437 14.6747C11.2437 14.4095 11.349 14.1552 11.5365 13.9676C11.7241 13.7801 11.9784 13.6747 12.2437 13.6747H22.2437C22.5089 13.6747 22.7632 13.7801 22.9508 13.9676C23.1383 14.1552 23.2437 14.4095 23.2437 14.6747C23.2437 14.9399 23.1383 15.1943 22.9508 15.3818C22.7632 15.5694 22.5089 15.6747 22.2437 15.6747Z" fill="#D7E2F2"/>
<path d="M21.9336 7.21472H11.9336C11.6684 7.21472 11.414 7.10936 11.2265 6.92183C11.039 6.73429 10.9336 6.47994 10.9336 6.21472C10.9336 5.94951 11.039 5.69515 11.2265 5.50762C11.414 5.32008 11.6684 5.21472 11.9336 5.21472H21.9336C22.1988 5.21472 22.4532 5.32008 22.6407 5.50762C22.8282 5.69515 22.9336 5.94951 22.9336 6.21472C22.9336 6.47994 22.8282 6.73429 22.6407 6.92183C22.4532 7.10936 22.1988 7.21472 21.9336 7.21472ZM21.9336 11.2147H11.9336C11.6684 11.2147 11.414 11.1094 11.2265 10.9218C11.039 10.7343 10.9336 10.4799 10.9336 10.2147C10.9336 9.94951 11.039 9.69515 11.2265 9.50762C11.414 9.32008 11.6684 9.21472 11.9336 9.21472H21.9336C22.1988 9.21472 22.4532 9.32008 22.6407 9.50762C22.8282 9.69515 22.9336 9.94951 22.9336 10.2147C22.9336 10.4799 22.8282 10.7343 22.6407 10.9218C22.4532 11.1094 22.1988 11.2147 21.9336 11.2147ZM21.9336 15.2147H11.9336C11.6684 15.2147 11.414 15.1094 11.2265 14.9218C11.039 14.7343 10.9336 14.4799 10.9336 14.2147C10.9336 13.9495 11.039 13.6952 11.2265 13.5076C11.414 13.3201 11.6684 13.2147 11.9336 13.2147H21.9336C22.1988 13.2147 22.4532 13.3201 22.6407 13.5076C22.8282 13.6952 22.9336 13.9495 22.9336 14.2147C22.9336 14.4799 22.8282 14.7343 22.6407 14.9218C22.4532 15.1094 22.1988 15.2147 21.9336 15.2147Z" fill="#FFC661"/>
</svg>
