<svg width="17" height="17" viewBox="0 0 17 17" fill="none" xmlns="http://www.w3.org/2000/svg">
<path d="M5.4873 5.26432C5.68256 5.06906 5.68256 4.75247 5.4873 4.55721C5.29204 4.36195 4.97545 4.36195 4.78019 4.55721L3.44686 5.89054C3.2516 6.0858 3.2516 6.40239 3.44686 6.59765L4.78019 7.93097C4.97545 8.12623 5.29204 8.12623 5.4873 7.93097C5.68256 7.7357 5.68256 7.41914 5.4873 7.22388L5.00752 6.7441H11.8004C12.0765 6.7441 12.3004 6.52024 12.3004 6.2441C12.3004 5.96796 12.0765 5.7441 11.8004 5.7441H5.00752L5.4873 5.26432Z" fill="#777777"/>
<path d="M11.4468 9.89057C11.2515 10.0858 11.2515 10.4024 11.4468 10.5976L11.9265 11.0774H5.13367C4.85753 11.0774 4.63367 11.3013 4.63367 11.5774C4.63367 11.8536 4.85753 12.0774 5.13367 12.0774H11.9265L11.4468 12.5572C11.2515 12.7525 11.2515 13.069 11.4468 13.2643C11.6421 13.4596 11.9586 13.4596 12.1539 13.2643L13.4872 11.931C13.6825 11.7357 13.6825 11.4192 13.4872 11.2239L12.1539 9.89057C11.9586 9.6953 11.6421 9.6953 11.4468 9.89057Z" fill="#777777"/>
</svg>
