<svg width="25" height="25" viewBox="0 0 25 25" fill="none" xmlns="http://www.w3.org/2000/svg">
<g clip-path="url(#clip0_1_11047)">
<path d="M24.2266 12.7632C24.2266 6.13577 18.854 0.763184 12.2266 0.763184C5.59915 0.763184 0.226562 6.13577 0.226562 12.7632C0.226562 18.7527 4.61479 23.7172 10.3516 24.6173V16.2319H7.30469V12.7632H10.3516V10.1194C10.3516 7.11193 12.1431 5.45068 14.8841 5.45068C16.1971 5.45068 17.5703 5.68506 17.5703 5.68506V8.63818H16.0571C14.5664 8.63818 14.1016 9.56318 14.1016 10.5122V12.7632H17.4297L16.8977 16.2319H14.1016V24.6173C19.8383 23.7172 24.2266 18.7527 24.2266 12.7632Z" fill="#1877F2"/>
<path d="M16.8977 16.2319L17.4297 12.7632H14.1016V10.5122C14.1016 9.56318 14.5664 8.63818 16.0571 8.63818H17.5703V5.68506C17.5703 5.68506 16.1971 5.45068 14.8841 5.45068C12.1431 5.45068 10.3516 7.11193 10.3516 10.1194V12.7632H7.30469V16.2319H10.3516V24.6173C11.594 24.8118 12.8591 24.8118 14.1016 24.6173V16.2319H16.8977Z" fill="white"/>
</g>
<defs>
<clipPath id="clip0_1_11047">
<rect width="24" height="24" fill="white" transform="translate(0.226562 0.763184)"/>
</clipPath>
</defs>
</svg>
