<svg width="65" height="65" viewBox="0 0 65 65" fill="none" xmlns="http://www.w3.org/2000/svg">
<path fill-rule="evenodd" clip-rule="evenodd" d="M14.7106 10.8132C12.5014 10.8132 10.7106 12.604 10.7106 14.8132V20.1465C10.7106 20.8829 10.1136 21.4798 9.37728 21.4798C8.6409 21.4798 8.04395 20.8829 8.04395 20.1465V14.8132C8.04395 11.1313 11.0287 8.14648 14.7106 8.14648H20.0439C20.7803 8.14648 21.3772 8.74343 21.3772 9.47981C21.3772 10.2162 20.7803 10.8132 20.0439 10.8132H14.7106ZM14.7106 53.4798C12.5014 53.4798 10.7106 51.689 10.7106 49.4798V44.1465C10.7106 43.4101 10.1136 42.8132 9.37728 42.8132C8.6409 42.8132 8.04395 43.4101 8.04395 44.1465V49.4798C8.04395 53.1617 11.0287 56.1465 14.7106 56.1465H20.0439C20.7803 56.1465 21.3772 55.5495 21.3772 54.8132C21.3772 54.0768 20.7803 53.4798 20.0439 53.4798H14.7106ZM49.3772 10.8132C51.5864 10.8132 53.3772 12.604 53.3772 14.8132V20.1465C53.3772 20.8829 53.9742 21.4798 54.7106 21.4798C55.4469 21.4798 56.0439 20.8829 56.0439 20.1465V14.8132C56.0439 11.1313 53.0591 8.14648 49.3772 8.14648H44.0439C43.3075 8.14648 42.7106 8.74343 42.7106 9.47981C42.7106 10.2162 43.3075 10.8132 44.0439 10.8132H49.3772ZM49.3772 53.4798C51.5864 53.4798 53.3772 51.689 53.3772 49.4798V44.1465C53.3772 43.4101 53.9742 42.8132 54.7106 42.8132C55.4469 42.8132 56.0439 43.4101 56.0439 44.1465V49.4798C56.0439 53.1617 53.0591 56.1465 49.3772 56.1465H44.0439C43.3075 56.1465 42.7106 55.5495 42.7106 54.8132C42.7106 54.0768 43.3075 53.4798 44.0439 53.4798H49.3772ZM22.044 19.6133C22.7804 19.6133 23.3773 20.2103 23.3773 20.9466V23.1689C23.3773 23.9052 22.7804 24.5022 22.044 24.5022C21.3076 24.5022 20.7106 23.9052 20.7106 23.1689V20.9466C20.7106 20.2103 21.3076 19.6133 22.044 19.6133ZM42.044 19.6133C42.7804 19.6133 43.3773 20.2103 43.3773 20.9466V23.1689C43.3773 23.9052 42.7804 24.5022 42.044 24.5022C41.3076 24.5022 40.7106 23.9052 40.7106 23.1689V20.9466C40.7106 20.2103 41.3076 19.6133 42.044 19.6133Z" fill="#132183"/>
<path fill-rule="evenodd" clip-rule="evenodd" d="M33.155 24.0576C33.8914 24.0576 34.4883 24.6546 34.4883 25.391V31.6132C34.4883 33.8223 32.6975 35.6132 30.4883 35.6132H29.8217C29.0853 35.6132 28.4883 35.0162 28.4883 34.2799C28.4883 33.5435 29.0853 32.9465 29.8217 32.9465H30.4883C31.2247 32.9465 31.8217 32.3496 31.8217 31.6132V25.391C31.8217 24.6546 32.4186 24.0576 33.155 24.0576Z" fill="#445CDA"/>
<path fill-rule="evenodd" clip-rule="evenodd" d="M21.3072 37.6129C21.9209 37.2059 22.7483 37.3736 23.1552 37.9873C24.5774 40.1322 27.9101 41.8352 32.044 41.8352C36.1779 41.8352 39.5106 40.1322 40.9327 37.9873C41.3397 37.3736 42.1671 37.2059 42.7808 37.6129C43.3945 38.0198 43.5622 38.8472 43.1552 39.4609C41.0989 42.5623 36.7845 44.5019 32.044 44.5019C27.3035 44.5019 22.989 42.5623 20.9327 39.4609C20.5258 38.8472 20.6934 38.0198 21.3072 37.6129Z" fill="#132183"/>
</svg>
