<svg width="31" height="31" viewBox="0 0 31 31" fill="none" xmlns="http://www.w3.org/2000/svg">
<path d="M15.4817 13.4576C15.9994 13.4576 16.4192 13.8773 16.4192 14.3951V20.6451C16.4192 21.1628 15.9994 21.5826 15.4817 21.5826C14.9639 21.5826 14.5442 21.1628 14.5442 20.6451V14.3951C14.5442 13.8773 14.9639 13.4576 15.4817 13.4576Z" fill="#3A3A3A"/>
<path d="M15.4817 11.2701C16.1721 11.2701 16.7317 10.7104 16.7317 10.0201C16.7317 9.32975 16.1721 8.7701 15.4817 8.7701C14.7913 8.7701 14.2317 9.32975 14.2317 10.0201C14.2317 10.7104 14.7913 11.2701 15.4817 11.2701Z" fill="#3A3A3A"/>
<path fill-rule="evenodd" clip-rule="evenodd" d="M4.54419 15.0201C4.54419 8.97948 9.44108 4.0826 15.4817 4.0826C21.5223 4.0826 26.4192 8.97948 26.4192 15.0201C26.4192 21.0607 21.5223 25.9576 15.4817 25.9576C9.44108 25.9576 4.54419 21.0607 4.54419 15.0201ZM15.4817 5.9576C10.4766 5.9576 6.41919 10.015 6.41919 15.0201C6.41919 20.0252 10.4766 24.0826 15.4817 24.0826C20.4868 24.0826 24.5442 20.0252 24.5442 15.0201C24.5442 10.015 20.4868 5.9576 15.4817 5.9576Z" fill="#3A3A3A"/>
</svg>
