<svg width="49" height="54" viewBox="0 0 49 54" fill="none" xmlns="http://www.w3.org/2000/svg">
<path d="M39.6487 7.34483C39.4387 7.34483 39.2287 7.29233 39.0449 7.18733C34.0049 4.58858 29.6475 3.48608 24.4237 3.48608C19.2262 3.48608 14.2912 4.71983 9.80246 7.18733C9.17246 7.52858 8.38496 7.29233 8.01746 6.66233C7.85375 6.35533 7.81703 5.99634 7.9152 5.66255C8.01338 5.32876 8.2386 5.04682 8.54246 4.87733C13.425 2.22608 18.78 0.861084 24.4237 0.861084C30.015 0.861084 34.8974 2.09483 40.2524 4.85108C40.9087 5.19233 41.1449 5.97983 40.8037 6.60983C40.6999 6.82866 40.5364 7.01373 40.3321 7.14376C40.1278 7.27379 39.8909 7.34348 39.6487 7.34483ZM2.08496 21.1261C1.843 21.1283 1.60513 21.0635 1.39775 20.9388C1.19038 20.8141 1.0216 20.6344 0.910129 20.4196C0.798663 20.2049 0.748869 19.9634 0.76627 19.7221C0.783672 19.4807 0.867589 19.2489 1.00871 19.0523C3.60746 15.3773 6.91496 12.4898 10.8525 10.4686C19.095 6.21608 29.6474 6.18983 37.9162 10.4423C41.8537 12.4636 45.1612 15.3248 47.7599 18.9736C47.8607 19.1146 47.9324 19.2743 47.9711 19.4432C48.0098 19.6122 48.0147 19.7871 47.9854 19.958C47.9561 20.1288 47.8932 20.2922 47.8005 20.4386C47.7077 20.585 47.5869 20.7116 47.4449 20.8111C46.8412 21.2311 46.0274 21.0998 45.6074 20.4961C43.3086 17.2421 40.2552 14.5939 36.7087 12.7786C29.175 8.91983 19.5412 8.91983 12.0337 12.8048C8.46371 14.6423 5.47121 17.2673 3.10871 20.5748C2.89871 20.9423 2.50496 21.1261 2.08496 21.1261ZM18.4912 52.8098C18.3191 52.8119 18.1484 52.778 17.9902 52.7101C17.8319 52.6423 17.6896 52.5422 17.5725 52.4161C15.2887 50.1323 14.055 48.6623 12.2962 45.4861C10.485 42.2573 9.53996 38.3198 9.53996 34.0936C9.53996 26.2973 16.2075 19.9448 24.3975 19.9448C32.5875 19.9448 39.2549 26.2973 39.2549 34.0936C39.2549 34.8286 38.6774 35.4061 37.9424 35.4061C37.2074 35.4061 36.6299 34.8286 36.6299 34.0936C36.6299 27.7411 31.1437 22.5698 24.3975 22.5698C17.6512 22.5698 12.165 27.7411 12.165 34.0936C12.165 37.8736 13.005 41.3648 14.6062 44.1998C16.2862 47.2186 17.4412 48.5048 19.4625 50.5523C19.9612 51.0773 19.9612 51.8911 19.4625 52.4161C19.1737 52.6786 18.8325 52.8098 18.4912 52.8098ZM37.3124 47.9536C34.1887 47.9536 31.4324 47.1661 29.1749 45.6173C25.2637 42.9661 22.9275 38.6611 22.9275 34.0936C22.9275 33.3586 23.505 32.7811 24.24 32.7811C24.975 32.7811 25.5525 33.3586 25.5525 34.0936C25.5525 37.7948 27.4425 41.2861 30.645 43.4386C32.5087 44.6986 34.6875 45.3023 37.3124 45.3023C37.9424 45.3023 38.9924 45.2236 40.0424 45.0398C40.7512 44.9086 41.4337 45.3811 41.5649 46.1161C41.6962 46.8248 41.2237 47.5073 40.4887 47.6386C38.9924 47.9273 37.6799 47.9536 37.3124 47.9536ZM32.0362 53.3611C31.9312 53.3611 31.7999 53.3348 31.695 53.3086C27.5212 52.1536 24.7912 50.6048 21.93 47.7961C20.1168 46.0058 18.6791 43.8717 17.701 41.5188C16.7229 39.166 16.2241 36.6416 16.2337 34.0936C16.2337 29.8411 19.8562 26.3761 24.3187 26.3761C28.7812 26.3761 32.4037 29.8411 32.4037 34.0936C32.4037 36.9023 34.8449 39.1861 37.8637 39.1861C40.8824 39.1861 43.3237 36.9023 43.3237 34.0936C43.3237 24.1973 34.7924 16.1648 24.2925 16.1648C16.8375 16.1648 10.0125 20.3123 6.94121 26.7436C5.91746 28.8698 5.39246 31.3636 5.39246 34.0936C5.39246 36.1411 5.57621 39.3698 7.15121 43.5698C7.41371 44.2523 7.07246 45.0136 6.38996 45.2498C5.70746 45.5123 4.94621 45.1448 4.70996 44.4886C3.44508 41.1687 2.79572 37.6462 2.79371 34.0936C2.79371 30.9436 3.39746 28.0823 4.57871 25.5886C8.06996 18.2648 15.8137 13.5136 24.2925 13.5136C36.2362 13.5136 45.9487 22.7273 45.9487 34.0673C45.9487 38.3198 42.3262 41.7848 37.8637 41.7848C33.4012 41.7848 29.7787 38.3198 29.7787 34.0673C29.7787 31.2586 27.3375 28.9748 24.3187 28.9748C21.3 28.9748 18.8587 31.2586 18.8587 34.0673C18.8587 38.5561 20.5912 42.7561 23.7675 45.9061C26.2612 48.3736 28.65 49.7386 32.3512 50.7623C33.0599 50.9461 33.4537 51.6811 33.27 52.3636C33.1387 52.9673 32.5874 53.3611 32.0362 53.3611Z" fill="#132183"/>
</svg>
