<svg width="25" height="25" viewBox="0 0 25 25" fill="none" xmlns="http://www.w3.org/2000/svg">
<path d="M12.563 1.51538L13.083 0.907385C12.9381 0.783441 12.7537 0.715332 12.563 0.715332C12.3723 0.715332 12.1879 0.783441 12.043 0.907385L12.563 1.51538ZM1.36299 11.1154L0.842988 10.5074L0.562988 10.7474V11.1154H1.36299ZM9.36299 23.9154V24.7154C9.57516 24.7154 9.77864 24.6311 9.92867 24.4811C10.0787 24.331 10.163 24.1276 10.163 23.9154H9.36299ZM15.763 23.9154H14.963C14.963 24.1276 15.0473 24.331 15.1973 24.4811C15.3473 24.6311 15.5508 24.7154 15.763 24.7154V23.9154ZM23.763 11.1154H24.563V10.7474L24.283 10.5074L23.763 11.1154ZM2.96299 24.7154H9.36299V23.1154H2.96299V24.7154ZM24.283 10.5074L13.083 0.907385L12.043 2.12338L23.243 11.7234L24.283 10.5074ZM12.043 0.907385L0.842988 10.5074L1.88299 11.7234L13.083 2.12338L12.043 0.907385ZM10.163 23.9154V19.1154H8.56299V23.9154H10.163ZM14.963 19.1154V23.9154H16.563V19.1154H14.963ZM15.763 24.7154H22.163V23.1154H15.763V24.7154ZM24.563 22.3154V11.1154H22.963V22.3154H24.563ZM0.562988 11.1154V22.3154H2.16299V11.1154H0.562988ZM12.563 16.7154C13.1995 16.7154 13.81 16.9682 14.26 17.4183C14.7101 17.8684 14.963 18.4789 14.963 19.1154H16.563C16.563 18.0545 16.1416 17.0371 15.3914 16.287C14.6413 15.5368 13.6239 15.1154 12.563 15.1154V16.7154ZM12.563 15.1154C11.5021 15.1154 10.4847 15.5368 9.73456 16.287C8.98442 17.0371 8.56299 18.0545 8.56299 19.1154H10.163C10.163 18.4789 10.4158 17.8684 10.8659 17.4183C11.316 16.9682 11.9265 16.7154 12.563 16.7154V15.1154ZM22.163 24.7154C22.7995 24.7154 23.41 24.4625 23.86 24.0124C24.3101 23.5624 24.563 22.9519 24.563 22.3154H22.963C22.963 22.5276 22.8787 22.731 22.7287 22.8811C22.5786 23.0311 22.3752 23.1154 22.163 23.1154V24.7154ZM2.96299 23.1154C2.75082 23.1154 2.54733 23.0311 2.3973 22.8811C2.24727 22.731 2.16299 22.5276 2.16299 22.3154H0.562988C0.562988 22.9519 0.815845 23.5624 1.26593 24.0124C1.71602 24.4625 2.32647 24.7154 2.96299 24.7154V23.1154Z" fill="#9B9A9A"/>
</svg>
