<svg width="25" height="25" viewBox="0 0 25 25" fill="none" xmlns="http://www.w3.org/2000/svg">
<path d="M22.3394 21.1762H2.33936V19.1762H3.33936V4.17621C3.33936 3.91099 3.44471 3.65664 3.63225 3.4691C3.81978 3.28157 4.07414 3.17621 4.33936 3.17621H18.3394C18.6046 3.17621 18.8589 3.28157 19.0465 3.4691C19.234 3.65664 19.3394 3.91099 19.3394 4.17621V9.17621H21.3394V19.1762H22.3394V21.1762ZM17.3394 19.1762H19.3394V11.1762H13.3394V19.1762H15.3394V13.1762H17.3394V19.1762ZM17.3394 9.17621V5.17621H5.33936V19.1762H11.3394V9.17621H17.3394ZM7.33936 11.1762H9.33936V13.1762H7.33936V11.1762ZM7.33936 15.1762H9.33936V17.1762H7.33936V15.1762ZM7.33936 7.17621H9.33936V9.17621H7.33936V7.17621Z" fill="white"/>
</svg>
