<svg width="17" height="16" viewBox="0 0 17 16" fill="none" xmlns="http://www.w3.org/2000/svg">
<g clip-path="url(#clip0_1_8057)">
<path d="M9.09271 7.49155C9.10271 6.97155 8.69271 6.54155 8.18271 6.53155C7.66271 6.52155 7.23271 6.93155 7.22271 7.44155V7.49155C7.23271 8.01155 7.66271 8.42155 8.18271 8.40155C8.67271 8.39155 9.07271 7.99155 9.09271 7.49155ZM2.84271 7.49155C2.83271 8.01155 3.24271 8.44155 3.75271 8.45155C4.26271 8.46155 4.70271 8.05155 4.71271 7.54155V7.49155C4.70271 6.97155 4.27271 6.56155 3.75271 6.58155C3.25271 6.59155 2.85271 6.99155 2.84271 7.49155ZM13.4627 7.49155C13.4727 6.97155 13.0627 6.54155 12.5527 6.53155C12.0327 6.52155 11.6027 6.93155 11.5927 7.44155V7.49155C11.6027 8.01155 12.0327 8.42155 12.5527 8.40155C13.0527 8.39155 13.4527 7.99155 13.4627 7.49155Z" fill="#777777"/>
<path d="M15.0331 1.57153H1.27308C0.933076 1.57153 0.653076 1.85153 0.653076 2.20153V12.5815C0.653076 12.9315 0.933076 13.2115 1.27308 13.2115H6.38308V15.7915C6.38308 15.8715 6.45308 15.9415 6.53308 15.9415H7.26308C7.30308 15.9415 7.34308 15.9315 7.38308 15.9215L7.48308 15.8715C7.51308 15.8515 7.54308 15.8215 7.56308 15.7915L10.1331 13.2115H15.0331C15.3731 13.2115 15.6531 12.9315 15.6531 12.5815V2.19153C15.6531 1.85153 15.3731 1.57153 15.0331 1.57153ZM6.38308 11.9415H1.90308V2.82153H14.4131V11.9415H9.87308C9.70308 11.9415 9.55308 12.0115 9.43308 12.1215L7.63308 13.9315V12.2115C7.63308 12.0615 7.51308 11.9415 7.36308 11.9415H6.38308Z" fill="#777777"/>
</g>
<defs>
<clipPath id="clip0_1_8057">
<rect width="16" height="15.2" fill="white" transform="translate(0.162842 0.761597)"/>
</clipPath>
</defs>
</svg>
