<svg width="10" height="11" viewBox="0 0 10 11" fill="none" xmlns="http://www.w3.org/2000/svg">
<path d="M7.04402 2.32784C6.93532 2.32784 6.82905 2.36089 6.73867 2.42279C6.64828 2.4847 6.57784 2.57268 6.53624 2.67563C6.49464 2.77857 6.48376 2.89185 6.50496 3.00113C6.52617 3.11042 6.57852 3.2108 6.65538 3.28959C6.73225 3.36838 6.83018 3.42204 6.9368 3.44378C7.04341 3.46552 7.15392 3.45436 7.25435 3.41172C7.35478 3.36908 7.44062 3.29687 7.50101 3.20422C7.5614 3.11157 7.59364 3.00265 7.59364 2.89122C7.59364 2.74181 7.53573 2.59851 7.43266 2.49285C7.32959 2.3872 7.18979 2.32784 7.04402 2.32784ZM9.15089 3.46399C9.14198 3.07446 9.07081 2.68907 8.9402 2.32315C8.82374 2.01007 8.64249 1.72657 8.40891 1.49216C8.18211 1.25152 7.90489 1.06689 7.59822 0.952256C7.24218 0.814304 6.86578 0.739679 6.48524 0.731599C5.99975 0.70343 5.84402 0.70343 4.59822 0.70343C3.35242 0.70343 3.19669 0.70343 2.7112 0.731599C2.33066 0.739679 1.95425 0.814304 1.59822 0.952256C1.29212 1.06805 1.01514 1.25252 0.787532 1.49216C0.552765 1.72464 0.372651 2.0088 0.260814 2.32315C0.126232 2.6881 0.0534298 3.07392 0.0455473 3.46399C0.0180664 3.96165 0.0180664 4.12127 0.0180664 5.39827C0.0180664 6.67526 0.0180664 6.83489 0.0455473 7.33254C0.0534298 7.72261 0.126232 8.10843 0.260814 8.47338C0.372651 8.78773 0.552765 9.07189 0.787532 9.30437C1.01514 9.54401 1.29212 9.72848 1.59822 9.84427C1.95425 9.98223 2.33066 10.0569 2.7112 10.0649C3.19669 10.0931 3.35242 10.0931 4.59822 10.0931C5.84402 10.0931 5.99975 10.0931 6.48524 10.0649C6.86578 10.0569 7.24218 9.98223 7.59822 9.84427C7.90489 9.72964 8.18211 9.54501 8.40891 9.30437C8.64352 9.07084 8.82494 8.78709 8.9402 8.47338C9.07081 8.10747 9.14198 7.72207 9.15089 7.33254C9.15089 6.83489 9.17837 6.67526 9.17837 5.39827C9.17837 4.12127 9.17837 3.96165 9.15089 3.46399ZM8.32646 7.2762C8.32313 7.57421 8.27047 7.86949 8.17074 8.14944C8.09761 8.35376 7.98015 8.53837 7.82723 8.68935C7.67867 8.84451 7.49893 8.96467 7.30051 9.04146C7.0274 9.14369 6.73934 9.19766 6.4486 9.20108C5.99059 9.22456 5.82112 9.22925 4.61654 9.22925C3.41196 9.22925 3.24249 9.22925 2.78448 9.20108C2.4826 9.20688 2.182 9.15923 1.89593 9.06024C1.70621 8.97952 1.53472 8.85967 1.39211 8.70812C1.24009 8.5573 1.1241 8.37253 1.05318 8.16822C0.941359 7.88425 0.879338 7.58228 0.869975 7.2762C0.869975 6.80672 0.842494 6.63301 0.842494 5.39827C0.842494 4.16352 0.842494 3.98981 0.869975 3.52033C0.872028 3.21566 0.926288 2.91373 1.03028 2.62831C1.11091 2.43015 1.23468 2.2535 1.39211 2.11188C1.53126 1.95046 1.70324 1.82225 1.89593 1.73629C2.17511 1.63303 2.46936 1.57905 2.76616 1.57667C3.22417 1.57667 3.39364 1.5485 4.59822 1.5485C5.8028 1.5485 5.97226 1.5485 6.43028 1.57667C6.72101 1.58009 7.00908 1.63406 7.28219 1.73629C7.49032 1.81547 7.67713 1.9442 7.82723 2.11188C7.97732 2.2561 8.0946 2.43241 8.17074 2.62831C8.27253 2.9142 8.32522 3.216 8.32646 3.52033C8.34936 3.98981 8.35394 4.16352 8.35394 5.39827C8.35394 6.63301 8.34936 6.80672 8.32646 7.2762ZM4.59822 2.98981C4.1337 2.99074 3.67988 3.13279 3.29409 3.39799C2.9083 3.6632 2.60786 4.03967 2.43072 4.47984C2.25359 4.92001 2.20771 5.40412 2.29889 5.871C2.39007 6.33789 2.61421 6.76659 2.94299 7.10295C3.27177 7.43931 3.69044 7.66823 4.14609 7.76078C4.60175 7.85333 5.07394 7.80536 5.50301 7.62293C5.93208 7.4405 6.29877 7.13181 6.55675 6.73584C6.81473 6.33987 6.95242 5.87441 6.95242 5.39827C6.95302 5.08141 6.89251 4.76756 6.77436 4.47477C6.65621 4.18198 6.48275 3.91602 6.26396 3.69219C6.04517 3.46836 5.78537 3.29107 5.4995 3.17053C5.21363 3.04999 4.90733 2.98858 4.59822 2.98981ZM4.59822 6.96165C4.29656 6.96165 4.00168 6.86996 3.75087 6.69817C3.50005 6.52638 3.30456 6.28222 3.18913 5.99655C3.07369 5.71088 3.04348 5.39653 3.10233 5.09327C3.16118 4.79 3.30644 4.51143 3.51975 4.29279C3.73305 4.07415 4.00481 3.92525 4.30067 3.86493C4.59653 3.8046 4.90319 3.83556 5.18188 3.95389C5.46058 4.07222 5.69878 4.2726 5.86637 4.5297C6.03396 4.78679 6.12341 5.08906 6.12341 5.39827C6.12341 5.60357 6.08396 5.80687 6.00731 5.99655C5.93066 6.18622 5.81832 6.35857 5.67669 6.50374C5.53506 6.64892 5.36693 6.76407 5.18188 6.84264C4.99684 6.92121 4.79851 6.96165 4.59822 6.96165Z" fill="#132183"/>
</svg>
