<svg width="15" height="16" viewBox="0 0 15 16" fill="none" xmlns="http://www.w3.org/2000/svg">
<path d="M7.46704 8.00064C6.78066 8.00064 6.22421 8.55677 6.22421 9.24278C6.22421 9.64706 6.41757 10.0061 6.71676 10.2329V12.7348C6.71676 13.1492 7.05268 13.4851 7.46704 13.4851C7.8814 13.4851 8.21732 13.1492 8.21732 12.7348V10.2329C8.51653 10.0061 8.70987 9.64706 8.70987 9.24278C8.70987 8.55677 8.15342 8.00064 7.46704 8.00064ZM11.969 5.49256H11.711V5.23667C11.711 2.89282 9.81089 0.992737 7.46704 0.992737C5.12319 0.992737 3.22311 2.89282 3.22311 5.23667V5.49256H2.96508C1.72191 5.49256 0.714111 6.50034 0.714111 7.74353V13.7418C0.714111 14.9849 1.72191 15.9927 2.96509 15.9927H11.969C13.2122 15.9927 14.22 14.9849 14.22 13.7418V7.74353C14.22 6.50034 13.2122 5.49256 11.969 5.49256ZM4.20776 5.25214C4.20776 3.45643 5.66347 2.00073 7.45917 2.00073H7.47491C9.27061 2.00073 10.7263 3.45643 10.7263 5.25214V5.49255H4.20776V5.25214ZM13.2115 13.4841C13.2115 14.3129 12.5396 14.9847 11.7109 14.9847H3.22321C2.39442 14.9847 1.72257 14.3129 1.72257 13.4841V8.00119C1.72257 7.17241 2.39443 6.50055 3.22321 6.50055H11.7109C12.5396 6.50055 13.2115 7.17241 13.2115 8.00119V13.4841Z" fill="#777777"/>
</svg>
