<svg width="213" height="207" viewBox="0 0 213 207" fill="none" xmlns="http://www.w3.org/2000/svg">
<g clip-path="url(#clip0_1_11927)">
<path d="M61.4696 1.62695H3.79675V97.0894H61.4696V1.62695Z" fill="#E0E0E0"/>
<path d="M59.5541 1.62695H1.88129V97.0894H59.5541V1.62695Z" fill="#EBEBEB"/>
<path d="M57.0947 3.56604H4.33594V95.1549H57.0947V3.56604Z" fill="#FAFAFA"/>
<path d="M46.8173 15.4658H14.3769V83.2506H46.8173V15.4658Z" fill="#EBEBEB"/>
<path d="M14.3769 59.2666C14.3012 52.9337 19.9957 46.7521 26.2671 45.8677C29.2563 45.4467 32.4156 46.0379 35.2297 44.8934C40.2148 42.8502 41.8039 36.224 46.822 34.2565L47.049 83.2552H14.3769V59.2666Z" fill="#E0E0E0"/>
<path d="M188.167 28.19L183.433 28.2156L183.56 51.7687L188.294 51.7431L188.167 28.19Z" fill="#E0E0E0"/>
<path d="M154.687 28.2531L142.428 28.3195L142.498 41.321L154.757 41.2546L154.687 28.2531Z" fill="#EBEBEB"/>
<path d="M166.889 28.1917L154.63 28.2581L154.7 41.2596L166.959 41.1932L166.889 28.1917Z" fill="#F5F5F5"/>
<path d="M142.445 31.9248C150.59 31.991 158.758 31.9248 166.902 31.8113C166.932 31.8055 166.96 31.7893 166.979 31.7656C166.999 31.7418 167.01 31.712 167.01 31.6812C167.01 31.6504 166.999 31.6206 166.979 31.5968C166.96 31.5731 166.932 31.5569 166.902 31.5511C158.755 31.5038 150.602 31.5527 142.445 31.6978C142.415 31.6978 142.386 31.7097 142.365 31.731C142.344 31.7523 142.332 31.7812 142.332 31.8113C142.332 31.8414 142.344 31.8702 142.365 31.8915C142.386 31.9128 142.415 31.9248 142.445 31.9248Z" fill="#E0E0E0"/>
<path d="M157.059 41.0384L134.788 41.1589L134.845 51.7531L157.117 51.6326L157.059 41.0384Z" fill="#EBEBEB"/>
<path d="M179.221 40.9186L156.95 41.0391L157.007 51.6332L179.279 51.5127L179.221 40.9186Z" fill="#F5F5F5"/>
<path d="M134.798 44.1177C149.592 44.288 164.438 44.1177 179.232 43.9002C179.262 43.8944 179.29 43.8782 179.309 43.8545C179.329 43.8307 179.34 43.8009 179.34 43.7701C179.34 43.7393 179.329 43.7095 179.309 43.6857C179.29 43.662 179.262 43.6458 179.232 43.64C164.438 43.5596 149.592 43.5691 134.798 43.8954C134.772 43.9007 134.749 43.9147 134.733 43.9349C134.716 43.9552 134.707 43.9805 134.707 44.0066C134.707 44.0327 134.716 44.058 134.733 44.0782C134.749 44.0985 134.772 44.1124 134.798 44.1177Z" fill="#E0E0E0"/>
<path d="M212.756 51.7655H126.473V55.5634H212.756V51.7655Z" fill="#E0E0E0"/>
<path d="M144.101 53.5912H140.596V66.5456H144.101V53.5912Z" fill="#E0E0E0"/>
<path d="M196.386 53.5912H192.882V66.5456H196.386V53.5912Z" fill="#E0E0E0"/>
<path d="M192.787 19.4105L188.053 19.4362L188.228 51.8288L192.963 51.8032L192.787 19.4105Z" fill="#EBEBEB"/>
<path d="M200.184 25.4434L192.829 25.4832L192.972 51.7321L200.326 51.6923L200.184 25.4434Z" fill="#F5F5F5"/>
<path d="M200.128 30.5106C197.679 30.6809 195.222 30.6809 192.773 30.5106C195.222 30.3404 197.679 30.3404 200.128 30.5106Z" fill="#E0E0E0"/>
<path d="M200.128 29.4087C197.679 29.579 195.222 29.579 192.773 29.4087C195.222 29.2384 197.679 29.2384 200.128 29.4087Z" fill="#E0E0E0"/>
<path d="M200.128 47.7359C197.679 47.9061 195.222 47.9061 192.773 47.7359C195.222 47.5656 197.679 47.5656 200.128 47.7359Z" fill="#E0E0E0"/>
<path d="M200.128 46.6528C197.679 46.8168 195.222 46.8168 192.773 46.6528C195.222 46.4826 197.679 46.4826 200.128 46.6528Z" fill="#E0E0E0"/>
<path d="M196.571 44.2455C196.5 44.2455 196.443 41.5969 196.443 38.3288C196.443 35.0606 196.5 32.4167 196.571 32.4167C196.642 32.4167 196.699 35.0606 196.699 38.3288C196.699 41.5969 196.632 44.2455 196.571 44.2455Z" fill="#E0E0E0"/>
<path d="M208.215 31.8965H200.208V51.7088H208.215V31.8965Z" fill="#EBEBEB"/>
<path d="M191.709 24.9534C191.714 25.2237 191.638 25.4894 191.491 25.7164C191.344 25.9435 191.133 26.1218 190.885 26.2285C190.636 26.3353 190.362 26.3656 190.096 26.3158C189.83 26.2659 189.585 26.1381 189.392 25.9486C189.199 25.759 189.067 25.5164 189.013 25.2516C188.958 24.9867 188.984 24.7116 189.086 24.4614C189.189 24.2111 189.363 23.9969 189.588 23.8462C189.812 23.6954 190.076 23.6149 190.347 23.6149C190.704 23.6136 191.048 23.7535 191.303 24.0041C191.558 24.2547 191.704 24.5958 191.709 24.9534Z" fill="#E0E0E0"/>
<path d="M190.768 28.6945H189.926V47.9629H190.768V28.6945Z" fill="#E0E0E0"/>
<path d="M69.7796 179.03C69.7796 179.03 65.4425 182.341 69.5951 186.697C69.6306 186.734 69.6731 186.763 69.7203 186.784C69.7674 186.804 69.8181 186.814 69.8694 186.815L107.758 186.593C107.758 186.593 110.993 182.965 108.307 178.784L69.7796 179.03Z" fill="#EBEBEB"/>
<path d="M99.3822 182.478C99.3822 182.52 94.6526 182.553 88.8493 182.553C83.0461 182.553 78.3118 182.52 78.3118 182.478C78.3118 182.435 83.0414 182.402 88.8493 182.402C94.6573 182.402 99.3822 182.435 99.3822 182.478Z" fill="#E0E0E0"/>
<path d="M93.4891 183.849C93.4891 183.892 91.2756 183.925 88.5372 183.925C85.7987 183.925 83.5853 183.892 83.5853 183.849C83.5853 183.807 85.8035 183.769 88.5372 183.769C91.2709 183.769 93.4891 183.807 93.4891 183.849Z" fill="#E0E0E0"/>
<path d="M103.256 186.47C103.256 186.47 103.341 186.034 103.459 185.334C103.611 184.422 103.684 183.498 103.677 182.572C103.667 181.646 103.577 180.721 103.407 179.81C103.275 179.11 103.161 178.685 103.185 178.675C103.231 178.769 103.268 178.867 103.294 178.968C103.382 179.237 103.455 179.51 103.511 179.787C103.714 180.7 103.822 181.632 103.833 182.568C103.838 183.503 103.748 184.436 103.563 185.353C103.492 185.703 103.421 185.987 103.365 186.176C103.308 186.366 103.27 186.474 103.256 186.47Z" fill="#E0E0E0"/>
<path d="M106.084 178.746C106.153 178.829 106.211 178.921 106.254 179.02C106.317 179.131 106.374 179.245 106.425 179.361C106.496 179.515 106.559 179.673 106.614 179.834C106.769 180.241 106.891 180.66 106.978 181.087C107.077 181.613 107.132 182.146 107.143 182.681C107.142 183.217 107.095 183.752 107.002 184.28C106.923 184.709 106.809 185.132 106.661 185.543C106.604 185.722 106.533 185.874 106.477 186.016C106.429 186.133 106.374 186.246 106.311 186.356C106.269 186.455 106.215 186.549 106.15 186.635C106.122 186.635 106.335 186.214 106.562 185.514C106.854 184.597 106.998 183.639 106.987 182.676C106.981 182.15 106.93 181.624 106.836 181.106C106.758 180.683 106.65 180.266 106.514 179.858C106.297 179.153 106.06 178.746 106.084 178.746Z" fill="#E0E0E0"/>
<path d="M75.7578 186.522C75.6877 186.444 75.6274 186.358 75.578 186.266C75.5132 186.166 75.4547 186.062 75.403 185.954C75.328 185.812 75.2601 185.667 75.1997 185.519C75.0394 185.132 74.9159 184.732 74.8308 184.322C74.7313 183.819 74.6821 183.307 74.6841 182.795C74.6954 182.282 74.7588 181.772 74.8733 181.272C74.969 180.866 75.1036 180.47 75.2753 180.089C75.3377 179.942 75.4088 179.798 75.4882 179.659C75.5409 179.55 75.6026 179.445 75.6726 179.347C75.7814 179.181 75.8476 179.091 75.8571 179.101C75.8665 179.11 75.6395 179.479 75.3841 180.132C75.2296 180.512 75.1078 180.904 75.0199 181.305C74.9174 181.797 74.8588 182.297 74.8449 182.799C74.8457 183.3 74.8901 183.8 74.9774 184.294C75.0577 184.696 75.1684 185.091 75.3084 185.476C75.5544 186.134 75.7814 186.507 75.7578 186.522Z" fill="#E0E0E0"/>
<path d="M71.6667 187.444C71.5883 187.359 71.5229 187.264 71.4728 187.16C71.4048 187.04 71.3463 186.915 71.2978 186.786C71.2118 186.633 71.1345 186.475 71.066 186.313C70.8834 185.881 70.7394 185.433 70.6356 184.975C70.3711 183.851 70.3453 182.685 70.5599 181.551C70.6433 181.088 70.7684 180.634 70.9336 180.193C70.9951 180.004 71.0755 179.843 71.137 179.697C71.1916 179.572 71.2532 179.45 71.3214 179.333C71.3715 179.228 71.4317 179.128 71.5011 179.035C71.5295 179.035 71.2883 179.484 71.0282 180.231C70.8817 180.67 70.7695 181.119 70.6924 181.574C70.6036 182.133 70.5625 182.698 70.5694 183.263C70.5941 184.293 70.7941 185.312 71.1606 186.276C71.4302 187.009 71.6903 187.43 71.6667 187.444Z" fill="#E0E0E0"/>
<path d="M106.368 198.137V205.383H92.3398V198.137H106.368Z" fill="#EBEBEB"/>
<path d="M61.0581 201.822C61.0581 201.888 61.0581 201.95 61.0581 202.016C61.1257 203.074 61.5955 204.066 62.3711 204.789C63.1467 205.512 64.1694 205.91 65.2296 205.904H107.011V205.379H97.0788C96.118 205.379 95.1965 204.997 94.5171 204.317C93.8377 203.638 93.456 202.716 93.456 201.756C93.456 200.795 93.8377 199.873 94.5171 199.194C95.1965 198.514 96.118 198.133 97.0788 198.133H107.011V197.362L65.2202 197.504C64.6608 197.505 64.1074 197.619 63.5929 197.839C63.0784 198.058 62.6133 198.379 62.2251 198.782C61.8369 199.184 61.5335 199.661 61.3331 200.183C61.1326 200.706 61.0391 201.263 61.0581 201.822Z" fill="#E0E0E0"/>
<path d="M106.368 201.85C106.368 201.893 103.483 201.931 99.9261 201.931C96.3694 201.931 93.4844 201.893 93.4844 201.85C93.4844 201.808 96.3694 201.775 99.9261 201.775C103.483 201.775 106.368 201.812 106.368 201.85Z" fill="#E0E0E0"/>
<path d="M106.164 203.487C106.164 203.529 103.435 203.562 100.068 203.562C96.7005 203.562 93.9715 203.529 93.9715 203.487C93.9715 203.444 96.7005 203.411 100.068 203.411C103.435 203.411 106.164 203.444 106.164 203.487Z" fill="#E0E0E0"/>
<path d="M106.368 204.981C106.368 205.024 103.913 205.057 100.886 205.057C97.8593 205.057 95.4046 205.024 95.4046 204.981C95.4046 204.939 97.8593 204.906 100.886 204.906C103.913 204.906 106.368 204.939 106.368 204.981Z" fill="#E0E0E0"/>
<path d="M106.368 200.384C106.368 200.427 103.53 200.46 100.059 200.46C96.587 200.46 93.7492 200.427 93.7492 200.384C93.7492 200.341 96.587 200.308 100.059 200.308C103.53 200.308 106.368 200.341 106.368 200.384Z" fill="#E0E0E0"/>
<path d="M106.164 198.918C106.164 198.96 103.648 198.994 100.55 198.994C97.4525 198.994 94.9316 198.96 94.9316 198.918C94.9316 198.875 97.4478 198.842 100.55 198.842C103.653 198.842 106.164 198.875 106.164 198.918Z" fill="#E0E0E0"/>
<path d="M66.1235 197.622C65.799 197.949 65.5016 198.302 65.2344 198.677C64.6002 199.592 64.2663 200.682 64.279 201.795C64.2917 202.909 64.6504 203.991 65.3053 204.891C65.5836 205.259 65.8887 205.605 66.2181 205.927C66.1108 205.865 66.0108 205.79 65.9202 205.705C65.6612 205.481 65.4265 205.231 65.2202 204.958C64.5244 204.049 64.1415 202.94 64.1287 201.796C64.116 200.652 64.474 199.534 65.1492 198.61C65.3479 198.333 65.5763 198.077 65.8303 197.849C65.9177 197.761 66.0163 197.684 66.1235 197.622Z" fill="#F5F5F5"/>
<path d="M64.7094 197.466C64.389 197.798 64.092 198.152 63.8203 198.525C63.1885 199.441 62.8564 200.53 62.87 201.642C62.8835 202.755 63.242 203.835 63.896 204.735C64.1725 205.104 64.4778 205.45 64.8088 205.771C64.6985 205.711 64.5967 205.636 64.5061 205.549C64.2471 205.325 64.0125 205.074 63.8061 204.801C63.1104 203.895 62.7271 202.788 62.7135 201.645C62.6998 200.503 63.0566 199.387 63.7304 198.464C63.9292 198.185 64.1576 197.928 64.4115 197.698C64.5012 197.609 64.6013 197.531 64.7094 197.466Z" fill="#F5F5F5"/>
<path d="M93.0965 197.622C92.7762 197.951 92.4806 198.304 92.2121 198.677C91.5779 199.592 91.244 200.682 91.2567 201.795C91.2694 202.909 91.6281 203.991 92.283 204.891C92.5613 205.259 92.8664 205.605 93.1959 205.927C93.0864 205.865 92.9848 205.791 92.8932 205.705C92.6359 205.481 92.4028 205.23 92.1979 204.958C91.4994 204.051 91.1132 202.943 91.097 201.799C91.0808 200.655 91.4355 199.536 92.1081 198.61C92.3053 198.331 92.5338 198.076 92.7891 197.849C92.8826 197.762 92.9858 197.686 93.0965 197.622Z" fill="#F5F5F5"/>
<path d="M91.6871 197.466C91.3634 197.795 91.0661 198.149 90.7979 198.525C90.1634 199.44 89.8294 200.529 89.8421 201.642C89.8548 202.754 90.2137 203.836 90.8689 204.735C91.1472 205.103 91.4523 205.449 91.7817 205.771C91.6743 205.708 91.5744 205.634 91.4837 205.549C91.2235 205.326 90.9888 205.076 90.7837 204.801C90.0881 203.895 89.7048 202.788 89.6911 201.645C89.6775 200.503 90.0343 199.387 90.7081 198.464C90.9069 198.185 91.1352 197.928 91.3891 197.698C91.4777 197.607 91.5779 197.529 91.6871 197.466Z" fill="#F5F5F5"/>
<path d="M70.8768 202.867L70.8343 199.916C70.8492 199.66 70.8155 199.403 70.735 199.159C70.6919 199.037 70.6171 198.929 70.5181 198.846C70.4191 198.763 70.2996 198.707 70.1721 198.686C69.8032 198.521 69.2262 198.828 68.9708 199.254C68.7445 199.701 68.6447 200.201 68.6823 200.701C68.6728 201.478 68.7107 202.255 68.7958 203.028C68.8118 203.399 68.9052 203.763 69.0701 204.097C69.1437 204.269 69.2698 204.414 69.4306 204.51C69.5913 204.607 69.7784 204.65 69.9651 204.634C70.1519 204.617 70.3287 204.543 70.4704 204.42C70.612 204.297 70.7112 204.133 70.7539 203.95C70.8635 203.6 70.9053 203.233 70.8768 202.867Z" fill="#F5F5F5"/>
<path d="M87.1041 201.992C87.1041 202.035 84.0819 202.073 80.3597 202.073C76.6375 202.073 73.6105 202.035 73.6105 201.992C73.6105 201.95 76.6328 201.917 80.3597 201.917C84.0866 201.917 87.1041 201.95 87.1041 201.992Z" fill="#F5F5F5"/>
<path d="M68.0769 197.333L68.0012 190.457H71.7423L71.87 197.333H68.0769Z" fill="#F5F5F5"/>
<path d="M71.52 191.682C70.9434 191.761 70.3609 191.787 69.7795 191.762C69.1997 191.788 68.6187 191.761 68.0438 191.682C68.619 191.606 69.1998 191.58 69.7795 191.606C70.3608 191.58 70.9432 191.606 71.52 191.682Z" fill="#E0E0E0"/>
<path d="M71.52 192.746C70.9432 192.822 70.3608 192.847 69.7795 192.821C69.1998 192.847 68.619 192.822 68.0438 192.746C68.619 192.67 69.1998 192.644 69.7795 192.67C70.3608 192.645 70.9432 192.67 71.52 192.746Z" fill="#E0E0E0"/>
<path d="M71.52 193.805C70.9432 193.881 70.3608 193.906 69.7795 193.881C69.1998 193.906 68.619 193.881 68.0438 193.805C68.619 193.729 69.1998 193.704 69.7795 193.729C70.3608 193.704 70.9432 193.729 71.52 193.805Z" fill="#E0E0E0"/>
<path d="M71.52 194.865C70.9432 194.94 70.3608 194.966 69.7795 194.94C69.1998 194.966 68.619 194.94 68.0438 194.865C68.619 194.789 69.1998 194.763 69.7795 194.789C70.3608 194.763 70.9432 194.789 71.52 194.865Z" fill="#E0E0E0"/>
<path d="M71.52 195.924C70.9434 196.003 70.3609 196.03 69.7795 196.004C69.1997 196.03 68.6187 196.003 68.0438 195.924C68.6193 195.851 69.1998 195.826 69.7795 195.848C70.3608 195.826 70.9429 195.851 71.52 195.924Z" fill="#E0E0E0"/>
<path d="M67.8026 190.277H109.262C109.738 192.731 109.738 195.253 109.262 197.707H67.9871V197.192H70.5127C70.669 197.192 70.8237 197.161 70.9681 197.101C71.1124 197.041 71.2435 196.953 71.3538 196.842C71.4641 196.731 71.5514 196.6 71.6108 196.455C71.6702 196.311 71.7004 196.156 71.6998 196V191.89C71.7004 191.733 71.6702 191.578 71.6108 191.434C71.5514 191.289 71.4641 191.158 71.3538 191.047C71.2435 190.936 71.1124 190.849 70.9681 190.789C70.8237 190.729 70.669 190.698 70.5127 190.698H67.8121L67.8026 190.277Z" fill="#EBEBEB"/>
<path d="M77.6023 193.999H78.2928C78.3176 193.992 78.3438 193.992 78.3685 193.999C78.392 194.011 78.4117 194.029 78.4251 194.052C78.4385 194.074 78.4452 194.1 78.4442 194.127C78.4467 194.142 78.4467 194.158 78.4442 194.174C78.4442 194.231 78.4158 194.288 78.3969 194.349C78.3141 194.639 78.1651 194.906 77.9618 195.129C77.8908 195.219 77.802 195.292 77.701 195.345C77.6 195.398 77.4891 195.429 77.3753 195.437H77.2902C77.191 195.419 77.0972 195.379 77.0154 195.32C76.9336 195.261 76.8659 195.185 76.8172 195.096C76.6731 194.843 76.6026 194.555 76.6138 194.264C76.6152 194.063 76.6422 193.862 76.6942 193.668C76.77 193.374 76.9106 193.101 77.1057 192.869C77.1789 192.771 77.2728 192.69 77.3807 192.633C77.4887 192.576 77.608 192.543 77.73 192.538C77.8198 192.537 77.9086 192.557 77.9901 192.594C78.1862 192.704 78.3321 192.885 78.3969 193.1C78.4014 193.124 78.4014 193.148 78.3969 193.171C78.4033 193.195 78.4033 193.219 78.3969 193.242C78.3843 193.265 78.3658 193.284 78.3433 193.298C78.3209 193.311 78.2953 193.318 78.2692 193.318C78.2538 193.323 78.2372 193.323 78.2219 193.318C78.1999 193.312 78.1797 193.301 78.1632 193.285C78.1467 193.269 78.1344 193.25 78.1273 193.228C78.1066 193.169 78.0779 193.114 78.0422 193.063C78.0078 193.005 77.9595 192.957 77.9016 192.923C77.8437 192.889 77.7782 192.87 77.7111 192.869C77.6286 192.869 77.5486 192.898 77.4841 192.949C77.3104 193.092 77.1795 193.28 77.1057 193.493C77.0013 193.74 76.9466 194.005 76.9449 194.273C76.938 194.485 76.9784 194.695 77.0631 194.888C77.0888 194.964 77.1369 195.031 77.2011 195.079C77.2652 195.127 77.3425 195.154 77.4226 195.158C77.4899 195.15 77.5547 195.128 77.6126 195.093C77.6705 195.058 77.7202 195.01 77.7584 194.954C77.917 194.767 78.0375 194.55 78.1131 194.316C77.7962 194.316 77.6401 194.316 77.6165 194.316C77.5726 194.316 77.5305 194.298 77.4995 194.267C77.4684 194.236 77.451 194.194 77.451 194.15V194.098C77.4638 194.069 77.485 194.044 77.5119 194.026C77.5387 194.009 77.5702 193.999 77.6023 193.999Z" fill="#FAFAFA"/>
<path d="M79.9577 192.646C79.9577 192.646 79.9577 192.679 79.9577 192.698C79.9861 192.796 80.1437 193.652 80.4307 195.267C80.433 195.279 80.433 195.292 80.4307 195.304C80.4371 195.329 80.4371 195.355 80.4307 195.38C80.4197 195.403 80.4022 195.423 80.3804 195.436C80.3586 195.45 80.3333 195.456 80.3077 195.456H80.284C80.2571 195.451 80.2321 195.439 80.2119 195.42C80.1918 195.402 80.1774 195.378 80.1705 195.352L80.005 194.496H79.1537L78.7422 195.356C78.7454 195.366 78.7454 195.376 78.7422 195.385C78.728 195.406 78.709 195.423 78.6869 195.436C78.6647 195.448 78.6399 195.455 78.6145 195.456C78.5861 195.455 78.5583 195.447 78.5341 195.432C78.5133 195.418 78.4964 195.399 78.4848 195.377C78.4733 195.354 78.4674 195.33 78.4679 195.304C78.4635 195.291 78.4635 195.276 78.4679 195.262C78.4915 195.2 78.5341 195.11 78.5956 194.983C79.1915 193.677 79.5415 192.911 79.6645 192.675C79.6759 192.646 79.6953 192.621 79.7204 192.602C79.7455 192.584 79.7753 192.573 79.8063 192.571C79.836 192.569 79.8655 192.575 79.8921 192.588C79.9186 192.602 79.9412 192.622 79.9577 192.646ZM79.7732 193.223L79.3003 194.193H79.953L79.7732 193.223Z" fill="#FAFAFA"/>
<path d="M82.2704 195.456H81.0218C80.9934 195.455 80.9657 195.447 80.9414 195.432C80.9199 195.412 80.9025 195.388 80.8903 195.361C80.8781 195.334 80.8714 195.305 80.8705 195.276C80.8705 195.229 80.984 194.373 81.2157 192.722C81.2134 192.703 81.2134 192.684 81.2157 192.665C81.2259 192.638 81.2447 192.614 81.2694 192.598C81.2941 192.581 81.3234 192.574 81.3529 192.575C81.3747 192.571 81.3973 192.571 81.4191 192.575C81.4439 192.587 81.4647 192.606 81.479 192.63C81.4933 192.653 81.5004 192.68 81.4995 192.708L81.4191 193.408C81.2772 194.502 81.2016 195.079 81.1921 195.139H82.2563C82.2828 195.134 82.3101 195.134 82.3367 195.139C82.3653 195.15 82.3897 195.169 82.4067 195.195C82.4237 195.22 82.4322 195.25 82.4312 195.281C82.4334 195.296 82.4334 195.312 82.4312 195.328C82.422 195.364 82.4013 195.396 82.3723 195.419C82.3432 195.442 82.3075 195.455 82.2704 195.456Z" fill="#FAFAFA"/>
<path d="M83.9778 192.646C83.9778 192.646 83.9778 192.68 83.9778 192.698C84.0062 192.798 84.1717 193.644 84.4508 195.267C84.4529 195.279 84.4529 195.292 84.4508 195.305C84.4495 195.331 84.4414 195.357 84.4271 195.38C84.4162 195.403 84.3987 195.423 84.3769 195.436C84.355 195.45 84.3298 195.456 84.3042 195.456H84.2805C84.254 195.45 84.2295 195.438 84.2095 195.419C84.1896 195.401 84.1749 195.378 84.167 195.352L84.0677 194.496H83.2164L82.8049 195.357C82.8069 195.366 82.8069 195.376 82.8049 195.385C82.7892 195.406 82.7693 195.423 82.7464 195.435C82.7236 195.447 82.6983 195.454 82.6724 195.456C82.6441 195.455 82.6165 195.446 82.592 195.432C82.5713 195.418 82.5544 195.399 82.5428 195.377C82.5312 195.354 82.5254 195.33 82.5258 195.305C82.5236 195.29 82.5236 195.276 82.5258 195.262C82.5495 195.2 82.592 195.111 82.6535 194.983C83.2495 193.678 83.5995 192.911 83.7224 192.675C83.7339 192.646 83.7533 192.621 83.7784 192.602C83.8035 192.584 83.8333 192.573 83.8643 192.571C83.8874 192.575 83.9094 192.584 83.929 192.597C83.9485 192.61 83.9651 192.627 83.9778 192.646ZM83.7934 193.223L83.3204 194.193H83.9731L83.7934 193.223Z" fill="#FAFAFA"/>
<path d="M85.9595 194.122L86.1865 194.746C86.3142 195.106 86.3805 195.29 86.3805 195.309C86.3878 195.334 86.3878 195.36 86.3805 195.385C86.3669 195.406 86.3481 195.424 86.3257 195.437C86.3034 195.449 86.2783 195.456 86.2528 195.456C86.196 195.456 86.1582 195.423 86.1298 195.356C86.1014 195.29 86.1298 195.309 86.1061 195.29C86.0399 195.134 85.9264 194.817 85.7703 194.411L85.0656 195.356C85.0515 195.379 85.0321 195.399 85.0091 195.413C84.9861 195.427 84.9601 195.435 84.9332 195.437C84.9082 195.442 84.8825 195.442 84.8575 195.437C84.8349 195.424 84.8162 195.406 84.8036 195.383C84.7911 195.361 84.7852 195.335 84.7866 195.309V195.3C84.8029 195.254 84.8286 195.212 84.8622 195.177C85.0987 194.869 85.3352 194.505 85.6474 194.084C85.619 193.999 85.5906 193.923 85.5622 193.848C85.2974 193.134 85.1602 192.765 85.1602 192.741C85.1559 192.716 85.1559 192.69 85.1602 192.665C85.1721 192.643 85.1897 192.624 85.2114 192.611C85.233 192.597 85.2578 192.59 85.2832 192.59C85.3116 192.59 85.3395 192.598 85.3636 192.613C85.3878 192.628 85.4074 192.649 85.4203 192.675L85.8413 193.8L86.6737 192.665C86.688 192.643 86.7077 192.625 86.7308 192.613C86.754 192.6 86.7799 192.594 86.8061 192.594C86.8279 192.589 86.8505 192.589 86.8723 192.594C86.8966 192.606 86.9168 192.625 86.9303 192.649C86.9437 192.673 86.9499 192.7 86.948 192.727C86.9545 192.75 86.9545 192.774 86.948 192.798L85.9595 194.122Z" fill="#FAFAFA"/>
<path d="M89.0622 192.58C89.084 192.575 89.1066 192.575 89.1284 192.58C89.1528 192.591 89.1734 192.609 89.1877 192.632C89.202 192.655 89.2093 192.681 89.2088 192.708C89.0054 194.325 88.8919 195.196 88.873 195.328C88.8376 195.573 88.7452 195.806 88.6034 196.009C88.4688 196.199 88.2705 196.333 88.0448 196.389C87.8191 196.445 87.5809 196.417 87.3737 196.312C87.1878 196.235 87.033 196.099 86.9338 195.924C86.9296 195.901 86.9296 195.877 86.9338 195.853C86.927 195.828 86.927 195.802 86.9338 195.777C86.9456 195.754 86.9639 195.734 86.9866 195.721C87.0092 195.707 87.0352 195.701 87.0616 195.702C87.0838 195.703 87.1054 195.71 87.125 195.72C87.1445 195.731 87.1616 195.745 87.1751 195.763C87.2446 195.871 87.3389 195.96 87.45 196.023C87.5611 196.086 87.6858 196.122 87.8136 196.127C87.906 196.123 87.9963 196.098 88.078 196.055C88.1598 196.012 88.231 195.951 88.2865 195.877C88.4567 195.65 88.5525 195.375 88.5608 195.092C88.5134 195.168 88.4506 195.234 88.3764 195.286C88.2484 195.382 88.0921 195.434 87.9318 195.432H87.8467C87.7473 195.415 87.6532 195.375 87.5713 195.316C87.4894 195.257 87.4219 195.18 87.3737 195.092C87.226 194.84 87.1538 194.551 87.1656 194.259C87.1656 194.108 87.1656 193.952 87.1656 193.786C87.1877 193.531 87.2444 193.171 87.3359 192.708C87.3318 192.694 87.3318 192.679 87.3359 192.665C87.3432 192.636 87.3602 192.609 87.3842 192.591C87.4082 192.572 87.4378 192.561 87.4683 192.561C87.4936 192.563 87.5181 192.571 87.5392 192.585C87.562 192.595 87.5813 192.612 87.5948 192.633C87.6082 192.654 87.6152 192.678 87.6149 192.703C87.6015 192.893 87.5779 193.083 87.544 193.271C87.4952 193.56 87.4636 193.852 87.4494 194.146C87.4402 194.376 87.4772 194.606 87.5582 194.822C87.6433 195.025 87.7663 195.125 87.9271 195.125H87.9791C88.1362 195.075 88.2693 194.969 88.3527 194.827C88.5021 194.62 88.6068 194.385 88.6602 194.136L88.8493 192.717C88.8467 192.697 88.8467 192.676 88.8493 192.656C88.8551 192.634 88.866 192.615 88.881 192.598C88.8961 192.582 88.9149 192.57 88.9359 192.562C88.9568 192.555 88.9793 192.552 89.0013 192.556C89.0233 192.559 89.0442 192.567 89.0622 192.58Z" fill="#FAFAFA"/>
<path d="M107.716 197.802C107.673 197.802 107.635 196.099 107.635 193.994C107.635 191.89 107.673 190.182 107.716 190.182C107.758 190.182 107.791 191.89 107.791 193.994C107.791 196.099 107.749 197.802 107.716 197.802Z" fill="#F5F5F5"/>
<path d="M73.7761 197.802C73.7335 197.802 73.7004 196.099 73.7004 193.994C73.7004 191.89 73.7335 190.182 73.7761 190.182C73.8186 190.182 73.8517 191.89 73.8517 193.994C73.8517 196.099 73.8186 197.802 73.7761 197.802Z" fill="#E0E0E0"/>
<path d="M108.43 197.802C108.392 197.802 108.354 196.099 108.354 193.994C108.354 191.89 108.392 190.182 108.43 190.182C108.468 190.182 108.51 191.89 108.51 193.994C108.51 196.099 108.472 197.802 108.43 197.802Z" fill="#F5F5F5"/>
<path d="M73.0998 197.802C73.0572 197.802 73.0193 196.099 73.0193 193.994C73.0193 191.89 73.0572 190.182 73.0998 190.182C73.1423 190.182 73.1754 191.89 73.1754 193.994C73.1754 196.099 73.1376 197.802 73.0998 197.802Z" fill="#E0E0E0"/>
<path d="M97.6512 191.436L102.031 194.969L102.069 195.002H102.021L101.44 195.158L97.741 196.127L94.3877 194.709L93.4418 194.302L93.1911 194.193L93.1297 194.165L93.1959 194.193L93.4466 194.292L94.3925 194.69L97.7505 196.109L101.449 195.134L102.036 194.978V195.021L97.6606 191.478" fill="#E0E0E0"/>
<path d="M101.634 194.406L101.87 194.633L102.192 194.562L102.05 194.86L102.215 195.144L101.889 195.101L101.671 195.347L101.61 195.025L101.312 194.893L101.6 194.732L101.634 194.406Z" fill="#E0E0E0"/>
<path d="M97.4289 195.801L97.5897 195.938L97.7978 195.881L97.7174 196.075L97.8356 196.255L97.6228 196.241L97.4904 196.406L97.4383 196.198L97.2397 196.127L97.4194 196.014L97.4289 195.801Z" fill="#E0E0E0"/>
<path d="M92.7844 193.895L93.0445 193.914L93.2053 193.706L93.2715 193.961L93.5175 194.051L93.2952 194.188L93.2857 194.448L93.0871 194.283L92.8364 194.354L92.931 194.113L92.7844 193.895Z" fill="#E0E0E0"/>
<path d="M103.596 191.492L103.856 191.507L104.017 191.303L104.083 191.554L104.329 191.644L104.107 191.786L104.098 192.046L103.894 191.88L103.648 191.951L103.743 191.71L103.596 191.492Z" fill="#E0E0E0"/>
<path d="M97.4383 191.322L97.6038 191.332L97.7079 191.199L97.7504 191.36L97.9065 191.417L97.7646 191.507L97.7599 191.672L97.6322 191.568L97.4714 191.615L97.5329 191.459L97.4383 191.322Z" fill="#E0E0E0"/>
<path d="M103.96 191.677C103.96 191.677 102.542 191.644 100.796 191.573C99.0511 191.502 97.6322 191.422 97.6322 191.403C97.6322 191.384 99.0511 191.436 100.796 191.511C102.542 191.587 103.96 191.658 103.96 191.677Z" fill="#E0E0E0"/>
<path d="M105.554 190.215H63.5034C62.9548 188.967 62.8176 187.78 63.5034 186.715H105.554C105.815 187.262 105.951 187.86 105.951 188.465C105.951 189.071 105.815 189.669 105.554 190.215Z" fill="#E0E0E0"/>
<path d="M94.9931 187.713H72.2106V188.986H94.9931V187.713Z" fill="#EBEBEB"/>
<path d="M65.1161 190.234C64.9773 190.117 64.8645 189.972 64.7851 189.809C64.5707 189.427 64.4401 189.004 64.4017 188.567C64.3634 188.131 64.4183 187.692 64.5628 187.278C64.6097 187.103 64.6971 186.941 64.8182 186.805C64.7768 186.978 64.7263 187.149 64.6668 187.316C64.5569 187.721 64.5185 188.142 64.5533 188.56C64.5945 188.977 64.7048 189.385 64.8797 189.766C64.9723 189.915 65.0515 190.071 65.1161 190.234Z" fill="#E0E0E0"/>
<path d="M66.029 190.234C65.8869 190.12 65.7735 189.974 65.6979 189.809C65.4808 189.428 65.3485 189.006 65.3101 188.569C65.2728 188.133 65.3276 187.693 65.4709 187.278C65.5223 187.105 65.6092 186.944 65.7263 186.805C65.6876 186.979 65.637 187.15 65.5749 187.316C65.4667 187.721 65.4299 188.142 65.4661 188.56C65.5027 188.978 65.6132 189.386 65.7925 189.766C65.8805 189.917 65.9595 190.074 66.029 190.234Z" fill="#E0E0E0"/>
<path d="M103.852 190.149C104.02 189.594 104.12 189.021 104.15 188.442C104.125 187.861 104.031 187.284 103.871 186.725C104.18 187.243 104.329 187.84 104.301 188.442C104.325 189.043 104.169 189.638 103.852 190.149Z" fill="#F5F5F5"/>
<path d="M103.071 190.144C103.024 190.144 103.199 189.392 103.194 188.465C103.189 187.538 103.019 186.801 103.067 186.791C103.442 187.877 103.442 189.058 103.067 190.144H103.071Z" fill="#F5F5F5"/>
<path d="M129.59 173.903L70.5032 173.865C68.8138 173.865 67.1411 173.531 65.5805 172.884C64.0199 172.237 62.6021 171.289 61.408 170.094C60.2138 168.899 59.2667 167.48 58.6208 165.919C57.9749 164.358 57.6428 162.685 57.6434 160.996L57.6717 12.8693C57.6724 11.1786 58.006 9.50467 58.6535 7.94296C59.3011 6.38125 60.2499 4.96238 61.4458 3.76736C62.6417 2.57234 64.0613 1.62457 65.6234 0.978166C67.1856 0.331761 68.8598 -0.000620346 70.5505 8.69173e-07L129.633 0.0378386C133.045 0.0403453 136.316 1.39717 138.728 3.81021C141.14 6.22326 142.496 9.49517 142.497 12.9071L142.464 161.034C142.464 162.724 142.131 164.398 141.484 165.96C140.837 167.521 139.889 168.94 138.693 170.135C137.498 171.33 136.078 172.278 134.516 172.925C132.955 173.571 131.281 173.904 129.59 173.903Z" fill="#263238"/>
<path d="M129.439 5.32076H117.984C117.61 5.32812 117.241 5.40931 116.899 5.55967C116.556 5.71003 116.247 5.92659 115.988 6.1969C115.73 6.46721 115.528 6.78593 115.393 7.13475C115.258 7.48357 115.193 7.85561 115.203 8.22947V10.3058C115.211 10.6796 115.146 11.0515 115.011 11.4001C114.875 11.7487 114.672 12.0671 114.414 12.3369C114.155 12.6068 113.845 12.8228 113.502 12.9726C113.16 13.1224 112.791 13.203 112.417 13.2097H90.0885C89.7146 13.2024 89.3458 13.1212 89.0034 12.9708C88.661 12.8205 88.3516 12.6039 88.0932 12.3336C87.8348 12.0633 87.6323 11.7446 87.4975 11.3957C87.3626 11.0469 87.298 10.6749 87.3075 10.301V8.22001C87.3194 7.84575 87.2572 7.47283 87.1244 7.12273C86.9916 6.77263 86.7908 6.45228 86.5336 6.18013C86.2764 5.90799 85.9679 5.68944 85.6258 5.53708C85.2838 5.38471 84.915 5.30155 84.5406 5.29238H80.511H70.489C69.3044 5.28989 68.1309 5.52092 67.0356 5.97224C65.9403 6.42356 64.9447 7.08633 64.1058 7.92266C63.2668 8.759 62.6009 9.75249 62.1461 10.8463C61.6914 11.9402 61.4567 13.1129 61.4554 14.2976L61.427 158.882C61.4233 160.064 61.653 161.236 62.1029 162.329C62.5529 163.423 63.2142 164.417 64.049 165.254C64.8838 166.092 65.8757 166.756 66.9678 167.21C68.06 167.663 69.2308 167.896 70.4133 167.896L129.382 167.929C130.566 167.93 131.738 167.698 132.832 167.245C133.926 166.793 134.92 166.129 135.758 165.292C136.595 164.456 137.26 163.462 137.713 162.369C138.167 161.275 138.401 160.103 138.401 158.92L138.458 14.3354C138.458 13.1512 138.225 11.9786 137.772 10.8845C137.318 9.79053 136.654 8.79656 135.816 7.95941C134.979 7.12226 133.984 6.45835 132.89 6.0056C131.796 5.55285 130.623 5.32014 129.439 5.32076Z" fill="white"/>
<path d="M139.106 28.2925C139.106 28.3587 121.696 28.4155 100.229 28.4155C78.7611 28.4155 61.3656 28.3446 61.3656 28.2925C61.3656 28.2405 78.7706 28.1696 100.252 28.1696C121.734 28.1696 139.106 28.2216 139.106 28.2925Z" fill="#263238"/>
<path d="M69.4768 22.9338C69.4197 22.9344 69.3642 22.9142 69.3208 22.8771L67.0742 20.9048C67.0476 20.8833 67.0265 20.8558 67.0125 20.8246C66.9985 20.7933 66.9921 20.7593 66.9938 20.7251C66.9934 20.6906 67.0009 20.6566 67.0156 20.6254C67.0304 20.5943 67.052 20.5669 67.0789 20.5454L69.3255 18.6535C69.3739 18.6143 69.4358 18.5958 69.4978 18.602C69.5598 18.6082 69.6169 18.6386 69.6566 18.6866C69.6766 18.7103 69.6916 18.7378 69.7008 18.7675C69.71 18.7971 69.7132 18.8283 69.7101 18.8592C69.707 18.89 69.6977 18.92 69.6828 18.9472C69.668 18.9745 69.6478 18.9984 69.6235 19.0177L67.5945 20.7109L69.6282 22.4987C69.6518 22.5187 69.6712 22.5431 69.6852 22.5707C69.6993 22.5983 69.7076 22.6284 69.7098 22.6592C69.712 22.6901 69.708 22.7211 69.6981 22.7504C69.6881 22.7797 69.6724 22.8067 69.6518 22.8298C69.6328 22.8595 69.607 22.8844 69.5767 22.9025C69.5463 22.9206 69.5121 22.9313 69.4768 22.9338Z" fill="#263238"/>
<path d="M118.499 20.5975C118.499 20.6684 111.183 20.7204 102.154 20.7204C93.1249 20.7204 85.8082 20.6684 85.8082 20.5975C85.8082 20.5265 93.1249 20.4745 102.154 20.4745C111.183 20.4745 118.499 20.5312 118.499 20.5975Z" fill="#263238"/>
<path d="M127.968 20.5833C127.968 20.7516 127.918 20.9162 127.824 21.0562C127.731 21.1962 127.598 21.3054 127.442 21.3698C127.287 21.4342 127.116 21.4511 126.95 21.4182C126.785 21.3854 126.634 21.3043 126.515 21.1852C126.396 21.0662 126.314 20.9145 126.282 20.7493C126.249 20.5842 126.266 20.413 126.33 20.2575C126.395 20.1019 126.504 19.969 126.644 19.8754C126.784 19.7819 126.948 19.7319 127.117 19.7319C127.342 19.7319 127.559 19.8216 127.719 19.9813C127.878 20.1409 127.968 20.3575 127.968 20.5833Z" fill="#263238"/>
<path d="M130.418 20.5833C130.418 20.7519 130.368 20.9166 130.274 21.0567C130.18 21.1968 130.047 21.306 129.891 21.3702C129.735 21.4345 129.564 21.4511 129.399 21.4179C129.233 21.3847 129.082 21.3031 128.963 21.1836C128.844 21.064 128.763 20.9119 128.731 20.7464C128.699 20.581 128.716 20.4097 128.781 20.2542C128.847 20.0987 128.956 19.9661 129.097 19.8731C129.238 19.7801 129.403 19.731 129.571 19.7319C129.683 19.7319 129.793 19.754 129.896 19.7968C129.999 19.8397 130.093 19.9025 130.172 19.9816C130.25 20.0607 130.313 20.1546 130.355 20.2578C130.397 20.3611 130.418 20.4717 130.418 20.5833Z" fill="#263238"/>
<path d="M132.873 20.5833C132.873 20.7516 132.823 20.9162 132.729 21.0562C132.636 21.1962 132.503 21.3054 132.347 21.3698C132.191 21.4342 132.02 21.4511 131.855 21.4182C131.69 21.3854 131.538 21.3043 131.419 21.1852C131.3 21.0662 131.219 20.9145 131.186 20.7493C131.153 20.5842 131.17 20.413 131.235 20.2575C131.299 20.1019 131.408 19.969 131.548 19.8754C131.688 19.7819 131.853 19.7319 132.021 19.7319C132.247 19.7319 132.464 19.8216 132.623 19.9813C132.783 20.1409 132.873 20.3575 132.873 20.5833Z" fill="#263238"/>
<path d="M92.8506 60.0565C92.8506 60.6052 92.6235 60.9363 92.2452 60.9363C92.156 60.9449 92.0666 60.9216 91.993 60.8705C91.9194 60.8194 91.8663 60.7438 91.8432 60.6572C91.7799 60.749 91.6939 60.823 91.5937 60.8719C91.4934 60.9208 91.3822 60.9429 91.2709 60.9363C91.0677 60.9207 90.8778 60.829 90.7394 60.6795C90.6009 60.5299 90.5239 60.3337 90.5239 60.1299C90.5239 59.9261 90.6009 59.7298 90.7394 59.5803C90.8778 59.4307 91.0677 59.339 91.2709 59.3235C91.3707 59.3182 91.4703 59.336 91.5622 59.3753C91.654 59.4147 91.7356 59.4746 91.8006 59.5505V59.3424H92.1506V60.4207C92.1506 60.5815 92.2263 60.6383 92.3161 60.6383C92.4864 60.6383 92.581 60.4349 92.581 60.0613C92.5836 59.9048 92.5533 59.7494 92.4919 59.6054C92.4306 59.4614 92.3397 59.3319 92.2251 59.2253C92.1104 59.1187 91.9747 59.0374 91.8266 58.9867C91.6785 58.9359 91.5214 58.9169 91.3655 58.9309C91.2013 58.9162 91.0359 58.9358 90.8797 58.9886C90.7236 59.0413 90.5801 59.126 90.4585 59.2372C90.3368 59.3485 90.2397 59.4838 90.1733 59.6346C90.1068 59.7855 90.0725 59.9485 90.0725 60.1133C90.0725 60.2781 90.1068 60.4411 90.1733 60.592C90.2397 60.7428 90.3368 60.8781 90.4585 60.9894C90.5801 61.1006 90.7236 61.1853 90.8797 61.238C91.0359 61.2908 91.2013 61.3104 91.3655 61.2957C91.5786 61.2967 91.7891 61.2481 91.9803 61.1538L92.0655 61.4092C91.846 61.5099 91.6068 61.56 91.3655 61.5558C91.1688 61.5671 90.9718 61.5381 90.7868 61.4705C90.6017 61.403 90.4323 61.2984 90.2891 61.1631C90.1458 61.0279 90.0317 60.8648 89.9537 60.6838C89.8757 60.5029 89.8355 60.308 89.8355 60.1109C89.8355 59.9139 89.8757 59.719 89.9537 59.538C90.0317 59.3571 90.1458 59.194 90.2891 59.0587C90.4323 58.9235 90.6017 58.8189 90.7868 58.7513C90.9718 58.6838 91.1688 58.6548 91.3655 58.666C91.5562 58.6516 91.7478 58.677 91.9282 58.7405C92.1086 58.804 92.2739 58.9043 92.4135 59.035C92.5531 59.1658 92.6641 59.324 92.7393 59.4999C92.8145 59.6757 92.8524 59.8653 92.8506 60.0565ZM91.8053 60.1275C91.7998 60.0354 91.7674 59.9469 91.7122 59.8729C91.657 59.7989 91.5813 59.7428 91.4946 59.7113C91.4078 59.6798 91.3137 59.6744 91.2239 59.6957C91.1341 59.717 91.0525 59.7642 90.9892 59.8313C90.9259 59.8984 90.8835 59.9827 90.8675 60.0735C90.8514 60.1644 90.8623 60.258 90.8988 60.3428C90.9353 60.4276 90.9957 60.4999 91.0728 60.5507C91.1498 60.6015 91.2401 60.6287 91.3324 60.6288C91.3969 60.6289 91.4608 60.6158 91.5202 60.5903C91.5795 60.5648 91.6329 60.5274 91.6772 60.4804C91.7216 60.4335 91.7558 60.3779 91.7778 60.3172C91.7998 60.2565 91.8092 60.1919 91.8053 60.1275Z" fill="#263238"/>
<path d="M110.724 60.9174C110.724 60.9836 107.3 61.0403 103.081 61.0403C98.8619 61.0403 95.4424 60.9836 95.4424 60.9174C95.4424 60.8512 98.8619 60.7897 103.081 60.7897C107.3 60.7897 110.724 60.8464 110.724 60.9174Z" fill="#263238"/>
<path d="M80.5063 82.5317C79.8095 82.6956 79.0842 82.6956 78.3875 82.5317C79.0842 82.3677 79.8095 82.3677 80.5063 82.5317Z" fill="#263238"/>
<path d="M85.4866 87.6586C85.4866 87.7248 82.9326 87.7816 79.7779 87.7816C76.6233 87.7816 74.074 87.7248 74.074 87.6586C74.074 87.5924 76.628 87.5356 79.7779 87.5356C82.9279 87.5356 85.4866 87.5924 85.4866 87.6586Z" fill="#263238"/>
<path d="M103.459 82.5316C102.382 82.6561 101.298 82.6973 100.215 82.6546C99.1315 82.6973 98.0468 82.6561 96.9701 82.5316C98.047 82.4099 99.1315 82.3688 100.215 82.4087C101.298 82.3688 102.382 82.4099 103.459 82.5316Z" fill="#263238"/>
<path d="M105.379 87.3842C105.379 87.4504 102.764 87.5072 99.5382 87.5072C96.3126 87.5072 93.6924 87.4504 93.6924 87.3842C93.6924 87.318 96.3079 87.2612 99.5382 87.2612C102.769 87.2612 105.379 87.318 105.379 87.3842Z" fill="#263238"/>
<path d="M124.648 82.6026C123.193 82.7244 121.732 82.7654 120.273 82.7255C118.813 82.7654 117.353 82.7244 115.898 82.6026C117.353 82.4779 118.813 82.4369 120.273 82.4796C121.732 82.4369 123.193 82.4779 124.648 82.6026Z" fill="#263238"/>
<path d="M126.284 87.5876C126.284 87.6585 123.763 87.7105 120.651 87.7105C117.539 87.7105 115.014 87.6585 115.014 87.5876C115.014 87.5166 117.534 87.4646 120.651 87.4646C123.768 87.4646 126.284 87.5214 126.284 87.5876Z" fill="#263238"/>
<path d="M109.943 92.4402H77.8861C77.22 92.4402 76.6801 92.9802 76.6801 93.6462V101.143C76.6801 101.809 77.22 102.349 77.8861 102.349H109.943C110.609 102.349 111.149 101.809 111.149 101.143V93.6462C111.149 92.9802 110.609 92.4402 109.943 92.4402Z" fill="#132183"/>
<path d="M104.632 97.5624C104.632 97.6286 100.196 97.6854 94.7235 97.6854C89.2513 97.6854 84.7913 97.6286 84.7913 97.5624C84.7913 97.4962 89.2277 97.4395 94.7235 97.4395C100.219 97.4395 104.632 97.4915 104.632 97.5624Z" fill="white"/>
<path d="M122.728 92.2557H115.122C114.503 92.2557 114.001 92.7576 114.001 93.3767V101.289C114.001 101.908 114.503 102.41 115.122 102.41H122.728C123.347 102.41 123.848 101.908 123.848 101.289V93.3767C123.848 92.7576 123.347 92.2557 122.728 92.2557Z" fill="#EBEBEB"/>
<path d="M117.865 96.8104H119.984L119.015 98.305L117.865 96.8104Z" fill="#263238"/>
<path d="M111.149 109.717C111.149 109.788 105.668 109.84 98.9092 109.84C92.1506 109.84 86.669 109.788 86.669 109.717C86.669 109.646 92.1506 109.594 98.9092 109.594C105.668 109.594 111.149 109.651 111.149 109.717Z" fill="#E0E0E0"/>
<path d="M118.272 114.329C118.272 114.395 110.232 114.452 100.3 114.452C90.3675 114.452 82.3272 114.395 82.3272 114.329C82.3272 114.263 90.3675 114.206 100.3 114.206C110.232 114.206 118.272 114.263 118.272 114.329Z" fill="#E0E0E0"/>
<path d="M138.931 122.322C138.931 122.393 121.692 122.45 100.423 122.45C79.1536 122.45 61.9142 122.393 61.9142 122.322C61.9142 122.251 79.1536 122.199 100.423 122.199C121.692 122.199 138.931 122.256 138.931 122.322Z" fill="#263238"/>
<path d="M101.189 131.294C101.067 129.844 101.026 128.388 101.066 126.933C101.026 125.48 101.067 124.026 101.189 122.577C101.314 124.026 101.355 125.48 101.312 126.933C101.355 128.388 101.313 129.844 101.189 131.294Z" fill="#263238"/>
<path d="M96.4072 67.3733L94.1938 72.4529H93.2479L91.0297 67.3733H92.0513L93.7397 71.2894L95.4471 67.3733H96.4072Z" fill="#132183"/>
<path d="M100.196 70.807H97.1545C97.2106 71.0921 97.3701 71.3464 97.6023 71.521C97.8345 71.6956 98.1231 71.7782 98.4126 71.7529C98.6074 71.7608 98.8017 71.7274 98.9826 71.6549C99.1636 71.5823 99.3272 71.4723 99.4625 71.332L99.9355 71.8901C99.7379 72.1035 99.4954 72.2706 99.2256 72.3794C98.9557 72.4881 98.6652 72.5358 98.3747 72.5191C97.0788 72.5191 96.237 71.6867 96.237 70.5326C96.2274 70.2664 96.2734 70.0011 96.3719 69.7535C96.4705 69.506 96.6195 69.2817 96.8094 69.0948C96.9994 68.908 97.2261 68.7627 97.4752 68.6683C97.7244 68.5738 97.9904 68.5323 98.2565 68.5462C98.5199 68.5365 98.7824 68.582 99.0272 68.6797C99.2719 68.7774 99.4936 68.9251 99.678 69.1135C99.8623 69.3019 100.005 69.5267 100.098 69.7735C100.19 70.0203 100.23 70.2837 100.215 70.5468C100.21 70.6083 100.2 70.7171 100.196 70.807ZM97.1498 70.2016H99.3443C99.3179 69.934 99.1899 69.6867 98.9867 69.5108C98.7834 69.3348 98.5204 69.2435 98.2518 69.2557C97.9827 69.2456 97.7198 69.3374 97.5155 69.5127C97.3112 69.6881 97.1806 69.9341 97.1498 70.2016Z" fill="#132183"/>
<path d="M103.322 68.5462V69.407C103.253 69.3929 103.184 69.385 103.114 69.3833C102.957 69.3712 102.799 69.3945 102.652 69.4514C102.505 69.5083 102.373 69.5975 102.265 69.7123C102.157 69.827 102.076 69.9646 102.028 70.1147C101.98 70.2649 101.967 70.4238 101.988 70.5799V72.4718H101.094V68.5982H101.96V69.161C102.115 68.9505 102.322 68.7833 102.561 68.6757C102.799 68.568 103.061 68.5234 103.322 68.5462Z" fill="#132183"/>
<path d="M103.97 67.3969C103.97 67.3224 103.986 67.2488 104.016 67.1805C104.046 67.1123 104.089 67.0508 104.144 66.9999C104.198 66.949 104.263 66.9097 104.333 66.8845C104.403 66.8592 104.477 66.8485 104.552 66.853C104.624 66.8472 104.697 66.8563 104.766 66.8796C104.835 66.903 104.898 66.9401 104.952 66.9888C105.006 67.0375 105.05 67.0968 105.08 67.1629C105.11 67.229 105.127 67.3006 105.129 67.3733C105.116 67.5179 105.049 67.6524 104.942 67.7504C104.834 67.8483 104.694 67.9026 104.549 67.9026C104.404 67.9026 104.264 67.8483 104.157 67.7504C104.05 67.6524 103.983 67.5179 103.97 67.3733V67.3969ZM104.093 68.5793H105.001V72.4529H104.093V68.5793Z" fill="#132183"/>
<path d="M107.716 67.0186C108.005 67.0058 108.292 67.0799 108.539 67.2314L108.283 67.9125C108.136 67.8095 107.961 67.7534 107.782 67.7517C107.404 67.7517 107.21 67.9598 107.21 68.376V68.6077H108.279V69.3313H107.243V72.4529H106.297V69.3313H105.663V68.6077H106.297V68.3618C106.282 68.1749 106.309 67.987 106.376 67.8119C106.443 67.6369 106.548 67.4791 106.684 67.3502C106.821 67.2213 106.984 67.1246 107.162 67.0672C107.341 67.0098 107.53 66.9932 107.716 67.0186ZM109.343 67.3969C109.343 67.3224 109.359 67.2488 109.389 67.1805C109.419 67.1123 109.462 67.0508 109.517 66.9999C109.571 66.949 109.635 66.9097 109.705 66.8845C109.776 66.8592 109.85 66.8485 109.924 66.853C109.997 66.8472 110.07 66.8563 110.139 66.8796C110.208 66.903 110.271 66.9401 110.325 66.9888C110.379 67.0375 110.423 67.0968 110.453 67.1629C110.483 67.229 110.5 67.3006 110.501 67.3733C110.488 67.5179 110.422 67.6524 110.314 67.7504C110.207 67.8483 110.067 67.9026 109.922 67.9026C109.777 67.9026 109.637 67.8483 109.53 67.7504C109.423 67.6524 109.356 67.5179 109.343 67.3733V67.3969ZM109.466 68.5793H110.374V72.4529H109.466V68.5793Z" fill="#132183"/>
<path d="M115.17 70.807H112.133C112.188 71.0917 112.347 71.3459 112.578 71.5206C112.81 71.6953 113.098 71.7781 113.387 71.7529C113.582 71.7592 113.776 71.725 113.958 71.6526C114.139 71.5801 114.304 71.471 114.441 71.332L114.914 71.8901C114.717 72.1041 114.475 72.2716 114.205 72.3804C113.935 72.4891 113.644 72.5365 113.353 72.5191C112.058 72.5191 111.216 71.6867 111.216 70.5327C111.208 70.2691 111.255 70.0067 111.353 69.762C111.452 69.5172 111.599 69.2953 111.787 69.1099C111.974 68.9246 112.198 68.7797 112.444 68.6844C112.69 68.589 112.953 68.5452 113.216 68.5557C113.48 68.546 113.742 68.5915 113.987 68.6892C114.232 68.7869 114.453 68.9347 114.638 69.123C114.822 69.3114 114.965 69.5362 115.057 69.783C115.15 70.0298 115.19 70.2932 115.174 70.5563C115.184 70.6084 115.179 70.7171 115.17 70.807ZM112.124 70.2016H114.337C114.31 69.9336 114.181 69.6863 113.977 69.5105C113.773 69.3346 113.509 69.2434 113.24 69.2557C112.969 69.243 112.703 69.3336 112.496 69.5091C112.289 69.6846 112.156 69.932 112.124 70.2016Z" fill="#132183"/>
<path d="M119.852 67.0706V72.4528H118.982V71.9515C118.823 72.1336 118.626 72.2774 118.404 72.3724C118.182 72.4674 117.941 72.5111 117.7 72.5001C117.174 72.5001 116.67 72.2914 116.299 71.9197C115.927 71.5481 115.718 71.044 115.718 70.5184C115.718 69.9929 115.927 69.4888 116.299 69.1172C116.67 68.7455 117.174 68.5367 117.7 68.5367C117.933 68.5263 118.165 68.5675 118.38 68.6575C118.595 68.7474 118.788 68.8839 118.944 69.057V67.0706H119.852ZM118.958 70.5137C118.947 70.2882 118.87 70.0709 118.737 69.8888C118.603 69.7066 118.419 69.5675 118.208 69.4888C117.996 69.4101 117.766 69.3952 117.546 69.446C117.326 69.4967 117.126 69.6108 116.97 69.7743C116.814 69.9377 116.71 70.1432 116.67 70.3654C116.63 70.5876 116.656 70.8166 116.744 71.0242C116.833 71.2318 116.981 71.4088 117.169 71.5333C117.358 71.6577 117.578 71.7242 117.804 71.7245C117.961 71.7275 118.117 71.6977 118.263 71.6372C118.408 71.5766 118.539 71.4866 118.647 71.3727C118.756 71.2589 118.839 71.1238 118.893 70.9759C118.946 70.828 118.969 70.6706 118.958 70.5137Z" fill="#132183"/>
<path d="M83.8832 73.7251C86.08 73.7251 87.8608 71.9443 87.8608 69.7475C87.8608 67.5507 86.08 65.7699 83.8832 65.7699C81.6865 65.7699 79.9056 67.5507 79.9056 69.7475C79.9056 71.9443 81.6865 73.7251 83.8832 73.7251Z" fill="#132183"/>
<path d="M82.0907 69.8185L82.6015 69.3077L83.5853 70.1827L85.5197 68.324L85.9926 68.8348L83.5143 71.1712L82.0907 69.8185Z" fill="white"/>
<path d="M100.981 167.911H69.7653C67.5325 167.903 65.3939 167.01 63.8191 165.427C62.2442 163.844 61.3618 161.701 61.3656 159.468V131.294H101.004L100.981 167.911Z" fill="#EBEBEB"/>
<path d="M129.77 167.986L100.621 167.911V131.294H138.543V159.232C138.495 161.542 137.554 163.743 135.919 165.375C134.283 167.007 132.08 167.943 129.77 167.986Z" fill="#455A64"/>
<path d="M138.931 131.294C138.931 131.36 121.692 131.417 100.427 131.417C79.1631 131.417 61.9189 131.36 61.9189 131.294C61.9189 131.228 79.1536 131.171 100.427 131.171C121.701 131.171 138.931 131.228 138.931 131.294Z" fill="#263238"/>
<path d="M99.8504 152.733C99.8504 152.733 99.8078 152.733 99.7416 152.667L99.4436 152.45L98.318 151.608L94.2032 148.467C93.3377 147.81 92.3823 147.048 91.3654 146.306C91.0939 146.148 90.7835 146.07 90.4698 146.081C90.1561 146.092 89.8518 146.191 89.5918 146.367C89.3297 146.585 89.0832 146.82 88.854 147.072L88.102 147.833L81.4806 154.521L81.0738 154.933L80.9981 155.008L80.913 154.947L77.0915 152.109L75.2753 150.752C75.0273 150.516 74.7148 150.361 74.3778 150.304C74.0408 150.248 73.6945 150.293 73.3835 150.435C73.0916 150.604 72.8269 150.816 72.5984 151.064L71.8511 151.759L70.4322 153.083L67.8782 155.448L64.1749 158.863L63.1581 159.78L62.8932 160.017C62.8333 160.07 62.8002 160.094 62.7939 160.088C62.8167 160.055 62.8438 160.024 62.8743 159.998L63.125 159.747L64.1087 158.801L67.76 155.33L70.295 152.937L71.7139 151.608L72.4565 150.908L72.8348 150.553C72.9763 150.425 73.1356 150.318 73.3078 150.236C73.6528 150.069 74.0411 150.013 74.4193 150.075C74.6107 150.105 74.796 150.166 74.9679 150.255C75.1358 150.344 75.2942 150.451 75.4409 150.572L77.2618 151.92L81.088 154.758H80.9272L81.334 154.341L87.9554 147.668L88.7121 146.911C88.9506 146.649 89.2083 146.406 89.4831 146.183C89.7779 145.987 90.1216 145.878 90.4753 145.868C90.8289 145.858 91.1783 145.947 91.4837 146.126C92.5337 146.906 93.4512 147.654 94.3215 148.325L98.3889 151.527L99.4909 152.407L99.77 152.643C99.8005 152.67 99.8275 152.7 99.8504 152.733Z" fill="#263238"/>
<path d="M84.3798 140.436C84.3515 140.436 84.3798 140.134 84.2238 139.609C84.02 138.874 83.5774 138.228 82.9657 137.773C82.5474 137.461 82.0613 137.252 81.5468 137.163C80.9619 137.059 80.3599 137.112 79.8016 137.315C79.1834 137.541 78.6466 137.946 78.2597 138.478C77.8421 139.047 77.6169 139.733 77.6169 140.439C77.6169 141.144 77.8421 141.831 78.2597 142.399C78.6308 142.903 79.1351 143.293 79.7159 143.525C80.2967 143.757 80.9308 143.823 81.5468 143.714C82.062 143.625 82.5485 143.414 82.9657 143.099C83.5774 142.644 84.02 141.998 84.2238 141.264C84.3657 140.744 84.3515 140.436 84.3798 140.436C84.3871 140.51 84.3871 140.585 84.3798 140.659C84.3803 140.87 84.3565 141.081 84.3089 141.288C84.1331 142.062 83.6933 142.751 83.065 143.236C82.632 143.576 82.1247 143.807 81.5846 143.913C80.9284 144.04 80.2497 143.978 79.6269 143.736C79.0041 143.493 78.4629 143.079 78.0658 142.541C77.6147 141.933 77.3711 141.196 77.3711 140.439C77.3711 139.681 77.6147 138.944 78.0658 138.336C78.4821 137.769 79.0586 137.339 79.7212 137.102C80.3188 136.89 80.9619 136.841 81.5846 136.96C82.124 137.067 82.6309 137.299 83.065 137.636C83.6924 138.123 84.132 138.811 84.3089 139.585C84.3566 139.793 84.3804 140.005 84.3798 140.219C84.387 140.291 84.387 140.364 84.3798 140.436Z" fill="#263238"/>
<path d="M137.37 151.56C137.37 151.56 137.333 151.56 137.266 151.494L136.983 151.281L135.895 150.435L131.927 147.289C131.094 146.632 130.177 145.871 129.198 145.128C128.936 144.971 128.633 144.895 128.328 144.911C128.023 144.927 127.729 145.034 127.485 145.218C127.237 145.438 127.001 145.674 126.781 145.923L126.062 146.684L119.729 153.348L119.332 153.76L119.256 153.84L119.166 153.774L115.482 150.936L113.732 149.579C113.496 149.342 113.192 149.186 112.862 149.134C112.532 149.081 112.194 149.134 111.897 149.285C111.619 149.463 111.366 149.676 111.145 149.919L110.431 150.614L109.064 151.934L106.609 154.299L103.057 157.704L102.083 158.622L101.823 158.853C101.766 158.905 101.733 158.934 101.728 158.929C101.751 158.896 101.778 158.866 101.808 158.839C101.87 158.768 101.95 158.688 102.045 158.589L102.991 157.643L106.491 154.181L108.922 151.792C109.362 151.366 109.811 150.922 110.279 150.463L110.989 149.768L111.353 149.413C111.482 149.286 111.629 149.178 111.788 149.091C112.121 148.915 112.503 148.85 112.876 148.907C113.064 148.934 113.246 148.994 113.415 149.082C113.582 149.173 113.74 149.279 113.888 149.399L115.638 150.752L119.327 153.589H119.161L119.559 153.173L125.906 146.523L126.629 145.767C126.86 145.509 127.106 145.265 127.367 145.038C127.647 144.832 127.981 144.714 128.328 144.698C128.675 144.682 129.019 144.769 129.316 144.948C130.333 145.729 131.208 146.476 132.05 147.148L135.966 150.354L137.02 151.239L137.29 151.47L137.37 151.56Z" fill="#263238"/>
<path d="M121.29 139.382C121.266 139.382 121.29 139.079 121.138 138.559C120.937 137.823 120.494 137.177 119.88 136.724C119.527 136.459 119.124 136.268 118.696 136.16C118.268 136.052 117.823 136.03 117.386 136.095C116.95 136.16 116.53 136.311 116.152 136.539C115.774 136.767 115.445 137.068 115.184 137.424C114.766 137.992 114.541 138.679 114.541 139.384C114.541 140.089 114.766 140.776 115.184 141.344C115.57 141.876 116.107 142.28 116.726 142.503C117.249 142.696 117.812 142.754 118.364 142.672C118.915 142.589 119.437 142.368 119.88 142.03C120.493 141.576 120.936 140.93 121.138 140.195C121.203 139.922 121.254 139.646 121.29 139.367C121.302 139.441 121.302 139.516 121.29 139.59C121.29 139.801 121.266 140.012 121.219 140.219C121.056 140.994 120.63 141.689 120.013 142.186C119.578 142.522 119.071 142.752 118.532 142.858C117.91 142.981 117.265 142.932 116.669 142.716C116.007 142.481 115.43 142.052 115.014 141.486C114.562 140.878 114.319 140.141 114.319 139.384C114.319 138.627 114.562 137.89 115.014 137.282C115.411 136.744 115.952 136.33 116.575 136.087C117.197 135.844 117.876 135.783 118.532 135.91C119.071 136.016 119.578 136.246 120.013 136.582C120.641 137.069 121.081 137.759 121.257 138.535C121.304 138.741 121.328 138.952 121.328 139.164C121.328 139.238 121.315 139.312 121.29 139.382Z" fill="#263238"/>
<path d="M101.203 56.9539C107.253 56.9539 112.157 52.0498 112.157 46.0002C112.157 39.9506 107.253 35.0464 101.203 35.0464C95.1534 35.0464 90.2493 39.9506 90.2493 46.0002C90.2493 52.0498 95.1534 56.9539 101.203 56.9539Z" fill="#F5F5F5"/>
<path d="M108.283 54.3101C108.096 52.5725 107.263 50.9687 105.949 49.8167C104.635 48.6647 102.936 48.0486 101.189 48.0906C97.3012 48.0906 94.6384 51.0325 94.0945 54.3337C94.0945 54.3337 96.4971 56.9918 101.189 56.9539C105.881 56.9161 108.283 54.3101 108.283 54.3101Z" fill="#E0E0E0"/>
<path d="M105.66 44.9297C106.039 42.5816 104.444 40.3705 102.096 39.991C99.7475 39.6116 97.5364 41.2074 97.1569 43.5555C96.7774 45.9035 98.3733 48.1146 100.721 48.4941C103.069 48.8736 105.28 47.2778 105.66 44.9297Z" fill="#E0E0E0"/>
<path d="M108.231 53.9365C108.097 53.2358 107.873 52.5554 107.564 51.9122C107.166 51.1929 106.64 50.5519 106.013 50.0203C105.189 49.3246 104.241 48.7918 103.218 48.4501L102.991 48.3792L103.199 48.2704C103.921 47.878 104.514 47.285 104.906 46.563C105.248 45.9267 105.419 45.2128 105.402 44.4909C105.385 43.7689 105.181 43.0637 104.811 42.444C104.44 41.8243 103.915 41.3113 103.287 40.955C102.659 40.5988 101.949 40.4116 101.227 40.4116C100.505 40.4116 99.7948 40.5988 99.1667 40.955C98.5385 41.3113 98.0135 41.8243 97.6428 42.444C97.2721 43.0637 97.0684 43.7689 97.0516 44.4909C97.0349 45.2128 97.2056 45.9267 97.5471 46.563C97.7459 46.9319 97.9977 47.2697 98.2944 47.5657C98.582 47.8425 98.8992 48.0868 99.2403 48.294L99.4295 48.4123L99.2119 48.4738C98.1649 48.7494 97.2028 49.2809 96.412 50.0203C95.8118 50.5889 95.3156 51.2579 94.9458 51.9973C94.7073 52.4715 94.5141 52.9672 94.3688 53.4777C94.3168 53.6527 94.2837 53.7898 94.26 53.8797C94.2538 53.927 94.2411 53.9731 94.2222 54.0169C94.2138 53.9699 94.2138 53.9219 94.2222 53.875C94.2222 53.7804 94.26 53.6385 94.3026 53.4635C94.4266 52.9415 94.6057 52.4341 94.837 51.95C95.1957 51.1855 95.6892 50.4917 96.2938 49.9021C97.0903 49.1342 98.0656 48.5766 99.1315 48.2798L99.1031 48.4596C98.7461 48.2488 98.4131 47.9999 98.1099 47.717C97.7952 47.4078 97.5274 47.054 97.3154 46.6671C96.8475 45.7944 96.6865 44.7898 96.858 43.8146C97.0295 42.8394 97.5237 41.9501 98.2613 41.2895C99.0692 40.5616 100.118 40.1588 101.205 40.1588C102.293 40.1588 103.342 40.5616 104.15 41.2895C104.677 41.7636 105.082 42.3582 105.33 43.0227C105.578 43.6872 105.662 44.4018 105.574 45.1057C105.487 45.8095 105.23 46.4817 104.826 47.0648C104.422 47.648 103.884 48.1249 103.256 48.4548V48.2704C104.3 48.6273 105.264 49.1848 106.094 49.9116C106.729 50.4656 107.253 51.1348 107.64 51.8838C107.775 52.1611 107.888 52.449 107.976 52.7446C108.049 52.9587 108.105 53.1786 108.141 53.402C108.165 53.5676 108.184 53.7047 108.198 53.8182C108.212 53.9317 108.241 53.9365 108.231 53.9365Z" fill="#263238"/>
<path d="M112.157 46.0001C112.142 45.9413 112.134 45.881 112.133 45.8204C112.133 45.6927 112.133 45.5224 112.095 45.3049L112.072 44.9218C112.072 44.7799 112.024 44.6285 111.996 44.4488C111.947 44.0668 111.869 43.689 111.764 43.3184C111.507 42.2978 111.098 41.3219 110.549 40.4239C109.25 38.2558 107.236 36.6077 104.854 35.7628C102.472 34.9178 99.87 34.9287 97.495 35.7936C97.0083 35.969 96.5343 36.1776 96.0762 36.4179C95.6134 36.6714 95.1693 36.9575 94.7471 37.274C94.3146 37.5949 93.9038 37.944 93.5174 38.3192C93.1353 38.7147 92.7798 39.1349 92.4533 39.5773C91.7812 40.4828 91.259 41.4905 90.9067 42.5617C90.1626 44.7823 90.1626 47.1849 90.9067 49.4055C91.259 50.4782 91.7811 51.4874 92.4533 52.3946C92.781 52.836 93.1365 53.2562 93.5174 53.6526C93.9038 54.0279 94.3146 54.377 94.7471 54.6979C95.1704 55.0128 95.6144 55.2988 96.0762 55.5539C98.2522 56.7012 100.749 57.089 103.171 56.6559C104.691 56.3762 106.135 55.7777 107.408 54.8998C108.68 54.0218 109.752 52.8843 110.553 51.5622C111.103 50.6629 111.513 49.6853 111.769 48.6629C111.874 48.294 111.952 47.9177 112.001 47.5373C112.029 47.3717 112.058 47.2204 112.076 47.0643L112.1 46.6812C112.1 46.4636 112.128 46.2934 112.138 46.1609C112.139 46.1019 112.147 46.0432 112.162 45.9859C112.168 46.0457 112.168 46.1059 112.162 46.1657C112.162 46.2934 112.162 46.4684 112.162 46.6859C112.162 46.8042 112.162 46.9319 112.162 47.069C112.162 47.2062 112.119 47.367 112.1 47.542C112.058 47.9267 111.987 48.3078 111.887 48.6818C111.642 49.7188 111.24 50.7123 110.695 51.6284C109.898 52.9775 108.824 54.142 107.543 55.0446C106.262 55.9472 104.804 56.5674 103.265 56.864C101.319 57.2284 99.3099 57.0651 97.4477 56.3911C96.9517 56.2124 96.4682 56.0007 96.0005 55.7573C95.5268 55.4992 95.0716 55.2084 94.6384 54.8871C94.1952 54.5598 93.7749 54.2026 93.3803 53.8182C92.989 53.4162 92.6255 52.9879 92.2925 52.5365C91.6017 51.6102 91.0651 50.5785 90.7033 49.4811C90.3407 48.3508 90.1478 47.1729 90.131 45.9859C90.1463 44.7969 90.3408 43.617 90.708 42.486C91.0672 41.39 91.6024 40.3596 92.2925 39.4354C92.6255 38.9825 92.9889 38.5526 93.3803 38.149C93.7771 37.7685 94.1973 37.4131 94.6384 37.0848C95.0716 36.7635 95.5268 36.4727 96.0005 36.2146C96.4682 35.9712 96.9517 35.7595 97.4477 35.5808C99.3083 34.907 101.315 34.7437 103.26 35.1078C104.8 35.4036 106.259 36.0234 107.541 36.9261C108.823 37.8287 109.898 38.9936 110.695 40.3435C111.24 41.2579 111.642 42.2499 111.887 43.2853C111.987 43.661 112.058 44.0436 112.1 44.4299C112.1 44.5954 112.147 44.7515 112.162 44.9029C112.176 45.0542 112.162 45.1725 112.162 45.2907C112.162 45.5083 112.162 45.6832 112.162 45.8109C112.167 45.874 112.165 45.9374 112.157 46.0001Z" fill="#263238"/>
<path d="M55.8982 95.7556C50.147 98.7353 45.7343 103.867 42.5654 109.514C39.3966 115.161 37.3628 121.362 35.3244 127.515L33.5508 159.251C40.2432 147.866 45.616 134.482 47.068 121.352L42.6127 120.955C45.6018 120.482 48.1085 118.335 49.7071 115.752C51.3057 113.17 52.124 110.223 52.9233 107.315L47.4889 108.119C51.7757 105.231 54.7869 100.804 55.8982 95.7556Z" fill="#455A64"/>
<path d="M55.8982 95.7556C50.147 98.7353 45.7343 103.867 42.5654 109.514C39.3966 115.161 37.3628 121.362 35.3244 127.515L33.5508 159.251C40.2432 147.866 45.616 134.482 47.068 121.352L42.6127 120.955C45.6018 120.482 48.1085 118.335 49.7071 115.752C51.3057 113.17 52.124 110.223 52.9233 107.315L47.4889 108.119C51.7757 105.231 54.7869 100.804 55.8982 95.7556Z" fill="#455A64"/>
<path d="M32.5576 166.69C32.5576 166.69 18.0329 149.3 18.1985 132.699H24.0679C24.0679 132.699 17.6924 128.508 18.1985 126.162C18.7045 123.816 18.8701 114.925 18.8701 114.925L24.2382 116.268C24.2382 116.268 20.2133 114.258 19.7072 111.065C19.2011 107.873 20.8802 93.1401 20.8802 93.1401C20.8802 93.1401 27.4212 100.012 29.436 107.055C31.4508 114.097 36.7291 122.312 35.1778 143.775C33.6265 165.238 32.5576 166.69 32.5576 166.69Z" fill="#455A64"/>
<path d="M39.9262 168.341C39.9262 168.341 55.6664 157.855 59.1616 144.471L54.432 143.189C54.432 143.189 60.4764 141.212 60.5804 139.216C60.6845 137.22 62.4723 130.036 62.4723 130.036L57.8657 129.941C57.8657 129.941 61.5406 129.203 62.6426 126.753C63.7446 124.304 65.6648 112.059 65.6648 112.059C65.6648 112.059 58.9014 116.159 55.7326 121.381C52.5638 126.602 46.5288 132.051 43.0809 149.645C39.633 167.239 39.9262 168.341 39.9262 168.341Z" fill="#455A64"/>
<path d="M24.853 108.275C24.853 108.275 24.853 108.336 24.9003 108.455C24.9476 108.573 24.976 108.767 25.028 108.989C25.1368 109.462 25.2881 110.171 25.501 111.056C25.7138 111.94 25.9361 113.052 26.1868 114.329C26.4374 115.606 26.7449 117.063 27.0381 118.675C27.6624 121.901 28.3151 125.77 28.9914 130.026C29.6678 134.283 30.3015 139.046 30.8833 144.021C31.465 148.997 31.8954 153.755 32.2359 158.082C32.5765 162.41 32.7988 166.317 32.9265 169.594C33.0116 171.235 33.0494 172.721 33.092 174.026C33.1346 175.331 33.1582 176.452 33.1677 177.37C33.1771 178.287 33.1677 178.987 33.1913 179.484V180.033C33.1913 180.156 33.1913 180.222 33.1913 180.222C33.1834 180.159 33.1834 180.095 33.1913 180.033V179.484C33.1913 178.987 33.1488 178.278 33.1204 177.37C33.092 176.462 33.0589 175.331 33.0021 174.031C32.9454 172.73 32.8934 171.245 32.8035 169.604C32.6474 166.326 32.3873 162.429 32.0562 158.101C31.7251 153.774 31.2522 149.025 30.6846 144.05C30.1171 139.074 29.4549 134.349 28.7928 130.059C28.1306 125.77 27.4921 121.915 26.9009 118.708C26.6172 117.091 26.3287 115.639 26.0875 114.357C25.8462 113.075 25.6145 111.992 25.4395 111.075C25.2645 110.157 25.1226 109.49 25.028 109.003C24.9855 108.772 24.9476 108.597 24.924 108.459C24.8946 108.4 24.8708 108.338 24.853 108.275Z" fill="#263238"/>
<path d="M30.5427 177.327C30.5427 177.327 17.2478 162.254 13.1236 153.135L16.2404 151.787C13.9796 152.161 11.6669 151.191 9.91217 149.716C8.15748 148.24 6.87576 146.301 5.61295 144.39L9.71825 143.695C5.94005 142.622 2.7212 140.134 0.731995 136.747C5.57511 137.546 9.95946 140.205 13.5682 143.534C16.4958 146.225 18.9694 149.352 21.3484 152.549C22.5121 154.104 23.5242 155.767 24.3706 157.515C26.6219 162.145 30.5522 171.798 30.5427 177.327Z" fill="#455A64"/>
<path d="M59.3697 120.841C59.3561 120.894 59.3354 120.945 59.3082 120.993L59.1048 121.433C58.9109 121.83 58.6319 122.379 58.2913 123.102C57.9508 123.826 57.5015 124.715 57.0096 125.751C56.5177 126.787 55.9455 127.959 55.3448 129.27C54.1151 131.885 52.7057 135.016 51.1875 138.516C49.6693 142.016 48.0848 145.904 46.491 150.009C44.8971 154.114 43.4829 158.049 42.2343 161.667C40.9857 165.286 39.9357 168.549 39.0844 171.306C38.6493 172.683 38.2851 173.936 37.9493 175.033C37.6135 176.131 37.3392 177.076 37.1169 177.871C36.8946 178.666 36.7196 179.233 36.5919 179.654L36.45 180.127C36.4366 180.181 36.4176 180.233 36.3932 180.283C36.3995 180.227 36.4106 180.172 36.4264 180.118C36.4547 179.999 36.4973 179.848 36.5446 179.645L37.0176 177.847C37.2257 177.072 37.4905 176.116 37.8074 175.01C38.1243 173.903 38.4837 172.645 38.9094 171.273C39.7371 168.506 40.8012 165.234 42.0073 161.615C43.2133 157.997 44.6653 154.048 46.2639 149.938C47.8626 145.828 49.4659 141.95 50.9936 138.445C52.5212 134.94 53.9543 131.824 55.1982 129.218C55.813 127.907 56.3948 126.739 56.9008 125.708C57.4069 124.677 57.8468 123.816 58.2204 123.079L59.0717 121.428L59.2987 121.002C59.3169 120.946 59.3407 120.893 59.3697 120.841Z" fill="#263238"/>
<path d="M31.6731 183.802C31.6421 183.712 31.6214 183.618 31.6116 183.523L31.4839 182.724C31.4319 182.374 31.3704 181.948 31.2758 181.456C31.1812 180.964 31.1055 180.401 30.9684 179.787C30.7319 178.552 30.3914 177.095 29.9562 175.487C29.5211 173.879 28.9583 172.148 28.282 170.351C27.6056 168.554 26.8631 166.884 26.1442 165.385C25.4253 163.886 24.7253 162.576 24.0631 161.492C23.7557 160.939 23.4483 160.461 23.1882 160.036C22.928 159.61 22.7152 159.241 22.5071 158.948L22.072 158.262C22.019 158.184 21.9731 158.102 21.9348 158.016C22.0043 158.08 22.0648 158.153 22.1145 158.234L22.5875 158.896C22.7909 159.18 23.0368 159.539 23.3064 159.96C23.576 160.381 23.8929 160.854 24.2098 161.403C24.8719 162.476 25.5955 163.796 26.3475 165.286C27.0995 166.775 27.8279 168.464 28.5137 170.261C29.1995 172.058 29.7387 173.818 30.1738 175.431C30.6089 177.043 30.9258 178.514 31.1197 179.754C31.2427 180.373 31.3136 180.941 31.3893 181.437C31.465 181.934 31.5217 182.36 31.5548 182.71C31.5879 183.06 31.6163 183.305 31.6352 183.518C31.6605 183.611 31.6732 183.706 31.6731 183.802Z" fill="#263238"/>
<path d="M49.2152 180.25H20.1187V186.186H49.2152V180.25Z" fill="#132183"/>
<path d="M22.8902 186.186L26.0401 206.149H43.6201L46.5524 186.186H22.8902Z" fill="#132183"/>
<path d="M47.4322 186.19C47.4322 186.257 41.9269 186.313 35.1352 186.313C28.3435 186.313 22.8382 186.257 22.8382 186.19C22.8382 186.124 28.3435 186.063 35.1352 186.063C41.9269 186.063 47.4322 186.119 47.4322 186.19Z" fill="#263238"/>
<g opacity="0.3">
<path d="M55.8982 95.7556C50.147 98.7353 45.7343 103.867 42.5654 109.514C39.3966 115.161 37.3628 121.362 35.3244 127.515L33.5508 159.251C40.2432 147.866 45.616 134.482 47.068 121.352L42.6127 120.955C45.6018 120.482 48.1085 118.335 49.7071 115.752C51.3057 113.17 52.124 110.223 52.9233 107.315L47.4889 108.119C51.7757 105.231 54.7869 100.804 55.8982 95.7556Z" fill="black"/>
</g>
<path d="M191.368 121.371C191.368 121.371 196.193 129.379 196.911 137.003C197.63 144.627 192.537 206.235 192.537 206.235H132.518C132.518 206.235 148.599 130.159 153.858 125.278L154.217 120.217L191.368 121.371Z" fill="#263238"/>
<path d="M193.932 127.477C193.945 127.835 193.937 128.194 193.908 128.551C193.839 129.577 193.647 130.592 193.336 131.573C192.85 133.134 192.091 134.596 191.094 135.891C190.473 136.702 189.759 137.437 188.966 138.081C188.071 138.785 187.122 139.417 186.128 139.973C185.092 140.578 183.985 141.165 182.879 141.865C181.719 142.55 180.663 143.397 179.743 144.381C178.803 145.473 178.078 146.732 177.605 148.094C177.133 149.552 176.805 151.054 176.626 152.577C176.413 154.138 176.276 155.751 176.063 157.397C175.872 159.083 175.491 160.743 174.928 162.344C174.318 164.009 173.321 165.505 172.02 166.709C170.658 167.909 169.116 168.887 167.451 169.609C164.14 171.127 160.659 172.096 157.722 173.865C156.282 174.718 155.021 175.842 154.009 177.176C153.085 178.492 152.374 179.946 151.905 181.485C150.959 184.483 150.533 187.477 149.748 190.187C149.644 190.523 149.54 190.859 149.44 191.19C149.341 191.521 149.209 191.838 149.095 192.159C148.852 192.783 148.578 193.394 148.272 193.99C147.993 194.581 147.638 195.12 147.326 195.659C147.151 195.919 146.972 196.175 146.797 196.425L146.536 196.799L146.253 197.154C144.92 198.855 143.323 200.332 141.523 201.529C140.167 202.434 138.706 203.171 137.172 203.723C136.202 204.063 135.207 204.327 134.197 204.513L133.407 204.631L133.133 204.664L133.402 204.608L134.187 204.466C135.19 204.261 136.177 203.983 137.139 203.633C140.687 202.314 143.799 200.033 146.125 197.045L146.404 196.695L146.664 196.321L147.184 195.56C147.497 195.025 147.847 194.491 148.13 193.9C148.432 193.311 148.702 192.706 148.939 192.088C149.053 191.771 149.161 191.45 149.275 191.142C149.388 190.835 149.478 190.48 149.578 190.144C150.353 187.453 150.75 184.469 151.715 181.428C152.191 179.866 152.911 178.39 153.848 177.053C154.876 175.686 156.161 174.534 157.632 173.662C160.607 171.86 164.079 170.89 167.38 169.377C169.022 168.674 170.543 167.716 171.887 166.539C173.155 165.364 174.128 163.905 174.725 162.282C175.275 160.685 175.643 159.03 175.822 157.349C176.035 155.713 176.177 154.1 176.394 152.535C176.579 150.997 176.912 149.482 177.388 148.008C177.875 146.622 178.618 145.338 179.577 144.225C180.516 143.231 181.591 142.376 182.77 141.685C183.886 141.004 184.998 140.417 186.029 139.826C187.022 139.269 187.97 138.637 188.866 137.934C189.651 137.302 190.361 136.582 190.981 135.787C191.974 134.51 192.737 133.069 193.237 131.53C193.559 130.558 193.767 129.552 193.856 128.532C193.894 128.182 193.894 127.917 193.908 127.733C193.922 127.548 193.932 127.477 193.932 127.477Z" fill="#455A64"/>
<path d="M195.616 133.077C195.65 133.156 195.68 133.236 195.705 133.318C195.791 133.553 195.859 133.793 195.909 134.037C196.092 134.987 196.074 135.965 195.857 136.908C195.517 138.402 194.847 139.8 193.894 140.999C192.606 142.55 191.144 143.948 189.538 145.166C187.821 146.585 185.868 148.103 184.369 150.25C183.592 151.352 183.048 152.601 182.77 153.92C182.509 155.326 182.351 156.749 182.297 158.177C182.241 159.695 182.03 161.204 181.668 162.68C181.271 164.217 180.692 165.702 179.942 167.102C178.363 170.058 176.075 172.575 173.282 174.428C170.393 176.32 167.134 177.228 164.272 178.652C162.854 179.318 161.549 180.202 160.404 181.272C159.34 182.331 158.481 183.577 157.869 184.947C156.653 187.624 156.152 190.409 155.475 192.944C155.162 194.177 154.776 195.389 154.321 196.577C153.888 197.669 153.334 198.71 152.671 199.679C152.056 200.551 151.338 201.345 150.533 202.044C150.164 202.389 149.762 202.673 149.388 202.966C149.015 203.26 148.617 203.501 148.22 203.709C146.899 204.484 145.462 205.043 143.963 205.364C143.022 205.56 142.064 205.66 141.102 205.662L140.355 205.624H141.102C142.057 205.599 143.007 205.483 143.94 205.279C145.416 204.942 146.83 204.375 148.13 203.6C148.518 203.392 148.882 203.127 149.275 202.858C149.667 202.588 150.041 202.281 150.405 201.935C151.197 201.234 151.902 200.44 152.505 199.571C153.155 198.608 153.698 197.577 154.123 196.496C154.568 195.314 154.946 194.108 155.253 192.883C155.925 190.357 156.412 187.557 157.618 184.843C158.238 183.445 159.11 182.174 160.191 181.092C161.354 180.004 162.68 179.106 164.121 178.429C167.006 176.987 170.27 176.064 173.107 174.215C177.204 171.498 180.157 167.369 181.403 162.613C181.762 161.152 181.972 159.657 182.032 158.153C182.079 156.71 182.238 155.273 182.505 153.854C182.791 152.509 183.348 151.236 184.142 150.113C185.674 147.942 187.651 146.419 189.372 145.015C190.998 143.819 192.482 142.442 193.795 140.909C194.745 139.731 195.422 138.356 195.776 136.884C195.996 135.954 196.028 134.989 195.871 134.047C195.734 133.403 195.597 133.082 195.616 133.077Z" fill="#455A64"/>
<path d="M134.698 90.2362C134.698 90.2362 138.591 117.081 144.578 119.687C147.596 121.007 150.022 119.872 151.673 116.85C153.323 113.827 157.537 91.8679 157.537 91.8679L145.888 91.5936L145.453 95.959L140.96 87.6018L134.698 90.2362Z" fill="#936760"/>
<path d="M151.871 107.764C151.848 107.689 151.815 107.617 151.772 107.551L151.455 106.965L150.282 104.813C149.28 102.997 147.917 100.481 146.399 97.6949C144.881 94.9092 143.561 92.3977 142.582 90.539L141.428 88.3681L141.112 87.7816C141.036 87.6492 140.993 87.5783 140.984 87.583C141.005 87.6581 141.034 87.731 141.069 87.8006L141.353 88.4059C141.603 88.9309 141.972 89.6829 142.441 90.6147C143.386 92.4687 144.697 95.0132 146.224 97.7989C147.752 100.585 149.128 103.091 150.164 104.893C150.684 105.792 151.11 106.511 151.417 107.007L151.772 107.575C151.799 107.641 151.832 107.705 151.871 107.764Z" fill="#6F4C47"/>
<path d="M192.466 96.5124L189.141 111.387L190.716 121.367H154.175L156.563 74.7704L165.672 73.9948L187.93 77.7501L192.466 96.5124Z" fill="#132183"/>
<path d="M183.172 77.4852C183.172 77.4852 192.688 76.6102 197.224 83.085C200 87.0484 203.892 96.1529 203.892 96.1529L191.222 98.3427L183.172 77.4852Z" fill="#132183"/>
<g opacity="0.3">
<path d="M188.942 96.6874C188.299 95.3717 187.295 94.266 186.047 93.499C184.799 92.7319 183.359 92.3352 181.895 92.3551C181.261 92.3551 180.547 92.5253 180.211 93.0598C179.875 93.5942 180.06 94.3604 180.306 94.98C180.623 95.7888 181.044 96.6448 181.819 97.0327C182.387 97.3164 183.054 97.3022 183.664 97.5056C184.392 97.7852 185.057 98.2064 185.622 98.7448C186.128 99.1221 186.565 99.5846 186.913 100.112C187.147 100.558 187.316 101.036 187.414 101.531C188.034 103.962 188.526 108.98 189.141 111.411L189.822 109.315C189.841 107.316 189.858 105.317 189.874 103.318C189.893 101.048 189.893 98.7211 188.942 96.6874Z" fill="black"/>
</g>
<path d="M177.582 109.088C177.582 109.051 178.054 109.136 178.877 109.197C179.916 109.279 180.961 109.254 181.994 109.122C183.028 108.983 184.045 108.741 185.031 108.398C185.787 108.133 186.241 107.925 186.256 107.958C186.165 108.033 186.065 108.095 185.958 108.143C185.675 108.293 185.385 108.427 185.087 108.545C183.113 109.329 180.973 109.609 178.863 109.358C178.545 109.321 178.229 109.266 177.917 109.192C177.8 109.177 177.687 109.142 177.582 109.088Z" fill="#263238"/>
<path d="M161.633 109.741C161.633 109.684 166.836 111.16 173.178 113.052C179.521 114.944 184.685 116.495 184.667 116.557C184.648 116.618 179.464 115.138 173.117 113.246C166.77 111.354 161.633 109.803 161.633 109.741Z" fill="#263238"/>
<g opacity="0.3">
<path d="M177.842 109.15C178.308 109.841 178.954 110.391 179.71 110.742C180.465 111.093 181.303 111.231 182.131 111.141C182.922 111.052 183.671 110.738 184.288 110.234C184.904 109.731 185.363 109.061 185.608 108.303C183.137 109.257 180.46 109.549 177.842 109.15Z" fill="black"/>
</g>
<g opacity="0.3">
<path d="M183.281 116.084L183.148 116.136C179.885 116.717 176.825 116.136 173.689 115.019C170.553 113.903 167.649 112.305 164.76 110.682L183.281 116.084Z" fill="black"/>
</g>
<path d="M156.563 74.7704C156.563 74.7704 150.538 75.5082 148.201 80.654C146.596 84.3241 145.237 88.0972 144.134 91.9483L156.431 94.7151C156.431 94.7151 158.365 84.31 158.512 80.654C158.677 76.6386 158.838 74.6521 156.563 74.7704Z" fill="#132183"/>
<path d="M155.404 96.3611C155.295 95.2153 155.261 94.0636 155.3 92.9132C155.266 91.7642 155.306 90.6141 155.419 89.4701C155.528 90.6144 155.563 91.7645 155.523 92.9132C155.557 94.0639 155.517 95.2155 155.404 96.3611Z" fill="#263238"/>
<path d="M162.078 41.8003C165.327 37.8274 169.697 35.5383 174.848 35.4532C177.742 35.4059 178.944 36.0065 181.029 36.5694C183.114 37.0736 184.955 38.2939 186.232 40.0173C187.712 42.1172 188.956 44.4678 189.235 47.0171C189.519 49.642 189.808 52.2811 189.609 54.9108C189.41 57.5405 188.701 60.1843 187.15 62.3221L180.457 63.4856C176.759 63.6086 173.013 63.7315 169.414 62.8896C165.814 62.0478 162.319 60.1086 160.389 56.954C157.712 52.5696 158.824 45.7779 162.078 41.8003Z" fill="#263238"/>
<path d="M185.121 66.0869C185.121 66.0869 185.229 66.2524 185.523 66.4368C185.94 66.6961 186.41 66.8578 186.899 66.9098C187.636 66.9914 188.38 66.8409 189.027 66.4794C189.813 66.0035 190.386 65.243 190.625 64.3559C190.865 63.4689 190.753 62.5236 190.314 61.7167C189.937 61.0795 189.372 60.5753 188.696 60.2742C188.251 60.0729 187.766 59.9727 187.277 59.9809C187.098 59.9684 186.919 60.0026 186.757 60.0802C187.39 60.1056 188.013 60.25 188.592 60.5059C189.188 60.816 189.681 61.2925 190.011 61.8775C190.375 62.6049 190.459 63.4409 190.246 64.226C190.033 65.0111 189.539 65.6903 188.857 66.1341C188.285 66.4716 187.628 66.6359 186.965 66.6071C186.322 66.5551 185.696 66.3784 185.121 66.0869Z" fill="#E0E0E0"/>
<path d="M155.589 61.2248C155.653 60.4631 155.89 59.726 156.283 59.0702C156.675 58.4144 157.213 57.8571 157.854 57.4411C158.506 57.0463 159.266 56.8689 160.026 56.9343C160.785 56.9998 161.503 57.3048 162.078 57.8053L163.133 59.0586C163.947 59.4371 164.624 60.0598 165.069 60.8404C165.514 61.6209 165.705 62.5206 165.616 63.4146C165.493 64.3055 165.12 65.1431 164.538 65.8292C163.957 66.5152 163.192 67.0213 162.333 67.2882C161.469 67.5312 160.556 67.5479 159.683 67.3367C158.81 67.1255 158.006 66.6935 157.348 66.0821C156.705 65.4597 156.212 64.6986 155.907 63.8569C155.602 63.0152 155.493 62.1149 155.589 61.2248Z" fill="#263238"/>
<path d="M156.904 65.7368C156.646 65.3412 156.521 64.8744 156.544 64.4031C156.601 63.547 157.221 62.4261 158.072 61.3998C158.82 60.5179 159.731 59.7874 160.754 59.2478C161.539 58.8269 162.078 58.6755 162.059 58.6188C161.562 58.6601 161.079 58.8034 160.64 59.0397C159.545 59.5335 158.575 60.2674 157.802 61.187C157.373 61.6878 157.009 62.2408 156.719 62.8329C156.458 63.3148 156.31 63.8504 156.289 64.3984C156.279 64.7735 156.383 65.1428 156.587 65.4578C156.776 65.6754 156.904 65.751 156.904 65.7368Z" fill="#455A64"/>
<path d="M160.153 67.7139C160.262 67.7139 159.808 65.6849 160.451 63.2917C161.094 60.8985 162.447 59.3567 162.343 59.2952C161.989 59.5684 161.689 59.9052 161.458 60.2884C160.845 61.1769 160.392 62.1662 160.12 63.2113C159.847 64.2553 159.758 65.3386 159.855 66.4132C159.875 66.8613 159.975 67.302 160.153 67.7139Z" fill="#455A64"/>
<path d="M180.457 74.3401C180.415 71.9753 180.358 70.0834 180.358 70.0834C180.358 70.0834 185.816 69.4828 187.32 62.4924C188.072 59.0162 188.209 53.2508 188.171 48.5353C188.138 44.2787 184.52 38.5086 179.279 38.4896L176.948 38.2153L168.028 41.7625C167.405 41.7918 166.816 42.0542 166.378 42.4976C165.94 42.9409 165.685 43.5328 165.663 44.1557L165.417 74.0185L174.039 94.9517L180.225 86.5661L180.457 74.3401Z" fill="#936760"/>
<path d="M176.834 60.8512C176.886 60.493 177.068 60.1665 177.345 59.9336C177.599 59.7154 177.917 59.5866 178.251 59.567C178.585 59.5473 178.917 59.6379 179.194 59.8249C179.482 60.0463 179.705 60.3407 179.841 60.6775C179.977 61.0143 180.019 61.3813 179.965 61.7404C179.812 61.9556 179.615 62.1354 179.387 62.2676C179.158 62.3998 178.904 62.4813 178.641 62.5065C178.557 62.5114 178.474 62.5114 178.39 62.5065C177.974 62.5046 177.574 62.3458 177.269 62.062C177.11 61.9061 176.988 61.7162 176.913 61.5065C176.838 61.2968 176.811 61.0728 176.834 60.8512Z" fill="#6F4C47"/>
<path d="M184.704 53.3595C184.694 53.5958 184.592 53.8188 184.42 53.9806C184.248 54.1424 184.018 54.2302 183.782 54.225C183.666 54.2282 183.551 54.2081 183.444 54.166C183.336 54.124 183.238 54.0607 183.155 53.98C183.072 53.8993 183.006 53.8028 182.961 53.6963C182.916 53.5897 182.893 53.4752 182.893 53.3595C182.904 53.1236 183.006 52.9014 183.179 52.7398C183.351 52.5782 183.579 52.49 183.815 52.494C183.931 52.4908 184.046 52.5109 184.154 52.5529C184.261 52.595 184.36 52.6583 184.443 52.739C184.525 52.8197 184.591 52.9161 184.636 53.0227C184.681 53.1293 184.704 53.2438 184.704 53.3595Z" fill="#263238"/>
<path d="M186.435 51.1507C186.317 51.2595 185.66 50.7156 184.685 50.6778C183.711 50.6399 182.973 51.075 182.874 50.9521C182.775 50.8291 182.95 50.6872 183.271 50.4791C183.71 50.2119 184.22 50.0849 184.733 50.1149C185.239 50.1422 185.725 50.3293 186.118 50.6494C186.402 50.8811 186.492 51.0987 186.435 51.1507Z" fill="#263238"/>
<path d="M180.32 58.5242C180.841 58.3898 181.376 58.323 181.914 58.3256C182.165 58.3256 182.387 58.2783 182.453 58.108C182.49 57.8537 182.447 57.5941 182.33 57.3655C182.127 56.7506 181.919 56.1027 181.696 55.4311C180.826 52.6784 180.206 50.4224 180.32 50.3893C180.434 50.3562 181.228 52.5554 182.098 55.3081C182.306 55.9844 182.51 56.6324 182.699 57.2519C182.84 57.5589 182.867 57.906 182.775 58.231C182.735 58.3176 182.675 58.3936 182.6 58.4528C182.525 58.512 182.438 58.5527 182.344 58.5715C182.205 58.6038 182.062 58.6166 181.919 58.6093C181.384 58.6503 180.847 58.6217 180.32 58.5242Z" fill="#263238"/>
<path d="M180.358 70.0786C177.034 69.9474 173.812 68.8962 171.05 67.0422C171.05 67.0422 173.297 72.0698 180.396 71.7955L180.358 70.0786Z" fill="#6F4C47"/>
<path d="M177.416 59.0398C177.577 59.0398 177.52 60.0945 178.362 60.8938C179.204 61.6931 180.358 61.6411 180.358 61.7877C180.358 61.8539 180.098 61.9816 179.62 61.9674C179 61.9414 178.41 61.6987 177.95 61.2816C177.513 60.8792 177.247 60.3237 177.208 59.7303C177.213 59.2857 177.345 59.0303 177.416 59.0398Z" fill="#263238"/>
<path d="M186.227 47.4806C186.052 47.7076 185.314 47.509 184.44 47.5326C183.565 47.5563 182.831 47.7455 182.652 47.5326C182.571 47.4239 182.68 47.1968 182.992 46.9745C183.421 46.6959 183.923 46.5495 184.435 46.5536C184.944 46.5362 185.446 46.6713 185.877 46.9414C186.227 47.1448 186.317 47.3671 186.227 47.4806Z" fill="#263238"/>
<path d="M173.377 53.104C173.365 53.3429 173.449 53.5766 173.609 53.754C173.77 53.9313 173.994 54.0377 174.233 54.05C174.348 54.0603 174.463 54.0478 174.573 54.0131C174.683 53.9785 174.785 53.9223 174.873 53.848C174.961 53.7736 175.033 53.6825 175.086 53.58C175.138 53.4775 175.17 53.3655 175.179 53.2507C175.19 53.0118 175.107 52.7781 174.946 52.6007C174.786 52.4234 174.562 52.317 174.323 52.3047C174.208 52.2937 174.092 52.3058 173.982 52.3402C173.872 52.3746 173.77 52.4307 173.682 52.5052C173.593 52.5797 173.521 52.671 173.469 52.7739C173.416 52.8767 173.385 52.989 173.377 53.104Z" fill="#263238"/>
<path d="M173.098 50.8008C173.207 50.919 173.902 50.4224 174.876 50.4413C175.851 50.4603 176.555 50.9616 176.664 50.8434C176.773 50.7251 176.607 50.5785 176.3 50.3704C175.886 50.0712 175.391 49.9061 174.881 49.8974C174.374 49.8851 173.877 50.036 173.462 50.3278C173.145 50.5359 173.041 50.744 173.098 50.8008Z" fill="#263238"/>
<path d="M172.535 48.7056C172.724 48.9326 173.481 48.7056 174.384 48.7056C175.288 48.7056 176.054 48.8853 176.234 48.6535C176.309 48.5448 176.196 48.3225 175.865 48.1049C175.411 47.8391 174.891 47.7048 174.365 47.7171C173.843 47.7131 173.329 47.8574 172.885 48.1333C172.563 48.3698 172.455 48.5968 172.535 48.7056Z" fill="#263238"/>
<path d="M166.883 56.0081C166.912 55.4784 166.372 54.2108 165.857 54.1162C164.485 53.8277 161.979 53.7993 161.766 57.3182C161.468 62.1234 166.353 61.4282 166.372 61.291C166.391 61.1539 166.789 57.8195 166.883 56.0081Z" fill="#936760"/>
<path d="M165.157 59.437C165.133 59.437 165.067 59.489 164.92 59.5458C164.717 59.6178 164.494 59.6093 164.296 59.5221C163.799 59.3046 163.421 58.4674 163.449 57.6019C163.463 57.1883 163.568 56.7828 163.757 56.4148C163.81 56.2667 163.899 56.1342 164.017 56.0293C164.134 55.9244 164.275 55.8505 164.429 55.8141C164.525 55.7952 164.626 55.8108 164.712 55.8584C164.799 55.9059 164.866 55.9823 164.901 56.0742C164.958 56.2114 164.925 56.306 164.949 56.3154C164.972 56.3249 165.058 56.2398 165.029 56.0411C165.011 55.9203 164.951 55.8098 164.859 55.729C164.795 55.672 164.72 55.6291 164.639 55.603C164.557 55.5769 164.471 55.5683 164.386 55.5776C164.186 55.6036 163.996 55.6809 163.834 55.8018C163.673 55.9228 163.545 56.0834 163.464 56.2681C163.235 56.6716 163.107 57.1242 163.09 57.5877C163.062 58.562 163.502 59.4796 164.187 59.7397C164.314 59.785 164.448 59.8013 164.582 59.7874C164.715 59.7735 164.844 59.7297 164.958 59.6593C165.138 59.56 165.171 59.4464 165.157 59.437Z" fill="#6F4C47"/>
<path d="M165.658 54.1114L166.883 55.379C172.157 50.3325 182.467 37.6902 181.89 38.4423C179.486 37.5448 176.896 37.2635 174.356 37.624C170.43 38.2909 163.005 40.2537 163.109 44.884C163.213 49.5143 165.658 54.1114 165.658 54.1114Z" fill="#263238"/>
<path d="M165.772 66.0869C165.772 66.0869 165.663 66.2524 165.374 66.4369C164.956 66.6968 164.484 66.8585 163.993 66.9098C163.258 66.9914 162.515 66.8409 161.87 66.4795C161.084 66.0035 160.511 65.2433 160.271 64.3565C160.031 63.4698 160.141 62.5245 160.579 61.7167C160.957 61.0792 161.524 60.575 162.201 60.2742C162.646 60.072 163.131 59.9718 163.62 59.981C163.8 59.9701 163.981 60.0043 164.145 60.0803C163.514 60.1128 162.894 60.2636 162.319 60.5249C161.724 60.8354 161.231 61.3118 160.9 61.8965C160.536 62.6238 160.452 63.4598 160.665 64.2449C160.878 65.03 161.373 65.7093 162.054 66.1531C162.635 66.4946 163.302 66.659 163.974 66.6261C164.603 66.5635 165.213 66.3804 165.772 66.0869Z" fill="#E0E0E0"/>
<path d="M158.673 53.052C158.689 52.9569 158.715 52.8635 158.748 52.773C158.835 52.5119 158.945 52.2588 159.075 52.0162C159.572 51.1252 160.258 50.3537 161.085 49.7555C162.311 48.8799 163.679 48.2208 165.129 47.8069C166.737 47.2866 168.553 46.861 170.331 46.1137C172.005 45.4132 173.592 44.5212 175.061 43.4557C176.265 42.5814 177.387 41.6 178.414 40.5233C179.103 39.7942 179.751 39.0268 180.353 38.2247L180.826 37.5578C180.885 37.4758 180.951 37.3997 181.025 37.3308C180.991 37.4205 180.945 37.5049 180.888 37.5815C180.783 37.7423 180.642 37.9788 180.415 38.272C179.841 39.1043 179.209 39.8946 178.523 40.6368C177.506 41.7393 176.387 42.7418 175.179 43.6307C173.696 44.7204 172.087 45.6287 170.388 46.336C168.685 46.9886 166.948 47.5507 165.185 48.0197C163.754 48.416 162.399 49.0473 161.175 49.8879C160.356 50.4645 159.666 51.2035 159.146 52.0588C158.796 52.6784 158.701 53.0615 158.673 53.052Z" fill="#455A64"/>
<path d="M160.073 53.8087C160.06 53.4493 160.125 53.0914 160.262 52.7588C160.623 51.8393 161.252 51.0499 162.068 50.4933C163.071 49.746 164.504 49.2825 166.079 48.9231C167.794 48.5809 169.466 48.0495 171.064 47.3386C172.653 46.6108 174.147 45.6895 175.51 44.5955C176.621 43.6994 177.641 42.6966 178.556 41.6016C179.17 40.8592 179.737 40.0788 180.254 39.2652L180.661 38.5936C180.705 38.5128 180.757 38.4367 180.817 38.3666C180.792 38.4555 180.754 38.5401 180.703 38.6172C180.609 38.8017 180.486 39.0334 180.334 39.3172C179.846 40.1548 179.296 40.9548 178.688 41.7104C176.67 44.2194 174.095 46.224 171.168 47.5657C169.556 48.2863 167.865 48.8195 166.131 49.1548C164.556 49.5048 163.156 49.9399 162.168 50.6494C161.367 51.1783 160.737 51.9272 160.352 52.8061C160.228 53.1309 160.134 53.4666 160.073 53.8087Z" fill="#455A64"/>
<path d="M135.185 92.8564C134.916 92.7571 134.561 88.9308 134.561 88.9308C134.561 88.9308 130.735 85.8708 130.215 84.6269C129.694 83.383 129.77 80.4175 129.77 80.4175L136.037 76.1609C136.037 76.1609 139.74 79.4716 140.71 80.777C141.253 81.5053 141.655 83.5154 141.939 85.1424C142.166 86.5256 142.219 87.9318 142.095 89.3281L142.005 90.4065C142.005 90.4065 139.485 94.455 135.185 92.8564Z" fill="#936760"/>
<path d="M130.503 85.379C130.053 84.979 129.625 84.5542 129.221 84.1067C128.408 83.227 127.504 82.404 128.275 81.4723C128.391 81.3183 128.538 81.1906 128.707 81.0977C128.876 81.0047 129.062 80.9487 129.254 80.9331C129.254 80.9331 128.781 80.1149 129.193 79.5994C129.309 79.4471 129.459 79.3248 129.632 79.2425C129.805 79.1603 129.995 79.1205 130.186 79.1264C130.186 79.1264 129.576 77.9535 130.139 77.1636C130.353 76.8753 130.644 76.6525 130.978 76.5205C131.313 76.3885 131.677 76.3524 132.031 76.4164C132.031 76.4164 129.491 71.2422 129.34 70.9773C128.772 69.9983 128.824 68.9294 129.959 68.8111C130.375 68.7686 130.735 69.0949 131.813 70.703C132.891 72.3111 134.698 75.0306 134.698 75.0306C134.698 75.0306 136.67 76.7001 137.659 77.6366C138.647 78.5731 140.714 80.7676 141.06 81.4203C141.944 83.1182 141.755 85.8519 141.755 85.8519L134.566 88.9309C134.566 88.9309 130.967 85.7904 130.503 85.379Z" fill="#936760"/>
<path d="M129.472 81.1128C129.77 81.2885 130.055 81.4861 130.323 81.704L131.227 82.3756C131.409 82.5072 131.58 82.6543 131.737 82.8154C131.921 82.9941 132.041 83.2286 132.078 83.4823C132.102 83.6135 132.089 83.7485 132.043 83.8733C131.996 83.9982 131.917 84.1082 131.813 84.1918C131.612 84.3312 131.364 84.3872 131.123 84.3478C130.92 84.3266 130.721 84.2854 130.527 84.2249C130.342 84.1728 130.177 84.1208 130.021 84.0688C129.718 83.9695 129.472 83.8796 129.306 83.8087C129.141 83.7377 129.056 83.6952 129.06 83.681C129.065 83.6668 129.444 83.7897 130.054 83.96C130.408 84.0689 130.77 84.1496 131.137 84.2012C131.339 84.2255 131.543 84.1786 131.714 84.0688C131.794 83.9999 131.855 83.9114 131.89 83.8119C131.926 83.7124 131.935 83.6054 131.917 83.5012C131.881 83.2822 131.777 83.0802 131.619 82.9242C131.474 82.7677 131.316 82.6237 131.146 82.4938L130.262 81.7891C129.979 81.5871 129.715 81.3608 129.472 81.1128Z" fill="#6F4C47"/>
<path d="M135.729 79.5805C135.525 79.2185 135.41 78.8132 135.393 78.3981C135.322 77.9898 135.346 77.5704 135.464 77.1731C135.516 77.1731 135.464 77.7217 135.554 78.3839C135.644 79.046 135.777 79.5663 135.729 79.5805Z" fill="#6F4C47"/>
<path d="M139.21 80.1055C138.296 79.6963 137.282 79.56 136.292 79.7129C135.306 79.8652 134.349 80.1683 133.454 80.6115C132.735 80.9521 131.95 81.4534 131.851 82.2432C131.752 83.0331 132.494 83.7898 133.298 83.9459C134.116 84.0368 134.943 83.8715 135.663 83.4729C136.378 83.0648 137.14 82.7471 137.933 82.527" fill="#936760"/>
<path d="M137.943 82.5506C137.943 82.5506 137.73 82.6026 137.356 82.7445C136.838 82.9564 136.331 83.1947 135.838 83.4587C135.49 83.6378 135.128 83.7866 134.755 83.9033C134.321 84.0459 133.861 84.0927 133.407 84.0404C132.893 83.9735 132.424 83.7089 132.102 83.3026C131.926 83.0897 131.812 82.833 131.771 82.5601C131.741 82.2743 131.797 81.9861 131.931 81.7324C132.225 81.2695 132.647 80.9027 133.147 80.6777C133.589 80.4559 134.044 80.26 134.509 80.0912C135.298 79.7959 136.131 79.636 136.973 79.6183C137.54 79.6045 138.105 79.6893 138.643 79.8689C138.79 79.9177 138.934 79.9762 139.073 80.0439C139.121 80.0658 139.167 80.0928 139.21 80.1243C139.21 80.1243 139.007 80.0392 138.624 79.9304C138.087 79.7803 137.53 79.7149 136.973 79.7365C136.146 79.7747 135.331 79.9488 134.561 80.252C134.103 80.4202 133.656 80.616 133.223 80.8385C132.752 81.051 132.355 81.3962 132.078 81.8317C131.955 82.0518 131.905 82.3052 131.936 82.5553C131.97 82.7996 132.07 83.03 132.225 83.2222C132.523 83.596 132.953 83.8428 133.426 83.9128C133.86 83.9632 134.3 83.9229 134.717 83.7945C135.086 83.6837 135.445 83.5429 135.791 83.3736C136.292 83.1184 136.809 82.8941 137.337 82.702C137.483 82.6542 137.631 82.6162 137.782 82.5885C137.833 82.5683 137.888 82.5556 137.943 82.5506Z" fill="#6F4C47"/>
<path d="M129.562 81.179C130.758 82.0729 131.927 83.1181 133.005 84.1255C133.3 84.449 133.675 84.6888 134.093 84.8208C134.429 84.8917 135.01 84.3478 135.28 84.1114L131.416 80.0533" fill="#936760"/>
<path d="M131.416 80.0533C131.534 80.1371 131.641 80.2339 131.737 80.3419L132.57 81.1837C133.275 81.9026 134.249 82.91 135.341 84.0546L135.398 84.1161L135.332 84.1728C135.126 84.358 134.909 84.5317 134.684 84.6931C134.587 84.7575 134.484 84.8129 134.377 84.8586C134.319 84.8822 134.259 84.8966 134.197 84.9012C134.134 84.9139 134.07 84.9139 134.008 84.9012C133.793 84.838 133.593 84.7353 133.416 84.5985C133.071 84.3336 132.797 84.0451 132.508 83.7897C131.941 83.2695 131.43 82.806 130.995 82.4229C130.56 82.0398 130.196 81.7371 129.945 81.529C129.81 81.4269 129.682 81.3163 129.562 81.1979C129.712 81.2771 129.853 81.3723 129.983 81.4817C130.248 81.6709 130.621 81.9546 131.066 82.333C131.51 82.7114 132.04 83.1607 132.608 83.681C132.896 83.9316 133.185 84.2249 133.511 84.4708C133.672 84.5953 133.855 84.6884 134.05 84.7451C134.147 84.7564 134.245 84.747 134.338 84.7177C134.431 84.6884 134.517 84.6397 134.589 84.5749C134.811 84.4179 135.024 84.2489 135.228 84.0688V84.1539C134.135 83.0046 133.18 81.983 132.494 81.2452L131.695 80.3702C131.596 80.2702 131.502 80.1644 131.416 80.0533Z" fill="#6F4C47"/>
<path d="M130.328 78.8238L134.225 83.2128C134.483 83.5406 134.795 83.8221 135.148 84.0452C135.324 84.1556 135.526 84.2203 135.734 84.2335C135.942 84.2467 136.15 84.208 136.339 84.1209C136.575 83.958 136.749 83.7211 136.835 83.4478C136.921 83.1745 136.913 82.8804 136.812 82.6122C136.602 82.0771 136.279 81.5933 135.866 81.1933C134.69 79.8595 133.62 78.4363 132.664 76.9366" fill="#936760"/>
<path d="M132.674 76.9224C132.674 76.9224 132.716 76.9649 132.783 77.0595L133.066 77.471C133.317 77.8257 133.677 78.3365 134.14 78.9561C134.604 79.5757 135.185 80.2898 135.857 81.0608C136.237 81.4469 136.556 81.8886 136.803 82.3709C136.926 82.6432 136.974 82.944 136.94 83.2411C136.915 83.5555 136.774 83.8492 136.543 84.0641C136.422 84.1665 136.28 84.2412 136.127 84.2829C135.974 84.3245 135.814 84.3322 135.658 84.3053C135.363 84.2614 135.084 84.1407 134.85 83.9553C134.445 83.597 134.07 83.2063 133.729 82.7871L131.936 80.7392C131.439 80.1669 131.037 79.6939 130.74 79.3486L130.418 78.9514C130.378 78.9084 130.343 78.8607 130.314 78.8095C130.314 78.8095 130.361 78.8473 130.442 78.9277L130.787 79.2919L132.021 80.6493L133.842 82.6736C134.18 83.0822 134.55 83.4633 134.949 83.8134C135.161 83.9814 135.414 84.0907 135.682 84.1303C135.815 84.1524 135.952 84.1457 136.082 84.1106C136.213 84.0756 136.334 84.0129 136.439 83.9269C136.638 83.7383 136.76 83.4818 136.779 83.208C136.81 82.94 136.768 82.6686 136.656 82.4229C136.407 81.9518 136.088 81.5212 135.71 81.1459C135.039 80.3702 134.471 79.6372 134.017 79.0081C133.563 78.3791 133.213 77.8588 132.981 77.4899C132.868 77.3055 132.778 77.1636 132.721 77.0642C132.7 77.0188 132.685 76.9712 132.674 76.9224Z" fill="#6F4C47"/>
<path d="M138.619 86.9918C138.474 87.0684 138.31 87.1028 138.146 87.0911C137.762 87.1121 137.379 87.0441 137.025 86.8924C136.664 86.7473 136.341 86.5226 136.079 86.235C135.965 86.1228 135.879 85.985 135.829 85.833C136.168 86.2289 136.596 86.5399 137.077 86.7411C137.558 86.9423 138.08 87.0282 138.6 86.9918H138.619Z" fill="#6F4C47"/>
<path d="M188.181 74.6191L186.818 91.8065C186.795 92.1007 186.657 92.3739 186.434 92.5669C186.211 92.7599 185.921 92.8572 185.627 92.8376L176.049 92.1944C175.899 92.1855 175.753 92.1466 175.619 92.0799C175.484 92.0132 175.365 91.9202 175.267 91.8063C175.17 91.6924 175.096 91.56 175.051 91.417C175.006 91.274 174.99 91.1234 175.004 90.9741L176.569 73.8009C176.595 73.5094 176.733 73.2393 176.955 73.0484C177.177 72.8575 177.464 72.7609 177.757 72.7793L187.135 73.3894C187.285 73.3995 187.432 73.4396 187.566 73.5073C187.701 73.575 187.82 73.6689 187.918 73.7835C188.015 73.8982 188.089 74.0312 188.134 74.1747C188.179 74.3182 188.195 74.4694 188.181 74.6191Z" fill="#455A64"/>
<path d="M201.892 96.4983C201.892 96.4983 204.753 115.833 204.64 118.429C204.526 121.026 201.589 126.791 197.635 127.354C193.681 127.917 189.954 124.304 189.841 119.56C189.727 114.816 189.141 99.8137 189.141 99.8137L192.092 98.1868L201.892 96.4983Z" fill="#936760"/>
<path d="M185.598 80.5216C185.598 80.5216 188.559 82.3425 189.434 82.8202C190.309 83.2979 190.195 86.8262 190.195 86.8262L195.18 98.4137L189.174 100.566C189.174 100.566 187.031 96.5124 186.416 96.0016C185.996 95.6707 185.513 95.4264 184.998 95.2827C184.998 95.2827 184.69 96.4084 183.768 95.8976C183.036 95.4147 182.38 94.8266 181.819 94.1523C181.819 94.1523 180.996 94.6679 180.689 94.053C180.381 93.4382 179.871 92.1044 179.871 92.1044C179.871 92.1044 181.611 89.8484 182.33 89.8484C183.049 89.8484 186.738 90.0518 186.738 90.0518C186.738 90.0518 186.535 89.7443 185.508 89.3376C184.482 88.9309 178.381 87.1289 178.092 87.0201C177.662 86.8545 177.18 85.7336 178.513 85.6296C179.847 85.5255 187.353 86.8687 187.353 86.8687C187.353 86.8687 187.764 84.9296 187.457 84.5039C187.15 84.0783 184.468 82.3662 185.598 80.5216Z" fill="#936760"/>
<path d="M181.796 94.0861C181.744 93.807 181.752 93.52 181.819 93.2442C181.884 92.9232 182.049 92.6314 182.292 92.4118C182.612 92.1804 183 92.0637 183.394 92.0807C184.068 92.0373 184.745 92.0611 185.414 92.1517C185.693 92.1698 185.968 92.2337 186.227 92.3409C186.227 92.4118 184.96 92.199 183.39 92.303C183.042 92.2857 182.698 92.3784 182.406 92.5679C182.194 92.7575 182.044 93.0063 181.975 93.2821C181.93 93.5531 181.87 93.8214 181.796 94.0861Z" fill="#6F4C47"/>
<path d="M182.987 94.4314C183.38 94.5921 183.764 94.7736 184.137 94.9753C184.541 95.1078 184.935 95.2658 185.319 95.4483C184.878 95.4776 184.437 95.3826 184.047 95.1739C183.628 95.0359 183.26 94.7776 182.987 94.4314Z" fill="#6F4C47"/>
<path d="M186.998 86.8262C187.397 86.8864 187.767 87.0696 188.057 87.3502C188.347 87.6308 188.543 87.9949 188.616 88.3917C188.554 88.3917 188.351 87.9187 187.902 87.512C187.452 87.1052 186.975 86.8877 186.998 86.8262Z" fill="#6F4C47"/>
<path d="M135.819 190.296C135.753 190.296 138.335 179.418 141.589 166.042C144.843 152.667 147.53 141.855 147.596 141.855C147.662 141.855 145.08 152.733 141.826 166.113C138.572 179.493 135.885 190.31 135.819 190.296Z" fill="#455A64"/>
<path d="M206.598 206.083C206.598 206.15 161.477 206.206 105.829 206.206C50.1801 206.206 5.04541 206.15 5.04541 206.083C5.04541 206.017 50.1612 205.96 105.829 205.96C161.496 205.96 206.598 206.012 206.598 206.083Z" fill="#263238"/>
<path d="M183.106 35.5241L184.496 30.506C182.655 27.5235 181.997 23.9603 182.65 20.5169C183.304 17.0735 185.221 13.999 188.026 11.8979C190.832 9.79684 194.321 8.82114 197.81 9.16266C201.298 9.50418 204.532 11.1382 206.876 13.7435C209.221 16.3488 210.506 19.7368 210.479 23.2415C210.452 26.7463 209.115 30.1141 206.73 32.6829C204.346 35.2518 201.087 36.8357 197.594 37.1234C194.101 37.4111 190.627 36.3818 187.854 34.2377L183.106 35.5241Z" fill="white"/>
<path d="M183.106 35.5241L183.423 35.4295L184.335 35.1741L187.845 34.1903L187.812 34.2802C187.802 34.2698 187.797 34.2563 187.797 34.2424C187.797 34.2284 187.802 34.2149 187.812 34.2045C187.822 34.1978 187.835 34.1942 187.847 34.1942C187.86 34.1942 187.872 34.1978 187.883 34.2045C189.747 35.6353 191.944 36.5694 194.268 36.9193C195.755 37.1479 197.27 37.1287 198.751 36.8626C201.51 36.3836 204.06 35.0845 206.07 33.1349C208.079 31.1852 209.455 28.6753 210.017 25.9324C210.427 23.8376 210.356 21.677 209.809 19.6137C209.249 17.4587 208.173 15.4721 206.676 13.8244C205.178 12.1768 203.303 10.9174 201.211 10.1545C199.062 9.36568 196.752 9.11924 194.486 9.43699C192.219 9.75474 190.066 10.6269 188.217 11.976C186.368 13.3252 184.881 15.1097 183.887 17.1713C182.893 19.2329 182.423 21.5079 182.519 23.7946C182.618 26.1517 183.315 28.4448 184.544 30.4587C184.548 30.4741 184.548 30.4906 184.544 30.506C184.071 32.1188 183.725 33.3437 183.479 34.2093C183.361 34.6302 183.267 34.9471 183.2 35.1552C183.134 35.3633 183.101 35.491 183.101 35.491C183.101 35.491 183.125 35.3869 183.177 35.1741C183.229 34.9613 183.319 34.6349 183.432 34.2282C183.659 33.3627 184 32.0998 184.435 30.4445V30.4918C182.947 28.0992 182.215 25.3133 182.336 22.4983C182.456 19.6833 183.424 16.9702 185.111 14.7138C187.275 11.8245 190.462 9.87201 194.019 9.25647C197.576 8.64094 201.233 9.40892 204.242 11.4031C205.18 12.0388 206.04 12.7816 206.806 13.6165C207.577 14.4619 208.249 15.3935 208.806 16.3928C210.366 19.3188 210.867 22.6937 210.225 25.9466C209.655 28.7314 208.255 31.2785 206.211 33.2536C204.167 35.2287 201.573 36.5395 198.77 37.0139C197.268 37.2792 195.732 37.292 194.225 37.0517C191.878 36.6765 189.665 35.7114 187.793 34.2471L187.873 34.1714C187.878 34.1763 187.882 34.1821 187.885 34.1886C187.888 34.1952 187.89 34.2022 187.89 34.2093C187.89 34.2163 187.888 34.2233 187.885 34.2299C187.882 34.2364 187.878 34.2422 187.873 34.2471L184.302 35.193L183.39 35.4389L183.106 35.5241Z" fill="#263238"/>
<path d="M190.158 23.5109L191.794 21.8745L194.953 24.6839L201.159 18.7151L202.677 20.3515L194.722 27.8432L190.158 23.5109Z" fill="#132183"/>
</g>
<defs>
<clipPath id="clip0_1_11927">
<rect width="212" height="206.23" fill="white" transform="translate(0.750916)"/>
</clipPath>
</defs>
</svg>
