<svg width="17" height="16" viewBox="0 0 17 16" fill="none" xmlns="http://www.w3.org/2000/svg">
<path d="M8.33918 0.00771802C5.56013 0.000428701 3.11456 1.43825 1.71683 3.61046C1.65487 3.70705 1.72412 3.83461 1.83893 3.83461H3.12003C3.2075 3.83461 3.2895 3.79634 3.34417 3.72891C3.47174 3.57402 3.60841 3.42459 3.75237 3.28244C4.34645 2.69019 5.03712 2.22367 5.80614 1.8993C6.60068 1.56399 7.44624 1.39269 8.31913 1.39269C9.19203 1.39269 10.0376 1.56216 10.8321 1.8993C11.6011 2.22367 12.2918 2.69019 12.8859 3.28244C13.48 3.8747 13.9447 4.56536 14.2709 5.33256C14.608 6.1271 14.7775 6.97084 14.7775 7.84373C14.7775 8.71663 14.6062 9.56037 14.2709 10.3549C13.9465 11.1221 13.48 11.8128 12.8859 12.405C12.2918 12.9973 11.6011 13.4638 10.8321 13.7882C10.0376 14.1235 9.19203 14.2948 8.31913 14.2948C7.44624 14.2948 6.60068 14.1235 5.80614 13.7882C5.03712 13.4638 4.34645 12.9973 3.75237 12.405C3.60841 12.2611 3.47356 12.1116 3.34417 11.9586C3.2895 11.8911 3.20568 11.8529 3.12003 11.8529H1.83893C1.72412 11.8529 1.65305 11.9804 1.71683 12.077C3.11274 14.2438 5.54737 15.6797 8.31913 15.6797C12.6235 15.6797 16.1187 12.2155 16.1624 7.92392C16.2062 3.56308 12.7055 0.018652 8.33918 0.00771802ZM6.03074 9.88474V8.49977H0.308628C0.228446 8.49977 0.162842 8.43417 0.162842 8.35399V7.33348C0.162842 7.2533 0.228446 7.1877 0.308628 7.1877H6.03074V5.80272C6.03074 5.68063 6.17288 5.61138 6.26764 5.68792L8.85353 7.72893C8.92824 7.78724 8.92824 7.90023 8.85353 7.95854L6.26764 9.99955C6.17288 10.0743 6.03074 10.0068 6.03074 9.88474Z" fill="#777777"/>
</svg>
