<svg width="23" height="14" viewBox="0 0 23 14" fill="none" xmlns="http://www.w3.org/2000/svg">
<path fill-rule="evenodd" clip-rule="evenodd" d="M22.7905 6.8938C22.7915 10.6595 19.8464 13.713 16.2122 13.7138C12.5781 13.7149 9.6317 10.663 9.63086 6.89726V6.8938C9.62981 3.12807 12.575 0.0744138 16.2089 0.0733339C19.843 0.07247 22.7894 3.1244 22.7905 6.89035V6.8938Z" fill="#F2C500"/>
<path fill-rule="evenodd" clip-rule="evenodd" d="M7.34329 0.0746307C3.73086 0.0983879 0.806152 3.14406 0.806152 6.89294C0.806152 10.6569 3.75383 13.7115 7.38606 13.7115C9.09061 13.7115 10.6445 13.0383 11.8137 11.9349H11.813H11.8143C12.054 11.7084 12.2773 11.4643 12.4822 11.2044H11.1346C10.9564 10.9815 10.7924 10.7468 10.6439 10.5021H12.9689C13.1109 10.2669 13.2388 10.0231 13.352 9.77209H10.2598C10.1549 9.53884 10.0631 9.29965 9.98482 9.05571H13.6272C13.8522 8.35799 13.9665 7.62778 13.9658 6.89294C13.9658 6.39188 13.9135 5.90334 13.8141 5.43295H9.79182C9.84175 5.19085 9.90475 4.95155 9.97976 4.71657H13.6229C13.542 4.46788 13.4473 4.22415 13.3391 3.98657H10.2596C10.3708 3.74007 10.497 3.50089 10.6371 3.2704H12.9603C12.8059 3.01577 12.6353 2.77184 12.4496 2.54019H11.1542C11.3567 2.29355 11.5774 2.06322 11.8143 1.85124C10.6449 0.748039 9.09082 0.0748467 7.38585 0.0748467L7.34329 0.0746307Z" fill="#E94B35"/>
<path fill-rule="evenodd" clip-rule="evenodd" d="M9.75165 8.62959L9.83951 8.01256C9.79147 8.01256 9.7211 8.03394 9.65894 8.03394C9.41495 8.03394 9.3882 7.8996 9.40358 7.80025L9.60058 6.54112H9.97141L10.0607 5.85864H9.71141L9.78241 5.43404H9.08184C9.06646 5.45002 8.66824 7.82142 8.66824 8.10996C8.66824 8.53759 8.90001 8.72786 9.22659 8.72484C9.48238 8.72268 9.68149 8.64903 9.75165 8.62959ZM9.97373 7.45318C9.97373 8.47906 10.6271 8.72311 11.184 8.72311C11.6979 8.72311 11.924 8.60389 11.924 8.60389L12.0474 7.9037C12.0474 7.9037 11.6564 8.0821 11.3034 8.0821C10.5513 8.0821 10.6829 7.50091 10.6829 7.50091H12.1066C12.1066 7.50091 12.1985 7.03052 12.1985 6.83874C12.1985 6.36035 11.9688 5.77765 11.1996 5.77765C10.4952 5.77765 9.97373 6.56423 9.97373 7.45318ZM11.2021 6.42774C11.5976 6.42774 11.5247 6.88819 11.5247 6.92534H10.747C10.747 6.87783 10.8203 6.42774 11.2021 6.42774ZM15.6388 8.62959L15.7641 7.83826C15.7641 7.83826 15.4203 8.01687 15.1845 8.01687C14.6875 8.01687 14.4882 7.62359 14.4882 7.20114C14.4882 6.34394 14.9159 5.87247 15.3918 5.87247C15.7488 5.87247 16.0353 6.08023 16.0353 6.08023L16.1497 5.31137C16.1497 5.31137 15.7247 5.13319 15.3607 5.13319C14.5518 5.13319 13.765 5.86016 13.765 7.22555C13.765 8.13113 14.1898 8.72916 15.0259 8.72916C15.2623 8.72916 15.6388 8.62959 15.6388 8.62959ZM5.89861 5.78888C5.41821 5.78888 5.04991 5.94871 5.04991 5.94871L4.94835 6.57438C4.94835 6.57438 5.25218 6.44631 5.71172 6.44631C5.97256 6.44631 6.16345 6.47655 6.16345 6.69641C6.16345 6.82988 6.14007 6.87912 6.14007 6.87912C6.14007 6.87912 5.93421 6.8612 5.83877 6.8612C5.23301 6.8612 4.59649 7.12922 4.59649 7.93718C4.59649 8.57366 5.01409 8.71966 5.27283 8.71966C5.76713 8.71966 5.98036 8.38727 5.99152 8.38641L5.96835 8.66372H6.58548L6.86066 6.66444C6.86066 5.81631 6.1466 5.78888 5.89861 5.78888ZM6.04862 7.4169C6.06211 7.53892 5.97488 8.11147 5.55306 8.11147C5.33541 8.11147 5.27873 7.93912 5.27873 7.83718C5.27873 7.63849 5.38303 7.40005 5.89629 7.40005C6.01575 7.40005 6.02861 7.41344 6.04862 7.4169ZM7.51635 8.70518C7.67416 8.70518 8.57616 8.74665 8.57616 7.78211C8.57616 6.8802 7.74116 7.05838 7.74116 6.69598C7.74116 6.51564 7.87728 6.45884 8.12611 6.45884C8.22472 6.45884 8.60482 6.49123 8.60482 6.49123L8.69331 5.85044C8.69331 5.85044 8.44722 5.79342 8.04668 5.79342C7.52836 5.79342 7.00246 6.00767 7.00246 6.74133C7.00246 7.5724 7.87959 7.48903 7.87959 7.83913C7.87959 8.07281 7.63455 8.09182 7.44555 8.09182C7.11897 8.09182 6.82463 7.97562 6.82357 7.98124L6.73023 8.61577C6.74709 8.62117 6.92871 8.70518 7.51635 8.70518ZM21.4416 5.21374L21.2906 6.18541C21.2906 6.18541 21.0268 5.80789 20.6142 5.80789C19.9722 5.80789 19.437 6.61002 19.437 7.53137C19.437 8.12637 19.7225 8.70907 20.3058 8.70907C20.7255 8.70907 20.9581 8.40606 20.9581 8.40606L20.9273 8.66501H21.6087L22.1439 5.21245L21.4416 5.21374ZM21.1163 7.10827C21.1163 7.49184 20.933 8.00392 20.5533 8.00392C20.3011 8.00392 20.1831 7.7847 20.1831 7.44022C20.1831 6.87761 20.4269 6.50613 20.7347 6.50613C20.9869 6.50613 21.1163 6.68561 21.1163 7.10827ZM2.10519 8.66782L2.53164 6.06144L2.59443 8.66782H3.07714L3.97746 6.06144L3.5786 8.66782H4.29582L4.84806 5.21094H3.73916L3.04827 7.33202L3.01246 5.21094H1.99015L1.42969 8.66782H2.10519ZM12.8993 8.67279C13.103 7.47089 13.141 6.49512 13.6275 6.67373C13.7128 6.20874 13.795 6.02883 13.8879 5.83186C13.8879 5.83186 13.8443 5.82236 13.7528 5.82236C13.4389 5.82236 13.2067 6.26662 13.2067 6.26662L13.2691 5.85864H12.6167L12.1797 8.67279H12.8993ZM17.255 5.78888C16.7747 5.78888 16.4064 5.94871 16.4064 5.94871L16.3048 6.57438C16.3048 6.57438 16.6088 6.44631 17.0682 6.44631C17.3292 6.44631 17.5199 6.47655 17.5199 6.69641C17.5199 6.82988 17.4967 6.87912 17.4967 6.87912C17.4967 6.87912 17.2909 6.8612 17.1954 6.8612C16.5897 6.8612 15.9531 7.12922 15.9531 7.93718C15.9531 8.57366 16.3707 8.71966 16.6295 8.71966C17.1238 8.71966 17.3368 8.38727 17.348 8.38641L17.3252 8.66372H17.9419L18.2171 6.66444C18.2171 5.81631 17.503 5.78888 17.255 5.78888ZM17.4055 7.4169C17.4188 7.53892 17.3315 8.11147 16.9095 8.11147C16.6919 8.11147 16.6356 7.93912 16.6356 7.83718C16.6356 7.63849 16.7397 7.40005 17.2529 7.40005C17.3724 7.40005 17.3851 7.41344 17.4055 7.4169ZM18.7809 8.67279C18.9849 7.47089 19.0228 6.49512 19.5093 6.67373C19.5946 6.20874 19.6768 6.02883 19.7697 5.83186C19.7697 5.83186 19.7261 5.82236 19.6347 5.82236C19.3207 5.82236 19.0886 6.26662 19.0886 6.26662L19.1509 5.85864H18.4986L18.0616 8.67279H18.7809Z" fill="white"/>
</svg>
