<svg width="25" height="25" viewBox="0 0 25 25" fill="none" xmlns="http://www.w3.org/2000/svg">
<g clip-path="url(#clip0_1_11551)">
<path d="M17.0055 3.05486H7.6722C7.31858 3.05486 6.97944 3.19533 6.72939 3.44538C6.47934 3.69543 6.33887 4.03457 6.33887 4.38819V20.3882C6.33887 20.7418 6.47934 21.0809 6.72939 21.331C6.97944 21.581 7.31858 21.7215 7.6722 21.7215H17.0055C17.3592 21.7215 17.6983 21.581 17.9483 21.331C18.1984 21.0809 18.3389 20.7418 18.3389 20.3882V4.38819C18.3389 4.03457 18.1984 3.69543 17.9483 3.44538C17.6983 3.19533 17.3592 3.05486 17.0055 3.05486ZM13.0055 20.3882H11.6722V19.0549H13.0055V20.3882ZM7.6722 17.7215V4.38819H17.0055V17.7215H7.6722Z" fill="white"/>
</g>
<defs>
<clipPath id="clip0_1_11551">
<rect width="24" height="24" fill="white" transform="translate(0.338867 0.388184)"/>
</clipPath>
</defs>
</svg>
