<svg width="25" height="25" viewBox="0 0 25 25" fill="none" xmlns="http://www.w3.org/2000/svg">
<path d="M6.04541 11.2632C5.21698 11.2632 4.54541 11.9348 4.54541 12.7632C4.54541 13.5916 5.21698 14.2632 6.04541 14.2632C6.87384 14.2632 7.54541 13.5916 7.54541 12.7632C7.54541 11.9348 6.87384 11.2632 6.04541 11.2632Z" fill="black"/>
<path d="M10.5454 12.7632C10.5454 11.9348 11.217 11.2632 12.0454 11.2632C12.8738 11.2632 13.5454 11.9348 13.5454 12.7632C13.5454 13.5916 12.8738 14.2632 12.0454 14.2632C11.217 14.2632 10.5454 13.5916 10.5454 12.7632Z" fill="black"/>
<path d="M16.5454 12.7632C16.5454 11.9348 17.217 11.2632 18.0454 11.2632C18.8738 11.2632 19.5454 11.9348 19.5454 12.7632C19.5454 13.5916 18.8738 14.2632 18.0454 14.2632C17.217 14.2632 16.5454 13.5916 16.5454 12.7632Z" fill="black"/>
</svg>
