<svg width="54" height="33" viewBox="0 0 54 33" fill="none" xmlns="http://www.w3.org/2000/svg">
<path d="M19.7747 31.9771C13.4603 31.4154 7.88338 29.0325 4.25602 25.3419C2.1857 23.2399 0.930576 20.9579 0.365553 18.2679C0.106764 17.0435 0.106764 15.0161 0.369866 13.7785C1.15917 10.0397 3.53141 6.77032 7.27091 4.27334C15.798 -1.41398 28.8625 -1.38765 37.312 4.33917C38.4334 5.09835 39.158 5.70395 40.1759 6.72205C41.457 8.00784 42.3584 9.28925 43.3073 11.1675C43.3418 11.2377 43.5186 11.3254 43.6955 11.3606C44.295 11.4878 45.0929 11.9618 45.7356 12.5717C46.2359 13.0457 46.6198 13.5635 47.573 15.0292C48.5348 16.5081 52.8825 23.3364 53.1456 23.784C53.2491 23.9596 53.0464 24.236 52.8178 24.236C52.6539 24.236 52.5418 24.1263 52.3002 23.7401C52.132 23.4681 51.0235 21.7171 49.8374 19.8477C45.6407 13.2388 45.4164 12.9316 44.2476 12.3348L43.6351 12.0232H41.8322C40.0293 12.0232 40.0293 12.0232 39.9862 12.2163C39.7489 13.2739 39.7015 13.5328 39.7533 13.5811C39.7878 13.6118 40.81 14.2042 42.0263 14.8976L44.2389 16.157L44.1009 16.4511C44.0233 16.6134 43.937 16.7451 43.9068 16.7451C43.8766 16.7451 42.0134 15.6963 39.7662 14.4105C37.519 13.1291 35.5479 12.0408 35.3883 11.9969C34.75 11.8169 33.7666 12.5366 33.7666 13.1861C33.7666 13.8444 33.9564 14.0331 37.9072 17.3244C40.37 19.3781 41.7804 20.6112 41.9961 20.9009C42.3886 21.4319 42.7854 22.213 43.1477 23.174C43.7904 24.868 44.8341 25.8115 46.5465 26.2503L47.1115 26.3951L47.0641 26.7067C47.0382 26.8778 47.0037 27.0358 46.9821 27.0578C46.9088 27.1411 45.7744 26.7725 45.1188 26.4522C44.0923 25.9519 43.3849 25.2366 42.6905 23.9903C42.6862 23.9815 42.2808 24.1219 41.7977 24.3019C40.9351 24.6222 40.8919 24.6485 40.0767 25.4604C36.596 28.9184 31.6014 31.1258 25.5759 31.8762C24.5882 32.0166 20.8185 32.0737 19.7747 31.9771ZM25.7743 30.9151C28.5391 30.5421 30.687 29.9848 32.9299 29.0501C35.2848 28.0671 37.5104 26.6584 39.0632 25.1576L39.6756 24.5652L38.1315 23.8147C36.4839 23.0117 36.32 22.88 36.1086 22.1647C35.9749 21.7127 36.1259 21.23 36.5486 20.7692L36.8764 20.405L36.1604 19.8521C35.5954 19.4132 35.4185 19.2245 35.3064 18.9349C35.1296 18.4653 35.1943 17.9563 35.4789 17.5482L35.6946 17.2366L33.4345 16.8329C32.1923 16.609 31.0321 16.3852 30.8595 16.3326C30.5188 16.2316 30.1781 15.8367 30.0875 15.4549C30.04 15.2487 31.1485 9.74564 31.3944 8.96012C31.5065 8.60905 31.9766 8.18338 32.3346 8.11755C32.7099 8.04734 39.3694 9.23659 39.7015 9.43406C40.2277 9.74564 40.3916 10.2459 40.2277 11.0183L40.1587 11.3386H40.5253C40.728 11.3386 41.2068 11.3123 41.5907 11.2816L42.2894 11.2245L41.9443 10.5707C40.9049 8.60027 39.0114 6.60795 36.678 5.02814C35.5868 4.29089 33.262 3.12359 31.8602 2.61454C29.8675 1.89046 27.4565 1.3463 25.1403 1.10055C23.8679 0.964511 20.5425 0.968899 19.3089 1.10494C16.3544 1.42968 13.6716 2.10988 11.3253 3.12798C5.8907 5.48453 2.23746 9.39018 1.30151 13.84C1.05566 15.0029 1.0384 17.0391 1.26269 18.0967C1.7587 20.4357 2.83699 22.4587 4.59244 24.3414C8.17236 28.1768 13.6414 30.5377 20.1974 31.0687C21.0773 31.1389 24.8815 31.0336 25.7743 30.9151ZM24.5796 26.7286C24.2432 26.6277 23.8981 26.2196 23.8248 25.829C23.7773 25.5745 23.8334 25.3989 24.1914 24.6924C25.6406 21.84 26.2703 19.2157 26.2703 16.0342C26.2703 12.9579 25.7139 10.5619 24.3294 7.69188C24.0318 7.07751 23.7903 6.50263 23.7903 6.41925C23.7903 6.11207 24.0404 5.66884 24.3122 5.4977C24.6831 5.26072 25.3085 5.30461 25.6104 5.58985C25.7269 5.69956 26.0245 6.19984 26.2747 6.70011C27.2667 8.67926 27.9438 10.8515 28.2803 13.1115C28.4873 14.5114 28.5304 17.162 28.3622 18.4434C28.056 20.8043 27.4435 22.9151 26.4601 24.9777C25.8649 26.224 25.494 26.7374 25.1834 26.7374C25.123 26.7374 25.0195 26.755 24.9591 26.7725C24.8988 26.7901 24.7262 26.7725 24.5796 26.7286ZM20.5468 24.5827C20.0292 24.4291 19.654 23.7796 19.8049 23.2969C19.8394 23.1784 20.0853 22.6387 20.3484 22.0945C21.4569 19.7906 21.9184 17.3244 21.6941 14.902C21.5086 12.9097 21.1593 11.6546 20.2751 9.82024C19.6842 8.58711 19.654 8.39841 19.999 7.89813C20.3268 7.42419 21.1463 7.34959 21.5733 7.74893C21.8709 8.0254 22.7983 9.99577 23.1562 11.1104C24.3381 14.7966 24.1569 18.7593 22.643 22.3798C21.8623 24.236 21.3145 24.8109 20.5468 24.5827ZM16.3889 22.4061C16.0697 22.2613 15.7937 21.9146 15.7161 21.5679C15.6686 21.3573 15.7506 21.1203 16.1301 20.3392C17.5276 17.4604 17.5405 14.6913 16.1776 11.8784C15.578 10.6453 15.5651 10.3995 16.0697 9.9124C16.3199 9.67104 16.4277 9.63154 16.7771 9.63154C17.368 9.63154 17.6742 9.93434 18.2004 11.0358C19.0113 12.7297 19.3434 14.1998 19.3391 16.0824C19.3348 18.0177 19.0242 19.3474 18.1616 21.1335C17.6656 22.1559 17.4198 22.428 16.9237 22.4939C16.7728 22.507 16.5312 22.4719 16.3889 22.4061ZM12.5071 20.3787C12.2526 20.2733 11.9636 19.9223 11.8774 19.6151C11.7825 19.2728 11.8601 19.0007 12.2397 18.3644C12.7314 17.5438 12.8435 17.1049 12.8435 16.0342C12.8435 14.9634 12.7314 14.5202 12.2397 13.7039C12.0714 13.4275 11.9075 13.094 11.8687 12.9623C11.7091 12.4225 12.1534 11.7599 12.7486 11.6458C13.2533 11.5493 13.5983 11.7775 14.0641 12.5147C15.4055 14.6474 15.4055 17.4911 14.0641 19.6063C13.5897 20.3479 13.0635 20.6112 12.5071 20.3787ZM41.4181 23.6875C41.8667 23.5251 42.2549 23.3715 42.2808 23.3452C42.3066 23.3189 42.2204 23.0292 42.0867 22.6957C41.8193 22.0155 41.8624 22.0331 40.9049 22.2174C39.874 22.4192 39.2745 22.2393 38.1445 21.3924C37.8382 21.1598 37.519 20.9711 37.4414 20.9711C37.3595 20.9711 37.1869 21.0896 37.0489 21.2388C36.7599 21.5547 36.7168 22.0462 36.9497 22.3403C37.1567 22.5948 39.9905 23.9683 40.3269 23.9771C40.4779 23.9815 40.9653 23.8499 41.4181 23.6875ZM40.9696 21.4801C41.3879 21.3924 41.4354 21.366 41.3621 21.2256C41.2801 21.072 37.3595 17.7632 37.0187 17.5569C36.7384 17.3902 36.5098 17.4297 36.2769 17.6842C35.5954 18.4258 35.6773 18.5838 37.4414 19.9574C39.5721 21.6206 39.8007 21.7171 40.9696 21.4801ZM35.7075 16.4642C35.7075 16.4423 35.2633 16.0517 34.7198 15.5997C33.3784 14.4763 33.0894 14.055 33.0894 13.2212C33.0894 12.5279 33.5466 11.8564 34.2799 11.4703C34.6422 11.2772 35.2935 11.2201 35.6601 11.343C35.9189 11.4308 37.092 12.0759 38.7138 13.0237L39.0545 13.2256L39.3349 11.8652C39.6239 10.4741 39.6282 10.1055 39.3608 10.0221C39.2788 9.99578 37.7131 9.70614 35.8844 9.37701C32.6322 8.79336 32.2743 8.75825 32.1233 9.00839C32.0413 9.14004 30.8035 14.9766 30.8035 15.2223C30.8035 15.3452 30.8638 15.4988 30.9415 15.5646C31.0148 15.6304 32.0715 15.863 33.2878 16.0824C35.6342 16.5125 35.7075 16.5257 35.7075 16.4642Z" fill="white"/>
</svg>
