<svg width="13" height="17" viewBox="0 0 13 17" fill="none" xmlns="http://www.w3.org/2000/svg">
<g clip-path="url(#clip0_1_8094)">
<path d="M0.950207 16.85C0.772724 16.85 0.60251 16.7795 0.47701 16.654C0.351511 16.5285 0.281006 16.3583 0.281006 16.1808V1.51924C0.280993 1.3897 0.318582 1.26293 0.389211 1.15433C0.459839 1.04573 0.560472 0.959965 0.678894 0.907443C0.797316 0.85492 0.928438 0.8379 1.05635 0.858446C1.18425 0.878993 1.30345 0.936224 1.39946 1.02319L10.1084 8.88514C10.24 9.00429 10.3188 9.17082 10.3276 9.3481C10.3364 9.52538 10.2744 9.69889 10.1552 9.83045C10.0361 9.96201 9.86956 10.0408 9.69228 10.0496C9.515 10.0584 9.34149 9.99639 9.20993 9.87724L1.61941 3.02612V16.1808C1.61941 16.3583 1.5489 16.5285 1.4234 16.654C1.2979 16.7795 1.12769 16.85 0.950207 16.85Z" fill="#777777"/>
<path d="M11.5122 16.85C11.3477 16.8493 11.1893 16.7876 11.0677 16.6768L2.33529 8.80552C2.22874 8.68169 2.17116 8.52317 2.1734 8.35983C2.17565 8.19648 2.23756 8.0396 2.34748 7.91875C2.45739 7.7979 2.60772 7.72143 2.77012 7.70375C2.93252 7.68607 3.09577 7.72841 3.22912 7.82277L10.8243 14.6739V1.51918C10.8243 1.34169 10.8948 1.17148 11.0203 1.04598C11.1458 0.920481 11.316 0.849976 11.4935 0.849976C11.671 0.849976 11.8412 0.920481 11.9667 1.04598C12.0922 1.17148 12.1627 1.34169 12.1627 1.51918V16.1808C12.164 16.3554 12.0965 16.5235 11.9747 16.6488C11.853 16.774 11.6869 16.8463 11.5122 16.85Z" fill="#777777"/>
</g>
<defs>
<clipPath id="clip0_1_8094">
<rect width="11.8818" height="16" fill="white" transform="translate(0.281006 0.849976)"/>
</clipPath>
</defs>
</svg>
