<svg width="27" height="27" viewBox="0 0 27 27" fill="none" xmlns="http://www.w3.org/2000/svg">
<path d="M24.1188 18.5038C23.8913 18.0976 23.6151 17.6913 23.3063 17.2607C22.5717 16.3433 22.0624 15.2663 21.8195 14.1163L21.4782 9.32259C21.2751 5.60946 19.1057 1.85571 14.7913 1.85571H12.9876C8.67323 1.85571 6.4876 5.60946 6.26823 9.31446L5.92698 14.1163C5.6851 15.2765 5.17599 16.3643 4.4401 17.2932C4.16385 17.7157 3.8876 18.1057 3.70073 18.4713C3.50017 18.7405 3.3787 19.0603 3.34999 19.3948C3.32128 19.7292 3.38647 20.065 3.53823 20.3645C3.71528 20.6789 3.97611 20.9381 4.2917 21.1131C4.60728 21.2881 4.96524 21.3721 5.32573 21.3557H11.5982C11.4646 21.7239 11.4217 22.1188 11.473 22.5071C11.5244 22.8954 11.6686 23.2656 11.8934 23.5863C12.1182 23.9071 12.417 24.1689 12.7644 24.3497C13.1119 24.5304 13.4978 24.6248 13.8895 24.6248C14.2811 24.6248 14.667 24.5304 15.0145 24.3497C15.362 24.1689 15.6607 23.9071 15.8855 23.5863C16.1103 23.2656 16.2545 22.8954 16.3059 22.5071C16.3573 22.1188 16.3144 21.7239 16.1807 21.3557H22.4532C22.817 21.3689 23.1773 21.2801 23.4932 21.0991C23.8091 20.9182 24.068 20.6525 24.2407 20.332C24.3926 20.0461 24.4616 19.7235 24.4401 19.4005C24.4186 19.0776 24.3073 18.767 24.1188 18.5038ZM14.702 22.1682C14.702 22.3289 14.6543 22.486 14.565 22.6196C14.4758 22.7532 14.3489 22.8574 14.2004 22.9189C14.0519 22.9804 13.8886 22.9965 13.731 22.9651C13.5734 22.9338 13.4286 22.8564 13.315 22.7427C13.2013 22.6291 13.1239 22.4843 13.0926 22.3267C13.0612 22.1691 13.0773 22.0058 13.1388 21.8573C13.2003 21.7088 13.3045 21.5819 13.4381 21.4926C13.5717 21.4034 13.7288 21.3557 13.8895 21.3557C14.105 21.3557 14.3116 21.4413 14.464 21.5937C14.6164 21.7461 14.702 21.9527 14.702 22.1682ZM22.827 19.5926C22.827 19.6576 22.6888 19.7307 22.4857 19.7307H5.32573C5.1226 19.7307 5.01698 19.6576 4.98448 19.5926C4.95198 19.5276 4.98448 19.4382 5.06573 19.3082C5.2851 18.9345 5.53698 18.5445 5.79698 18.1545C6.60948 16.9845 7.42198 15.652 7.54385 14.2301L7.89323 9.42821C8.06385 6.68196 9.50198 3.48071 12.9876 3.48071H14.7913C18.277 3.48071 19.7151 6.68196 19.8857 9.43634L20.2351 14.2301C20.3326 15.6682 21.202 16.9845 22.0145 18.1545C22.2745 18.5445 22.5263 18.967 22.7863 19.3813C22.8122 19.4092 22.8297 19.4438 22.8369 19.4811C22.8441 19.5185 22.8407 19.5571 22.827 19.5926Z" fill="#9B9A9A"/>
</svg>
