<svg width="177" height="177" viewBox="0 0 177 177" fill="none" xmlns="http://www.w3.org/2000/svg">
<rect x="0.61499" y="0.924561" width="175.796" height="175.796" rx="35" fill="url(#paint0_linear_1_14601)"/>
<path d="M117.284 55.1341C115.955 54.3855 114.494 53.9095 112.984 53.7332C111.473 53.5569 109.944 53.6838 108.482 54.1067C107.02 54.5295 105.655 55.2401 104.464 56.1976C103.274 57.1552 102.282 58.341 101.544 59.6872L80.0585 98.8427L67.7619 86.3906C66.6943 85.2712 65.4173 84.3784 64.0053 83.7642C62.5933 83.1499 61.0747 82.8266 59.538 82.8131C58.0013 82.7996 56.4774 83.0961 55.0551 83.6854C53.6328 84.2747 52.3406 85.1449 51.254 86.2453C50.1673 87.3457 49.308 88.6542 48.7261 90.0945C48.1442 91.5348 47.8513 93.0781 47.8647 94.6342C47.878 96.1903 48.1973 97.7282 48.8038 99.1581C49.4104 100.588 50.2921 101.881 51.3974 102.962L74.5438 126.402C76.7312 128.623 79.6823 129.841 82.7261 129.841L84.329 129.724C86.1029 129.473 87.7949 128.808 89.272 127.782C90.7491 126.756 91.9708 125.397 92.8411 123.812L121.774 71.0729C122.513 69.7278 122.983 68.2485 123.157 66.7195C123.331 65.1905 123.206 63.6418 122.789 62.1617C122.372 60.6816 121.671 59.2992 120.726 58.0934C119.782 56.8876 118.612 55.8821 117.284 55.1341Z" fill="white"/>
<defs>
<linearGradient id="paint0_linear_1_14601" x1="88.5128" y1="0.924561" x2="88.5128" y2="176.72" gradientUnits="userSpaceOnUse">
<stop stop-color="#2DD72B"/>
<stop offset="1" stop-color="#09CF7D"/>
</linearGradient>
</defs>
</svg>
