<svg width="17" height="17" viewBox="0 0 17 17" fill="none" xmlns="http://www.w3.org/2000/svg">
<path d="M7.66284 1.11511C5.93975 1.11776 4.28798 1.80343 3.06957 3.02184C1.85116 4.24025 1.16549 5.89202 1.16284 7.61511C1.16549 9.33821 1.85116 10.99 3.06957 12.2084C4.28798 13.4268 5.93975 14.1125 7.66284 14.1151C9.38594 14.1125 11.0377 13.4268 12.2561 12.2084C13.4745 10.99 14.1602 9.33821 14.1628 7.61511C14.1602 5.89202 13.4745 4.24025 12.2561 3.02184C11.0377 1.80343 9.38594 1.11776 7.66284 1.11511ZM7.66284 2.11511C10.7058 2.11511 13.1628 4.57211 13.1628 7.61511C13.165 8.8991 12.717 10.1432 11.8968 11.1311C11.6857 10.5295 11.3497 9.97941 10.9109 9.51684C10.4721 9.05428 9.94045 8.68972 9.35084 8.44711C9.60571 8.21465 9.80949 7.93177 9.94927 7.6164C10.089 7.30104 10.1618 6.96007 10.1628 6.61511C10.1628 5.24011 9.03784 4.11511 7.66284 4.11511C7.00037 4.11696 6.36556 4.38094 5.89712 4.84939C5.42867 5.31783 5.16469 5.95264 5.16284 6.61511C5.16284 7.33811 5.47884 7.99011 5.97584 8.44711C5.38659 8.68975 4.85536 9.05434 4.41707 9.51693C3.97878 9.97952 3.64336 10.5296 3.43284 11.1311C2.60988 10.1445 2.16029 8.89986 2.16284 7.61511C2.16284 4.57211 4.61984 2.11511 7.66284 2.11511ZM7.66284 5.11511C8.49884 5.11511 9.16284 5.77911 9.16284 6.61511C9.16284 7.45111 8.49884 8.11511 7.66284 8.11511C7.46549 8.11644 7.26984 8.07855 7.08725 8.00364C6.90466 7.92873 6.73877 7.81829 6.59922 7.67874C6.45967 7.53918 6.34923 7.37329 6.27432 7.19071C6.1994 7.00812 6.16151 6.81247 6.16284 6.61511C6.16284 5.77911 6.82684 5.11511 7.66284 5.11511ZM7.66284 9.11511C9.36284 9.11511 10.7568 10.3221 11.0808 11.9241C10.1094 12.697 8.90422 13.1169 7.66284 13.1151C6.42256 13.1176 5.21843 12.6975 4.24884 11.9241C4.40433 11.1329 4.82977 10.4202 5.45246 9.90782C6.07516 9.39547 6.85646 9.11527 7.66284 9.11511Z" fill="#777777"/>
</svg>
