<svg width="35" height="35" viewBox="0 0 35 35" fill="none" xmlns="http://www.w3.org/2000/svg">
<path d="M16.0913 7.06014H8.59724C8.36403 7.06014 8.14038 7.15278 7.97547 7.31768C7.81057 7.48258 7.71793 7.70624 7.71793 7.93945V15.5601C7.71793 15.7933 7.81057 16.017 7.97547 16.1819C8.14038 16.3468 8.36403 16.4394 8.59724 16.4394H16.0913C16.3245 16.4394 16.5482 16.3468 16.7131 16.1819C16.878 16.017 16.9706 15.7933 16.9706 15.5601V7.93945C16.9706 7.70624 16.878 7.48258 16.7131 7.31768C16.5482 7.15278 16.3245 7.06014 16.0913 7.06014ZM15.212 14.6808H9.47655V8.81876H15.212V14.6808ZM13.5167 10.5774H11.1719V12.9222H13.5167V10.5774ZM4.13738 14.0946C4.44832 14.0946 4.74653 13.9711 4.9664 13.7512C5.18627 13.5314 5.30979 13.2331 5.30979 12.9222V5.88772C5.3101 5.57688 5.43372 5.27885 5.65353 5.05905C5.87333 4.83924 6.17136 4.71562 6.48221 4.71531H13.5167C13.8276 4.71531 14.1258 4.59179 14.3457 4.37192C14.5656 4.15205 14.6891 3.85384 14.6891 3.5429C14.6891 3.23195 14.5656 2.93375 14.3457 2.71388C14.1258 2.49401 13.8276 2.37048 13.5167 2.37048H6.48221C5.54966 2.37141 4.65558 2.74228 3.99617 3.40169C3.33676 4.0611 2.9659 4.95518 2.96497 5.88772V12.9222C2.96497 13.2331 3.08849 13.5314 3.30836 13.7512C3.52823 13.9711 3.82644 14.0946 4.13738 14.0946ZM16.0913 17.6119H8.59724C8.36403 17.6119 8.14038 17.7045 7.97547 17.8694C7.81057 18.0343 7.71793 18.258 7.71793 18.4912V26.1119C7.71793 26.3451 7.81057 26.5687 7.97547 26.7336C8.14038 26.8985 8.36403 26.9912 8.59724 26.9912H16.0913C16.3245 26.9912 16.5482 26.8985 16.7131 26.7336C16.878 26.5687 16.9706 26.3451 16.9706 26.1119V18.4912C16.9706 18.258 16.878 18.0343 16.7131 17.8694C16.5482 17.7045 16.3245 17.6119 16.0913 17.6119ZM15.212 25.2325H9.47655V19.3705H15.212V25.2325ZM13.5167 21.1291H11.1719V23.4739H13.5167V21.1291ZM13.5167 29.336H6.48221C6.17136 29.3357 5.87333 29.2121 5.65353 28.9923C5.43372 28.7725 5.3101 28.4744 5.30979 28.1636V21.1291C5.30979 20.8182 5.18627 20.5199 4.9664 20.3001C4.74653 20.0802 4.44832 19.9567 4.13738 19.9567C3.82644 19.9567 3.52823 20.0802 3.30836 20.3001C3.08849 20.5199 2.96497 20.8182 2.96497 21.1291V28.1636C2.9659 29.0961 3.33676 29.9902 3.99617 30.6496C4.65558 31.309 5.54966 31.6799 6.48221 31.6808H13.5167C13.8276 31.6808 14.1258 31.5573 14.3457 31.3374C14.5656 31.1176 14.6891 30.8194 14.6891 30.5084C14.6891 30.1975 14.5656 29.8993 14.3457 29.6794C14.1258 29.4595 13.8276 29.336 13.5167 29.336ZM31.1029 19.9567C30.7919 19.9567 30.4937 20.0802 30.2739 20.3001C30.054 20.5199 29.9305 20.8182 29.9305 21.1291V28.1636C29.9302 28.4744 29.8065 28.7725 29.5867 28.9923C29.3669 29.2121 29.0689 29.3357 28.7581 29.336H21.7236C21.4126 29.336 21.1144 29.4595 20.8946 29.6794C20.6747 29.8993 20.5512 30.1975 20.5512 30.5084C20.5512 30.8194 20.6747 31.1176 20.8946 31.3374C21.1144 31.5573 21.4126 31.6808 21.7236 31.6808H28.7581C29.6906 31.6799 30.5847 31.309 31.2441 30.6496C31.9035 29.9902 32.2744 29.0961 32.2753 28.1636V21.1291C32.2753 20.8182 32.1518 20.5199 31.9319 20.3001C31.712 20.0802 31.4138 19.9567 31.1029 19.9567ZM21.1374 24.0601H18.7925V26.405H21.1374V24.0601ZM18.7925 20.5359H21.1374V18.191H18.7925V20.5359ZM28.7581 2.37048H21.7236C21.4126 2.37048 21.1144 2.49401 20.8946 2.71388C20.6747 2.93375 20.5512 3.23195 20.5512 3.5429C20.5512 3.85384 20.6747 4.15205 20.8946 4.37192C21.1144 4.59179 21.4126 4.71531 21.7236 4.71531H28.7581C29.0689 4.71562 29.3669 4.83924 29.5867 5.05905C29.8065 5.27885 29.9302 5.57688 29.9305 5.88772V12.9222C29.9305 13.2331 30.054 13.5314 30.2739 13.7512C30.4937 13.9711 30.7919 14.0946 31.1029 14.0946C31.4138 14.0946 31.712 13.9711 31.9319 13.7512C32.1518 13.5314 32.2753 13.2331 32.2753 12.9222V5.88772C32.2744 4.95518 31.9035 4.0611 31.2441 3.40169C30.5847 2.74228 29.6906 2.37141 28.7581 2.37048ZM21.7236 12.9222H24.0684V10.5774H21.7236V12.9222ZM24.0684 23.4739V21.1291H21.7236V23.4739H24.0684ZM26.643 16.4394C26.8762 16.4394 27.0999 16.3468 27.2648 16.1819C27.4297 16.017 27.5223 15.7933 27.5223 15.5601V7.93945C27.5223 7.70624 27.4297 7.48258 27.2648 7.31768C27.0999 7.15278 26.8762 7.06014 26.643 7.06014H19.149C18.9158 7.06014 18.6921 7.15278 18.5272 7.31768C18.3623 7.48258 18.2697 7.70624 18.2697 7.93945V15.5601C18.2697 15.7933 18.3623 16.017 18.5272 16.1819C18.6921 16.3468 18.9158 16.4394 19.149 16.4394H26.643ZM20.0283 8.81876H25.7637V14.6808H20.0283V8.81876ZM26.9994 18.191H24.6546V20.5359H26.9994V18.191ZM24.6546 26.405H26.9994V24.0601H24.6546V26.405Z" fill="white"/>
</svg>
