<svg width="17" height="17" viewBox="0 0 17 17" fill="none" xmlns="http://www.w3.org/2000/svg">
<path d="M7.44346 3.85289H3.91684C3.8071 3.85289 3.70185 3.89649 3.62424 3.97409C3.54664 4.05169 3.50305 4.15694 3.50305 4.26669V7.85289C3.50305 7.96264 3.54664 8.06789 3.62424 8.14549C3.70185 8.22309 3.8071 8.26669 3.91684 8.26669H7.44346C7.55321 8.26669 7.65846 8.22309 7.73606 8.14549C7.81366 8.06789 7.85725 7.96264 7.85725 7.85289V4.26669C7.85725 4.15694 7.81366 4.05169 7.73606 3.97409C7.65846 3.89649 7.55321 3.85289 7.44346 3.85289ZM7.02967 7.4391H4.33063V4.68048H7.02967V7.4391ZM6.23188 5.50807H5.12843V6.61151H6.23188V5.50807ZM1.81808 7.16324C1.96441 7.16324 2.10474 7.10511 2.20821 7.00164C2.31168 6.89817 2.36981 6.75784 2.36981 6.61151V3.30117C2.36995 3.15489 2.42813 3.01464 2.53156 2.9112C2.635 2.80777 2.77525 2.74959 2.92153 2.74944H6.23188C6.3782 2.74944 6.51853 2.69132 6.622 2.58785C6.72547 2.48438 6.7836 2.34405 6.7836 2.19772C6.7836 2.05139 6.72547 1.91106 6.622 1.80759C6.51853 1.70412 6.3782 1.646 6.23188 1.646H2.92153C2.48269 1.64643 2.06194 1.82096 1.75163 2.13127C1.44132 2.44158 1.2668 2.86232 1.26636 3.30117V6.61151C1.26636 6.75784 1.32449 6.89817 1.42795 7.00164C1.53142 7.10511 1.67176 7.16324 1.81808 7.16324ZM7.44346 8.81841H3.91684C3.8071 8.81841 3.70185 8.86201 3.62424 8.93961C3.54664 9.01721 3.50305 9.12246 3.50305 9.2322V12.8184C3.50305 12.9282 3.54664 13.0334 3.62424 13.111C3.70185 13.1886 3.8071 13.2322 3.91684 13.2322H7.44346C7.55321 13.2322 7.65846 13.1886 7.73606 13.111C7.81366 13.0334 7.85725 12.9282 7.85725 12.8184V9.2322C7.85725 9.12246 7.81366 9.01721 7.73606 8.93961C7.65846 8.86201 7.55321 8.81841 7.44346 8.81841ZM7.02967 12.4046H4.33063V9.646H7.02967V12.4046ZM6.23188 10.4736H5.12843V11.577H6.23188V10.4736ZM6.23188 14.3357H2.92153C2.77525 14.3355 2.635 14.2773 2.53156 14.1739C2.42813 14.0705 2.36995 13.9302 2.36981 13.7839V10.4736C2.36981 10.3273 2.31168 10.1869 2.20821 10.0835C2.10474 9.97999 1.96441 9.92186 1.81808 9.92186C1.67176 9.92186 1.53142 9.97999 1.42795 10.0835C1.32449 10.1869 1.26636 10.3273 1.26636 10.4736V13.7839C1.2668 14.2228 1.44132 14.6435 1.75163 14.9538C2.06194 15.2641 2.48269 15.4387 2.92153 15.4391H6.23188C6.3782 15.4391 6.51853 15.381 6.622 15.2775C6.72547 15.174 6.7836 15.0337 6.7836 14.8874C6.7836 14.7411 6.72547 14.6007 6.622 14.4972C6.51853 14.3938 6.3782 14.3357 6.23188 14.3357ZM14.5077 9.92186C14.3614 9.92186 14.2211 9.97999 14.1176 10.0835C14.0141 10.1869 13.956 10.3273 13.956 10.4736V13.7839C13.9559 13.9302 13.8977 14.0705 13.7943 14.1739C13.6908 14.2773 13.5506 14.3355 13.4043 14.3357H10.0939C9.94762 14.3357 9.80728 14.3938 9.70382 14.4972C9.60035 14.6007 9.54222 14.7411 9.54222 14.8874C9.54222 15.0337 9.60035 15.174 9.70382 15.2775C9.80728 15.381 9.94762 15.4391 10.0939 15.4391H13.4043C13.8431 15.4387 14.2639 15.2641 14.5742 14.9538C14.8845 14.6435 15.059 14.2228 15.0595 13.7839V10.4736C15.0595 10.3273 15.0013 10.1869 14.8979 10.0835C14.7944 9.97999 14.6541 9.92186 14.5077 9.92186ZM9.81808 11.8529H8.71463V12.9563H9.81808V11.8529ZM8.71463 10.1944H9.81808V9.09096H8.71463V10.1944ZM13.4043 1.646H10.0939C9.94762 1.646 9.80728 1.70412 9.70382 1.80759C9.60035 1.91106 9.54222 2.05139 9.54222 2.19772C9.54222 2.34405 9.60035 2.48438 9.70382 2.58785C9.80728 2.69132 9.94762 2.74944 10.0939 2.74944H13.4043C13.5506 2.74959 13.6908 2.80777 13.7943 2.9112C13.8977 3.01464 13.9559 3.15489 13.956 3.30117V6.61151C13.956 6.75784 14.0141 6.89817 14.1176 7.00164C14.2211 7.10511 14.3614 7.16324 14.5077 7.16324C14.6541 7.16324 14.7944 7.10511 14.8979 7.00164C15.0013 6.89817 15.0595 6.75784 15.0595 6.61151V3.30117C15.059 2.86232 14.8845 2.44158 14.5742 2.13127C14.2639 1.82096 13.8431 1.64643 13.4043 1.646ZM10.0939 6.61151H11.1974V5.50807H10.0939V6.61151ZM11.1974 11.577V10.4736H10.0939V11.577H11.1974ZM12.409 8.26669C12.5187 8.26669 12.624 8.22309 12.7016 8.14549C12.7792 8.06789 12.8228 7.96264 12.8228 7.85289V4.26669C12.8228 4.15694 12.7792 4.05169 12.7016 3.97409C12.624 3.89649 12.5187 3.85289 12.409 3.85289H8.88236C8.77261 3.85289 8.66736 3.89649 8.58976 3.97409C8.51216 4.05169 8.46856 4.15694 8.46856 4.26669V7.85289C8.46856 7.96264 8.51216 8.06789 8.58976 8.14549C8.66736 8.22309 8.77261 8.26669 8.88236 8.26669H12.409ZM9.29615 4.68048H11.9952V7.4391H9.29615V4.68048ZM12.5767 9.09096H11.4733V10.1944H12.5767V9.09096ZM11.4733 12.9563H12.5767V11.8529H11.4733V12.9563Z" fill="#777777"/>
</svg>
