<svg width="128" height="129" viewBox="0 0 128 129" fill="none" xmlns="http://www.w3.org/2000/svg">
<path d="M98.9 43.7648C97.9186 42.7757 96.8603 41.9029 95.7827 41.0884C103.999 52.2011 103.133 67.9684 93.1272 78.0533C83.1212 88.1381 67.4578 89.0108 56.4512 80.7296C57.2594 81.8157 58.1253 82.8823 59.1066 83.8714C70.094 94.9454 87.9125 94.9454 98.9192 83.8714C109.887 72.7975 109.887 54.8387 98.9 43.7648Z" fill="#DAE6F2"/>
<path d="M108.04 85.3842L100.42 93.0448L99.7852 92.4048L107.405 84.7442L108.04 85.3842Z" fill="#FE9553"/>
<path d="M111.581 88.9527L103.961 96.6133L102.595 95.2363L110.215 87.5757L111.581 88.9527Z" fill="#FE9553"/>
<path d="M115.102 92.5017L107.501 100.182L106.135 98.8048L113.755 91.1442L115.102 92.5017Z" fill="#FE9553"/>
<path d="M118.643 96.0702L111.023 103.731L109.676 102.373L117.277 94.6933L118.643 96.0702Z" fill="#FE9553"/>
<path d="M121.394 100.414L115.333 106.524C114.64 106.427 113.948 106.194 113.332 105.806L120.702 98.3781C121.067 98.9987 121.298 99.6969 121.394 100.414Z" fill="#FE9553"/>
<path d="M42.1158 117.578C39.114 117.578 36.6702 115.115 36.6702 112.09C36.6702 109.064 39.114 106.601 42.1158 106.601C45.1176 106.601 47.5614 109.064 47.5614 112.09C47.5614 115.115 45.1176 117.578 42.1158 117.578Z" fill="#DAE6F2"/>
<path d="M71.5952 91.1248C71.6144 105.147 71.6144 115.212 71.6144 115.212C71.6144 117.365 69.8826 119.091 67.7659 119.091H8.53777C7.94126 119.091 7.36398 119.013 6.8252 118.877C7.61413 122.349 10.6737 124.928 14.3297 124.928H69.671C73.9235 124.928 77.3872 121.457 77.3872 117.151V91.1248H71.5952ZM77.3872 35.6969V12.4629C77.3872 8.7781 74.8279 5.69446 71.4028 4.89931C71.4413 5.09325 71.4797 18.3975 71.5182 35.6969H77.3872Z" fill="#DAE6F2"/>
<path d="M42.1157 119.518C38.0555 119.518 34.7458 116.182 34.7458 112.09C34.7458 107.998 38.0555 104.662 42.1157 104.662C46.1758 104.662 49.4855 107.998 49.4855 112.09C49.4855 116.182 46.1758 119.518 42.1157 119.518ZM42.1157 108.521C40.1722 108.521 38.5943 110.111 38.5943 112.07C38.5943 114.029 40.1722 115.619 42.1157 115.619C44.0592 115.619 45.6371 114.029 45.6371 112.07C45.6371 110.111 44.0592 108.521 42.1157 108.521Z" fill="#387CBB"/>
<path d="M69.7863 126.868H14.4259C9.11495 126.868 4.7854 122.504 4.7854 117.151V12.4629C4.80464 7.11022 9.11495 2.74658 14.4259 2.74658H69.7671C75.078 2.74658 79.4075 7.11022 79.4075 12.4629V34.9211C79.4075 35.9878 78.5416 36.8605 77.4833 36.8605C76.4249 36.8605 75.559 35.9878 75.559 34.9211V12.4629C75.559 9.24355 72.9613 6.62537 69.7671 6.62537H14.4259C11.2509 6.62537 8.65313 9.24355 8.65313 12.4629V117.171C8.65313 120.371 11.2509 122.989 14.4259 122.989H69.7671C72.9613 122.989 75.559 120.371 75.559 117.151V92.8702C75.559 91.8036 76.4249 90.9308 77.4833 90.9308C78.5416 90.9308 79.4075 91.8036 79.4075 92.8702V117.171C79.4268 122.504 75.0972 126.868 69.7863 126.868Z" fill="#387CBB"/>
<path d="M77.5026 27.9781H6.72893C5.6706 27.9781 4.80469 27.1054 4.80469 26.0387C4.80469 24.972 5.6706 24.0993 6.72893 24.0993H77.5026C78.5609 24.0993 79.4268 24.972 79.4268 26.0387C79.4268 27.1054 78.5609 27.9781 77.5026 27.9781ZM55.4315 17.292H28.8C27.7417 17.292 26.8757 16.4193 26.8757 15.3526C26.8757 14.286 27.7417 13.4133 28.8 13.4133H55.4315C56.4898 13.4133 57.3557 14.286 57.3557 15.3526C57.3557 16.4193 56.4898 17.292 55.4315 17.292ZM77.5026 101.171H6.72893C5.6706 101.171 4.80469 100.298 4.80469 99.2314C4.80469 98.1648 5.6706 97.292 6.72893 97.292H77.5026C78.5609 97.292 79.4268 98.1648 79.4268 99.2314C79.4268 100.298 78.5609 101.171 77.5026 101.171Z" fill="#387CBB"/>
<path d="M79.0035 94.1114C71.3065 94.1114 63.6096 91.1636 57.7406 85.2484C46.022 73.4375 46.022 54.1987 57.7406 42.3878C69.4593 30.5769 88.5478 30.5769 100.266 42.3878C105.943 48.109 109.079 55.7308 109.079 63.8181C109.079 71.9054 105.943 79.5272 100.266 85.2484C94.3975 91.1442 86.7005 94.1114 79.0035 94.1114ZM79.0035 37.3842C71.9993 37.3842 65.4184 40.1381 60.4538 45.1223C50.2361 55.4205 50.2361 72.1963 60.4538 82.4945C65.3991 87.4787 71.9993 90.2326 79.0035 90.2326C86.0078 90.2326 92.5887 87.4787 97.5532 82.4945C102.499 77.5102 105.231 70.8581 105.231 63.7987C105.231 56.7393 102.499 50.1066 97.5532 45.103C92.5887 40.1381 86.0078 37.3842 79.0035 37.3842Z" fill="#387CBB"/>
<path d="M65.6492 79.2169C65.1489 79.2169 64.6678 79.0229 64.283 78.6545C60.3575 74.6981 58.1831 69.4229 58.1831 63.8181C58.1831 58.2133 60.3383 52.9575 64.283 49.0011C65.0334 48.2448 66.2457 48.2448 66.9961 49.0011C67.7466 49.7575 67.7466 50.9793 66.9961 51.7357C63.8019 54.9551 62.0316 59.2605 62.0316 63.8181C62.0316 68.3757 63.8019 72.6811 66.9961 75.9005C67.7466 76.6569 67.7466 77.8787 66.9961 78.6351C66.6305 79.0229 66.1495 79.2169 65.6492 79.2169Z" fill="#387CBB"/>
<path d="M116.045 108.502C114.102 108.502 112.254 107.726 110.888 106.349L98.419 93.7817C97.6686 93.0254 97.6686 91.8036 98.419 91.0472L106.02 83.3866C106.751 82.6496 108.021 82.6496 108.733 83.3866L121.202 95.9539C122.588 97.3502 123.338 99.1926 123.338 101.151C123.338 103.11 122.568 104.972 121.202 106.349C119.817 107.745 117.989 108.502 116.045 108.502ZM102.479 92.4048L113.582 103.595C114.891 104.914 117.161 104.914 118.47 103.595C119.124 102.936 119.489 102.063 119.489 101.132C119.489 100.201 119.124 99.3284 118.47 98.669L107.367 87.4787L102.479 92.4048Z" fill="#387CBB"/>
<path d="M98.1112 96.0314C97.6109 96.0314 97.1299 95.8375 96.745 95.469L91.2994 89.9805C90.549 89.2242 90.549 88.0023 91.2994 87.246C92.0499 86.4896 93.2621 86.4896 94.0126 87.246L98.092 91.3575L106.309 83.0763L102.229 78.9648C101.479 78.2084 101.479 76.9866 102.229 76.2302C102.98 75.4739 104.192 75.4739 104.942 76.2302L110.388 81.7187C111.138 82.4751 111.138 83.6969 110.388 84.4533L99.4582 95.469C99.0926 95.8375 98.5923 96.0314 98.1112 96.0314Z" fill="#387CBB"/>
</svg>
