<svg width="17" height="17" viewBox="0 0 17 17" fill="none" xmlns="http://www.w3.org/2000/svg">
<path d="M4.52646 6.20483C4.38298 6.16698 4.26373 6.06735 4.20095 5.93289C4.13818 5.79843 4.13837 5.64304 4.20148 5.50874L5.30865 3.15248C5.39115 2.97689 5.56779 2.86487 5.7618 2.86511C5.95581 2.86535 6.13216 2.97781 6.21423 3.1536L6.70265 4.19975C6.72011 4.19289 6.73815 4.18694 6.7567 4.18197C9.6549 3.40539 12.634 5.12533 13.4105 8.02355C14.1871 10.9218 12.4672 13.9008 9.56897 14.6774C6.67071 15.4539 3.69169 13.734 2.91511 10.8358C2.66815 9.91415 2.67371 8.98295 2.89 8.11708C2.95693 7.84921 3.22837 7.68628 3.49627 7.75321C3.76419 7.82008 3.92711 8.09155 3.86019 8.35948C3.68399 9.06481 3.67913 9.82348 3.88103 10.577C4.51467 12.9417 6.94537 14.3451 9.3101 13.7115C11.6749 13.0778 13.0782 10.6471 12.4446 8.28241C11.8213 5.95628 9.4593 4.56041 7.13157 5.11844L7.62437 6.17397C7.70643 6.34977 7.67937 6.55717 7.55503 6.70606C7.43063 6.85495 7.23137 6.91844 7.04377 6.86895L4.52646 6.20483Z" fill="#777777"/>
</svg>
