<svg width="31" height="31" viewBox="0 0 31 31" fill="none" xmlns="http://www.w3.org/2000/svg">
<path d="M8.70736 11.1603C8.43833 11.0894 8.21473 10.9026 8.09703 10.6504C7.97933 10.3983 7.97969 10.107 8.09802 9.85516L10.174 5.43717C10.3287 5.10794 10.6598 4.89791 11.0236 4.89836C11.3874 4.89881 11.718 5.10966 11.8719 5.43927L12.7877 7.40081C12.8205 7.38795 12.8543 7.37679 12.8891 7.36746C18.3232 5.91139 23.9089 9.13626 25.3649 14.5704C26.8211 20.0047 23.5962 25.5903 18.1621 27.0464C12.7278 28.5024 7.14216 25.2775 5.68607 19.8434C5.22303 18.1153 5.23346 16.3693 5.63899 14.7458C5.76448 14.2435 6.27343 13.938 6.77576 14.0635C7.27809 14.1889 7.58358 14.6979 7.45809 15.2003C7.12773 16.5228 7.11862 17.9453 7.49718 19.3582C8.68524 23.792 13.2428 26.4233 17.6767 25.2353C22.1107 24.0472 24.7419 19.4897 23.5539 15.0558C22.3852 10.6943 17.9564 8.07704 13.5919 9.12335L14.5159 11.1025C14.6698 11.4321 14.6191 11.821 14.3859 12.1001C14.1527 12.3793 13.7791 12.4983 13.4273 12.4056L8.70736 11.1603Z" fill="white"/>
</svg>
