<svg width="35" height="35" viewBox="0 0 35 35" fill="none" xmlns="http://www.w3.org/2000/svg">
<g clip-path="url(#clip0_1_7958)">
<path d="M30.5693 13.87C30.5693 6.73 24.7601 0.920776 17.6201 0.920776C10.4801 0.920776 4.6709 6.73 4.6709 13.87C4.67002 15.6145 5.02262 17.3411 5.70742 18.9456C6.39221 20.5501 7.39501 21.9991 8.65527 23.2054V33.9247C8.65522 34.0945 8.69859 34.2615 8.78127 34.4099C8.86394 34.5582 8.98316 34.683 9.12762 34.7723C9.27208 34.8616 9.43697 34.9124 9.60662 34.9201C9.77628 34.9277 9.94507 34.8918 10.097 34.8159L17.6201 31.0539L25.1433 34.8159C25.2952 34.8918 25.464 34.9277 25.6336 34.9201C25.8033 34.9124 25.9682 34.8616 26.1126 34.7723C26.2571 34.683 26.3763 34.5582 26.459 34.4099C26.5416 34.2615 26.585 34.0945 26.585 33.9247V23.2054C27.8452 21.9991 28.848 20.5501 29.5328 18.9456C30.2176 17.3411 30.5702 15.6145 30.5693 13.87ZM6.66309 13.87C6.66309 7.82703 11.5772 2.91296 17.6201 2.91296C23.6631 2.91296 28.5772 7.82703 28.5772 13.87C28.5772 19.913 23.6631 24.827 17.6201 24.827C11.5772 24.827 6.66309 19.913 6.66309 13.87ZM24.5928 32.313L18.0657 29.0491C17.9274 28.9799 17.7748 28.9439 17.6201 28.9439C17.4654 28.9439 17.3129 28.9799 17.1745 29.0491L10.6475 32.313V24.7772C12.7286 26.1106 15.1485 26.8193 17.6201 26.8193C20.0918 26.8193 22.5116 26.1106 24.5928 24.7772V32.313Z" fill="white"/>
<path d="M11.7479 20.5431C11.6829 20.7432 11.6829 20.9586 11.7479 21.1586C11.813 21.3586 11.9396 21.5329 12.1097 21.6566C12.2799 21.7802 12.4848 21.8468 12.6951 21.8468C12.9054 21.8469 13.1103 21.7803 13.2805 21.6568L17.6202 18.5045L21.9598 21.6568C22.13 21.7803 22.3349 21.8469 22.5452 21.8468C22.7555 21.8468 22.9604 21.7802 23.1306 21.6566C23.3007 21.5329 23.4274 21.3586 23.4924 21.1586C23.5574 20.9586 23.5574 20.7432 23.4925 20.5431L21.8323 15.4418L26.172 12.2895C26.3421 12.166 26.4688 11.9919 26.534 11.792C26.5991 11.5921 26.5993 11.3768 26.5346 11.1767C26.4699 10.9767 26.3436 10.8023 26.1737 10.6784C26.0038 10.5546 25.7991 10.4877 25.5889 10.4872H20.2253L18.5651 5.38591C18.5002 5.18565 18.3736 5.01109 18.2034 4.88728C18.0331 4.76347 17.828 4.69678 17.6175 4.69678C17.407 4.69678 17.2019 4.76347 17.0316 4.88728C16.8614 5.01109 16.7348 5.18565 16.6699 5.38591L15.0097 10.4872H9.6514C9.44095 10.4871 9.23586 10.5536 9.06555 10.6773C8.89525 10.8009 8.76848 10.9753 8.70343 11.1755C8.63839 11.3756 8.63841 11.5912 8.70349 11.7914C8.76857 11.9915 8.89537 12.1659 9.0657 12.2895L13.4054 15.4418L11.7479 20.5431ZM12.7174 12.4794H15.7389C15.9492 12.4795 16.1542 12.413 16.3244 12.2894C16.4947 12.1658 16.6214 11.9915 16.6865 11.7915L17.6202 8.9174L18.5538 11.7915C18.6189 11.9915 18.7456 12.1658 18.9159 12.2894C19.0861 12.413 19.2911 12.4795 19.5014 12.4794H22.5229L20.0772 14.2558C19.907 14.3794 19.7803 14.5538 19.7153 14.7538C19.6503 14.9539 19.6503 15.1694 19.7153 15.3694L20.6489 18.2435L18.2045 16.4671C18.0343 16.3434 17.8293 16.2767 17.6188 16.2767C17.4084 16.2767 17.2033 16.3434 17.0331 16.4671L14.5887 18.2435L15.5224 15.3694C15.5876 15.1696 15.588 14.9543 15.5235 14.7543C15.459 14.5543 15.3328 14.3798 15.1631 14.2558L12.7174 12.4794Z" fill="white"/>
</g>
<defs>
<clipPath id="clip0_1_7958">
<rect width="34" height="34" fill="white" transform="translate(0.620117 0.920776)"/>
</clipPath>
</defs>
</svg>
