<svg width="35" height="35" viewBox="0 0 35 35" fill="none" xmlns="http://www.w3.org/2000/svg">
<path d="M32.6566 24.3776C31.9384 23.7688 30.9938 23.5074 30.062 23.6625L21.019 25.1702C20.9723 24.3893 20.6589 23.6604 20.1021 23.1037C19.5007 22.5033 18.7124 22.1782 17.8507 22.1772C12.0994 22.1942 8.30517 22.1952 7.46686 22.1793C6.88142 21.5269 6.04205 21.1083 5.09961 21.1083H2.97461C2.38811 21.1083 1.91211 21.5843 1.91211 22.1708V32.7958C1.91211 33.3823 2.38811 33.8583 2.97461 33.8583H5.09961C6.0378 33.8583 6.87398 33.4428 7.45836 32.7958H17.8496C17.924 32.7958 17.9994 32.7883 18.0717 32.7724L31.2573 29.9472C32.7225 29.6327 33.786 28.3173 33.786 26.8182C33.7871 25.8757 33.3749 24.9864 32.6566 24.3776ZM5.09961 31.7333H4.03711V23.2333H5.09961C5.68505 23.2333 6.16211 23.7103 6.16211 24.2958V30.6708C6.16211 31.2562 5.68505 31.7333 5.09961 31.7333ZM30.8132 27.869L17.737 30.6708H8.28711V24.3107C9.60886 24.3213 12.2853 24.3181 17.856 24.3022H17.8592C18.1397 24.3022 18.4021 24.4105 18.6008 24.6082C18.8016 24.809 18.9121 25.0757 18.9121 25.3615C18.9121 25.9458 18.4372 26.4208 17.8528 26.4208H12.5371C11.9506 26.4208 11.4746 26.8968 11.4746 27.4833C11.4746 28.0698 11.9506 28.5458 12.5371 28.5458H17.8528C18.8037 28.5458 19.6495 28.1176 20.2339 27.4546L30.4115 25.7578C30.7282 25.7068 31.0374 25.7907 31.2828 25.9979C31.5272 26.2062 31.6621 26.4973 31.6621 26.8182C31.6621 27.3218 31.3051 27.7638 30.8132 27.869ZM15.7246 21.1083H19.9746C25.2467 21.1083 29.5371 16.8179 29.5371 11.5458C29.5371 6.27365 25.2467 1.98328 19.9746 1.98328H15.7246C10.4525 1.98328 6.16211 6.27365 6.16211 11.5458C6.16211 16.8179 10.4525 21.1083 15.7246 21.1083ZM27.4121 11.5458C27.4121 14.9182 25.1543 17.7678 22.073 18.6773C24.0397 16.9242 25.2871 14.3805 25.2871 11.5458C25.2871 8.71103 24.0397 6.1674 22.073 4.41428C25.1543 5.32378 27.4121 8.1734 27.4121 11.5458ZM15.7246 4.10828C19.8259 4.10828 23.1621 7.44453 23.1621 11.5458C23.1621 15.647 19.8259 18.9833 15.7246 18.9833C11.6234 18.9833 8.28711 15.647 8.28711 11.5458C8.28711 7.44453 11.6234 4.10828 15.7246 4.10828Z" fill="white"/>
<path d="M12.4649 13.0779L12.0495 15.6237C11.9836 16.0253 12.1536 16.429 12.4861 16.6638C12.8198 16.8976 13.2575 16.922 13.6124 16.7255L15.7246 15.5578L17.8369 16.7255C17.9984 16.8137 18.1748 16.8583 18.3511 16.8583C18.5658 16.8583 18.7804 16.7924 18.9631 16.6638C19.2957 16.4301 19.4657 16.0253 19.3998 15.6237L18.9844 13.0779L20.7343 11.2844C21.0127 10.9997 21.1083 10.5832 20.9808 10.2049C20.8533 9.82665 20.5271 9.55146 20.134 9.49196L17.7583 9.12859L16.6862 6.84421C16.5119 6.47128 16.1369 6.23328 15.7246 6.23328C15.3124 6.23328 14.9373 6.47128 14.7631 6.84421L13.691 9.12859L11.3142 9.49196C10.9211 9.55253 10.5938 9.82771 10.4674 10.2049C10.341 10.5821 10.4355 10.9997 10.7139 11.2844L12.4649 13.0779ZM14.5718 11.1442C14.9225 11.09 15.2231 10.8658 15.3729 10.5449L15.7246 9.7969L16.0763 10.546C16.2272 10.8668 16.5268 11.091 16.8774 11.1452L17.7699 11.2812L17.0889 11.9793C16.853 12.2205 16.7468 12.5594 16.8009 12.892L16.9508 13.8078L16.2389 13.4147C16.0795 13.3265 15.9021 13.2819 15.7246 13.2819C15.5472 13.2819 15.3708 13.3265 15.2104 13.4147L14.4985 13.8078L14.6483 12.892C14.7025 12.5594 14.5963 12.2205 14.3604 11.9793L13.6793 11.2802L14.5718 11.1442Z" fill="white"/>
</svg>
