<svg width="21" height="21" viewBox="0 0 21 21" fill="none" xmlns="http://www.w3.org/2000/svg">
<g clip-path="url(#clip0_1_9340)">
<path d="M10.7622 19.5087C11.4223 19.0888 12.0845 18.6708 12.7446 18.2509C13.0434 18.0615 13.3462 17.874 13.6372 17.6708C14.3286 17.1884 14.977 16.6396 15.5532 16.0224C16.6938 14.7978 17.561 13.3466 18.1099 11.7665C18.5571 10.4755 18.7485 9.1142 18.7485 7.75092V5.15131C18.7485 4.8017 18.5044 4.49702 18.1743 4.39741C17.936 4.32514 17.6997 4.25092 17.4712 4.15522C17.5337 4.18061 17.5962 4.20795 17.6587 4.23334C17.2505 4.05952 16.8677 3.83686 16.5161 3.56733L16.6743 3.69038C16.3266 3.42084 16.0141 3.1103 15.7446 2.76264L15.8677 2.92084C15.5981 2.56928 15.3735 2.18452 15.1997 1.77631C15.2251 1.83881 15.2524 1.90131 15.2778 1.96381C15.2192 1.82319 15.1645 1.67866 15.1177 1.53413C15.0122 1.20405 14.7173 0.959907 14.3638 0.959907H7.35399C7.03172 0.959907 6.70751 0.950141 6.38524 0.959907H6.37157C6.0161 0.959907 5.72313 1.20405 5.61766 1.53413C5.57079 1.68061 5.51805 1.82319 5.45751 1.96381C5.4829 1.90131 5.51024 1.83881 5.53563 1.77631C5.3618 2.18452 5.13719 2.56733 4.86766 2.92084L4.99071 2.76264C4.72118 3.1103 4.40868 3.42084 4.06102 3.69038L4.21922 3.56733C3.86766 3.83686 3.4829 4.05952 3.07665 4.23334C3.13915 4.20795 3.20165 4.18061 3.26415 4.15522C3.03368 4.25092 2.7993 4.32514 2.56102 4.39741C2.23094 4.49702 1.9868 4.8017 1.9868 5.15131V7.50678C1.9868 7.92084 1.9868 8.33491 2.0161 8.74897C2.0786 9.59076 2.22118 10.4306 2.4575 11.2412C2.92625 12.8505 3.73875 14.333 4.81688 15.6122C5.65477 16.6064 6.66454 17.4111 7.75829 18.1044L9.9204 19.4755C9.93797 19.4872 9.95751 19.499 9.97508 19.5107C10.3208 19.7294 10.852 19.5947 11.0434 19.2294C11.2466 18.8427 11.1313 18.3955 10.7622 18.1611C10.4106 17.9384 10.0591 17.7158 9.70946 17.4931C9.26024 17.208 8.81297 16.9247 8.36376 16.6396C8.0493 16.4404 7.74266 16.2275 7.44579 16.0009L7.60399 16.124C6.86571 15.5517 6.20165 14.8876 5.62938 14.1494L5.75243 14.3076C5.1704 13.5517 4.68602 12.7236 4.31297 11.8447C4.33836 11.9072 4.36571 11.9697 4.3911 12.0322C4.01024 11.1279 3.75047 10.1787 3.61961 9.206C3.62938 9.27436 3.63915 9.34467 3.64696 9.41303C3.56297 8.78022 3.5493 8.14741 3.5493 7.51264V5.15913C3.3579 5.41108 3.16649 5.66108 2.97508 5.91303C3.64891 5.70991 4.30125 5.44038 4.87352 5.02827C5.55125 4.53998 6.12938 3.93842 6.55907 3.21967C6.7954 2.82514 6.98485 2.39545 7.12547 1.95795C6.87352 2.14936 6.62352 2.34077 6.37157 2.53217H13.3813C13.7036 2.53217 14.0278 2.53998 14.3501 2.53217H14.3638C14.1118 2.34077 13.8618 2.14936 13.6098 1.95795C14.1001 3.48725 15.2134 4.81733 16.6743 5.50483C17.0259 5.67084 17.3872 5.79975 17.7602 5.91303C17.5688 5.66108 17.3774 5.41108 17.186 5.15913V7.92866C17.186 8.42475 17.1528 8.92084 17.0884 9.41303C17.0981 9.34467 17.1079 9.27436 17.1157 9.206C16.9829 10.1767 16.7231 11.1279 16.3442 12.0322C16.3696 11.9697 16.397 11.9072 16.4223 11.8447C16.0493 12.7236 15.5649 13.5517 14.9829 14.3076L15.1059 14.1494C14.5337 14.8876 13.8696 15.5517 13.1313 16.124L13.2895 16.0009C12.852 16.3388 12.3872 16.6298 11.9223 16.9267C11.4067 17.2548 10.8911 17.581 10.3755 17.9091C10.2427 17.9931 10.1079 18.079 9.97508 18.163C9.80516 18.2705 9.6704 18.4326 9.61571 18.6298C9.56493 18.8173 9.58837 19.0654 9.69383 19.2314C9.91649 19.5751 10.3931 19.7431 10.7622 19.5087Z" fill="#132183"/>
<path d="M6.38995 10.2496L8.39581 12.2554L8.68097 12.5406C8.97979 12.8394 9.48761 12.8394 9.78643 12.5406L11.3353 10.9918L13.7864 8.5406L14.3509 7.97615C14.6399 7.68708 14.6614 7.15583 14.3509 6.87068C14.0384 6.58357 13.554 6.56208 13.2454 6.87068L11.6966 8.41951L9.24542 10.8707L8.68097 11.4351H9.78643L7.78057 9.42927L7.49542 9.14412C7.20636 8.85505 6.67511 8.83357 6.38995 9.14412C6.10284 9.45662 6.08136 9.93904 6.38995 10.2496Z" fill="#132183"/>
</g>
<defs>
<clipPath id="clip0_1_9340">
<rect width="20" height="20" fill="white" transform="translate(0.369614 0.289795)"/>
</clipPath>
</defs>
</svg>
