<svg width="151" height="159" viewBox="0 0 151 159" fill="none" xmlns="http://www.w3.org/2000/svg">
<path d="M5.8125 80.0916L6.2125 135.392C6.2125 135.392 6.2125 150.992 23.8125 153.592L49.1125 153.792C49.1125 153.792 66.0125 151.692 69.0125 136.192L69.3125 78.8916" stroke="#4F3FFF" stroke-width="10" stroke-miterlimit="10" stroke-linecap="round"/>
<path d="M102.513 122.692L102.213 67.3916C102.213 67.3916 102.213 51.7916 84.7127 49.1916L59.4127 48.8916C59.4127 48.8916 42.5127 50.9916 39.4127 66.3916L39.0127 123.692" stroke="#4F3FFF" stroke-width="10" stroke-miterlimit="10" stroke-linecap="round"/>
<path d="M54.2124 96.3916L69.2124 77.4916L83.8124 97.6916" stroke="#4F3FFF" stroke-width="10" stroke-miterlimit="10" stroke-linecap="round"/>
<path d="M53.3125 110.992L38.3125 129.792L23.8125 109.692" stroke="#4F3FFF" stroke-width="10" stroke-miterlimit="10" stroke-linecap="round"/>
<path d="M67.1123 29.9916C67.1123 29.9916 118.112 16.6916 127.112 69.8916" stroke="#4F3FFF" stroke-width="10" stroke-miterlimit="10" stroke-linecap="round"/>
<path d="M145.913 65.4916C138.613 -9.1084 61.9126 6.7916 61.9126 6.7916" stroke="#3F63FF" stroke-width="10" stroke-miterlimit="10" stroke-linecap="round"/>
</svg>
