<svg width="20" height="20" viewBox="0 0 20 20" fill="none" xmlns="http://www.w3.org/2000/svg">
<path d="M17.1289 6.49718C16.7207 5.53215 16.1366 4.66565 15.3926 3.92179C14.6485 3.17793 13.782 2.59346 12.8172 2.18544C11.8178 1.76277 10.7567 1.54846 9.66289 1.54846C8.56909 1.54846 7.50795 1.76277 6.50859 2.18544C5.54356 2.59365 4.67706 3.17775 3.9332 3.92179C3.18935 4.66583 2.60506 5.53215 2.19704 6.497C1.77437 7.49635 1.56006 8.5575 1.56006 9.65129C1.56006 10.7451 1.77437 11.8062 2.19704 12.8056C2.60524 13.7706 3.18935 14.6371 3.93339 15.381C4.67743 16.1248 5.54394 16.7091 6.50878 17.1173C7.50814 17.54 8.56928 17.7543 9.66289 17.7543C10.7565 17.7543 11.8178 17.54 12.8172 17.1173C13.7822 16.7091 14.6487 16.125 15.3926 15.381C16.1364 14.6369 16.7207 13.7704 17.1289 12.8056C17.5516 11.8062 17.7659 10.7451 17.7659 9.65129C17.7659 8.5575 17.5516 7.49635 17.1289 6.49718ZM9.66289 16.6366C5.81112 16.6366 2.67761 13.5031 2.67761 9.65129C2.67761 5.79953 5.81112 2.66601 9.66289 2.66601C13.5147 2.66601 16.6482 5.79953 16.6482 9.65129C16.6482 13.5031 13.5147 16.6366 9.66289 16.6366Z" fill="#777777"/>
<path d="M9.66273 5.32043H9.66255C8.19895 5.32062 7.0083 6.51127 7.0083 7.97487C7.0083 8.28343 7.25842 8.53374 7.56717 8.53374C7.87592 8.53374 8.12603 8.28362 8.12603 7.97487C8.12603 7.12748 8.81534 6.43817 9.66273 6.43817C10.0615 6.43817 10.4441 6.60126 10.7404 6.8974C11.0365 7.19353 11.1998 7.57631 11.1996 7.97505C11.1996 8.34021 11.0593 8.69052 10.794 8.98814C10.6721 9.12489 10.4938 9.24067 10.3051 9.36332C10.078 9.51101 9.82045 9.67819 9.60262 9.92014C9.19293 10.3753 9.01425 11.0674 9.11222 11.8187C9.14895 12.1001 9.38924 12.3053 9.6657 12.3053C9.68982 12.3053 9.71413 12.3039 9.73862 12.3005C10.0446 12.2606 10.2604 11.9801 10.2205 11.6741C10.1782 11.349 10.2118 10.9139 10.4333 10.6677C10.5526 10.535 10.7281 10.4211 10.9139 10.3003C11.1447 10.1504 11.4063 9.98026 11.6279 9.73181C12.0722 9.23362 12.317 8.60962 12.317 7.97487C12.317 7.27758 12.0377 6.61425 11.5303 6.10697C11.0232 5.59968 10.36 5.32043 9.66273 5.32043Z" fill="#777777"/>
<path d="M8.82446 13.8423C8.82446 13.9524 8.84615 14.0614 8.88827 14.1631C8.9304 14.2648 8.99215 14.3573 9.07 14.4351C9.14784 14.5129 9.24025 14.5747 9.34196 14.6168C9.44367 14.6589 9.55268 14.6806 9.66276 14.6806C9.77285 14.6806 9.88186 14.6589 9.98357 14.6168C10.0853 14.5747 10.1777 14.5129 10.2555 14.4351C10.3334 14.3573 10.3951 14.2648 10.4373 14.1631C10.4794 14.0614 10.5011 13.9524 10.5011 13.8423C10.5011 13.62 10.4127 13.4068 10.2555 13.2496C10.0983 13.0923 9.88509 13.004 9.66276 13.004C9.44043 13.004 9.22721 13.0923 9.07 13.2496C8.91278 13.4068 8.82446 13.62 8.82446 13.8423Z" fill="#777777"/>
</svg>
