<svg width="122" height="122" viewBox="0 0 122 122" fill="none" xmlns="http://www.w3.org/2000/svg">
<rect x="4.3833" y="3.79834" width="114.018" height="114.018" rx="31.5" stroke="#D31717" stroke-width="7"/>
<path d="M82.0449 83.9925C80.976 85.0685 79.5262 85.6729 78.0146 85.6729C76.5029 85.6729 75.0531 85.0685 73.9842 83.9925L61.3919 69.5047L48.7997 83.9877C48.272 84.5277 47.6433 84.9571 46.9499 85.2512C46.2565 85.5453 45.5121 85.6983 44.7597 85.7014C44.0073 85.7045 43.2617 85.5576 42.5659 85.2692C41.8702 84.9807 41.238 84.5565 40.706 84.0209C40.1739 83.4853 39.7525 82.849 39.4659 82.1487C39.1794 81.4483 39.0335 80.6978 39.0365 79.9404C39.0396 79.1829 39.1916 78.4336 39.4838 77.7356C39.776 77.0377 40.2026 76.4048 40.7389 75.8736L53.8394 60.812L40.7342 45.7409C40.1978 45.2097 39.7712 44.5768 39.479 43.8788C39.1869 43.1809 39.0348 42.4315 39.0318 41.6741C39.0287 40.9167 39.1747 40.1662 39.4612 39.4658C39.7477 38.7655 40.1692 38.1291 40.7012 37.5936C41.2333 37.058 41.8654 36.6337 42.5612 36.3453C43.2569 36.0569 44.0025 35.91 44.7549 35.9131C45.5074 35.9161 46.2518 36.0692 46.9452 36.3633C47.6386 36.6574 48.2672 37.0868 48.7949 37.6267L61.3919 52.1193L73.9842 37.6267C74.5119 37.0868 75.1406 36.6574 75.834 36.3633C76.5274 36.0692 77.2717 35.9161 78.0242 35.9131C78.7766 35.91 79.5222 36.0569 80.218 36.3453C80.9137 36.6337 81.5458 37.058 82.0779 37.5936C82.6099 38.1291 83.0314 38.7655 83.3179 39.4658C83.6045 40.1662 83.7504 40.9167 83.7473 41.6741C83.7443 42.4315 83.5923 43.1809 83.3001 43.8788C83.0079 44.5768 82.5813 45.2097 82.0449 45.7409L68.9444 60.812L82.0449 75.8736C82.5749 76.4065 82.9953 77.0393 83.2822 77.7359C83.569 78.4324 83.7167 79.179 83.7167 79.9331C83.7167 80.6871 83.569 81.4337 83.2822 82.1303C82.9953 82.8268 82.5749 83.4596 82.0449 83.9925Z" fill="#D31717"/>
</svg>
