<svg width="122" height="122" viewBox="0 0 122 122" fill="none" xmlns="http://www.w3.org/2000/svg">
<rect x="3.7229" y="3.79846" width="114.018" height="114.018" rx="31.5" stroke="#10B23F" stroke-width="7"/>
<path d="M80.5378 37.6162C79.6233 37.1009 78.6174 36.7732 77.5778 36.6518C76.5381 36.5305 75.485 36.6178 74.4787 36.9089C73.4723 37.2 72.5326 37.6892 71.7131 38.3484C70.8936 39.0075 70.2104 39.8238 69.7027 40.7506L54.912 67.7052L46.4471 59.1332C45.7121 58.3626 44.833 57.748 43.861 57.3251C42.889 56.9023 41.8436 56.6798 40.7857 56.6704C39.7279 56.6611 38.6788 56.8653 37.6997 57.2709C36.7206 57.6766 35.831 58.2756 35.083 59.0332C34.3349 59.7907 33.7434 60.6915 33.3428 61.683C32.9422 62.6745 32.7406 63.7368 32.7498 64.8081C32.759 65.8793 32.9788 66.938 33.3963 67.9223C33.8139 68.9066 34.4208 69.7968 35.1817 70.5411L51.1157 86.6768C52.6215 88.2056 54.6531 89.0447 56.7484 89.0447L57.8518 88.964C59.073 88.791 60.2378 88.3334 61.2546 87.6271C62.2714 86.9208 63.1125 85.9851 63.7115 84.8938L83.629 48.5885C84.1375 47.6625 84.4609 46.6442 84.5808 45.5916C84.7007 44.5391 84.6146 43.4729 84.3275 42.454C84.0405 41.4351 83.5581 40.4835 82.9078 39.6534C82.2576 38.8234 81.4523 38.1311 80.5378 37.6162Z" fill="#10B23F"/>
</svg>
