<svg width="25" height="25" viewBox="0 0 25 25" fill="none" xmlns="http://www.w3.org/2000/svg">
<g clip-path="url(#clip0_1_11042)">
<path d="M24.408 12.7632C24.408 19.3932 19.038 24.7632 12.408 24.7632C5.77796 24.7632 0.407959 19.3932 0.407959 12.7632C0.407959 6.13318 5.77796 0.763184 12.408 0.763184C19.038 0.763184 24.408 6.13318 24.408 12.7632Z" fill="url(#paint0_linear_1_11042)"/>
<path d="M10.2079 18.2632C9.81791 18.2632 9.88791 18.1132 9.74791 17.7432L8.60791 13.9832L15.6879 9.56323L16.5179 9.78323L15.8279 11.6632L10.2079 18.2632Z" fill="#C8DAEA"/>
<path d="M10.208 18.2631C10.508 18.2631 10.638 18.1231 10.808 17.9631C11.068 17.7131 14.408 14.4631 14.408 14.4631L12.358 13.9631L10.458 15.1631L10.208 18.1631V18.2631Z" fill="#A9C9DD"/>
<path d="M10.4079 15.2032L15.2479 18.7732C15.7979 19.0732 16.1979 18.9232 16.3379 18.2632L18.3079 8.98323C18.5079 8.17323 17.9979 7.81323 17.4679 8.05323L5.9079 12.5132C5.1179 12.8332 5.1279 13.2732 5.7679 13.4632L8.7379 14.3932L15.6079 10.0632C15.9279 9.86323 16.2279 9.97323 15.9879 10.1932L10.4079 15.2032Z" fill="url(#paint1_linear_1_11042)"/>
</g>
<defs>
<linearGradient id="paint0_linear_1_11042" x1="15.925" y1="4.55618" x2="9.92496" y2="18.556" gradientUnits="userSpaceOnUse">
<stop stop-color="#37AEE2"/>
<stop offset="1" stop-color="#1E96C8"/>
</linearGradient>
<linearGradient id="paint1_linear_1_11042" x1="13.307" y1="13.1387" x2="15.807" y2="17.1387" gradientUnits="userSpaceOnUse">
<stop stop-color="#EFF7FC"/>
<stop offset="1" stop-color="white"/>
</linearGradient>
<clipPath id="clip0_1_11042">
<rect width="24" height="24" fill="white" transform="translate(0.407959 0.763184)"/>
</clipPath>
</defs>
</svg>
