<svg width="41" height="41" viewBox="0 0 41 41" fill="none" xmlns="http://www.w3.org/2000/svg">
<g clip-path="url(#clip0_1_9929)">
<path d="M34.852 34.9269H26.1345C24.2917 34.9269 22.7978 33.433 22.7978 31.5902C22.7978 29.7474 24.2917 28.2536 26.1345 28.2536H34.852C36.6947 28.2536 38.1886 29.7474 38.1886 31.5902C38.1886 33.433 36.6947 34.9269 34.852 34.9269ZM15.7024 21.1548C15.7024 22.9976 14.2085 24.4914 12.3658 24.4914H4.76049C2.91776 24.4914 1.42383 22.9976 1.42383 21.1548C1.42383 19.312 2.91776 17.8181 4.76049 17.8181H12.3658C14.2085 17.8181 15.7024 19.312 15.7024 21.1548Z" fill="#CEF6FD"/>
<path d="M26.8125 34.3675H11.1058C10.3768 34.3675 9.78589 33.7766 9.78589 33.0476V8.2961C9.78589 7.56714 10.3768 6.9762 11.1058 6.9762H26.8125C27.5414 6.9762 28.1324 7.56714 28.1324 8.2961V33.0476C28.1324 33.7766 27.5414 34.3675 26.8125 34.3675Z" fill="#3CDAF6"/>
<path d="M25.5892 10.6969H12.3284V29.4382H25.5892V10.6969Z" fill="white"/>
<path d="M18.9594 32.6256C19.5472 32.6256 20.0237 32.1491 20.0237 31.5613C20.0237 30.9735 19.5472 30.4969 18.9594 30.4969C18.3715 30.4969 17.895 30.9735 17.895 31.5613C17.895 32.1491 18.3715 32.6256 18.9594 32.6256Z" fill="white"/>
<path d="M21.4904 9.45344H18.6013C18.4211 9.45344 18.2752 9.30738 18.2752 9.12736C18.2752 8.94733 18.4211 8.80127 18.6013 8.80127H21.4904C21.6705 8.80127 21.8165 8.94733 21.8165 9.12736C21.8165 9.30738 21.6705 9.45344 21.4904 9.45344ZM17.3216 9.45344H16.4279C16.2478 9.45344 16.1018 9.30738 16.1018 9.12736C16.1018 8.94733 16.2478 8.80127 16.4279 8.80127H17.3216C17.5017 8.80127 17.6476 8.94733 17.6476 9.12736C17.6476 9.30738 17.5017 9.45344 17.3216 9.45344Z" fill="white"/>
<path d="M34.7895 14.8251V22.4601C34.7895 22.9751 34.3721 23.3925 33.8572 23.3925H32.7694V26.9086L28.9776 23.3925H20.4915C19.9765 23.3925 19.5591 22.9751 19.5591 22.4601V14.8251C19.5591 14.3101 19.9765 13.8927 20.4915 13.8927H33.8572C34.3721 13.8927 34.7895 14.3101 34.7895 14.8251Z" fill="white"/>
<path d="M33.8573 13.5665H28.5671V8.29622C28.5671 7.32857 27.78 6.54138 26.8124 6.54138H11.1057C10.1382 6.54138 9.35107 7.32858 9.35107 8.29622V33.0476C9.35107 34.0151 10.1382 34.8022 11.1057 34.8022H26.8124C27.78 34.8022 28.5671 34.0151 28.5671 33.0476V23.7185H28.8498L32.5477 27.1477C32.6424 27.2355 32.7805 27.2596 32.8999 27.2076C33.0187 27.1556 33.0956 27.0384 33.0956 26.9087V23.7185H33.8573C34.5512 23.7185 35.1158 23.154 35.1158 22.4602V14.825C35.1158 14.131 34.5512 13.5665 33.8573 13.5665ZM27.6975 33.0476C27.6975 33.5357 27.3005 33.9327 26.8124 33.9327H11.1057C10.6176 33.9327 10.2206 33.5357 10.2206 33.0476V8.29622C10.2206 7.80815 10.6176 7.41095 11.1057 7.41095H26.8124C27.3005 7.41095 27.6975 7.80815 27.6975 8.29622V13.5665H20.4915C19.7976 13.5665 19.2331 14.131 19.2331 14.825V22.4602C19.2331 23.154 19.7976 23.7185 20.4915 23.7185H27.6975V33.0476ZM34.4636 22.4602C34.4636 22.7944 34.1916 23.0663 33.8573 23.0663H32.7695C32.5893 23.0663 32.4434 23.2124 32.4434 23.3924V26.1616L29.1995 23.1533C29.1392 23.0973 29.06 23.0663 28.9778 23.0663H20.4915C20.1573 23.0663 19.8853 22.7943 19.8853 22.4602V14.825C19.8853 14.4906 20.1573 14.2186 20.4915 14.2186H33.8573C34.1916 14.2186 34.4636 14.4906 34.4636 14.825L34.4636 22.4602Z" fill="black"/>
<path d="M23.6828 19.8404C24.3582 19.8404 24.9058 19.2928 24.9058 18.6173C24.9058 17.9419 24.3582 17.3943 23.6828 17.3943C23.0073 17.3943 22.4597 17.9419 22.4597 18.6173C22.4597 19.2928 23.0073 19.8404 23.6828 19.8404Z" fill="#3CDAF6"/>
<path d="M27.1745 19.8404C27.8499 19.8404 28.3975 19.2928 28.3975 18.6173C28.3975 17.9419 27.8499 17.3943 27.1745 17.3943C26.499 17.3943 25.9514 17.9419 25.9514 18.6173C25.9514 19.2928 26.499 19.8404 27.1745 19.8404Z" fill="#3CDAF6"/>
<path d="M30.6662 19.8404C31.3416 19.8404 31.8892 19.2928 31.8892 18.6173C31.8892 17.9419 31.3416 17.3943 30.6662 17.3943C29.9907 17.3943 29.4431 17.9419 29.4431 18.6173C29.4431 19.2928 29.9907 19.8404 30.6662 19.8404Z" fill="#3CDAF6"/>
<path d="M37.1067 12.1385H33.342C31.4993 12.1385 30.0054 10.6447 30.0054 8.80187C30.0054 6.95908 31.4993 5.46521 33.342 5.46521H37.1067C38.9495 5.46521 40.4433 6.95908 40.4433 8.80187C40.4433 10.6447 38.9495 12.1385 37.1067 12.1385Z" fill="#CEF6FD"/>
<path d="M5.49048 10.1626C6.48219 10.1626 7.28613 9.35865 7.28613 8.36694C7.28613 7.37523 6.48219 6.57129 5.49048 6.57129C4.49877 6.57129 3.69482 7.37523 3.69482 8.36694C3.69482 9.35865 4.49877 10.1626 5.49048 10.1626Z" fill="#48DA97"/>
<path d="M38.5901 21.6704C39.2913 21.6704 39.8597 21.102 39.8597 20.4008C39.8597 19.6996 39.2913 19.1312 38.5901 19.1312C37.889 19.1312 37.3206 19.6996 37.3206 20.4008C37.3206 21.102 37.889 21.6704 38.5901 21.6704Z" fill="#FFF2D7"/>
<path d="M6.76047 34.4034C7.29426 34.4034 7.72699 33.9707 7.72699 33.4369C7.72699 32.9031 7.29426 32.4703 6.76047 32.4703C6.22667 32.4703 5.79395 32.9031 5.79395 33.4369C5.79395 33.9707 6.22667 34.4034 6.76047 34.4034Z" fill="#F68CFF"/>
</g>
<defs>
<clipPath id="clip0_1_9929">
<rect width="40" height="40" fill="white" transform="translate(0.933594 0.196045)"/>
</clipPath>
</defs>
</svg>
