<svg width="31" height="24" viewBox="0 0 31 24" fill="none" xmlns="http://www.w3.org/2000/svg">
<path d="M18.7074 7.7206C18.7074 7.4146 18.5619 7.12666 18.3143 6.94285L10.0682 0.821789C9.76861 0.599727 9.36592 0.563602 9.02805 0.727227C8.69123 0.891915 8.47873 1.22873 8.47873 1.59954V4.22498H1.84873C1.30155 4.22498 0.857422 4.65954 0.857422 5.19929V10.2451C0.857422 10.7838 1.30155 11.2194 1.84873 11.2194H8.47873V13.8427C8.47873 14.2135 8.69123 14.5504 9.02911 14.715C9.16936 14.783 9.32023 14.817 9.47111 14.817C9.68361 14.817 9.89398 14.7501 10.0693 14.6194L18.3154 8.49623C18.5619 8.31135 18.7074 8.02554 18.7074 7.7206ZM29.6161 13.4082H22.9702V10.7827C22.9702 10.4119 22.7566 10.0751 22.4187 9.91041C22.084 9.74679 21.6803 9.78291 21.3785 10.0071L13.1495 16.1292C12.9019 16.3141 12.7564 16.5999 12.7564 16.9049C12.7564 17.2109 12.9019 17.4988 13.1495 17.6815L21.3785 23.8026C21.5539 23.9333 21.7653 24.0002 21.9778 24.0002C22.1287 24.0002 22.2795 23.9673 22.4198 23.8982C22.7566 23.7335 22.9702 23.3957 22.9702 23.0259V20.4005H29.6161C30.1633 20.4005 30.6074 19.9659 30.6074 19.4262V14.3825C30.6074 13.8438 30.1633 13.4082 29.6161 13.4082Z" fill="white"/>
</svg>
