<svg width="25" height="25" viewBox="0 0 25 25" fill="none" xmlns="http://www.w3.org/2000/svg">
<path d="M12.3389 3.12823C6.93887 3.12823 2.58887 7.47824 2.58887 12.8782C2.58887 18.2782 6.93887 22.6282 12.3389 22.6282C17.7389 22.6282 22.0889 18.2782 22.0889 12.8782C22.0889 7.47824 17.7389 3.12823 12.3389 3.12823ZM12.3389 4.62823C16.9139 4.62823 20.5889 8.30324 20.5889 12.8782C20.5889 17.4532 16.9139 21.1282 12.3389 21.1282C10.2793 21.1343 8.29246 20.3669 6.77163 18.978C5.25079 17.5891 4.30676 15.6799 4.12637 13.6282H10.0889V15.1282H14.5889V10.6282H10.0889V12.1282H4.12637C4.30676 10.0765 5.25079 8.16734 6.77163 6.77845C8.29246 5.38956 10.2793 4.6222 12.3389 4.62823Z" fill="white"/>
</svg>
