<svg width="177" height="177" viewBox="0 0 177 177" fill="none" xmlns="http://www.w3.org/2000/svg">
<rect x="0.871582" y="0.867538" width="175.796" height="175.796" rx="35" fill="url(#paint0_linear_1_9865)"/>
<path d="M121.596 125.618C119.897 127.328 117.593 128.289 115.19 128.289C112.788 128.289 110.483 127.328 108.784 125.618L88.7691 102.59L68.754 125.61C67.9153 126.468 66.916 127.151 65.8139 127.618C64.7117 128.086 63.5286 128.329 62.3326 128.334C61.1366 128.339 59.9515 128.105 58.8456 127.647C57.7398 127.189 56.735 126.514 55.8893 125.663C55.0436 124.812 54.3737 123.8 53.9183 122.687C53.4629 121.574 53.2309 120.381 53.2358 119.177C53.2406 117.973 53.4823 116.782 53.9467 115.673C54.4111 114.563 55.0891 113.557 55.9417 112.713L76.7646 88.773L55.9341 64.8178C55.0816 63.9734 54.4036 62.9676 53.9391 61.8581C53.4747 60.7487 53.2331 59.5577 53.2282 58.3538C53.2234 57.1499 53.4553 55.9569 53.9108 54.8437C54.3662 53.7305 55.0361 52.7191 55.8818 51.8678C56.7275 51.0166 57.7322 50.3422 58.8381 49.8838C59.944 49.4253 61.1291 49.1918 62.325 49.1967C63.521 49.2016 64.7042 49.4448 65.8063 49.9123C66.9085 50.3798 67.9077 51.0624 68.7465 51.9206L88.7691 74.9562L108.784 51.9206C109.623 51.0624 110.622 50.3798 111.724 49.9123C112.826 49.4448 114.01 49.2016 115.206 49.1967C116.402 49.1918 117.587 49.4253 118.693 49.8838C119.798 50.3422 120.803 51.0166 121.649 51.8678C122.495 52.7191 123.164 53.7305 123.62 54.8437C124.075 55.9569 124.307 57.1499 124.302 58.3538C124.298 59.5577 124.056 60.7487 123.591 61.8581C123.127 62.9676 122.449 63.9734 121.596 64.8178L100.774 88.773L121.596 112.713C122.439 113.56 123.107 114.566 123.563 115.673C124.019 116.78 124.254 117.967 124.254 119.165C124.254 120.364 124.019 121.551 123.563 122.658C123.107 123.765 122.439 124.771 121.596 125.618Z" fill="white"/>
<defs>
<linearGradient id="paint0_linear_1_9865" x1="88.7693" y1="0.867538" x2="88.7693" y2="176.663" gradientUnits="userSpaceOnUse">
<stop stop-color="#FF1E61"/>
<stop offset="1" stop-color="#D31717"/>
</linearGradient>
</defs>
</svg>
