<svg width="25" height="25" viewBox="0 0 25 25" fill="none" xmlns="http://www.w3.org/2000/svg">
<g clip-path="url(#clip0_1_11037)">
<path d="M21.0919 4.21307C18.8358 1.95537 15.8358 0.711338 12.6395 0.709961C6.05308 0.709961 0.693044 6.06829 0.690407 12.6544C0.68964 14.7597 1.23972 16.8148 2.28528 18.6263L0.590088 24.816L6.92445 23.1551C8.66969 24.1069 10.6347 24.6084 12.6344 24.6092H12.6395H12.6395C19.2249 24.6092 24.5857 19.2499 24.5885 12.6641C24.5896 9.47216 23.3478 6.47092 21.0919 4.21307ZM12.6395 22.5917H12.6356C10.8532 22.5908 9.10534 22.1123 7.58076 21.2076L7.21793 20.9925L3.45899 21.9781L4.46257 18.3145L4.22618 17.9389C3.23194 16.358 2.70706 14.5311 2.70781 12.6552C2.71 7.18101 7.16505 2.7275 12.6433 2.7275C15.2961 2.72861 17.7895 3.76265 19.6647 5.63918C21.5398 7.51569 22.5717 10.0103 22.5709 12.6633C22.5686 18.1376 18.1134 22.5917 12.6395 22.5917Z" fill="#E0E0E0"/>
<path d="M1.13867 24.1292L2.75643 18.2222C1.75838 16.4934 1.23352 14.5321 1.23415 12.5233C1.23677 6.23817 6.35201 1.12476 12.637 1.12476C15.6875 1.12613 18.5505 2.31328 20.7031 4.4679C22.8561 6.6225 24.0411 9.48644 24.0399 12.5322C24.0373 18.8176 18.9217 23.9314 12.6375 23.9314C12.637 23.9314 12.6378 23.9314 12.6375 23.9314H12.6324C10.7241 23.9308 8.84897 23.4518 7.18357 22.5441L1.13867 24.1292Z" fill="url(#paint0_linear_1_11037)"/>
<path fill-rule="evenodd" clip-rule="evenodd" d="M9.68676 7.5834C9.4657 7.0919 9.23295 7.08206 9.02263 7.07346C8.8506 7.06608 8.65366 7.06653 8.45704 7.06653C8.26025 7.06653 7.94048 7.14048 7.67007 7.43581C7.39949 7.73114 6.63696 8.44509 6.63696 9.89712C6.63696 11.3493 7.69466 12.7525 7.84209 12.9495C7.98968 13.1463 9.88386 16.2213 12.8837 17.4043C15.3768 18.3875 15.8842 18.1919 16.4253 18.1427C16.9665 18.0935 18.1714 17.4289 18.4174 16.7397C18.6634 16.0507 18.6634 15.46 18.5896 15.3366C18.5158 15.2136 18.319 15.1398 18.0239 14.9922C17.7287 14.8446 16.2777 14.1305 16.0072 14.0321C15.7366 13.9337 15.5398 13.8845 15.343 14.18C15.1462 14.4752 14.5809 15.1398 14.4088 15.3366C14.2366 15.5338 14.0644 15.5584 13.7692 15.4108C13.474 15.2628 12.5235 14.9515 11.3959 13.946C10.5185 13.1638 9.92613 12.1977 9.75394 11.9023C9.58176 11.6071 9.73549 11.4472 9.88355 11.3001C10.0161 11.1679 10.1787 10.9555 10.3263 10.7832C10.4736 10.6109 10.5228 10.4879 10.6212 10.2911C10.7196 10.094 10.6704 9.92168 10.5966 9.77409C10.5228 9.62651 9.94919 8.16698 9.68676 7.5834Z" fill="white"/>
<path d="M20.9943 4.17506C18.764 1.94328 15.7985 0.713555 12.6389 0.712158C6.12806 0.712158 0.829559 6.00897 0.826941 12.5195C0.826174 14.6007 1.36994 16.6321 2.4035 18.4228L0.727783 24.5415L6.98943 22.8996C8.71466 23.8404 10.6571 24.3362 12.6338 24.337H12.6389H12.6389C19.1487 24.337 24.448 19.0393 24.4507 12.529C24.4518 9.37378 23.2242 6.407 20.9943 4.17506ZM12.6389 22.3428H12.6351C10.8731 22.3418 9.14528 21.8688 7.6382 20.9745L7.27953 20.7619L3.56374 21.7361L4.5558 18.1146L4.32212 17.7433C3.33929 16.1806 2.82044 14.3746 2.82121 12.5203C2.82335 7.10896 7.22726 2.70658 12.6426 2.70658C15.265 2.70766 17.7297 3.72984 19.5835 5.58483C21.4371 7.43981 22.4571 9.90572 22.4563 12.5283C22.454 17.9398 18.0499 22.3428 12.6389 22.3428Z" fill="white"/>
</g>
<defs>
<linearGradient id="paint0_linear_1_11037" x1="12.5893" y1="24.1292" x2="12.5893" y2="1.12479" gradientUnits="userSpaceOnUse">
<stop stop-color="#20B038"/>
<stop offset="1" stop-color="#60D66A"/>
</linearGradient>
<clipPath id="clip0_1_11037">
<rect width="24" height="24.1061" fill="white" transform="translate(0.589355 0.709961)"/>
</clipPath>
</defs>
</svg>
